<svg width="40" height="40" viewBox="0 0 40 40" fill="none" xmlns="http://www.w3.org/2000/svg">
<path d="M18.1665 3.5C10.4998 4.33334 4.33315 10.5 3.49982 18C2.49982 26.3333 7.66649 33.5 14.9998 35.8333V32C14.9998 32 14.3332 32.1667 13.4998 32.1667C11.1665 32.1667 10.1665 30.1667 9.99982 29C9.83315 28.3333 9.49982 27.8333 8.99982 27.3333C8.49982 27.1667 8.33315 27.1667 8.33315 27C8.33315 26.6667 8.83315 26.6667 8.99982 26.6667C9.99982 26.6667 10.8332 27.8333 11.1665 28.3333C11.9998 29.6667 12.9998 30 13.4998 30C14.1665 30 14.6665 29.8333 14.9998 29.6667C15.1665 28.5 15.6665 27.3333 16.6665 26.6667C12.8332 25.8333 9.99982 23.6667 9.99982 20C9.99982 18.1667 10.8332 16.3333 11.9998 15C11.8332 14.6667 11.6665 13.8333 11.6665 12.6667C11.6665 12 11.6665 11 12.1665 10C12.1665 10 14.4998 10 16.8332 12.1667C17.6665 11.8333 18.8332 11.6667 19.9998 11.6667C21.1665 11.6667 22.3332 11.8333 23.3332 12.1667C25.4998 10 27.9998 10 27.9998 10C28.3332 11 28.3332 12 28.3332 12.6667C28.3332 14 28.1665 14.6667 27.9998 15C29.1665 16.3333 29.9998 18 29.9998 20C29.9998 23.6667 27.1665 25.8333 23.3332 26.6667C24.3332 27.5 24.9998 29 24.9998 30.5V36C31.8332 33.8333 36.6665 27.5 36.6665 20.1667C36.6665 10.1667 28.1665 2.33334 18.1665 3.5Z" fill="black"/>
</svg>
