<svg width="1000" height="911" viewBox="0 0 1000 911" fill="none" xmlns="http://www.w3.org/2000/svg">
<path d="M499.855 910.045C775.565 910.045 999.071 781.771 999.071 623.537C999.071 465.304 775.565 337.03 499.855 337.03C224.146 337.03 0.639648 465.304 0.639648 623.537C0.639648 781.771 224.146 910.045 499.855 910.045Z" fill="#F0F0F0"/>
<path d="M370.322 587.961C292.648 632.115 292.648 703.716 370.322 747.829C447.997 791.942 574.146 791.962 651.904 747.829C729.661 703.696 729.661 632.115 651.904 587.961C574.146 543.808 448.163 543.828 370.322 587.961Z" fill="#E0E0E0"/>
<path d="M793.586 636.996C753.648 659.665 753.648 696.426 793.586 719.095C833.524 741.764 898.281 741.764 938.219 719.095C978.157 696.426 978.157 659.665 938.219 636.996C898.281 614.327 833.462 614.307 793.586 636.996Z" fill="#E0E0E0"/>
<path d="M60.869 645.614C24.4408 666.282 24.4408 699.816 60.869 720.504C97.2972 741.192 156.405 741.192 192.812 720.504C229.22 699.816 229.24 666.282 192.812 645.614C156.384 624.947 97.2349 624.926 60.869 645.614Z" fill="#E0E0E0"/>
<path d="M846.63 119.755L833.462 112.28C833.53 111.752 833.565 111.22 833.566 110.687V106.95C833.37 103.32 832.304 99.7875 830.456 96.6396C828.608 93.4917 826.03 90.8175 822.933 88.8349C822.012 88.2288 820.977 87.8099 819.889 87.603C818.801 87.3961 817.682 87.4052 816.598 87.6299C815.643 78.1539 808.935 67.4321 800.814 62.837C792.029 57.8335 784.905 61.8771 784.905 71.8637V77.4595C784.948 80.1859 785.403 82.8908 786.255 85.4856L775.331 79.3588C772.07 77.5208 769.433 79.0116 769.433 82.7081C769.552 84.7053 770.146 86.6472 771.167 88.3779C772.188 90.1086 773.607 91.5801 775.31 92.6743L846.588 133.131C849.849 134.99 852.486 133.499 852.486 129.802C852.385 127.792 851.801 125.834 850.784 124.088C849.766 122.341 848.342 120.857 846.63 119.755Z" fill="#EBEBEB"/>
<path d="M861.063 25.8722L868.332 28.6088V12.9039C868.332 0.425709 878.426 -2.55598 889.413 3.67289C900.378 9.90176 909.267 25.0553 909.267 37.513V39.8003C910.811 39.3304 912.443 39.2112 914.041 39.4518C915.638 39.6923 917.159 40.2864 918.489 41.1891C922.651 43.8611 926.115 47.459 928.601 51.6916C931.087 55.9242 932.525 60.6727 932.798 65.5531V66.5334L942.913 72.2926C945.654 74.0475 947.935 76.4142 949.57 79.2001C951.205 81.986 952.147 85.1123 952.321 88.3242C952.321 94.2264 948.167 96.6158 942.913 93.675L861.063 47.2546C858.319 45.4977 856.037 43.1277 854.402 40.338C852.767 37.5483 851.826 34.4179 851.655 31.2025C851.655 25.3003 855.871 22.9109 861.063 25.8722Z" fill="#EBEBEB"/>
<path d="M174.14 119.755L187.287 112.28C187.219 111.752 187.185 111.22 187.183 110.687V106.95C187.38 103.32 188.445 99.7876 190.293 96.6397C192.141 93.4919 194.719 90.8177 197.817 88.835C199.649 87.6379 201.89 87.2045 204.047 87.6301C205.003 78.154 211.69 67.4322 219.831 62.8371C228.617 57.8336 235.719 61.8773 235.719 71.8639V77.4596C235.684 80.185 235.236 82.89 234.39 85.4857L245.315 79.3589C248.555 77.5209 251.213 79.0117 251.213 82.7082C251.099 84.7202 250.505 86.6777 249.481 88.423C248.456 90.1683 247.029 91.6525 245.315 92.7561L174.14 133.131C170.88 134.99 168.242 133.499 168.242 129.803C168.348 127.789 168.938 125.828 169.963 124.082C170.989 122.335 172.42 120.852 174.14 119.755Z" fill="#EBEBEB"/>
<path d="M159.686 25.8723L152.438 28.6089V12.904C152.438 0.425831 142.344 -2.55586 131.357 3.67301C120.392 9.90188 111.503 25.0554 111.503 37.5131V39.8005C109.959 39.3305 108.327 39.2113 106.73 39.4519C105.132 39.6925 103.611 40.2865 102.281 41.1892C98.1158 43.8576 94.649 47.4546 92.1626 51.688C89.6763 55.9214 88.2404 60.6717 87.9717 65.5533V66.5335L77.8574 72.2927C75.1161 74.0476 72.8352 76.4144 71.2003 79.2003C69.5653 81.9862 68.6227 85.1124 68.4492 88.3244C68.4492 94.2265 72.6029 96.6159 77.8574 93.6751L159.686 47.2138C162.434 45.4592 164.72 43.0902 166.359 40.3004C167.998 37.5105 168.942 34.379 169.115 31.1617C169.115 25.3005 164.899 22.911 159.686 25.8723Z" fill="#EBEBEB"/>
<path d="M931.739 652.517L925.509 644.94C919.589 627.116 917.516 608.273 919.424 589.616C923.432 555.592 939.361 543.318 950.577 547.055C958.884 549.833 961.376 559.166 947.96 578.669C940.005 590.167 929.538 622.659 931.739 652.517Z" fill="#818DFF"/>
<path opacity="0.15" d="M931.739 652.517L925.509 644.94C919.589 627.116 917.516 608.273 919.424 589.616C923.432 555.592 939.361 543.318 950.577 547.055C958.884 549.833 961.376 559.166 947.96 578.669C940.005 590.167 929.538 622.659 931.739 652.517Z" fill="black"/>
<path d="M928.064 631.359H928.168C928.262 631.343 928.351 631.307 928.43 631.255C928.51 631.204 928.578 631.137 928.63 631.058C928.682 630.98 928.718 630.892 928.735 630.8C928.752 630.708 928.75 630.613 928.729 630.522C922.498 600.644 932.758 566.865 945.759 552.712C945.823 552.641 945.872 552.558 945.904 552.469C945.936 552.379 945.949 552.284 945.943 552.189C945.937 552.094 945.913 552.001 945.87 551.916C945.828 551.831 945.769 551.754 945.697 551.691C945.625 551.628 945.54 551.58 945.449 551.549C945.358 551.518 945.261 551.505 945.165 551.51C945.068 551.516 944.974 551.54 944.887 551.582C944.8 551.623 944.722 551.681 944.658 551.752C931.429 566.171 921.044 600.501 927.296 630.808C927.339 630.973 927.439 631.119 927.579 631.219C927.72 631.32 927.891 631.37 928.064 631.359Z" fill="white"/>
<path d="M929.747 655.58C930.536 656.357 931.304 657.623 932.26 658.174C933.215 658.726 933.983 657.357 934.71 658.583C935.105 659.236 935.167 660.135 935.832 660.625C936.176 660.783 936.561 660.83 936.934 660.761C937.307 660.691 937.648 660.508 937.909 660.237C938.425 659.641 938.87 658.99 939.238 658.297C940.235 657.029 941.488 655.978 942.917 655.208C944.346 654.438 945.922 653.967 947.545 653.824C951.116 653.401 954.649 652.719 958.117 651.782C959.674 651.313 961.065 650.419 962.127 649.205C963.19 647.99 963.88 646.505 964.119 644.92C964.285 642.551 962.852 640.958 961.627 638.507C960.214 635.689 961.834 633.197 963.932 631.38C966.029 629.562 970.266 628.112 972.883 626.662C975.5 625.212 979.675 622.23 980.235 619.33C981.627 612.203 974.005 611.815 973.714 606.771C973.568 603.401 976.123 600.521 976.871 597.233C977.618 593.945 977.785 590.596 975.438 588.431C973.091 586.266 968.958 586.532 965.863 587.41C962.047 588.681 958.52 590.672 955.479 593.271C951.845 596.151 949.415 598.132 944.991 596.376C938.76 593.904 932.758 598.785 933.049 607.424C933.153 610.814 934.357 614.245 932.654 617.186C931.097 619.821 926.631 619.78 924.347 621.842C922.803 623.338 921.626 625.16 920.906 627.17C920.187 629.181 919.943 631.326 920.193 633.442C920.692 640.733 924.43 650.332 929.747 655.58Z" fill="#818DFF"/>
<path d="M933.153 660.094C933.053 660.105 932.952 660.096 932.855 660.068C932.759 660.04 932.669 659.993 932.592 659.931C932.514 659.868 932.45 659.79 932.404 659.702C932.358 659.614 932.33 659.518 932.322 659.42C929.768 633.994 951.18 602.972 967.629 592.026C967.795 591.914 967.999 591.87 968.197 591.905C968.395 591.939 968.571 592.049 968.688 592.209C968.746 592.29 968.787 592.382 968.808 592.479C968.829 592.576 968.829 592.676 968.81 592.774C968.791 592.871 968.751 592.963 968.695 593.045C968.638 593.127 968.565 593.197 968.48 593.251C952.343 604.095 931.346 634.484 933.817 659.359C933.819 659.54 933.751 659.716 933.629 659.852C933.506 659.987 933.336 660.074 933.153 660.094Z" fill="#FAFAFA"/>
<path d="M942.644 623.068C942.508 623.078 942.371 623.054 942.247 622.996C942.124 622.939 942.017 622.851 941.938 622.741C941.885 622.66 941.848 622.568 941.83 622.473C941.813 622.377 941.815 622.279 941.836 622.184C941.857 622.089 941.897 621.999 941.954 621.919C942.011 621.84 942.083 621.772 942.167 621.72C951.533 615.777 962.354 613.674 969.727 616.349C969.829 616.374 969.925 616.419 970.008 616.483C970.092 616.547 970.16 616.627 970.21 616.719C970.259 616.811 970.288 616.912 970.295 617.015C970.302 617.119 970.286 617.223 970.249 617.32C970.212 617.417 970.155 617.506 970.081 617.579C970.007 617.653 969.917 617.711 969.819 617.748C969.721 617.786 969.615 617.803 969.51 617.797C969.404 617.792 969.301 617.765 969.208 617.717C962.271 615.205 951.97 617.248 942.977 622.945C942.874 623.004 942.761 623.045 942.644 623.068Z" fill="#FAFAFA"/>
<path d="M74.0578 660.543L78.8969 652.068C81.6764 633.514 80.488 614.595 75.4078 596.519C65.6465 563.638 47.8478 554.162 37.4842 559.758C29.7998 563.843 28.9068 573.482 45.4594 590.392C55.2622 600.46 71.1294 630.767 74.0578 660.543Z" fill="#818DFF"/>
<path opacity="0.15" d="M74.0578 660.543L78.8969 652.068C81.6764 633.514 80.488 614.595 75.4078 596.519C65.6465 563.638 47.8478 554.162 37.4842 559.758C29.7998 563.843 28.9068 573.482 45.4594 590.392C55.2622 600.46 71.1294 630.767 74.0578 660.543Z" fill="black"/>
<path d="M74.0782 639.1C73.9792 639.102 73.8807 639.085 73.7887 639.049C73.6967 639.013 73.6131 638.959 73.5431 638.891C73.4731 638.822 73.4181 638.739 73.3816 638.649C73.345 638.559 73.3277 638.462 73.3305 638.364C74.3067 607.894 58.481 576.28 43.2575 564.455C43.1891 564.39 43.1346 564.313 43.0974 564.227C43.0602 564.141 43.041 564.048 43.041 563.955C43.041 563.861 43.0602 563.769 43.0974 563.683C43.1346 563.597 43.1891 563.519 43.2575 563.455C43.3763 563.306 43.55 563.21 43.7407 563.187C43.9314 563.164 44.1235 563.216 44.2752 563.332C59.7686 575.361 75.8851 607.485 74.8882 638.405C74.886 638.505 74.8627 638.603 74.8198 638.693C74.7769 638.783 74.7154 638.863 74.6391 638.928C74.5629 638.994 74.4736 639.043 74.377 639.072C74.2805 639.102 74.1787 639.111 74.0782 639.1Z" fill="white"/>
<path d="M72.1669 666.956C71.6269 668.385 70.9207 668.222 69.4669 667.773C68.387 667.446 67.3901 666.915 66.2893 666.609C64.1705 665.973 62.0133 665.468 59.8303 665.097C55.8635 664.423 51.8344 664.73 47.9091 664.056C46.2918 663.857 44.7654 663.209 43.5078 662.19C42.2502 661.17 41.3133 659.82 40.8062 658.297C40.2455 655.989 41.3877 654.212 42.1769 651.578C43.0908 648.555 41.0762 646.349 38.6878 644.92C36.2994 643.49 31.8757 642.755 29.0512 641.754C26.2266 640.754 21.616 638.507 20.5568 635.73C17.9607 628.929 25.4582 627.295 24.8351 622.271C24.4198 618.922 21.3875 616.512 20.0999 613.408C18.8122 610.304 18.023 606.995 20.0999 604.463C22.1768 601.931 26.1436 601.543 29.3627 601.89C33.3675 602.499 37.2085 603.887 40.6608 605.974C44.8146 608.2 47.4937 609.752 51.5436 607.281C57.2134 603.83 64.0048 607.649 65.2094 616.206C65.6663 619.576 65.064 623.149 67.2862 625.764C69.5085 628.378 73.6622 627.336 76.279 628.99C78.0359 630.224 79.4851 631.834 80.5176 633.698C81.55 635.562 82.1389 637.633 82.2397 639.753C82.9666 647.085 80.9935 657.153 76.6529 663.219C76.0833 664.284 75.386 665.278 74.576 666.18C73.8284 666.752 72.6653 665.69 72.1669 666.956Z" fill="#818DFF"/>
<path d="M74.0577 668.243C74.2579 668.227 74.4439 668.135 74.5759 667.986C74.7079 667.837 74.7754 667.643 74.7639 667.446C72.9155 641.959 46.5185 614.919 28.4083 606.75C28.3184 606.709 28.2211 606.687 28.1221 606.683C28.0231 606.679 27.9244 606.695 27.8316 606.729C27.7389 606.763 27.654 606.815 27.5818 606.882C27.5097 606.949 27.4517 607.029 27.4114 607.118C27.3664 607.207 27.3405 607.305 27.3351 607.404C27.3296 607.504 27.3449 607.604 27.3798 607.697C27.4148 607.791 27.4688 607.876 27.5385 607.949C27.6082 608.021 27.6921 608.079 27.7852 608.119C45.5424 616.124 71.3994 642.612 73.227 667.548C73.2349 667.648 73.2626 667.744 73.3087 667.833C73.3548 667.922 73.4182 668.001 73.4954 668.065C73.5727 668.13 73.6621 668.179 73.7586 668.209C73.8551 668.24 73.9568 668.251 74.0577 668.243Z" fill="#FAFAFA"/>
<path d="M58.2939 633.32C58.4279 633.312 58.5571 633.268 58.667 633.192C58.777 633.116 58.8635 633.012 58.917 632.891C58.9576 632.803 58.9797 632.708 58.9817 632.611C58.9837 632.514 58.9658 632.418 58.9289 632.328C58.892 632.238 58.8369 632.157 58.767 632.089C58.6972 632.021 58.6139 631.967 58.5224 631.931C48.2627 627.602 37.2553 627.316 30.4432 631.176C30.3488 631.219 30.2646 631.281 30.1959 631.357C30.1273 631.434 30.0757 631.524 30.0444 631.622C30.0131 631.719 30.0029 631.822 30.0143 631.924C30.0258 632.025 30.0586 632.124 30.1109 632.212C30.1631 632.3 30.2335 632.377 30.3176 632.437C30.4017 632.497 30.4976 632.54 30.5992 632.561C30.7009 632.583 30.806 632.584 30.9079 632.563C31.0097 632.542 31.1061 632.501 31.1908 632.442C37.5876 628.807 48.0965 629.133 57.9408 633.259C58.048 633.318 58.1726 633.34 58.2939 633.32Z" fill="#FAFAFA"/>
<path d="M582.618 664.771C572.587 646.39 578.464 625.682 587.104 611.141C596.221 595.702 584.549 585.572 572.732 597.213C560.915 608.854 561.372 638.548 575.245 661.768L582.618 664.771Z" fill="#37474F"/>
<path d="M575.639 658.297C575.535 658.296 575.434 658.264 575.349 658.205C575.264 658.147 575.199 658.065 575.161 657.97C563.365 629.134 571.88 606.71 578.775 598.01C578.822 597.961 578.878 597.922 578.94 597.895C579.003 597.869 579.07 597.855 579.139 597.855C579.207 597.855 579.274 597.869 579.337 597.895C579.399 597.922 579.455 597.961 579.502 598.01C579.597 598.105 579.65 598.233 579.65 598.367C579.65 598.501 579.597 598.629 579.502 598.724C578.754 599.664 561.454 622.088 576.013 657.664C576.04 657.725 576.055 657.792 576.056 657.859C576.058 657.926 576.045 657.993 576.02 658.056C575.995 658.119 575.958 658.176 575.91 658.224C575.863 658.272 575.806 658.311 575.743 658.338L575.639 658.297Z" fill="#FAFAFA"/>
<path d="M577.508 658.644C574.58 647.269 582.721 628.419 595.099 620.495C606.231 613.388 612.794 613.878 616.013 617.86C619.232 621.843 614.206 627.847 605.629 632.952C597.051 638.058 583.095 649.29 582.617 662.197L577.508 658.644Z" fill="#455A64"/>
<path d="M579.46 658.256C579.326 658.236 579.205 658.165 579.123 658.058C579.042 657.951 579.006 657.817 579.024 657.684C581.516 639.733 596.844 622.966 608.848 619.78C608.915 619.762 608.985 619.756 609.053 619.765C609.122 619.774 609.189 619.796 609.249 619.83C609.309 619.864 609.361 619.91 609.403 619.965C609.445 620.019 609.475 620.081 609.492 620.148C609.523 620.277 609.502 620.414 609.432 620.529C609.362 620.643 609.249 620.727 609.118 620.76C597.404 623.783 582.492 640.264 580.042 657.827C580.034 657.894 580.013 657.958 579.979 658.016C579.945 658.074 579.9 658.125 579.845 658.165C579.791 658.206 579.729 658.234 579.662 658.25C579.596 658.265 579.527 658.268 579.46 658.256Z" fill="#FAFAFA"/>
<path d="M438.608 665.302C448.639 646.921 442.762 626.193 434.143 611.652C425.005 596.233 436.697 586.103 448.494 597.744C460.291 609.385 459.875 639.079 445.981 662.3L438.608 665.302Z" fill="#37474F"/>
<path d="M445.585 658.787H445.398C445.333 658.762 445.274 658.725 445.225 658.678C445.175 658.63 445.135 658.573 445.108 658.51C445.081 658.447 445.067 658.38 445.067 658.312C445.067 658.243 445.08 658.176 445.107 658.113C459.645 622.537 442.366 600.113 441.618 599.174C441.523 599.078 441.47 598.95 441.47 598.816C441.47 598.683 441.523 598.554 441.618 598.459C441.665 598.41 441.721 598.371 441.784 598.344C441.846 598.318 441.914 598.304 441.982 598.304C442.05 598.304 442.117 598.318 442.18 598.344C442.242 598.371 442.298 598.41 442.345 598.459C449.24 607.159 457.776 629.583 445.959 658.419C445.936 658.508 445.889 658.589 445.823 658.653C445.757 658.718 445.675 658.764 445.585 658.787Z" fill="#FAFAFA"/>
<path d="M443.717 659.175C446.666 647.8 438.525 628.929 426.146 621.026C414.994 613.898 408.452 614.409 405.212 618.391C401.972 622.374 407.018 628.378 415.596 633.483C424.173 638.589 438.109 649.821 438.587 662.728L443.717 659.175Z" fill="#455A64"/>
<path d="M441.785 658.787C441.658 658.788 441.534 658.743 441.438 658.66C441.343 658.577 441.281 658.462 441.266 658.338C438.815 640.795 423.903 624.314 412.19 621.291C412.116 621.284 412.044 621.261 411.98 621.224C411.915 621.187 411.86 621.137 411.817 621.077C411.774 621.017 411.745 620.949 411.731 620.877C411.718 620.805 411.72 620.731 411.738 620.659C411.756 620.588 411.79 620.522 411.836 620.465C411.883 620.407 411.941 620.361 412.008 620.328C412.074 620.295 412.147 620.276 412.222 620.273C412.296 620.27 412.37 620.283 412.439 620.311C424.464 623.395 439.771 640.264 442.284 658.215C442.296 658.35 442.255 658.484 442.17 658.59C442.085 658.696 441.963 658.767 441.827 658.787H441.785Z" fill="#FAFAFA"/>
<path d="M578.776 680.761C579.503 679.735 580.162 678.664 580.749 677.555C580.915 677.269 581.06 676.983 581.206 676.677C581.667 675.763 582.07 674.822 582.41 673.858L582.743 672.98C583.127 671.81 583.433 670.616 583.656 669.406C583.854 668.197 583.958 666.975 583.968 665.751C583.968 665.404 583.968 665.036 583.968 664.668C583.95 663.821 583.881 662.975 583.76 662.136C583.76 661.687 583.636 661.258 583.553 660.808C583.386 660.012 583.179 659.195 582.93 658.378C582.805 657.99 582.701 657.582 582.556 657.173C582.155 656.01 581.669 654.877 581.102 653.783C580.915 653.415 580.687 653.089 580.479 652.721C580.037 651.907 579.552 651.116 579.025 650.352L577.987 648.943C577.717 648.596 577.509 648.249 577.218 647.901L575.931 646.533L575.245 645.777C567.213 636.701 557.295 629.424 546.16 624.438C535.025 619.451 522.932 616.871 510.696 616.871C498.461 616.871 486.368 619.451 475.232 624.438C464.097 629.424 454.179 636.701 446.147 645.777L445.587 646.39C445.15 646.901 444.714 647.411 444.299 647.861C443.884 648.31 443.759 648.596 443.489 648.963C443.219 649.331 442.824 649.821 442.534 650.27C441.952 651.108 441.433 651.965 440.934 652.823C440.789 653.13 440.581 653.416 440.436 653.701C439.855 654.823 439.355 655.983 438.941 657.173C438.816 657.52 438.733 657.888 438.629 658.235C438.361 659.088 438.14 659.953 437.964 660.829C437.964 661.237 437.819 661.625 437.757 662.034C437.632 662.932 437.57 663.831 437.528 664.73C437.528 665.056 437.528 665.363 437.528 665.669C437.58 668.193 438.029 670.693 438.858 673.082C438.858 673.327 439.044 673.593 439.128 673.858C439.5 674.862 439.93 675.844 440.415 676.799L440.789 677.575C441.411 678.739 442.105 679.864 442.866 680.945C442.855 680.992 442.855 681.041 442.866 681.088C443.775 682.35 444.76 683.557 445.815 684.703L446.043 684.927C447.027 685.962 448.086 686.983 449.221 687.991L450.031 688.665C451.069 689.543 452.108 690.401 453.354 691.238C453.645 691.442 453.915 691.667 454.226 691.871C455.701 692.892 457.259 693.913 458.962 694.853C487.518 711.089 533.936 711.089 562.493 694.853C564.175 693.893 565.712 692.913 567.187 691.892C567.54 691.667 567.831 691.422 568.163 691.197C569.305 690.38 570.365 689.563 571.382 688.706L572.275 687.95C573.343 687.022 574.362 686.04 575.328 685.009L575.661 684.682C576.702 683.557 577.673 682.37 578.568 681.129L578.776 680.761Z" fill="#818DFF"/>
<g style="mix-blend-mode:multiply" opacity="0.2">
<path d="M578.776 680.761C579.503 679.735 580.162 678.664 580.749 677.555C580.915 677.269 581.06 676.983 581.206 676.677C581.667 675.763 582.07 674.822 582.41 673.858L582.743 672.98C583.127 671.81 583.433 670.616 583.656 669.406C583.854 668.197 583.958 666.975 583.968 665.751C583.968 665.404 583.968 665.036 583.968 664.668C583.95 663.821 583.881 662.975 583.76 662.136C583.76 661.687 583.636 661.258 583.553 660.808C583.386 660.012 583.179 659.195 582.93 658.378C582.805 657.99 582.701 657.582 582.556 657.173C582.155 656.01 581.669 654.877 581.102 653.783C580.915 653.415 580.687 653.089 580.479 652.721C580.037 651.907 579.552 651.116 579.025 650.352L577.987 648.943C577.717 648.596 577.509 648.249 577.218 647.901L575.931 646.533L575.245 645.777C567.213 636.701 557.295 629.424 546.16 624.438C535.025 619.451 522.932 616.871 510.696 616.871C498.461 616.871 486.368 619.451 475.232 624.438C464.097 629.424 454.179 636.701 446.147 645.777L445.587 646.39C445.15 646.901 444.714 647.411 444.299 647.861C443.884 648.31 443.759 648.596 443.489 648.963C443.219 649.331 442.824 649.821 442.534 650.27C441.952 651.108 441.433 651.965 440.934 652.823C440.789 653.13 440.581 653.416 440.436 653.701C439.855 654.823 439.355 655.983 438.941 657.173C438.816 657.52 438.733 657.888 438.629 658.235C438.361 659.088 438.14 659.953 437.964 660.829C437.964 661.237 437.819 661.625 437.757 662.034C437.632 662.932 437.57 663.831 437.528 664.73C437.528 665.056 437.528 665.363 437.528 665.669C437.58 668.193 438.029 670.693 438.858 673.082C438.858 673.327 439.044 673.593 439.128 673.858C439.5 674.862 439.93 675.844 440.415 676.799L440.789 677.575C441.411 678.739 442.105 679.864 442.866 680.945C442.855 680.992 442.855 681.041 442.866 681.088C443.775 682.35 444.76 683.557 445.815 684.703L446.043 684.927C447.027 685.962 448.086 686.983 449.221 687.991L450.031 688.665C451.069 689.543 452.108 690.401 453.354 691.238C453.645 691.442 453.915 691.667 454.226 691.871C455.701 692.892 457.259 693.913 458.962 694.853C487.518 711.089 533.936 711.089 562.493 694.853C564.175 693.893 565.712 692.913 567.187 691.892C567.54 691.667 567.831 691.422 568.163 691.197C569.305 690.38 570.365 689.563 571.382 688.706L572.275 687.95C573.343 687.022 574.362 686.04 575.328 685.009L575.661 684.682C576.702 683.557 577.673 682.37 578.568 681.129L578.776 680.761Z" fill="black"/>
</g>
<g opacity="0.5">
<path opacity="0.5" d="M521.932 639.937C518.817 640.713 524.964 651.986 531.59 672C535.079 682.579 536.948 697.753 554.435 689.318C570.572 681.537 557.052 663.218 544.549 651.516C533.459 641.101 525.276 639.099 521.932 639.937Z" fill="#818DFF"/>
<path opacity="0.5" d="M524.82 633.034C526.461 633.871 536.575 635.178 552.858 650.128C561.601 658.174 568.434 668.344 571.695 669.651C574.955 670.959 577.219 656.887 571.695 649.862C564.843 641.202 555.556 634.712 544.986 631.196C533.709 627.867 522.099 631.645 524.82 633.034Z" fill="#818DFF"/>
<path opacity="0.5" d="M510.738 699.366C493.936 699.366 491.091 696.384 497.57 669.733C500.977 655.662 507.955 641.53 510.738 641.53C513.521 641.53 520.499 655.662 523.926 669.733C530.406 696.384 527.56 699.366 510.738 699.366Z" fill="#818DFF"/>
<path opacity="0.5" d="M499.563 639.937C502.679 640.713 496.531 651.986 489.906 672C486.417 682.579 484.548 697.753 467.06 689.318C450.923 681.537 464.443 663.218 476.946 651.516C488.037 641.101 496.22 639.099 499.563 639.937Z" fill="#818DFF"/>
<path opacity="0.5" d="M496.657 633.034C495.037 633.871 484.922 635.178 468.64 650.128C459.896 658.174 453.063 668.345 449.802 669.652C446.542 670.959 444.278 656.888 449.802 649.862C456.65 641.198 465.938 634.706 476.511 631.196C487.788 627.867 499.398 631.645 496.657 633.034Z" fill="#818DFF"/>
</g>
<path d="M510.738 555.755C508.785 555.724 506.856 556.181 505.131 557.082C504.56 557.352 504.059 557.745 503.667 558.234C503.274 558.722 503.001 559.292 502.867 559.901C501.455 592.883 498.838 608.915 488.121 626.376C488.121 629.664 490.323 632.952 494.767 635.464C499.686 638.054 505.201 639.355 510.78 639.242C516.365 639.358 521.887 638.057 526.813 635.464C531.258 632.952 533.459 629.664 533.459 626.376C522.742 608.854 520.126 592.883 518.713 559.901C518.579 559.292 518.306 558.722 517.913 558.234C517.521 557.745 517.02 557.352 516.449 557.082C514.693 556.165 512.726 555.707 510.738 555.755Z" fill="#818DFF"/>
<g style="mix-blend-mode:multiply" opacity="0.3">
<path d="M510.738 555.755C508.785 555.724 506.856 556.181 505.131 557.082C504.56 557.352 504.059 557.745 503.667 558.234C503.274 558.722 503.001 559.292 502.867 559.901C501.455 592.883 498.838 608.915 488.121 626.376C488.121 629.664 490.323 632.952 494.767 635.464C499.686 638.054 505.201 639.355 510.78 639.242C516.365 639.358 521.887 638.057 526.813 635.464C531.258 632.952 533.459 629.664 533.459 626.376C522.742 608.854 520.126 592.883 518.713 559.901C518.579 559.292 518.306 558.722 517.913 558.234C517.521 557.745 517.02 557.352 516.449 557.082C514.693 556.165 512.726 555.707 510.738 555.755Z" fill="black"/>
</g>
<g style="mix-blend-mode:multiply" opacity="0.15">
<path d="M518.818 563.25C513.439 563.454 508.059 563.454 502.68 563.25C502.203 573.584 501.58 583.673 500.604 593.19C507.333 593.067 514.055 592.672 520.77 592.005C519.856 582.876 519.275 573.175 518.818 563.25Z" fill="black"/>
</g>
<g style="mix-blend-mode:multiply" opacity="0.15">
<path d="M469.803 684.907C446.002 670.264 447.684 644.062 463.468 630.787C457.043 634.982 451.224 640.011 446.168 645.737L445.607 646.349C445.171 646.86 444.735 647.37 444.319 647.82C443.904 648.269 443.779 648.555 443.509 648.923C443.239 649.29 442.845 649.78 442.554 650.23C441.973 651.067 441.453 651.925 440.955 652.782C440.81 653.089 440.602 653.375 440.456 653.661C439.876 654.782 439.376 655.942 438.961 657.132C438.837 657.48 438.753 657.847 438.629 658.194C438.38 659.073 438.151 659.93 437.985 660.788C437.985 661.196 437.84 661.585 437.777 661.993C437.653 662.892 437.59 663.79 437.549 664.689C437.549 665.016 437.549 665.322 437.549 665.628C437.59 668.165 438.031 670.679 438.857 673.082C438.857 673.327 439.044 673.593 439.127 673.858C439.5 674.862 439.93 675.844 440.415 676.799L440.789 677.575C441.411 678.739 442.104 679.864 442.866 680.945C442.855 680.992 442.855 681.041 442.866 681.088C443.775 682.35 444.759 683.557 445.815 684.703L446.043 684.927C447.026 685.962 448.085 686.983 449.221 687.991L450.031 688.665C451.069 689.543 452.108 690.401 453.354 691.238C453.645 691.442 453.915 691.667 454.226 691.871C455.701 692.892 457.258 693.913 458.961 694.853C487.518 711.089 533.936 711.089 562.493 694.853C564.175 693.893 565.712 692.913 567.187 691.892C567.54 691.667 567.831 691.422 568.163 691.197C569.305 690.38 570.364 689.563 571.382 688.706L572.275 687.95C573.343 687.022 574.362 686.04 575.328 685.009L575.66 684.682C545.94 705.37 493.624 699.632 469.803 684.907Z" fill="black"/>
</g>
<path d="M674.665 472.942C653.082 494.157 627.46 510.985 599.264 522.463C571.067 533.942 540.848 539.847 510.33 539.841C448.698 539.83 389.594 515.743 346.022 472.881C302.449 430.018 277.977 371.89 277.989 311.285C278 250.679 302.495 192.561 346.084 149.715L331.089 134.99C226.602 237.736 216.633 394.581 321.183 497.326C425.732 600.072 584.944 590.208 689.535 487.462L674.665 472.942Z" fill="#37474F"/>
<path d="M315.119 152.002L330.28 166.91C335.253 160.922 340.528 155.183 346.085 149.714L331.09 134.99C325.483 140.504 320.159 146.174 315.119 152.002Z" fill="#263238"/>
<path d="M674.665 472.942C669.152 478.365 663.364 483.511 657.323 488.361L672.381 503.167C678.237 498.225 683.956 493.024 689.535 487.564L674.665 472.942Z" fill="#263238"/>
<path d="M257.361 333.68C264.069 387.698 283.841 450.416 337.071 496.407C382.429 535.577 451.797 577.158 558.61 561.759C476.075 582.304 387.559 562.556 321.183 497.285C219.79 397.583 226.125 247.007 322.034 144.282C318.088 148.959 245.253 236.285 257.361 333.68Z" fill="#455A64"/>
<path d="M697.821 508.436C700.43 508.442 702.981 507.685 705.152 506.263C707.322 504.841 709.015 502.816 710.014 500.447C711.013 498.078 711.273 495.47 710.763 492.954C710.252 490.439 708.994 488.129 707.146 486.318L332.231 117.917C329.752 115.479 326.39 114.11 322.885 114.11C319.38 114.11 316.018 115.479 313.539 117.917C311.06 120.354 309.668 123.66 309.668 127.107C309.668 130.554 311.06 133.859 313.539 136.297L688.496 504.658C690.975 507.079 694.328 508.437 697.821 508.436Z" fill="#37474F"/>
<path d="M332.233 117.917L707.148 486.319C708.927 488.078 710.156 490.302 710.689 492.727C711.223 495.152 711.039 497.676 710.16 500.002C707.864 500.771 705.394 500.885 703.034 500.332C700.675 499.78 698.523 498.582 696.826 496.877L321.911 128.475C320.128 126.718 318.896 124.494 318.362 122.068C317.828 119.642 318.015 117.117 318.9 114.792C321.199 114.054 323.661 113.956 326.014 114.507C328.367 115.058 330.519 116.238 332.233 117.917Z" fill="#455A64"/>
<path d="M295.016 311.297C295.021 358.677 311.183 404.687 340.918 441.969C370.653 479.25 412.242 505.65 459.035 516.947C505.828 528.244 555.122 523.785 599.034 504.283C642.946 484.781 678.94 451.363 701.258 409.373C723.577 367.383 730.932 319.246 722.147 272.66C713.362 226.074 688.944 183.731 652.799 152.401C616.654 121.072 570.869 102.565 522.766 99.8421C474.662 97.1188 427.02 110.336 387.457 137.379C358.921 156.883 335.609 182.888 319.512 213.173C303.415 243.459 295.01 277.125 295.016 311.297Z" fill="#818DFF"/>
<path opacity="0.5" d="M295.016 311.297C295.021 358.677 311.183 404.687 340.918 441.969C370.653 479.25 412.242 505.65 459.035 516.947C505.828 528.244 555.122 523.785 599.034 504.283C642.946 484.781 678.94 451.363 701.258 409.373C723.577 367.383 730.932 319.246 722.147 272.66C713.362 226.074 688.944 183.731 652.799 152.401C616.654 121.072 570.869 102.565 522.766 99.8421C474.662 97.1188 427.02 110.336 387.457 137.379C358.921 156.883 335.609 182.888 319.512 213.173C303.415 243.459 295.01 277.125 295.016 311.297Z" fill="white"/>
<path d="M554.767 134.091C545.546 130.64 532.524 129.21 538.941 137.665C545.359 146.12 550.593 148.734 547.955 155.392C545.317 162.05 538.09 167.278 538.339 172.833C538.588 178.388 539.938 185.27 544.051 185.086C548.163 184.902 561.953 178.163 567.187 180.777C572.421 183.391 590.593 191.499 595.702 186.597C600.811 181.696 603.387 183.207 610.51 178.326C617.634 173.445 620.895 164.541 615.599 162.376C610.302 160.212 608.579 162.193 599.794 157.986C591.008 153.779 589.222 146.263 579.773 144.343C570.323 142.424 561.517 136.624 554.767 134.091Z" fill="#455A64"/>
<path d="M519.856 123.063C507.27 124.431 482.078 124.043 473.085 117.304C468.641 113.934 463.469 109.605 457.55 105.929C407.22 118.485 363.174 148.449 333.479 190.335C333.874 196.227 335.025 202.046 336.905 207.653C341.059 219.907 348.806 224.298 358.069 230.118C367.331 235.938 361.932 240.329 364.486 248.028C367.041 255.728 367.768 259.996 372.15 265.326C376.532 270.657 366.501 273.495 361.765 279.03C357.03 284.564 354.87 287.832 354.247 302.577C353.624 317.322 362.721 333.088 364.631 339.664C366.542 346.24 357.487 349.406 354.912 360.557C352.336 371.707 340.498 399.359 344.361 419.006C348.224 438.652 355.078 439.265 358.546 428.38C362.015 417.495 362.7 406.16 372.046 400.687C381.392 395.214 393.23 402.259 403.407 389.454C413.583 376.65 416.034 378.426 424.861 376.2C433.687 373.974 432.358 368.542 443.241 359.862C454.124 351.183 460.313 341.359 452.815 333.068C445.318 324.776 438.9 322.857 435.286 308.745C431.23 294.015 424.085 280.283 414.31 268.431C405.213 257.648 383.676 257.954 377.155 252.95C370.634 247.947 371.61 232.324 374.247 227.177C376.885 222.031 371.984 218.498 366.148 217.701C360.312 216.905 358.733 212.432 360.104 204.876C361.475 197.319 376.096 192.867 385.317 195.726C394.538 198.586 397.778 204.549 394.85 216.598C393.536 221.405 393.787 226.496 395.568 231.156C397.348 235.816 400.569 239.809 404.777 242.576C412.212 247.845 410.489 237.368 406.979 229.301C403.469 221.234 405.213 215.822 414.809 204.794C424.404 193.766 434.871 199.035 447.727 190.498C460.583 181.962 458.568 191.397 466.273 195.767C473.978 200.138 474.581 195.338 480.52 189.212C486.46 183.085 494.352 193.48 505.318 190.886C516.284 188.293 502.224 172.016 506.668 164.337C511.113 156.658 519.129 160.253 519.503 146.426C519.877 132.6 526.315 134.581 531.383 131.355C536.45 128.128 532.317 121.674 519.856 123.063ZM495.785 147.713C490.676 152.594 488.807 150.531 481.725 155.31C474.643 160.089 466.252 160.988 461.559 159.762C456.865 158.537 452.711 147.836 454.29 142.853C455.868 137.869 463.573 139.238 472.005 141.362C480.437 143.486 488.62 142.75 498.257 140.014C505.754 137.829 500.832 142.832 495.723 147.713H495.785Z" fill="#455A64"/>
<path d="M715.788 374.914L715.621 375.485C713.55 375.47 711.498 375.872 709.591 376.666C707.684 377.459 705.962 378.628 704.531 380.101C695.538 389.271 696.66 384.185 682.952 387.371C669.245 390.557 670.927 398.093 668.414 405.752C665.901 413.41 650.138 417.045 642.952 417.29C635.766 417.535 626.129 433.506 624.759 442.553C623.388 451.6 611.944 451.028 602.702 456.154C593.46 461.28 584.8 472.492 578.299 476.985C575.119 479.249 571.342 480.561 567.422 480.764C563.502 480.967 559.605 480.052 556.201 478.129C549.389 474.044 547.458 459.483 547.707 447.618C547.844 435.51 551.443 423.684 558.091 413.492C564.924 403.178 563.554 404.24 567.977 385.676C572.401 367.112 561.954 356.942 555.765 352.551C549.576 348.16 536.596 347.609 531.902 341.686C527.208 335.764 526.648 329.616 529.389 311.542C532.131 293.468 541.85 292.999 552.027 286.668C562.203 280.337 578.715 276.007 591.487 277.416C604.26 278.826 610.844 284.891 616.41 291.12C621.976 297.349 622.183 306.335 626.96 308.826C631.737 311.318 637.074 310.46 641.706 313.38C646.337 316.301 648.705 320.018 653.897 321.121C659.089 322.223 658.258 315.504 658.798 312.176C659.338 308.847 654.645 307.907 648.767 305.559C642.89 303.21 642.1 301.045 641.56 296.409C641.021 291.773 636.327 293.795 634.146 291.12C631.965 288.445 629.639 295.715 628.289 298.329C626.939 300.943 626.732 295.307 626.732 295.307C626.732 295.307 622.806 298.084 622.453 295.96C622.1 293.836 626.171 290.671 627.562 286.321C628.954 281.971 622.349 280.521 619.795 275.742C617.24 270.963 612.048 268.369 606.067 268.022C600.086 267.675 599.629 265.98 595.433 269.697C591.238 273.414 578.486 271.923 575.101 269.901C571.716 267.879 577.178 261.589 582.972 256.402C588.767 251.214 594.249 255.891 600.895 250.99C607.541 246.088 602.432 243.004 599.172 240.492C595.911 237.98 596.181 234.08 603.325 227.34C610.47 220.601 614.748 224.89 615.288 229.546C615.828 234.202 619.691 237.899 624.655 239.9C629.618 241.902 629.805 238.021 632.568 230.914C635.33 223.807 640.19 221.316 647.812 221.193C655.434 221.071 668.144 220.989 673.918 218.804C679.692 216.619 686.047 222.03 688.269 227.708C690.491 233.385 698.529 238.348 706.961 243.454C708.057 244.09 709.291 244.462 710.561 244.54C711.832 244.618 713.103 244.4 714.271 243.903C728.917 286.306 729.448 332.194 715.788 374.914Z" fill="#455A64"/>
<path d="M638.984 456.828C634.436 454.092 634.228 455.848 629.846 458.482C625.463 461.117 619.461 463.772 618.693 467.979C617.924 472.186 616.263 477.189 620.77 475.617C625.277 474.044 625.547 470.123 631.154 469.878C636.762 469.633 645.775 460.913 638.984 456.828Z" fill="#455A64"/>
<path opacity="0.1" d="M633.378 157.536C520.77 71.2715 462.244 147.325 507.831 227.626C553.418 307.928 661.872 371.217 691.904 341.992C721.935 312.768 717.158 221.745 633.378 157.536Z" fill="white"/>
<path opacity="0.15" d="M416.014 388.433C349.554 269.635 415.744 115.854 522.889 99.9038C518.735 99.6587 514.582 99.4954 510.428 99.4954C474.938 99.4903 439.997 108.11 408.712 124.589C377.428 141.068 350.77 164.894 331.109 193.948C311.449 223.003 299.396 256.385 296.022 291.125C292.648 325.866 298.058 360.888 311.771 393.076C325.484 425.265 347.074 453.622 374.621 475.625C402.168 497.628 434.819 512.596 469.668 519.196C504.518 525.796 540.486 523.825 574.374 513.457C608.262 503.089 639.018 484.646 663.908 459.769C620.398 486.911 482.473 507.149 416.014 388.433Z" fill="black"/>
<path d="M846.443 673.307C846.823 672.594 847.095 671.83 847.253 671.04C847.714 668.484 847.328 665.849 846.152 663.525C844.801 660.716 844.173 657.622 844.325 654.518C844.47 651.292 844.865 648.392 845.363 644.961C847.44 630.481 851.594 606.607 851.76 600.909C852.009 591.188 852.009 586.389 850.161 578.751C850.161 578.751 857.035 556.694 859.943 544.032C864.574 523.957 867.689 508.395 866.049 490.934C864.574 475.188 866.319 468.469 856.973 457.951L855.228 455.766C855.228 455.766 822.788 490.076 820.939 496.019C819.818 515.523 819.112 538.906 818.489 557.287C817.99 572.542 818.613 574.605 820.399 592.515C821.895 607.281 823.411 623.599 825.197 640.937C825.778 646.431 826.215 653.007 824.449 658.337C820.794 669.325 810.555 675.839 801.915 682.844C801.079 683.35 800.361 684.025 799.81 684.824C799.258 685.624 798.886 686.529 798.717 687.48C798.761 688.311 799.033 689.115 799.505 689.805C799.977 690.496 800.63 691.047 801.396 691.401C803.257 692.169 805.238 692.618 807.253 692.729C809.396 693.17 811.586 693.349 813.774 693.26C817.593 693.155 821.369 692.43 824.948 691.115C827.98 689.686 830.223 686.255 832.611 683.886C834.63 681.501 836.931 679.362 839.465 677.514C841.625 676.207 845.093 675.676 846.443 673.307Z" fill="#FFA8A7"/>
<path d="M798.009 688.93C797.78 690.331 798.028 691.767 798.715 693.015C799.795 694.342 803.783 697.855 814.063 697.446C823.949 697.038 829.723 692.382 831.758 689.788C833.793 687.194 835.642 684.621 837.656 682.517C839.596 680.802 841.913 679.55 844.427 678.862C846.379 678.249 846.919 677.555 846.732 674.777C846.13 672.225 798.009 688.93 798.009 688.93Z" fill="#37474F"/>
<path d="M844.303 655.254C844.272 655.832 844.272 656.411 844.303 656.99C844.303 656.99 844.469 660.931 841.831 661.83C838.737 662.933 838.945 660.686 836.598 658.848C831.468 654.866 825.237 655.192 823.742 658.583C820.652 664.125 816.794 669.218 812.278 673.716C810.253 675.635 808.079 677.396 805.777 678.985C803.306 680.721 797.262 683.845 797.864 687.685C798.466 691.524 802.122 693.628 807.085 694.424C813.815 695.416 820.685 694.08 826.525 690.646C831.094 687.726 835.061 682.068 836.764 680.435C839.858 677.433 844.843 676.799 846.421 675.288C847.851 672.609 848.243 669.51 847.522 666.568C846.899 663.137 845.985 660.073 845.861 658.399C845.736 656.724 845.528 655.397 844.303 655.254Z" fill="#455A64"/>
<path d="M813.461 678.699C811.317 678.012 809.032 677.865 806.815 678.27C806.165 678.332 805.546 678.573 805.029 678.964C802.557 680.7 797.054 683.743 797.656 687.582C798.258 691.422 801.81 693.709 806.753 694.546C811.322 695.302 819.339 695.241 824.988 691.524C824.559 688.509 823.238 685.686 821.188 683.405C819.138 681.124 816.451 679.487 813.461 678.699Z" fill="#F0F0F0"/>
<path d="M939.236 659.134C938.551 657.266 937.384 655.606 935.851 654.314C934.21 652.803 932.383 651.516 930.908 649.862C929.689 648.16 928.737 646.287 928.084 644.307C927.585 643.122 926.36 639.14 924.802 633.851C920.648 619.8 914.023 596.477 911.718 591.229C907.793 582.325 903.95 576.565 899.008 572.542C899.008 572.542 897.844 548.219 897.388 535.332C896.723 516.278 894.459 495.733 885.134 482.418C875.996 469.408 868.228 465.201 855.227 459.504L852.714 458.237C852.714 458.237 848.353 518.361 851.053 515.747C854.5 531.289 859.069 549.526 862.87 565.476C866.297 579.874 867.211 582.529 877.408 597.723C885.716 610.12 895.539 624.885 904.594 639.875C908.52 646.39 912.902 655.131 913.816 662.83C914.988 673.244 912.174 683.713 905.923 692.198C904.975 693.166 904.376 694.415 904.22 695.751C904.22 697.61 906.297 698.815 908.063 699.427C912.514 700.88 917.343 700.75 921.708 699.06C925.374 697.598 928.5 695.071 930.668 691.815C932.835 688.56 933.94 684.732 933.836 680.843C933.411 676.428 934.298 671.987 936.391 668.058C937.658 665.873 939.423 663.77 939.548 661.237C939.569 660.524 939.464 659.812 939.236 659.134Z" fill="#FFA8A7"/>
<path d="M904.263 699.775C904.555 700.897 905.165 701.915 906.021 702.71C906.878 703.505 907.946 704.045 909.102 704.268C912.223 704.904 915.444 704.891 918.56 704.23C921.675 703.569 924.615 702.274 927.191 700.428C934.98 694.935 935.997 690.38 936.35 686.255C936.703 682.13 935.499 676.228 936.953 673.123C938.406 670.019 940.276 667.977 940.795 665.628C941.016 663.722 940.81 661.791 940.192 659.971L904.263 699.775Z" fill="#37474F"/>
<path d="M930.908 649.862C930.908 649.862 931.739 651.251 931.905 651.68C932.578 652.908 932.779 654.333 932.47 655.695C932.161 657.056 931.363 658.263 930.223 659.093C929.018 660.114 926.401 659.093 924.179 658.848C922.143 658.659 920.09 658.955 918.196 659.712C916.301 660.47 914.62 661.665 913.296 663.198C913.525 670.182 913.691 674.328 911.718 679.965C910.353 682.895 908.756 685.715 906.941 688.399C905.03 690.809 901.645 694.73 903.41 698.202C904.392 699.824 905.967 701.015 907.813 701.531C910.819 702.326 913.962 702.478 917.032 701.978C920.102 701.478 923.028 700.336 925.612 698.631C928.194 697.124 930.361 695.018 931.925 692.497C933.489 689.977 934.402 687.119 934.584 684.172C935.186 679.536 934.148 674.614 935.913 671.203C937.679 667.793 940.067 666.608 940.69 661.932C940.718 660.839 940.488 659.754 940.02 658.762C939.552 657.77 938.857 656.898 937.99 656.213C934.169 652.66 931.988 648.453 930.908 649.862Z" fill="#455A64"/>
<path d="M926.235 688.338C923.683 686.235 920.512 684.993 917.188 684.795C913.865 684.596 910.564 685.452 907.772 687.235C907.331 687.627 906.928 688.058 906.567 688.522C904.656 690.932 901.271 694.648 903.036 698.1C903.47 698.987 904.103 699.766 904.888 700.378C905.672 700.989 906.587 701.419 907.564 701.633C910.619 702.396 913.802 702.523 916.91 702.006C920.018 701.489 922.982 700.339 925.612 698.631C927.128 697.658 928.522 696.513 929.766 695.22L929.911 695.057V694.934C929.387 692.422 928.106 690.124 926.235 688.338Z" fill="#F0F0F0"/>
<path d="M820.462 497.775C818.863 521.547 817.679 552.14 817.679 552.14C817.679 552.14 823.224 558.267 838.676 559.349C854.128 560.432 856.911 559.349 856.911 559.349L858.697 553.12L860.462 560.758C860.462 560.758 867.191 563.372 881.854 560.758C898.303 557.818 900.546 551.67 900.546 551.67C900.546 551.67 900.234 527.878 899.05 514.91C897.866 501.941 888.894 480.539 888.894 480.539L820.462 497.775Z" fill="#455A64"/>
<path d="M858.695 553.12L853.399 531.493C847.935 531.455 842.562 530.117 837.739 527.592C837.739 527.592 841.062 534.087 851.426 535.394L856.493 553.12L856.909 559.349L858.695 553.12Z" fill="#37474F"/>
<path d="M782.059 360.863L794.001 392.824C794.001 392.824 826.711 408.937 841.769 414.676C837.096 417.821 833.856 422.232 830.159 430.912L827.231 439.592C827.231 439.592 797.905 423.254 781.187 411.551C773.585 406.201 772.422 400.973 771.135 395.336C769.577 388.454 768.809 384.43 766.503 371.748C765.942 368.562 765.361 365.621 764.8 362.905C763.772 358.355 762.496 353.862 760.979 349.447C759.586 345.108 759.127 340.531 759.629 336.009C759.596 332.467 760.795 329.022 763.027 326.243C765.26 323.464 768.392 321.52 771.903 320.733C772.796 320.346 773.797 320.273 774.739 320.526C775.68 320.779 776.505 321.342 777.074 322.121C777.487 323.146 777.602 324.263 777.407 325.348C777.054 329.943 776.264 334.64 777.407 339.113C777.436 339.405 777.529 339.688 777.68 339.942C777.83 340.195 778.035 340.414 778.279 340.583C779.276 341.094 780.75 337.54 781.457 336.805C782.088 335.97 783.02 335.403 784.063 335.221C785.105 335.039 786.178 335.255 787.064 335.825C787.791 336.376 786.233 338.01 785.32 341.523C784.177 346.016 784.904 349.692 782.495 354.103C781.964 355.143 781.652 356.278 781.577 357.439C781.502 358.601 781.666 359.765 782.059 360.863Z" fill="#FFA8A7"/>
<path d="M840.648 413.226L815.725 403.301C815.725 403.301 811.302 403.301 806.089 412.021C804.565 414.594 803.576 417.44 803.18 420.392C802.785 423.344 802.99 426.344 803.783 429.217L825.487 441.471L840.648 413.226Z" fill="#455A64"/>
<path d="M884.407 417.801C890.949 418.945 894.044 424.03 895.477 430.402C896.183 433.587 895.788 437.366 894.854 444.064C893.919 450.763 889.537 480.192 889.537 480.192L897.304 502.983C886.775 514.236 842.558 523.406 819.567 506.782C819.567 506.782 821.478 449.721 823.202 438.346C825.528 422.927 831.343 414.983 838.405 413.41C840.409 413.168 842.433 413.113 844.448 413.247L870.077 414.635L884.407 417.801Z" fill="#818DFF"/>
<path d="M898.386 510.642L902.291 476.801C902.291 476.801 893.318 464.548 883.952 451.825C873.09 434.69 886.319 418.291 886.319 418.291C899.632 420.558 899.196 428.502 922.228 465.692C927.088 473.534 926.382 473.861 923.828 484.603C922.249 491.485 920.982 495.366 917.265 507.742C916.33 510.825 915.499 513.725 914.772 516.38C913.632 520.905 912.738 525.486 912.093 530.104C911.358 534.598 909.69 538.894 907.192 542.725C905.552 545.618 903.157 548.029 900.255 549.71C896.802 551.195 892.982 551.649 889.269 551.017C888.312 550.942 887.409 550.552 886.705 549.911C886 549.271 885.536 548.416 885.385 547.484C885.467 546.381 885.871 545.324 886.548 544.441C888.936 540.499 891.782 536.639 892.778 532.187C892.883 531.913 892.925 531.619 892.904 531.326C892.882 531.034 892.797 530.749 892.654 530.492C892.01 529.614 889.061 532.146 888.106 532.534C887.16 533.012 886.065 533.114 885.046 532.822C884.026 532.529 883.159 531.864 882.623 530.962C882.249 530.145 884.388 529.369 886.776 526.612C889.85 523.099 890.93 519.505 895.084 516.625C896.011 515.894 896.78 514.988 897.347 513.96C897.914 512.933 898.267 511.805 898.386 510.642Z" fill="#FFA8A7"/>
<path d="M884.407 417.801C889.309 418.454 892.154 419.026 895.768 422.355C899.14 425.591 901.946 429.352 904.075 433.485L913.38 449.68C913.38 449.68 911.303 460.627 893.504 465.589C893.504 465.589 881.043 449.599 879.735 446.985C878.426 444.371 872.133 427.44 884.407 417.801Z" fill="#455A64"/>
<path d="M871.405 406.793C877.138 398.256 885.798 397.95 893.379 384.635C901.541 370.339 890.741 354.818 887.003 352.183C887.003 352.183 886.712 344.545 875.975 338.255C862.558 330.372 835.102 332.128 823.181 350.937L871.405 406.793Z" fill="#37474F"/>
<path d="M886.131 351.509C893.296 344.443 902.746 343.34 911.053 349.835C920.897 357.513 919.485 379.774 933.026 383.532C938.468 385.043 936.121 390.618 928.873 392.313C919.174 394.539 909.786 389.924 904.636 378.426C899.485 366.928 898.737 353.919 889.371 355.492C883.015 356.533 886.131 351.509 886.131 351.509Z" fill="#37474F"/>
<path d="M874.688 382.143C875.934 383.042 876.204 383.45 877.304 381.428C879.693 377.058 885.82 376.445 887.834 380.652C890.493 386.228 886.9 391.456 881.853 393.457C875.103 396.133 873.275 392.089 873.275 392.089L870.077 417.352C868.148 420.594 865.43 423.314 862.168 425.267C858.905 427.221 855.2 428.346 851.385 428.543C838.55 428.951 840.191 418.883 844.885 414.247L845.196 406.773C842.031 406.627 838.908 406.007 835.933 404.935C832.008 403.444 829.184 400.748 827.169 394.458C824.448 386.003 824.905 377.078 829.246 360.72C834.293 341.768 858.447 343.626 870.015 352.551C881.583 361.475 874.688 382.143 874.688 382.143Z" fill="#FFA8A7"/>
<path d="M877.45 370.829L879.09 353.429L854.023 336.928C849.869 336.406 845.651 336.695 841.611 337.777C837.57 338.859 833.786 340.714 830.475 343.234C827.163 345.755 824.389 348.892 822.311 352.467C820.233 356.042 818.891 359.984 818.363 364.069L817.844 368.154L833.316 370.094C836.802 370.528 840.33 369.706 843.247 367.78C846.164 365.854 848.273 362.954 849.184 359.617L848.166 371.871C851.033 372.227 853.932 371.514 856.292 369.874C858.652 368.234 860.302 365.784 860.918 363.007L861.333 360.965C861.187 364.147 862.191 367.277 864.168 369.801C866.145 372.324 868.967 374.078 872.133 374.75L871.635 381.265C871.524 382.683 871.981 384.087 872.908 385.178C873.836 386.269 875.16 386.961 876.598 387.106L877.304 381.428L880.337 371.544L877.45 370.829Z" fill="#37474F"/>
<path d="M852.153 378.14C852.119 378.652 852.239 379.162 852.498 379.607C852.757 380.052 853.143 380.413 853.608 380.644C854.074 380.875 854.598 380.966 855.116 380.906C855.633 380.847 856.122 380.638 856.52 380.308C856.919 379.977 857.21 379.538 857.357 379.047C857.503 378.555 857.5 378.031 857.347 377.541C857.193 377.051 856.897 376.616 856.494 376.291C856.091 375.965 855.6 375.763 855.081 375.71C854.727 375.679 854.369 375.718 854.03 375.823C853.69 375.929 853.375 376.1 853.103 376.326C852.831 376.552 852.607 376.828 852.444 377.14C852.281 377.451 852.182 377.791 852.153 378.14Z" fill="#263238"/>
<path d="M856.308 370.645L861.604 374.26C862.084 373.542 862.264 372.67 862.105 371.825C861.947 370.98 861.462 370.228 860.752 369.726C860.402 369.49 860.007 369.325 859.591 369.243C859.174 369.161 858.745 369.163 858.33 369.249C857.914 369.335 857.521 369.503 857.173 369.743C856.825 369.983 856.531 370.29 856.308 370.645Z" fill="#263238"/>
<path d="M853.378 391.497L842.994 394.172C843.143 394.852 843.429 395.495 843.836 396.064C844.244 396.632 844.764 397.114 845.365 397.48C845.966 397.846 846.636 398.089 847.335 398.194C848.034 398.3 848.747 398.265 849.432 398.093C850.83 397.71 852.023 396.808 852.759 395.578C853.495 394.347 853.717 392.885 853.378 391.497Z" fill="#B16668"/>
<path d="M853.193 394.662C852.553 394.26 851.817 394.029 851.059 393.991C850.3 393.953 849.544 394.109 848.866 394.445C848.187 394.781 847.609 395.284 847.188 395.906C846.767 396.527 846.517 397.246 846.464 397.991C847.439 398.278 848.479 398.278 849.455 397.991C850.305 397.774 851.089 397.358 851.74 396.778C852.391 396.198 852.889 395.472 853.193 394.662Z" fill="#F28F8F"/>
<path d="M829.308 367.602L835.538 366.05C835.459 365.639 835.294 365.248 835.053 364.903C834.813 364.557 834.503 364.264 834.143 364.042C833.782 363.82 833.379 363.673 832.958 363.611C832.537 363.549 832.107 363.573 831.696 363.681C830.862 363.907 830.148 364.441 829.703 365.171C829.258 365.901 829.116 366.772 829.308 367.602Z" fill="#263238"/>
<path d="M830.035 375.69C830.001 376.201 830.121 376.711 830.38 377.156C830.638 377.602 831.024 377.962 831.49 378.193C831.955 378.424 832.48 378.515 832.997 378.456C833.515 378.396 834.004 378.188 834.402 377.857C834.801 377.526 835.091 377.088 835.238 376.596C835.385 376.104 835.382 375.58 835.228 375.09C835.075 374.6 834.779 374.166 834.376 373.84C833.973 373.514 833.482 373.313 832.963 373.259C832.248 373.203 831.539 373.426 830.99 373.882C830.442 374.337 830.098 374.987 830.035 375.69Z" fill="#263238"/>
<path d="M844.448 374.505L842.226 388.311L835.103 385.104L844.448 374.505Z" fill="#F28F8F"/>
<path d="M845.216 406.813C845.216 406.813 857.948 406.813 864.033 403.77C866.497 402.671 868.64 400.978 870.263 398.849C869.469 401.159 868.139 403.256 866.38 404.975C860.045 410.959 845.092 409.734 845.092 409.734L845.216 406.813Z" fill="#F28F8F"/>
<path d="M800.627 306.927C799.502 304.616 797.925 302.546 795.987 300.834C794.048 299.123 791.786 297.804 789.329 296.952C786.872 296.101 784.268 295.734 781.667 295.872C779.065 296.01 776.517 296.65 774.168 297.757C757.179 305.742 749.702 330.883 749.702 330.883C749.702 330.883 774.313 340.93 791.239 332.925C793.592 331.824 795.701 330.279 797.446 328.377C799.192 326.474 800.539 324.253 801.41 321.838C802.282 319.424 802.662 316.864 802.527 314.306C802.393 311.747 801.747 309.24 800.627 306.927ZM775.164 318.915C774.34 317.229 774.042 315.34 774.31 313.487C774.577 311.635 775.397 309.902 776.667 308.508C777.936 307.115 779.597 306.122 781.44 305.657C783.283 305.192 785.225 305.276 787.02 305.896C788.815 306.517 790.383 307.648 791.524 309.145C792.665 310.642 793.329 312.438 793.432 314.306C793.535 316.175 793.071 318.031 792.1 319.64C791.13 321.25 789.695 322.539 787.979 323.347C786.842 323.884 785.608 324.196 784.348 324.265C783.088 324.333 781.827 324.156 780.637 323.744C779.447 323.333 778.351 322.694 777.412 321.866C776.473 321.037 775.709 320.034 775.164 318.915Z" fill="#818DFF"/>
<path d="M96.3832 661.238C98.2316 655.233 111.627 614.082 116.736 600.133C122.51 584.388 123.299 578.833 126.872 564.476C128.554 557.655 130.402 550.425 132.23 543.175C134.681 554.367 138.336 574.176 139.125 578.547C139.125 579.221 139 580.038 138.917 580.977C137.38 587.737 137.339 592.536 137.484 601.563C137.484 607.281 141.326 631.216 143.424 645.696C143.902 648.902 144.4 652.109 144.733 655.335C144.783 658.447 144.002 661.518 142.469 664.24C141.258 666.546 140.843 669.176 141.285 671.735C141.424 672.533 141.69 673.305 142.074 674.022C143.403 676.391 146.083 677.147 148.305 678.495C151.009 680.672 153.474 683.122 155.657 685.806C157.868 688.314 160.503 690.428 163.445 692.055C167.008 693.415 170.778 694.174 174.598 694.302C176.783 694.422 178.975 694.264 181.119 693.832C183.137 693.757 185.126 693.335 186.997 692.586C187.765 692.236 188.422 691.689 188.901 691.003C189.38 690.316 189.662 689.516 189.717 688.686C189.55 687.733 189.183 686.826 188.639 686.021C188.096 685.215 187.388 684.53 186.561 684.009C177.983 676.922 165.48 668.059 163.217 656.704C163.217 656.704 164.484 647.534 164.961 642.02C166.643 623.333 167.35 608.262 168.97 593.517C171.046 575.626 171.607 573.564 171.254 558.308C171.129 553.141 170.88 547.627 170.548 541.97C170.257 524.1 169.094 506.782 169.136 493.467C169.136 493.467 144.006 493.936 124.089 495.182C102.614 497.755 95.2824 502.534 95.9263 505.23C94.0958 514.718 93.0195 524.332 92.7071 533.985C92.0218 546.872 89.9449 580.426 89.9449 580.426C84.8413 589.023 81.682 598.601 80.6821 608.507C80.0798 614.184 77.7537 652.476 77.2553 655.254C76.4292 657.818 75.2332 660.253 73.7038 662.483C72.5397 664.107 71.8241 666 71.627 667.977C71.5991 668.668 71.6904 669.358 71.8969 670.019C72.6654 672.45 74.9084 674.104 76.6945 675.86C79.7209 679.149 81.6995 683.239 82.3851 687.623C83.2728 691.418 85.3176 694.855 88.246 697.475C91.1744 700.096 94.8466 701.775 98.7716 702.287C103.42 702.853 108.124 701.798 112.063 699.305C113.642 698.284 115.241 696.63 114.846 694.792C114.384 693.531 113.488 692.469 112.313 691.79C103.903 685.347 98.2325 676.058 96.4039 665.731C96.0835 664.229 96.0835 662.678 96.4039 661.176" fill="#B16668"/>
<path d="M141.493 674.818C141.493 674.818 140.808 674.818 140.891 676.493C140.853 677.233 141.027 677.968 141.395 678.615C141.762 679.261 142.307 679.793 142.968 680.149C144.401 681.17 149.51 683.212 152.708 687.358C154.951 690.278 155.927 693.485 163.425 697.345C170.922 701.204 181.701 699.673 185.44 697.814C189.178 695.956 189.988 695.2 190.196 691.912L141.493 674.818Z" fill="#263238"/>
<path d="M163.155 656.744C162.22 658.154 157.153 658.787 154.847 659.685C152.542 660.584 152.937 665.485 152.937 665.485C150.86 665.485 150.86 663.994 150.071 661.401C148.928 657.132 145.709 657.153 144.671 656.601V655.294C144.671 655.294 143.57 654.988 143.321 657.03C142.951 659.77 142.326 662.47 141.452 665.097C140.829 666.915 139.811 673.573 141.244 675.594C142.637 676.813 144.138 677.907 145.73 678.862C149.211 680.834 152.265 683.457 154.723 686.582C156.55 689.298 162.179 695.588 174.536 695.711C186.893 695.833 190.32 691.463 190.32 691.463C191.15 690.015 191.397 688.313 191.012 686.695C190.628 685.076 189.64 683.658 188.243 682.722C183.134 679.025 180.974 677.412 174.681 672.511C164.359 664.423 167.059 655.805 163.155 656.744Z" fill="#455A64"/>
<path d="M161.784 692.75C164.235 686.786 167.496 682.538 174.038 680.19C180.58 677.841 183.57 678.597 186.27 680.19C188.97 681.783 193.685 685.765 190.424 691.504C190.424 691.504 188.576 696.18 176.696 696.426C164.816 696.671 161.784 692.75 161.784 692.75Z" fill="#FAFAFA"/>
<path d="M69.8001 671.571C69.2602 673.614 68.6579 675.247 70.5894 677.514C72.5208 679.781 74.9715 681.129 76.6538 682.906C78.336 684.683 79.0006 688.604 80.0391 691.933C81.5686 696.825 84.8431 701.009 89.2604 703.716C94.411 706.514 98.5439 707.801 104.505 706.739C110.465 705.677 113.684 703.859 115.159 698.835L69.8001 671.571Z" fill="#263238"/>
<path d="M97.5259 660.482C98.4397 658.051 92.2922 661.728 85.4385 660.094C84.2132 659.808 83.6317 660.339 83.3617 661.585C83.0917 662.83 82.7802 664.158 81.2848 663.627C80.9884 663.498 80.7225 663.31 80.5044 663.074C80.2862 662.839 80.1205 662.561 80.0179 662.259C79.8249 661.646 79.6927 661.017 79.6233 660.38C79.3533 658.644 78.9172 656.091 77.2349 655.233L77.5465 653.191C77.5465 653.191 75.9473 651.741 74.9296 656.663C73.9119 661.585 68.699 664.832 69.8828 671.551C71.1254 673.75 72.7571 675.715 74.7012 677.351C78.1063 679.901 80.4534 683.58 81.3056 687.705C82.4063 692.708 87.1416 700.306 94.0575 702.287C97.7101 703.43 101.593 703.673 105.363 702.992C109.134 702.312 112.676 700.73 115.678 698.386C116.175 697.672 116.521 696.866 116.693 696.017C116.865 695.168 116.861 694.294 116.681 693.447C116.5 692.599 116.147 691.797 115.643 691.087C115.139 690.378 114.493 689.776 113.746 689.318C109.656 686.287 106.026 682.697 102.967 678.658C99.7689 674.92 96.5913 666.037 97.5259 660.482Z" fill="#455A64"/>
<path d="M86.8291 697.773C89.9859 693.015 93.932 687.562 101.367 686.01C108.802 684.458 111.98 687.664 114.493 689.768C115.17 690.245 115.738 690.857 116.159 691.563C116.581 692.27 116.847 693.056 116.941 693.87C117.035 694.683 116.955 695.508 116.705 696.289C116.455 697.071 116.041 697.792 115.49 698.406C113.471 700.428 111.015 701.976 108.303 702.934C105.592 703.892 102.696 704.236 99.8303 703.941C97.3556 703.812 94.9318 703.2 92.6998 702.141C90.4678 701.082 88.4722 699.598 86.8291 697.773Z" fill="#FAFAFA"/>
<path d="M94.9302 492.752C94.9302 492.752 93.2687 511.928 92.6665 523.181C92.0642 534.434 88.5127 579.67 88.5127 579.67C83.6977 587.934 80.7509 597.122 79.873 606.607C78.3984 621.414 77.8999 636.792 77.5469 641.468C77.5469 641.468 89.2812 649.066 101.68 646.37C102.594 642.959 119.001 597.356 122.656 585.633C126.187 574.299 132.085 547.382 132.085 547.382C132.085 547.382 137.34 572.726 136.53 577.505C133.29 596.743 140.684 629.133 142.117 642.449C142.117 642.449 143.591 646.247 153.311 646.37C163.363 646.492 165.253 643.123 165.253 643.123C165.253 643.123 171.483 579.139 172.169 567.069C172.854 554.999 170.507 509.212 168.991 493.548L94.9302 492.752Z" fill="#455A64"/>
<path d="M132.168 547.382L134.245 535.373C134.245 535.373 150.569 534.209 157.796 526.265C157.796 526.265 155.304 536.762 138.212 538.253L135.927 549.853L136.509 573.257C135.346 564.516 133.746 556.878 132.168 547.382Z" fill="#37474F"/>
<path d="M201.099 352.224L190.714 384.696C190.714 384.696 158.689 402.198 143.943 408.57C148.741 411.511 152.251 415.759 156.238 424.275L159.478 432.832C159.478 432.832 188.056 415.269 204.235 402.831C211.608 397.174 212.542 391.885 213.539 386.207C214.806 379.264 215.387 375.22 217.132 362.436C217.547 359.25 218.004 356.309 218.42 353.552C219.259 348.959 220.34 344.412 221.66 339.93C222.852 335.536 223.106 330.947 222.407 326.451C222.278 322.913 220.926 319.523 218.573 316.842C216.221 314.162 213.009 312.35 209.468 311.706C208.56 311.363 207.56 311.336 206.635 311.63C205.709 311.923 204.913 312.519 204.38 313.319C203.998 314.36 203.926 315.487 204.172 316.567C204.733 321.141 205.73 325.798 204.816 330.311C204.797 330.602 204.715 330.886 204.575 331.143C204.436 331.4 204.242 331.625 204.006 331.802C203.03 332.353 201.389 328.861 200.663 328.167C199.994 327.359 199.036 326.833 197.986 326.696C196.936 326.56 195.873 326.823 195.013 327.431C194.307 328.024 195.948 329.576 197.09 333.068C198.419 337.5 197.859 341.237 200.476 345.505C201.033 346.527 201.375 347.648 201.482 348.803C201.589 349.957 201.459 351.121 201.099 352.224Z" fill="#B16668"/>
<path d="M143.071 407.896L169.302 396.071C169.302 396.071 173.747 395.949 179.333 404.383C180.97 406.887 182.085 409.686 182.613 412.617C183.14 415.548 183.071 418.552 182.407 421.457L162.511 436.426L143.071 407.896Z" fill="#455A64"/>
<path d="M97.5467 411.776C89.6131 413.369 87.1624 417.107 86.2901 424.03C85.6891 430.41 86.3018 436.843 88.097 443.002L92.6869 471.226L92.4999 507.66C109.53 517.116 148.035 520.71 171.421 504.27C171.421 504.27 168.43 445.576 166.81 434.057C163.986 414.084 155.657 406.977 145.896 407.631L117.672 409.632C110.917 409.831 104.188 410.547 97.5467 411.776Z" fill="#818DFF"/>
<path d="M163.653 483.378L128.74 465.59C128.74 465.59 121.638 452.805 113.559 436.426C99.7475 415.759 92.6238 414.554 92.6238 414.554C76.6943 423.274 83.0287 436.59 104.483 477.026C108.636 484.909 114.182 486.87 125.417 490.832C132.562 493.364 136.342 494.753 150.132 499.001C153.434 500.022 157.63 501.186 160.516 502.044C165.314 503.535 168.554 505.005 173.538 506.414C178.137 508.017 182.938 508.986 187.806 509.294C191.392 509.542 194.979 508.837 198.191 507.252C201.512 505.065 204.1 501.959 205.626 498.327C206.138 497.442 206.325 496.411 206.154 495.407C205.984 494.403 205.468 493.487 204.691 492.813C203.64 492.264 202.451 492.023 201.265 492.119C196.301 491.976 191.192 492.282 186.519 490.628C186.208 490.564 185.914 490.436 185.656 490.253C185.399 490.07 185.183 489.836 185.023 489.566C184.608 488.483 188.575 487.319 189.426 486.686C190.386 486.115 191.092 485.21 191.403 484.15C191.715 483.091 191.61 481.955 191.109 480.968C190.589 480.151 188.679 481.601 184.878 482.152C179.914 482.847 176.093 481.683 171.088 483.704C169.891 484.152 168.615 484.355 167.336 484.298C166.057 484.242 164.803 483.929 163.653 483.378Z" fill="#B16668"/>
<path d="M94.3283 412.634C80.4548 417.168 81.2233 427.747 82.1786 432.832C83.0645 437.149 84.5458 441.326 86.5816 445.249C91.6699 456.686 101.369 474.739 101.369 474.739C101.369 474.739 112.792 473.534 127.33 460.688C127.33 460.688 110.32 427.788 108.638 424.561C107.163 421.886 101.618 413.043 94.3283 412.634Z" fill="#455A64"/>
<path d="M163.633 356.125C163.594 360.129 162.36 364.033 160.083 367.352C157.806 370.672 154.586 373.26 150.826 374.794C147.065 376.329 142.928 376.743 138.93 375.984C134.932 375.225 131.249 373.328 128.339 370.527C125.429 367.727 123.42 364.147 122.563 360.233C121.705 356.319 122.036 352.243 123.516 348.512C124.995 344.782 127.556 341.561 130.882 339.251C134.208 336.941 138.151 335.643 142.221 335.519C145.003 335.489 147.763 335.999 150.345 337.018C152.927 338.038 155.279 339.547 157.267 341.461C159.256 343.374 160.841 345.654 161.933 348.17C163.026 350.686 163.603 353.39 163.633 356.125Z" fill="#263238"/>
<path d="M100.578 373.647C100.578 373.647 104.732 390.149 106.186 392.845C107.193 394.507 108.816 395.722 110.713 396.235L110.132 384.553L100.578 373.647Z" fill="#263238"/>
<path d="M104.484 349.733C103.224 349.624 101.956 349.799 100.775 350.244C99.5945 350.69 98.5331 351.395 97.6717 352.306C94.7849 355.369 96.7164 364.56 100.662 373.648L107.454 374.219L104.484 349.733Z" fill="#263238"/>
<path d="M109.406 374.178C108.077 375.016 106.062 372.504 104.338 370.829C102.615 369.155 97.0693 366.949 94.5148 372.667C91.9602 378.385 97.2978 385.962 101.638 387.188C109.136 389.23 110.112 384.553 110.112 384.553L111.441 410.837C113.179 414.318 115.767 417.322 118.975 419.578C122.183 421.834 125.909 423.272 129.821 423.764C143.03 425.153 142.594 414.329 138.129 409.224L137.9 401.831C141.178 401.916 144.45 401.503 147.599 400.605C151.753 399.38 154.868 396.807 157.444 390.394C160.891 381.857 161.12 372.647 157.901 355.451C154.162 335.519 129.095 335.641 116.488 343.953C103.881 352.265 109.406 374.178 109.406 374.178Z" fill="#B16668"/>
<path d="M113.498 360.74C112.48 366.52 111.774 376.302 109.469 376.425C108.784 376.425 106.063 372.34 104.339 370.829C103.571 370.176 103.508 368.787 103.425 367.786C103.09 364.324 103.013 360.843 103.197 357.371C103.384 353.654 102.657 349.528 103.758 345.934C104.682 343.187 106.566 340.85 109.074 339.338C114.62 335.866 122.055 336.009 128.306 334.6C135.669 333.115 142.702 330.348 149.075 326.43L151.006 325.226C151.545 324.812 152.213 324.596 152.896 324.613C153.184 324.658 153.458 324.768 153.696 324.935C153.934 325.101 154.129 325.32 154.267 325.573C154.552 326.078 154.735 326.633 154.807 327.207C155.115 328.926 155.164 330.681 154.952 332.414C154.995 333.966 154.622 335.501 153.872 336.866L158.483 333.946C158.771 333.701 159.141 333.57 159.521 333.578C160.144 333.578 160.394 334.416 160.477 335.028C160.646 337.643 160.144 340.258 159.015 342.632C157.886 345.005 156.167 347.061 154.018 348.609C149.669 351.66 144.54 353.456 139.21 353.797C133.914 354.328 128.597 354.021 123.28 354.062C120.994 353.84 118.688 354.184 116.572 355.063C115.695 355.755 114.971 356.616 114.443 357.592C113.914 358.568 113.593 359.639 113.498 360.74Z" fill="#263238"/>
<path d="M104.483 351.203L96.1758 347.119C96.4175 346.555 96.7759 346.047 97.228 345.627C97.6802 345.207 98.2162 344.884 98.8022 344.678C99.3881 344.473 100.011 344.389 100.632 344.433C101.252 344.477 101.856 344.648 102.406 344.934C103.502 345.52 104.327 346.496 104.713 347.662C105.099 348.828 105.017 350.095 104.483 351.203Z" fill="#263238"/>
<path d="M137.9 401.831C137.9 401.831 124.775 400.871 118.731 397.297C116.308 395.956 114.265 394.039 112.791 391.722C113.413 394.185 114.623 396.468 116.322 398.379C122.386 405.037 138.129 405.915 138.129 405.915L137.9 401.831Z" fill="#9A4A4D"/>
<path d="M132.376 370.584C132.372 371.117 132.208 371.637 131.906 372.079C131.603 372.521 131.175 372.866 130.675 373.07C130.175 373.275 129.624 373.33 129.092 373.23C128.56 373.129 128.07 372.877 127.682 372.504C127.295 372.132 127.028 371.655 126.914 371.135C126.799 370.614 126.844 370.071 127.041 369.575C127.238 369.079 127.579 368.65 128.021 368.343C128.464 368.036 128.989 367.864 129.531 367.848C129.901 367.842 130.268 367.909 130.612 368.044C130.955 368.179 131.268 368.379 131.533 368.633C131.797 368.888 132.008 369.191 132.153 369.526C132.297 369.861 132.373 370.22 132.376 370.584Z" fill="#263238"/>
<path d="M128.554 362.517L122.801 365.866C122.362 365.09 122.244 364.177 122.472 363.317C122.7 362.457 123.257 361.717 124.026 361.251C124.407 361.036 124.827 360.897 125.263 360.844C125.698 360.791 126.14 360.825 126.562 360.943C126.984 361.061 127.378 361.261 127.72 361.532C128.062 361.802 128.346 362.137 128.554 362.517Z" fill="#263238"/>
<path d="M131.233 385.125L142.157 388.821C141.942 389.542 141.582 390.212 141.097 390.792C140.613 391.372 140.014 391.85 139.337 392.197C138.661 392.544 137.919 392.754 137.158 392.812C136.397 392.871 135.632 392.778 134.909 392.538C133.439 392.011 132.235 390.943 131.55 389.561C130.864 388.178 130.751 386.588 131.233 385.125Z" fill="#9A4A4D"/>
<path opacity="0.6" d="M133.955 388.27C133.053 388.329 132.191 388.657 131.483 389.209C131.786 389.993 132.258 390.703 132.868 391.288C133.478 391.874 134.21 392.321 135.014 392.6C136.215 393.029 137.531 393.029 138.732 392.6C138.713 392.005 138.574 391.42 138.323 390.879C138.071 390.338 137.713 389.851 137.268 389.448C136.823 389.045 136.301 388.733 135.732 388.531C135.163 388.329 134.559 388.24 133.955 388.27Z" fill="#F28F8F"/>
<path d="M155.678 363.252L150.174 359.372C150.413 359.011 150.726 358.701 151.091 358.463C151.457 358.224 151.868 358.062 152.3 357.985C152.732 357.909 153.175 357.92 153.602 358.018C154.029 358.116 154.432 358.299 154.784 358.555C155.525 359.07 156.033 359.849 156.199 360.726C156.366 361.603 156.179 362.509 155.678 363.252Z" fill="#263238"/>
<path d="M154.432 368.787C154.423 369.315 154.258 369.829 153.955 370.265C153.652 370.701 153.226 371.04 152.729 371.24C152.233 371.44 151.687 371.492 151.16 371.39C150.634 371.288 150.149 371.036 149.767 370.665C149.384 370.295 149.121 369.822 149.009 369.306C148.898 368.789 148.942 368.252 149.139 367.761C149.335 367.269 149.673 366.845 150.112 366.541C150.551 366.237 151.071 366.066 151.607 366.05C151.975 366.048 152.341 366.116 152.682 366.252C153.023 366.388 153.334 366.589 153.596 366.843C153.858 367.098 154.067 367.4 154.21 367.733C154.354 368.067 154.429 368.425 154.432 368.787Z" fill="#263238"/>
<path d="M139.811 367.378L141.036 381.776L148.616 378.998L139.811 367.378Z" fill="#9A4A4D"/>
<path d="M207.288 289.139C204.947 288.017 202.403 287.359 199.803 287.203C197.203 287.047 194.597 287.396 192.135 288.231C189.672 289.065 187.4 290.368 185.45 292.066C183.499 293.764 181.908 295.823 180.766 298.125C179.625 300.427 178.956 302.928 178.797 305.485C178.639 308.042 178.994 310.604 179.843 313.026C180.691 315.448 182.017 317.681 183.743 319.599C185.469 321.517 187.563 323.082 189.905 324.205C206.81 332.374 231.442 322.448 231.442 322.448C231.442 322.448 224.194 297.308 207.288 289.139ZM206.125 310.276C205.294 311.96 203.974 313.364 202.331 314.309C200.689 315.254 198.798 315.699 196.898 315.587C194.998 315.475 193.175 314.811 191.659 313.679C190.143 312.547 189.003 310.999 188.383 309.229C187.763 307.46 187.69 305.549 188.175 303.74C188.66 301.93 189.68 300.302 191.106 299.063C192.532 297.824 194.3 297.028 196.186 296.778C198.072 296.527 199.992 296.833 201.701 297.655C203.976 298.755 205.717 300.694 206.546 303.05C207.374 305.406 207.223 307.989 206.125 310.236V310.276Z" fill="#818DFF"/>
<path d="M446.998 40.127C441.828 41.0836 437.255 44.0189 434.284 48.2885C431.313 52.558 430.186 57.8126 431.152 62.8981C434.62 81.0946 457.383 94.696 457.383 94.696C457.383 94.696 473.624 73.9059 470.155 55.7298C469.187 50.6418 466.204 46.14 461.862 43.2141C457.519 40.2883 452.173 39.1778 446.998 40.127ZM452.191 67.4115C450.321 67.7555 448.39 67.5465 446.641 66.811C444.892 66.0755 443.404 64.8465 442.366 63.2795C441.327 61.7124 440.785 59.8778 440.807 58.0075C440.829 56.1373 441.415 54.3155 442.49 52.7726C443.565 51.2296 445.081 50.0349 446.847 49.3394C448.612 48.644 450.548 48.4791 452.409 48.8657C454.27 49.2522 455.973 50.1727 457.302 51.5109C458.631 52.849 459.526 54.5447 459.875 56.3834C460.342 58.8477 459.796 61.3938 458.355 63.4618C456.914 65.5298 454.696 66.9505 452.191 67.4115Z" fill="#818DFF"/>
<path d="M681 89.3861C676.679 86.4372 671.343 85.2969 666.167 86.216C660.991 87.1352 656.398 90.0386 653.398 94.2875C642.661 109.482 648.808 134.99 648.808 134.99C648.808 134.99 675.268 131.742 685.984 116.609C687.485 114.503 688.547 112.126 689.108 109.615C689.67 107.104 689.721 104.508 689.258 101.977C688.794 99.4462 687.826 97.0308 686.409 94.8698C684.991 92.7088 683.153 90.8451 681 89.3861ZM664.904 112.178C663.341 111.111 662.135 109.613 661.438 107.872C660.741 106.132 660.585 104.227 660.989 102.399C661.394 100.571 662.34 98.9022 663.709 97.6034C665.079 96.3047 666.809 95.4344 668.681 95.1028C670.553 94.7712 672.483 94.9931 674.227 95.7405C675.971 96.4879 677.45 97.7271 678.478 99.3014C679.506 100.876 680.035 102.714 680 104.585C679.964 106.455 679.366 108.273 678.279 109.809C677.56 110.829 676.644 111.7 675.582 112.372C674.52 113.044 673.334 113.503 672.092 113.723C670.849 113.943 669.575 113.92 668.341 113.655C667.108 113.389 665.94 112.888 664.904 112.178Z" fill="#455A64"/>
</svg>
