<svg width="844" height="621" viewBox="0 0 844 621" fill="none" xmlns="http://www.w3.org/2000/svg">
<path d="M843.87 553.661H0V554.083H843.87V553.661Z" fill="#EBEBEB"/>
<path d="M144.437 569.744H88.5391V570.166H144.437V569.744Z" fill="#EBEBEB"/>
<path d="M303.506 565.166H230.089V565.588H303.506V565.166Z" fill="#EBEBEB"/>
<path d="M203.086 578.478H137.687V578.9H203.086V578.478Z" fill="#EBEBEB"/>
<path d="M759.314 582.6H686.421V583.023H759.314V582.6Z" fill="#EBEBEB"/>
<path d="M671.383 582.6H639.653V583.023H671.383V582.6Z" fill="#EBEBEB"/>
<path d="M464.128 575.471H402.424V575.893H464.128V575.471Z" fill="#EBEBEB"/>
<path d="M399.994 478.314H74.1084C71.5554 478.31 69.1086 477.291 67.3049 475.483C65.5013 473.674 64.4883 471.223 64.4883 468.668V10.0999C64.4927 7.54581 65.5072 5.09735 67.3098 3.28975C69.1125 1.48214 71.5568 0.462418 74.1084 0.453491H399.994C402.551 0.453487 405.004 1.46927 406.814 3.27784C408.624 5.08641 409.643 7.53996 409.648 10.0999V468.668C409.648 469.936 409.398 471.192 408.913 472.363C408.427 473.535 407.716 474.599 406.819 475.495C405.923 476.391 404.858 477.101 403.687 477.585C402.516 478.069 401.261 478.316 399.994 478.314ZM74.1084 0.892736C71.6703 0.897202 69.3333 1.86866 67.6092 3.59438C65.8852 5.32009 64.9147 7.65938 64.9102 10.0999V468.668C64.9102 471.111 65.8788 473.455 67.6033 475.184C69.3278 476.914 71.6673 477.887 74.1084 477.892H399.994C402.437 477.887 404.778 476.914 406.505 475.185C408.232 473.456 409.205 471.113 409.209 468.668V10.0999C409.2 7.65783 408.226 5.31858 406.499 3.59335C404.772 1.86811 402.434 0.897184 399.994 0.892736H74.1084Z" fill="#EBEBEB"/>
<path d="M765.069 478.314H439.166C436.612 478.31 434.163 477.292 432.357 475.484C430.551 473.676 429.534 471.225 429.529 468.668V10.0999C429.538 7.54426 430.556 5.09583 432.362 3.2887C434.167 1.48157 436.613 0.462396 439.166 0.453491H765.069C767.617 0.466868 770.057 1.48855 771.856 3.29567C773.655 5.1028 774.668 7.54872 774.672 10.0999V468.668C774.672 471.22 773.661 473.669 771.861 475.477C770.061 477.285 767.619 478.305 765.069 478.314ZM439.166 0.892736C436.727 0.897184 434.388 1.86811 432.661 3.59335C430.934 5.31858 429.96 7.65783 429.951 10.0999V468.668C429.956 471.113 430.928 473.456 432.655 475.185C434.382 476.914 436.724 477.887 439.166 477.892H765.069C767.511 477.887 769.853 476.914 771.58 475.185C773.307 473.456 774.279 471.113 774.284 468.668V10.0999C774.279 7.6549 773.307 5.31132 771.58 3.58244C769.853 1.85356 767.511 0.880304 765.069 0.875839L439.166 0.892736Z" fill="#EBEBEB"/>
<path d="M723.905 422.311L725.323 425.2C725.408 425.369 725.532 425.515 725.685 425.626C725.837 425.738 726.014 425.812 726.2 425.842L729.39 426.298C729.603 426.331 729.801 426.423 729.965 426.563C730.128 426.703 730.25 426.885 730.317 427.089C730.383 427.294 730.391 427.513 730.341 427.722C730.291 427.931 730.184 428.123 730.031 428.275L727.719 430.521C727.585 430.65 727.484 430.81 727.426 430.987C727.367 431.163 727.352 431.351 727.382 431.535L727.922 434.728C727.962 434.943 727.941 435.165 727.86 435.368C727.779 435.571 727.642 435.746 727.465 435.874C727.288 436.002 727.078 436.076 726.86 436.089C726.642 436.101 726.425 436.051 726.234 435.944L723.382 434.441C723.22 434.349 723.036 434.301 722.85 434.301C722.664 434.301 722.481 434.349 722.319 434.441L719.466 435.944C719.275 436.044 719.06 436.089 718.845 436.073C718.63 436.057 718.423 435.982 718.248 435.856C718.073 435.73 717.937 435.558 717.854 435.359C717.771 435.16 717.745 434.941 717.779 434.728L718.335 431.535C718.365 431.351 718.35 431.163 718.292 430.987C718.233 430.81 718.132 430.65 717.998 430.521L715.686 428.275C715.534 428.123 715.426 427.931 715.376 427.722C715.326 427.513 715.334 427.294 715.401 427.089C715.467 426.885 715.589 426.703 715.752 426.563C715.916 426.423 716.115 426.331 716.327 426.298L719.517 425.842C719.702 425.809 719.878 425.734 720.03 425.623C720.182 425.512 720.307 425.367 720.394 425.2L721.812 422.311C721.908 422.115 722.057 421.95 722.242 421.834C722.427 421.718 722.64 421.657 722.859 421.657C723.077 421.657 723.29 421.718 723.475 421.834C723.66 421.95 723.809 422.115 723.905 422.311Z" fill="#EBEBEB"/>
<path d="M102.462 433.748L103.897 436.654C103.979 436.82 104.101 436.963 104.251 437.072C104.4 437.181 104.574 437.252 104.758 437.279L107.947 437.735C108.16 437.769 108.359 437.86 108.522 438C108.686 438.14 108.807 438.322 108.874 438.526C108.94 438.731 108.949 438.95 108.898 439.159C108.848 439.368 108.741 439.56 108.589 439.712L106.327 441.958C106.195 442.092 106.096 442.255 106.041 442.434C105.985 442.614 105.973 442.804 106.007 442.989L106.547 446.165C106.587 446.38 106.566 446.602 106.485 446.805C106.404 447.008 106.267 447.183 106.09 447.311C105.912 447.439 105.702 447.513 105.485 447.526C105.267 447.538 105.049 447.488 104.859 447.381L101.973 445.962C101.805 445.879 101.62 445.836 101.433 445.836C101.245 445.836 101.061 445.879 100.893 445.962L98.0404 447.466C97.8499 447.573 97.6328 447.623 97.4149 447.61C97.1969 447.598 96.987 447.523 96.8098 447.395C96.6326 447.268 96.4954 447.092 96.4145 446.889C96.3335 446.686 96.3121 446.464 96.3527 446.25L96.8928 443.073C96.9263 442.889 96.9146 442.698 96.8588 442.519C96.803 442.339 96.7046 442.176 96.5721 442.043L94.2599 439.796C94.1078 439.644 94.0006 439.453 93.9503 439.244C93.9 439.035 93.9085 438.815 93.9749 438.611C94.0413 438.406 94.163 438.224 94.3265 438.084C94.49 437.945 94.6889 437.853 94.9012 437.819L98.0911 437.363C98.2743 437.336 98.4483 437.265 98.5981 437.157C98.748 437.048 98.8694 436.904 98.9518 436.738L100.386 433.833C100.471 433.631 100.611 433.459 100.79 433.334C100.969 433.21 101.18 433.139 101.398 433.13C101.615 433.121 101.831 433.175 102.02 433.284C102.208 433.394 102.362 433.555 102.462 433.748Z" fill="#EBEBEB"/>
<path d="M107.898 185.171L109.332 188.06C109.415 188.226 109.536 188.37 109.686 188.478C109.836 188.587 110.01 188.658 110.193 188.685L113.383 189.158C113.595 189.188 113.795 189.277 113.959 189.415C114.124 189.553 114.246 189.734 114.313 189.938C114.38 190.142 114.388 190.361 114.337 190.569C114.286 190.778 114.178 190.968 114.024 191.118L111.712 193.365C111.581 193.499 111.482 193.662 111.424 193.841C111.365 194.02 111.349 194.209 111.374 194.395L111.931 197.571C111.972 197.786 111.951 198.008 111.87 198.211C111.789 198.414 111.652 198.59 111.474 198.717C111.297 198.845 111.087 198.92 110.869 198.932C110.651 198.944 110.434 198.894 110.244 198.788L107.391 197.284C107.224 197.201 107.039 197.157 106.851 197.157C106.664 197.157 106.479 197.201 106.311 197.284L103.459 198.788C103.268 198.894 103.051 198.944 102.833 198.932C102.615 198.92 102.405 198.845 102.228 198.717C102.051 198.59 101.914 198.414 101.833 198.211C101.752 198.008 101.731 197.786 101.771 197.571L102.311 194.395C102.341 194.209 102.326 194.018 102.267 193.839C102.209 193.66 102.108 193.497 101.974 193.365L99.6784 191.118C99.5252 190.969 99.4165 190.78 99.3646 190.573C99.3126 190.366 99.3195 190.148 99.3844 189.945C99.4492 189.741 99.5696 189.559 99.7318 189.421C99.8941 189.282 100.092 189.191 100.303 189.158L103.51 188.685C103.693 188.658 103.867 188.587 104.017 188.478C104.167 188.37 104.288 188.226 104.37 188.06L105.788 185.171C105.882 184.971 106.031 184.801 106.218 184.682C106.405 184.563 106.621 184.5 106.843 184.5C107.064 184.5 107.281 184.563 107.468 184.682C107.655 184.801 107.804 184.971 107.898 185.171Z" fill="#F5F5F5"/>
<path d="M289.869 71.7289L291.287 74.6347C291.372 74.8019 291.496 74.9461 291.649 75.0549C291.802 75.1637 291.978 75.234 292.164 75.2598L295.354 75.7328C295.566 75.7628 295.766 75.8517 295.931 75.9896C296.095 76.1274 296.218 76.3087 296.284 76.5127C296.351 76.7167 296.359 76.9354 296.308 77.144C296.257 77.3525 296.149 77.5425 295.995 77.6925L293.666 79.9394C293.532 80.0717 293.431 80.2343 293.372 80.4136C293.314 80.5929 293.299 80.7836 293.329 80.9699L293.886 84.146C293.919 84.3591 293.893 84.5775 293.81 84.7767C293.727 84.9759 293.591 85.1481 293.416 85.2742C293.241 85.4003 293.034 85.4753 292.819 85.4909C292.604 85.5064 292.389 85.4619 292.198 85.3623L289.346 83.8588C289.181 83.7756 288.999 83.7323 288.814 83.7323C288.629 83.7323 288.447 83.7756 288.282 83.8588L285.43 85.3623C285.239 85.469 285.022 85.519 284.804 85.5065C284.586 85.4941 284.377 85.4196 284.199 85.2919C284.022 85.1642 283.885 84.9885 283.804 84.7856C283.723 84.5826 283.702 84.3607 283.742 84.146L284.282 80.9699C284.312 80.7836 284.297 80.5929 284.239 80.4136C284.18 80.2343 284.079 80.0717 283.945 79.9394L281.666 77.6756C281.513 77.5256 281.404 77.3356 281.353 77.1271C281.302 76.9185 281.311 76.6998 281.377 76.4958C281.444 76.2918 281.567 76.1105 281.731 75.9727C281.896 75.8348 282.095 75.7459 282.308 75.7159L285.498 75.2429C285.684 75.2199 285.862 75.1508 286.016 75.0417C286.169 74.9325 286.292 74.7868 286.375 74.6178L287.793 71.712C287.892 71.5211 288.042 71.3613 288.226 71.2503C288.41 71.1393 288.621 71.0815 288.836 71.0833C289.051 71.085 289.261 71.1463 289.443 71.2602C289.626 71.3742 289.773 71.5364 289.869 71.7289Z" fill="#F5F5F5"/>
<path d="M155.593 42.891L156.437 44.5804C156.489 44.6792 156.563 44.7643 156.654 44.8289C156.745 44.8935 156.85 44.9357 156.96 44.9521L158.867 45.2393C158.992 45.2593 159.109 45.3132 159.206 45.3951C159.302 45.4771 159.375 45.584 159.415 45.7042C159.455 45.8244 159.461 45.9533 159.433 46.0769C159.405 46.2004 159.343 46.3139 159.255 46.405L157.871 47.7565C157.79 47.8331 157.729 47.9288 157.693 48.035C157.658 48.1411 157.65 48.2544 157.669 48.3647L157.99 50.2737C158.009 50.3997 157.994 50.5287 157.946 50.6466C157.897 50.7645 157.817 50.8666 157.714 50.9418C157.611 51.0169 157.489 51.0621 157.362 51.0724C157.235 51.0827 157.107 51.0577 156.994 51.0001L155.306 50.1047C155.209 50.0467 155.098 50.016 154.985 50.016C154.872 50.016 154.762 50.0467 154.665 50.1047L152.977 51.0001C152.864 51.0798 152.731 51.1242 152.593 51.1274C152.455 51.1306 152.32 51.0925 152.204 51.0181C152.088 50.9437 151.996 50.8363 151.942 50.7097C151.887 50.5831 151.871 50.443 151.897 50.3075L152.217 48.3984C152.237 48.2882 152.228 48.1749 152.193 48.0688C152.157 47.9626 152.096 47.8669 152.015 47.7903L150.648 46.4388C150.554 46.3515 150.487 46.2393 150.454 46.1151C150.421 45.991 150.425 45.8601 150.464 45.7378C150.502 45.6155 150.575 45.5069 150.674 45.4246C150.772 45.3423 150.892 45.2897 151.019 45.2731L152.926 44.9859C153.037 44.9722 153.143 44.9311 153.235 44.8662C153.326 44.8013 153.4 44.7147 153.449 44.6142L154.293 42.9248C154.339 42.7902 154.424 42.6727 154.538 42.5883C154.652 42.5039 154.789 42.4567 154.931 42.453C155.073 42.4493 155.213 42.4894 155.331 42.5677C155.449 42.6461 155.541 42.7589 155.593 42.891Z" fill="#EBEBEB"/>
<path d="M199.153 281.585L200.014 283.274C200.062 283.377 200.136 283.466 200.227 283.534C200.318 283.602 200.425 283.646 200.537 283.663L202.444 283.933C202.571 283.953 202.69 284.009 202.787 284.093C202.885 284.177 202.957 284.287 202.995 284.409C203.034 284.532 203.037 284.663 203.006 284.788C202.974 284.913 202.908 285.026 202.815 285.116L201.448 286.45C201.368 286.528 201.308 286.624 201.273 286.729C201.237 286.835 201.228 286.948 201.246 287.058L201.567 288.967C201.586 289.093 201.571 289.222 201.523 289.34C201.474 289.458 201.394 289.56 201.291 289.636C201.188 289.711 201.066 289.756 200.939 289.766C200.812 289.776 200.684 289.751 200.571 289.694L198.883 288.798C198.784 288.748 198.674 288.722 198.562 288.722C198.451 288.722 198.341 288.748 198.242 288.798L196.554 289.694C196.44 289.751 196.313 289.776 196.186 289.766C196.059 289.756 195.937 289.711 195.834 289.636C195.731 289.56 195.651 289.458 195.602 289.34C195.553 289.222 195.538 289.093 195.558 288.967L195.879 287.058C195.897 286.948 195.887 286.835 195.852 286.729C195.817 286.624 195.757 286.528 195.676 286.45L194.292 285.116C194.2 285.025 194.134 284.91 194.103 284.784C194.072 284.658 194.077 284.526 194.118 284.403C194.158 284.28 194.232 284.17 194.332 284.087C194.431 284.004 194.552 283.951 194.681 283.933L196.588 283.663C196.699 283.643 196.804 283.598 196.895 283.531C196.986 283.463 197.06 283.375 197.111 283.274L197.955 281.585C198.016 281.48 198.103 281.392 198.208 281.331C198.313 281.271 198.433 281.239 198.554 281.239C198.675 281.239 198.795 281.271 198.9 281.331C199.005 281.392 199.092 281.48 199.153 281.585Z" fill="#EBEBEB"/>
<path d="M469.528 99.1983L470.372 100.888C470.424 100.986 470.499 101.072 470.589 101.136C470.68 101.201 470.785 101.243 470.895 101.259L472.803 101.53C472.93 101.55 473.048 101.605 473.146 101.689C473.243 101.774 473.315 101.883 473.354 102.006C473.392 102.129 473.396 102.26 473.364 102.385C473.332 102.509 473.266 102.623 473.174 102.712L471.807 104.064C471.725 104.14 471.664 104.236 471.629 104.342C471.594 104.448 471.585 104.562 471.604 104.672L471.925 106.564C471.952 106.692 471.941 106.824 471.895 106.946C471.848 107.068 471.767 107.173 471.662 107.25C471.557 107.327 471.432 107.372 471.302 107.379C471.172 107.386 471.042 107.355 470.929 107.29L469.241 106.395C469.142 106.345 469.032 106.318 468.921 106.318C468.809 106.318 468.699 106.345 468.6 106.395L466.912 107.29C466.799 107.355 466.67 107.386 466.54 107.379C466.41 107.372 466.285 107.327 466.179 107.25C466.074 107.173 465.993 107.068 465.947 106.946C465.9 106.824 465.89 106.692 465.917 106.564L466.237 104.672C466.256 104.562 466.248 104.448 466.213 104.342C466.177 104.236 466.116 104.14 466.035 104.064L464.651 102.712C464.558 102.622 464.492 102.507 464.461 102.381C464.43 102.255 464.436 102.123 464.476 102C464.516 101.876 464.591 101.767 464.69 101.684C464.79 101.601 464.911 101.547 465.039 101.53L466.946 101.259C467.056 101.243 467.161 101.201 467.252 101.136C467.343 101.072 467.417 100.986 467.469 100.888L468.313 99.1983C468.376 99.0934 468.465 99.0065 468.572 98.9462C468.678 98.8859 468.798 98.8542 468.921 98.8542C469.043 98.8542 469.163 98.8859 469.27 98.9462C469.376 99.0065 469.465 99.0934 469.528 99.1983Z" fill="#F5F5F5"/>
<path d="M742.133 72.4721L742.976 74.1615C743.028 74.2603 743.103 74.3454 743.194 74.41C743.285 74.4746 743.389 74.5168 743.5 74.5332L745.407 74.8204C745.532 74.8403 745.649 74.8943 745.745 74.9762C745.842 75.0582 745.914 75.1651 745.954 75.2853C745.994 75.4055 746.001 75.5344 745.972 75.658C745.944 75.7815 745.883 75.895 745.795 75.9861L744.411 77.3376C744.331 77.4151 744.27 77.5109 744.235 77.6168C744.2 77.7227 744.191 77.8355 744.208 77.9458L744.529 79.8548C744.549 79.9808 744.534 80.1098 744.485 80.2277C744.437 80.3456 744.356 80.4477 744.253 80.5229C744.15 80.598 744.029 80.6432 743.902 80.6535C743.775 80.6638 743.647 80.6388 743.533 80.5812L741.846 79.6858C741.749 79.6278 741.638 79.5971 741.525 79.5971C741.412 79.5971 741.301 79.6278 741.204 79.6858L739.517 80.5812C739.403 80.6388 739.275 80.6638 739.148 80.6535C739.021 80.6432 738.9 80.598 738.797 80.5229C738.694 80.4477 738.613 80.3456 738.565 80.2277C738.516 80.1098 738.501 79.9808 738.521 79.8548L738.841 77.9458C738.859 77.8355 738.85 77.7227 738.815 77.6168C738.779 77.5109 738.719 77.4151 738.639 77.3376L737.272 75.9861C737.178 75.8988 737.111 75.7866 737.078 75.6624C737.045 75.5383 737.049 75.4074 737.088 75.2852C737.127 75.1629 737.199 75.0542 737.298 74.9719C737.396 74.8896 737.516 74.837 737.643 74.8204L739.55 74.5332C739.661 74.5195 739.768 74.4784 739.859 74.4135C739.95 74.3487 740.024 74.262 740.074 74.1615L740.917 72.4721C740.977 72.3628 741.065 72.2716 741.172 72.2081C741.279 72.1445 741.401 72.111 741.525 72.111C741.649 72.111 741.771 72.1445 741.878 72.2081C741.985 72.2716 742.073 72.3628 742.133 72.4721Z" fill="#EBEBEB"/>
<path d="M694.859 267.968L695.703 269.658C695.755 269.756 695.83 269.842 695.92 269.906C696.011 269.971 696.116 270.013 696.226 270.029L698.134 270.3C698.262 270.317 698.383 270.371 698.482 270.454C698.582 270.537 698.656 270.646 698.697 270.77C698.737 270.893 698.742 271.025 698.711 271.151C698.68 271.277 698.615 271.392 698.522 271.482L697.138 272.834C697.056 272.91 696.995 273.006 696.96 273.112C696.925 273.218 696.916 273.332 696.935 273.442L697.273 275.334C697.295 275.462 697.281 275.594 697.231 275.715C697.182 275.835 697.1 275.939 696.994 276.015C696.888 276.091 696.764 276.135 696.634 276.143C696.504 276.151 696.374 276.123 696.26 276.06L694.573 275.165C694.473 275.115 694.363 275.088 694.252 275.088C694.14 275.088 694.031 275.115 693.931 275.165L692.243 276.06C692.13 276.125 692.001 276.156 691.871 276.149C691.741 276.142 691.616 276.097 691.51 276.02C691.405 275.943 691.324 275.838 691.278 275.716C691.231 275.594 691.221 275.462 691.248 275.334L691.568 273.442C691.588 273.332 691.579 273.218 691.544 273.112C691.508 273.006 691.447 272.91 691.366 272.834L689.999 271.482C689.906 271.393 689.84 271.279 689.809 271.155C689.777 271.03 689.78 270.899 689.819 270.776C689.858 270.653 689.929 270.544 690.027 270.459C690.124 270.375 690.243 270.32 690.37 270.3L692.277 270.029C692.388 270.016 692.494 269.975 692.586 269.91C692.677 269.845 692.751 269.758 692.8 269.658L693.661 267.968C693.722 267.863 693.809 267.776 693.914 267.715C694.02 267.654 694.139 267.622 694.26 267.622C694.382 267.622 694.501 267.654 694.606 267.715C694.711 267.776 694.799 267.863 694.859 267.968Z" fill="#EBEBEB"/>
<path d="M492.449 51.2871C493.688 51.2871 494.693 50.2811 494.693 49.0402C494.693 47.7993 493.688 46.7933 492.449 46.7933C491.209 46.7933 490.204 47.7993 490.204 49.0402C490.204 50.2811 491.209 51.2871 492.449 51.2871Z" fill="#EBEBEB"/>
<path d="M194.107 128.594C195.347 128.594 196.352 127.588 196.352 126.347C196.352 125.106 195.347 124.1 194.107 124.1C192.867 124.1 191.862 125.106 191.862 126.347C191.862 127.588 192.867 128.594 194.107 128.594Z" fill="#EBEBEB"/>
<path d="M624.261 518.15C625.501 518.15 626.506 517.144 626.506 515.903C626.506 514.662 625.501 513.656 624.261 513.656C623.022 513.656 622.017 514.662 622.017 515.903C622.017 517.144 623.022 518.15 624.261 518.15Z" fill="#EBEBEB"/>
<path d="M661.594 172.957C662.834 172.957 663.839 171.951 663.839 170.71C663.839 169.469 662.834 168.463 661.594 168.463C660.355 168.463 659.35 169.469 659.35 170.71C659.35 171.951 660.355 172.957 661.594 172.957Z" fill="#F5F5F5"/>
<path d="M211.946 356.847C211.946 357.291 211.815 357.726 211.568 358.095C211.321 358.465 210.971 358.753 210.561 358.923C210.151 359.093 209.699 359.137 209.264 359.051C208.828 358.964 208.428 358.75 208.114 358.436C207.801 358.122 207.587 357.721 207.5 357.285C207.414 356.85 207.458 356.398 207.628 355.987C207.798 355.577 208.086 355.226 208.455 354.979C208.824 354.732 209.258 354.6 209.702 354.6C209.997 354.598 210.29 354.654 210.563 354.767C210.837 354.879 211.085 355.044 211.294 355.253C211.503 355.462 211.668 355.711 211.78 355.985C211.892 356.258 211.949 356.551 211.946 356.847Z" fill="#F5F5F5"/>
<path d="M598.62 113.772C624.87 109.507 642.695 84.749 638.434 58.4737C634.174 32.1985 609.44 14.3557 583.19 18.6208C556.941 22.8859 539.115 47.6437 543.376 73.919C547.637 100.194 572.371 118.037 598.62 113.772Z" fill="#F0F0F0"/>
<path d="M591.585 100.871C593.174 100.595 594.683 99.9699 596.002 99.041C597.321 98.1121 598.418 96.9023 599.214 95.4985C596.677 96.8206 593.949 97.7383 591.13 98.2185C588.31 98.7213 585.43 98.7896 582.59 98.4212C583.815 99.4698 585.257 100.233 586.813 100.657C588.368 101.081 589.998 101.154 591.585 100.871Z" fill="#FAFAFA"/>
<path d="M564.785 82.3043C565.593 83.6995 566.698 84.8986 568.023 85.8157C569.348 86.7328 570.859 87.3452 572.448 87.609C568.244 83.6946 565.305 78.6115 564.009 73.0127C563.448 74.5234 563.227 76.1393 563.361 77.7452C563.496 79.3512 563.982 80.9079 564.785 82.3043Z" fill="#FAFAFA"/>
<path d="M562.81 48.6687C561.736 49.8689 560.942 51.2938 560.486 52.8397C560.031 54.3856 559.925 56.0137 560.178 57.6056C561.348 54.9936 562.914 52.5777 564.819 50.4425C566.711 48.2956 568.919 46.4499 571.367 44.9689C569.756 44.9142 568.154 45.2176 566.674 45.8574C565.194 46.4971 563.875 47.4573 562.81 48.6687Z" fill="#FAFAFA"/>
<path d="M595.013 29.1393C593.444 28.7774 591.814 28.7685 590.241 29.1132C588.668 29.4579 587.191 30.1477 585.916 31.1328C588.744 30.9104 591.59 31.1212 594.355 31.7578C597.148 32.3896 599.828 33.4435 602.304 34.8832C601.588 33.4458 600.563 32.1852 599.303 31.192C598.042 30.1987 596.577 29.4977 595.013 29.1393Z" fill="#FAFAFA"/>
<path d="M610.101 84.8217C611.371 83.8271 612.403 82.5623 613.124 81.1189C613.845 79.6755 614.237 78.0895 614.27 76.4761C612.664 78.8593 610.693 80.9744 608.43 82.7437C606.186 84.5245 603.681 85.949 601.004 86.9672C602.584 87.3093 604.221 87.2943 605.795 86.9231C607.368 86.5519 608.839 85.834 610.101 84.8217Z" fill="#FAFAFA"/>
<path d="M600.92 67.083C602.19 66.0885 603.222 64.8237 603.943 63.3803C604.664 61.9368 605.056 60.3509 605.089 58.7374C603.48 61.1086 601.51 63.2122 599.249 64.9713C597.008 66.7484 594.51 68.1726 591.84 69.1948C593.415 69.5401 595.047 69.5298 596.618 69.1645C598.189 68.7992 599.658 68.0882 600.92 67.083Z" fill="#FAFAFA"/>
<path d="M631.873 58.7206C631.525 57.1406 630.831 55.6576 629.842 54.3781C628.852 53.0986 627.592 52.0546 626.151 51.321C628.976 56.3377 630.228 62.0883 629.746 67.8264C630.751 66.56 631.462 65.0866 631.83 63.5122C632.197 61.9378 632.212 60.3014 631.873 58.7206Z" fill="#FAFAFA"/>
<path d="M421.934 621C518.063 621 595.991 616.447 595.991 610.83C595.991 605.213 518.063 600.66 421.934 600.66C325.806 600.66 247.878 605.213 247.878 610.83C247.878 616.447 325.806 621 421.934 621Z" fill="#F5F5F5"/>
<path d="M286.916 183.127C286.237 182.149 285.359 181.326 284.34 180.711C283.321 180.097 282.184 179.705 281.003 179.562C279.822 179.418 278.624 179.526 277.488 179.878C276.351 180.231 275.302 180.82 274.409 181.607C273.487 182.402 272.715 183.358 272.131 184.428C270.313 183.474 268.249 183.096 266.211 183.344C264.174 183.591 262.259 184.452 260.722 185.813C258.739 187.552 257.359 189.876 256.779 192.451C256.2 195.025 256.452 197.717 257.498 200.139C255.7 201.916 254.585 204.271 254.35 206.789C254.115 209.308 254.776 211.829 256.216 213.908L256.654 214.465C255.75 215.282 255.171 216.398 255.022 217.608C254.873 218.818 255.165 220.042 255.844 221.054C256.171 221.53 256.595 221.931 257.087 222.232C257.58 222.532 258.131 222.724 258.703 222.796C259.276 222.868 259.857 222.818 260.408 222.648C260.96 222.479 261.469 222.195 261.903 221.814L292.84 195.544C294.259 194.305 295.17 192.584 295.397 190.712C295.625 188.841 295.152 186.952 294.072 185.408C293.287 184.302 292.165 183.482 290.874 183.07C289.584 182.659 288.194 182.679 286.916 183.127Z" fill="#0018FF"/>
<path opacity="0.8" d="M286.916 183.127C286.237 182.149 285.359 181.326 284.34 180.711C283.321 180.097 282.184 179.705 281.003 179.562C279.822 179.418 278.624 179.526 277.488 179.878C276.351 180.231 275.302 180.82 274.409 181.607C273.487 182.402 272.715 183.358 272.131 184.428C270.313 183.474 268.249 183.096 266.211 183.344C264.174 183.591 262.259 184.452 260.722 185.813C258.739 187.552 257.359 189.876 256.779 192.451C256.2 195.025 256.452 197.717 257.498 200.139C255.7 201.916 254.585 204.271 254.35 206.789C254.115 209.308 254.776 211.829 256.216 213.908L256.654 214.465C255.75 215.282 255.171 216.398 255.022 217.608C254.873 218.818 255.165 220.042 255.844 221.054C256.171 221.53 256.595 221.931 257.087 222.232C257.58 222.532 258.131 222.724 258.703 222.796C259.276 222.868 259.857 222.818 260.408 222.648C260.96 222.479 261.469 222.195 261.903 221.814L292.84 195.544C294.259 194.305 295.17 192.584 295.397 190.712C295.625 188.841 295.152 186.952 294.072 185.408C293.287 184.302 292.165 183.482 290.874 183.07C289.584 182.659 288.194 182.679 286.916 183.127Z" fill="white"/>
<path d="M198.039 452.72C196.594 453.303 195.288 454.185 194.207 455.308C193.126 456.431 192.294 457.77 191.765 459.237C191.236 460.704 191.022 462.266 191.138 463.821C191.254 465.376 191.696 466.89 192.436 468.262C193.173 469.675 194.169 470.936 195.373 471.979C193.629 474.025 192.544 476.551 192.261 479.225C191.978 481.9 192.51 484.597 193.786 486.964C195.428 490.001 197.986 492.442 201.095 493.938C204.205 495.434 207.708 495.908 211.102 495.292C212.845 498.102 215.521 500.207 218.659 501.239C221.798 502.271 225.199 502.163 228.267 500.935L229.094 500.546C229.853 501.955 231.104 503.034 232.607 503.579C234.11 504.124 235.761 504.097 237.245 503.503C237.947 503.224 238.582 502.799 239.108 502.257C239.634 501.715 240.039 501.068 240.297 500.358C240.556 499.648 240.661 498.891 240.606 498.138C240.551 497.384 240.338 496.65 239.98 495.985L215.592 448.8C214.429 446.647 212.515 444.996 210.215 444.164C207.915 443.333 205.389 443.377 203.119 444.29C201.471 444.95 200.083 446.13 199.166 447.652C198.249 449.173 197.854 450.953 198.039 452.72Z" fill="#0018FF"/>
<path opacity="0.8" d="M198.039 452.72C196.594 453.303 195.288 454.185 194.207 455.308C193.126 456.431 192.294 457.77 191.765 459.237C191.236 460.704 191.022 462.266 191.138 463.821C191.254 465.376 191.696 466.89 192.436 468.262C193.173 469.675 194.169 470.936 195.373 471.979C193.629 474.025 192.544 476.551 192.261 479.225C191.978 481.9 192.51 484.597 193.786 486.964C195.428 490.001 197.986 492.442 201.095 493.938C204.205 495.434 207.708 495.908 211.102 495.292C212.845 498.102 215.521 500.207 218.659 501.239C221.798 502.271 225.199 502.163 228.267 500.935L229.094 500.546C229.853 501.955 231.104 503.034 232.607 503.579C234.11 504.124 235.761 504.097 237.245 503.503C237.947 503.224 238.582 502.799 239.108 502.257C239.634 501.715 240.039 501.068 240.297 500.358C240.556 499.648 240.661 498.891 240.606 498.138C240.551 497.384 240.338 496.65 239.98 495.985L215.592 448.8C214.429 446.647 212.515 444.996 210.215 444.164C207.915 443.333 205.389 443.377 203.119 444.29C201.471 444.95 200.083 446.13 199.166 447.652C198.249 449.173 197.854 450.953 198.039 452.72Z" fill="white"/>
<path d="M651.888 291.316C652.038 291.275 652.184 291.224 652.327 291.164C653.305 290.747 654.183 290.127 654.904 289.345C655.625 288.563 656.172 287.637 656.508 286.627C656.845 285.618 656.964 284.549 656.857 283.49C656.75 282.432 656.42 281.408 655.888 280.487C655.62 280.019 655.315 279.572 654.977 279.152C657.93 276.369 659.859 272.67 660.45 268.653C661.041 264.637 660.26 260.538 658.234 257.021C656.238 253.434 653.249 250.501 649.627 248.574C651.066 245.777 651.782 242.664 651.712 239.518C651.641 236.372 650.785 233.295 649.222 230.565C647.65 227.791 645.509 225.382 642.941 223.495C640.372 221.608 637.434 220.287 634.319 219.618C634.708 217.806 634.426 215.915 633.526 214.296C632.401 212.343 630.598 210.872 628.459 210.164C626.321 209.457 623.997 209.563 621.931 210.461C620.458 211.11 619.225 212.202 618.403 213.587C615.692 211.915 612.617 210.923 609.441 210.697C606.264 210.47 603.08 211.015 600.159 212.286C598.052 213.188 596.16 214.526 594.608 216.213C593.055 217.9 591.878 219.897 591.152 222.072C590.426 224.248 590.17 226.553 590.398 228.835C590.627 231.117 591.337 233.325 592.48 235.312L627.534 298.597C629.252 301.579 632.006 303.823 635.272 304.901C638.538 305.979 642.086 305.816 645.238 304.442C647.709 303.382 649.728 301.487 650.944 299.087C652.159 296.688 652.494 293.937 651.888 291.316Z" fill="#0018FF"/>
<path opacity="0.8" d="M651.888 291.316C652.038 291.275 652.184 291.224 652.327 291.164C653.305 290.747 654.183 290.127 654.904 289.345C655.625 288.563 656.172 287.637 656.508 286.627C656.845 285.618 656.964 284.549 656.857 283.49C656.75 282.432 656.42 281.408 655.888 280.487C655.62 280.019 655.315 279.572 654.977 279.152C657.93 276.369 659.859 272.67 660.45 268.653C661.041 264.637 660.26 260.538 658.234 257.021C656.238 253.434 653.249 250.501 649.627 248.574C651.066 245.777 651.782 242.664 651.712 239.518C651.641 236.372 650.785 233.295 649.222 230.565C647.65 227.791 645.509 225.382 642.941 223.495C640.372 221.608 637.434 220.287 634.319 219.618C634.708 217.806 634.426 215.915 633.526 214.296C632.401 212.343 630.598 210.872 628.459 210.164C626.321 209.457 623.997 209.563 621.931 210.461C620.458 211.11 619.225 212.202 618.403 213.587C615.692 211.915 612.617 210.923 609.441 210.697C606.264 210.47 603.08 211.015 600.159 212.286C598.052 213.188 596.16 214.526 594.608 216.213C593.055 217.9 591.878 219.897 591.152 222.072C590.426 224.248 590.17 226.553 590.398 228.835C590.627 231.117 591.337 233.325 592.48 235.312L627.534 298.597C629.252 301.579 632.006 303.823 635.272 304.901C638.538 305.979 642.086 305.816 645.238 304.442C647.709 303.382 649.728 301.487 650.944 299.087C652.159 296.688 652.494 293.937 651.888 291.316Z" fill="white"/>
<path d="M235.457 409.015C233.032 396.775 231.811 384.327 231.812 371.849H233.398C233.396 384.254 234.611 396.629 237.027 408.796L235.457 409.015Z" fill="#838FFF"/>
<path d="M599.282 311.876C596.977 305.035 594.277 298.334 591.198 291.806L592.65 291.113C595.752 297.709 598.474 304.478 600.801 311.386L599.282 311.876Z" fill="#838FFF"/>
<path d="M587.807 284.997C582.409 274.661 576.064 264.849 568.854 255.686L570.102 254.707C577.378 263.941 583.78 273.832 589.225 284.254L587.807 284.997Z" fill="#838FFF"/>
<path d="M233.686 361.493L231.998 361.392C232.251 357.033 232.639 352.657 233.163 348.366L234.749 348.569C234.31 352.86 233.922 357.219 233.686 361.493Z" fill="#838FFF"/>
<path d="M421.244 555.874C522.779 555.874 605.089 473.483 605.089 371.849C605.089 270.215 522.779 187.824 421.244 187.824C319.709 187.824 237.398 270.215 237.398 371.849C237.398 473.483 319.709 555.874 421.244 555.874Z" fill="#838FFF"/>
<g opacity="0.3">
<path opacity="0.3" d="M273.601 286.18C272.352 279.49 271.227 273.031 270.225 266.803C262.462 277.947 255.958 289.919 250.833 302.499C262.175 296.924 273.584 286.146 273.601 286.18Z" fill="white"/>
<path opacity="0.3" d="M307.828 495.698C312.165 489.785 315.254 484.092 313.33 478.179C311.406 472.266 289.212 465.745 289.33 465.728C284.155 462.485 279.035 459.196 273.972 455.862C273.936 451.286 272.12 446.905 268.909 443.648C267.219 442.138 265.231 441 263.074 440.307C260.916 439.614 258.638 439.383 256.386 439.627C252.403 434.255 248.521 428.843 244.74 423.392C255.385 459.872 277.052 492.159 306.765 515.819C307.676 513.538 311.254 503.841 307.828 495.698Z" fill="white"/>
<path opacity="0.3" d="M301.279 241.073L307.642 244.131C311.929 236.478 316.283 229.264 320.688 222.608C333.599 216.729 346.561 211.323 359.27 206.475C360.856 203.096 362.46 199.852 364.046 196.929C340.89 204.515 319.478 216.644 301.06 232.609C301.11 235.363 301.161 238.167 301.279 241.073Z" fill="white"/>
<path opacity="0.3" d="M362.629 231.934C369.583 232.559 374.325 223.267 374.308 223.368C373.296 221.341 372.3 219.365 371.321 217.439C364.84 219.365 358.337 221.364 351.811 223.436C351.777 223.352 355.659 231.157 362.629 231.934Z" fill="white"/>
<path opacity="0.3" d="M403.101 277.023C400.063 271.156 397.093 265.457 394.19 259.927C392.907 256.548 391.658 253.304 390.409 250.095C388.721 252.747 386.865 255.45 385.093 258.187L391.321 267.58C390.06 273.144 388.789 278.848 387.506 284.693C392.727 282.047 397.925 279.49 403.101 277.023Z" fill="white"/>
<path opacity="0.3" d="M376.518 268.948C375.843 272.817 375.151 276.77 374.493 280.774L383.286 276.652C384.636 273.915 385.97 271.195 387.32 268.526L382.172 264.995L376.518 268.948Z" fill="white"/>
<path opacity="0.3" d="M506.644 208.857L499.555 209.803C494.357 213.3 488.872 217.135 483.1 221.257C482.818 223.509 482.515 225.841 482.188 228.251L476.095 228.622C472 224.23 467.961 220.057 463.977 216.104L473.986 217.54L479.218 217.726C479.471 216.29 479.724 214.888 479.977 213.502C469.328 208.772 458.847 204.447 448.703 200.579C443.522 202.893 438.155 205.393 432.653 208.063C428.889 214.82 424.839 222.541 420.619 231.005C417.649 232.75 414.662 234.524 411.658 236.326C411.658 241.073 411.793 246.04 411.877 251.176C418.313 254.251 424.816 257.415 431.387 260.67C433.784 258.237 436.158 255.85 438.51 253.507C438.037 247.696 437.564 242.126 437.092 236.799C439.742 231.173 442.29 225.835 444.72 220.851L452.265 220.733C450.138 224.326 447.944 228.104 445.682 232.069C446.222 235.819 446.785 239.716 447.37 243.759L452.653 246.767C452.653 247.594 452.535 248.456 452.467 249.284L450.003 252.561L452.957 257.629C452.518 258.812 452.062 259.994 451.623 261.194C451.826 263.035 452.028 264.894 452.248 266.769C445.879 267.332 439.494 267.895 433.092 268.458C429.497 264.894 425.936 261.38 422.408 257.967L418.898 258.744C419.168 262.652 419.455 266.639 419.759 270.705L410.358 274.574C407.118 277.806 403.86 281.084 400.586 284.406C396.715 286.535 392.851 288.692 388.991 290.876L396.62 299.999C396.485 303.378 396.361 306.819 396.249 310.321C390.156 310.609 384.08 310.93 378.038 311.251C377.396 316.409 376.772 321.612 376.164 326.86C376.654 330.56 377.143 334.294 377.633 338.027L387.236 342.116L400.181 332.199C402.915 325.622 405.638 319.112 408.35 312.67L413.632 309.983L422.797 310.777C427.927 315.046 433.075 319.365 438.239 323.735C438.628 326.269 439.033 328.803 439.438 331.371L442.644 330.29C443.168 327.469 443.691 324.664 444.197 321.843C440.327 317.417 436.473 313.019 432.636 308.649L436.012 307.466C440.062 310.271 444.147 313.092 448.214 315.913C449.8 321.545 451.387 327.249 452.973 333.027C455.37 335.578 457.75 338.095 460.146 340.713L464.889 334.446C462.729 331.608 460.563 328.792 458.391 325.999L466.087 321.725C466.672 325.317 467.235 328.938 467.775 332.588C471.15 336.608 474.526 340.635 477.901 344.667L491.505 349.735V356.323L484.754 358.232H471.792L456.18 352.691L452.028 354.06C452.028 356.188 452.028 358.317 452.028 360.429C443.252 352.776 434.425 345.089 425.615 337.487C413.278 340.139 400.907 342.808 388.62 345.511L383.118 347.978C380.181 350.917 377.261 353.874 374.359 356.813C373.886 359.398 373.43 361.966 372.975 364.551C366.404 373.122 359.951 381.619 353.616 390.044C353.768 400.18 354.004 410.316 354.325 420.149C362.494 429.508 370.73 438.732 378.882 447.618C388.614 445.996 398.443 444.307 408.366 442.55C414.724 445.388 421.036 448.176 427.303 450.912C426.392 455.158 425.48 459.325 424.569 463.414C427.522 467.502 430.408 471.489 433.278 475.375C434.909 482.132 436.49 488.608 438.02 494.803C435.443 498.778 432.901 502.585 430.391 506.223C432.315 510.784 434.172 515.092 435.944 519.096C438.746 527.543 441.277 534.689 443.455 540.18C449.08 539.729 454.706 539.234 460.332 538.693C465.395 535.314 470.458 531.53 475.741 527.239C477.176 525.718 478.627 524.147 480.079 522.526L484.467 521.715C484.467 518.758 484.551 515.633 484.467 512.339C489.53 509.129 494.593 505.75 499.758 502.202C500.331 493.113 500.669 483.061 500.804 472.266C509.243 464.123 517.681 455.609 526.12 446.925C529.293 439.864 532.415 432.616 535.453 425.267C529.535 426.653 523.532 428.032 517.445 429.406C508.348 411.55 498.272 392.578 487.758 373.319L492.72 369.737L496.99 369.18C503.656 381.597 510.12 393.895 516.213 405.856C516.854 410.722 517.451 415.537 518.002 420.301C525.878 416.381 533.692 412.439 541.445 408.475C546.598 402.145 551.661 395.81 556.634 389.469C553.765 385.736 550.829 381.951 547.824 378.15H538.609C533.4 373.274 528.072 368.341 522.626 363.351L530.593 359.567C535.791 364.23 540.961 368.814 546.103 373.319L574.541 377.086C577.714 381.94 580.786 386.744 583.756 391.497L588.499 390.094C589.298 395.219 590.035 400.287 590.71 405.299C592.713 413.307 594.518 421.112 596.127 428.714C609.525 387.391 607.895 342.658 591.526 302.421C575.157 262.185 545.103 229.038 506.677 208.84L506.644 208.857Z" fill="white"/>
<path opacity="0.3" d="M522.29 501.847C522.847 499.127 523.387 496.306 523.977 493.4C519.134 497.303 514.273 501.087 509.446 504.702C507.64 509.771 505.784 514.636 503.91 519.062L505.007 522.137L510.374 521.799C514.323 515.836 518.34 509.129 522.29 501.847Z" fill="white"/>
</g>
<path d="M248.654 304.054C248.58 304.055 248.508 304.034 248.445 303.995C248.382 303.957 248.332 303.901 248.3 303.834C248.252 303.74 248.243 303.63 248.274 303.529C248.306 303.428 248.376 303.344 248.469 303.293C256.532 298.963 264.003 293.608 270.696 287.362L270.899 287.177C269.7 280.74 268.603 274.287 267.641 268.019C267.636 267.92 267.668 267.822 267.73 267.744C267.792 267.667 267.88 267.615 267.978 267.598C268.076 267.581 268.176 267.601 268.261 267.654C268.345 267.707 268.407 267.788 268.435 267.884C269.397 274.236 270.511 280.757 271.726 287.261C271.74 287.334 271.733 287.409 271.706 287.478C271.679 287.546 271.633 287.606 271.574 287.65L271.219 287.971C264.475 294.263 256.947 299.657 248.823 304.02C248.771 304.047 248.713 304.059 248.654 304.054Z" fill="white"/>
<path d="M304.469 517.356C304.425 517.373 304.377 517.373 304.334 517.356C304.284 517.339 304.239 517.312 304.2 517.277C304.161 517.243 304.13 517.2 304.108 517.153C304.086 517.106 304.074 517.054 304.072 517.002C304.07 516.95 304.079 516.898 304.097 516.849C305.481 513.386 308.367 504.534 305.194 497.016C305.162 496.956 305.145 496.889 305.145 496.822C305.145 496.754 305.162 496.687 305.194 496.627C309.161 491.221 312.57 485.41 310.646 479.48C309.532 476.202 301.059 471.81 287.406 467.451C287.204 467.392 287.007 467.318 286.815 467.232C281.65 464.005 276.486 460.677 271.457 457.349C271.399 457.305 271.353 457.249 271.321 457.185C271.289 457.12 271.271 457.049 271.271 456.977C271.216 452.539 269.436 448.297 266.309 445.152C264.668 443.681 262.737 442.572 260.641 441.897C258.544 441.222 256.33 440.995 254.14 441.232C254.068 441.244 253.994 441.237 253.925 441.21C253.857 441.183 253.797 441.138 253.752 441.08C249.853 435.826 245.921 430.369 242.09 424.828C242.031 424.74 242.008 424.633 242.027 424.529C242.046 424.425 242.105 424.332 242.191 424.271C242.28 424.215 242.386 424.195 242.489 424.214C242.592 424.233 242.684 424.289 242.748 424.372C246.529 429.846 250.41 435.235 254.258 440.421C256.533 440.2 258.829 440.455 260.999 441.17C263.17 441.886 265.168 443.046 266.866 444.577C270.115 447.847 271.978 452.247 272.064 456.859C277.026 460.12 282.191 463.397 287.254 466.59L287.693 466.742C295.861 469.344 309.819 474.446 311.456 479.277C313.481 485.477 310.072 491.441 306.021 496.965C309.178 504.703 306.275 513.673 304.857 517.238C304.809 517.291 304.748 517.331 304.679 517.352C304.611 517.373 304.538 517.374 304.469 517.356Z" fill="white"/>
<path d="M305.363 245.668C305.308 245.683 305.25 245.683 305.195 245.668L298.849 242.627C298.785 242.595 298.73 242.547 298.688 242.488C298.647 242.429 298.621 242.361 298.612 242.29C298.511 239.739 298.444 237.036 298.393 233.843C298.391 233.79 298.399 233.738 298.417 233.689C298.436 233.64 298.464 233.595 298.5 233.557C298.537 233.519 298.58 233.489 298.629 233.468C298.677 233.448 298.729 233.437 298.781 233.437C298.884 233.437 298.983 233.478 299.056 233.551C299.128 233.624 299.169 233.723 299.169 233.826C299.169 236.968 299.287 239.587 299.389 242.053L305.195 244.841C309.481 237.205 313.819 230.058 318.072 223.622C318.111 223.555 318.17 223.502 318.241 223.47C331.034 217.658 343.962 212.252 356.704 207.387C358.257 204.008 359.844 200.849 361.413 197.977C361.431 197.92 361.462 197.867 361.503 197.823C361.544 197.779 361.595 197.745 361.65 197.723C361.706 197.701 361.767 197.691 361.827 197.695C361.887 197.699 361.945 197.717 361.997 197.746C362.05 197.776 362.095 197.816 362.13 197.866C362.165 197.915 362.188 197.971 362.198 198.03C362.209 198.089 362.206 198.15 362.189 198.208C362.173 198.266 362.145 198.32 362.105 198.365C360.536 201.254 358.932 204.464 357.363 207.877C357.311 207.965 357.235 208.036 357.143 208.079C344.401 212.945 331.473 218.351 318.68 224.162C314.393 230.65 310.021 237.847 305.701 245.567C305.656 245.608 305.602 245.639 305.544 245.656C305.485 245.674 305.424 245.678 305.363 245.668Z" fill="white"/>
<path d="M385.245 286.146C385.199 286.15 385.153 286.145 385.109 286.13C385.066 286.116 385.026 286.092 384.992 286.062C384.933 286.017 384.889 285.957 384.865 285.888C384.841 285.819 384.838 285.744 384.857 285.673C386.072 280.064 387.338 274.354 388.637 268.779C386.544 265.654 384.502 262.562 382.494 259.538C382.449 259.474 382.426 259.397 382.426 259.319C382.426 259.24 382.449 259.164 382.494 259.099C384.283 256.362 386.072 253.659 387.827 251.007C387.867 250.943 387.925 250.892 387.995 250.862C388.064 250.831 388.141 250.823 388.215 250.838C388.286 250.848 388.353 250.877 388.41 250.921C388.466 250.966 388.51 251.024 388.536 251.091L392.316 260.924C395.202 266.397 398.173 272.107 401.211 277.97C401.231 278.018 401.242 278.069 401.242 278.122C401.242 278.174 401.231 278.226 401.211 278.274C401.172 278.373 401.1 278.456 401.008 278.51C395.861 281.01 390.612 283.578 385.397 286.18C385.344 286.182 385.292 286.17 385.245 286.146ZM383.304 259.251L389.397 268.425C389.43 268.523 389.43 268.63 389.397 268.729C388.148 274.152 386.932 279.625 385.751 285.031C390.612 282.615 395.472 280.233 400.249 277.902C397.278 272.175 394.359 266.583 391.523 261.177C390.33 258.057 389.155 255.011 387.996 252.037C386.466 254.403 384.902 256.807 383.304 259.251Z" fill="white"/>
<path d="M372.215 282.311C372.138 282.335 372.056 282.335 371.978 282.311C371.919 282.268 371.873 282.208 371.846 282.139C371.819 282.07 371.812 281.995 371.827 281.923C372.502 277.919 373.177 273.966 373.869 270.097C373.882 269.99 373.936 269.893 374.021 269.827L379.675 265.89C379.743 265.849 379.822 265.827 379.902 265.827C379.983 265.827 380.062 265.849 380.13 265.89L385.193 269.269L385.345 269.371C385.427 269.423 385.486 269.504 385.511 269.598C385.536 269.691 385.525 269.791 385.48 269.877C384.13 272.547 382.797 275.266 381.447 278.003C381.402 278.086 381.331 278.152 381.244 278.189L372.451 282.311H372.215ZM374.679 270.266C374.038 273.847 373.413 277.497 372.789 281.179L380.772 277.463C382.054 274.861 383.326 272.293 384.586 269.759L379.962 266.583L374.679 270.266Z" fill="white"/>
<path d="M441.175 541.666C441.095 541.663 441.018 541.638 440.953 541.593C440.887 541.548 440.835 541.486 440.803 541.413C438.677 536.041 436.145 528.945 433.293 520.312C431.521 516.309 429.648 511.984 427.757 507.456C427.728 507.399 427.712 507.335 427.712 507.27C427.712 507.206 427.728 507.142 427.757 507.084C430.238 503.452 432.82 499.668 435.301 495.816C433.799 489.768 432.23 483.349 430.61 476.642C427.757 472.756 424.837 468.752 421.951 464.731C421.926 464.682 421.913 464.627 421.913 464.571C421.913 464.515 421.926 464.46 421.951 464.411C422.829 460.44 423.639 456.369 424.618 452.23C418.525 449.578 412.298 446.824 406.053 444.053C396.078 445.743 386.188 447.432 376.686 449.122C376.622 449.137 376.555 449.134 376.492 449.113C376.43 449.092 376.374 449.054 376.332 449.003C368.197 440.134 359.944 430.893 351.758 421.534C351.71 421.456 351.676 421.37 351.657 421.28C351.336 411.499 351.1 401.362 350.948 391.159C350.951 391.073 350.98 390.99 351.033 390.922C357.345 382.475 363.843 374.028 370.323 365.497L371.691 357.861C371.713 357.785 371.753 357.715 371.809 357.658C374.712 354.702 377.631 351.762 380.568 348.806C380.607 348.798 380.647 348.798 380.686 348.806L386.458 346.305C398.863 343.585 411.319 340.882 423.589 338.264C423.65 338.248 423.714 338.247 423.776 338.262C423.838 338.277 423.895 338.306 423.943 338.348C432.382 345.663 441.057 353.198 449.681 360.716C449.681 358.891 449.681 357.067 449.681 355.242C449.68 355.157 449.705 355.074 449.753 355.004C449.802 354.935 449.871 354.882 449.951 354.854L454.103 353.485C454.184 353.452 454.275 353.452 454.356 353.485L469.917 359.009H482.693L489.107 357.202C489.107 355.191 489.107 353.198 489.107 351.205L475.757 346.305L475.588 346.187C472.212 342.155 468.837 338.123 465.461 334.091C465.412 334.039 465.377 333.975 465.36 333.905C464.82 330.526 464.263 327.012 463.672 323.6L456.921 327.367L463.132 335.493C463.182 335.562 463.208 335.645 463.208 335.73C463.208 335.815 463.182 335.897 463.132 335.966L458.39 342.251C458.353 342.297 458.307 342.334 458.255 342.36C458.202 342.386 458.145 342.401 458.086 342.403C458.03 342.409 457.973 342.401 457.92 342.381C457.867 342.36 457.82 342.327 457.782 342.285C455.386 339.694 452.989 337.126 450.592 334.581C450.554 334.53 450.526 334.473 450.508 334.412C448.938 328.719 447.352 323.042 445.782 317.518C441.799 314.725 437.827 311.966 433.867 309.24L431.2 310.169C434.913 314.381 438.638 318.633 442.373 322.924C442.408 322.969 442.434 323.021 442.448 323.076C442.463 323.131 442.466 323.189 442.457 323.245C441.951 326.049 441.428 328.854 440.905 331.692C440.894 331.761 440.864 331.825 440.82 331.879C440.775 331.932 440.717 331.973 440.652 331.996L437.428 333.094C437.375 333.119 437.317 333.131 437.259 333.131C437.201 333.131 437.143 333.119 437.09 333.094C437.04 333.067 436.997 333.029 436.965 332.982C436.932 332.935 436.912 332.881 436.905 332.824L435.74 325.34C430.643 321.038 425.58 316.775 420.551 312.551L411.639 311.774L406.576 314.342C403.893 320.745 401.175 327.215 398.475 333.736C398.446 333.799 398.406 333.856 398.357 333.905C394.036 337.205 389.716 340.511 385.395 343.822C385.332 343.854 385.263 343.871 385.192 343.871C385.122 343.871 385.052 343.854 384.99 343.822L375.252 339.531C375.19 339.504 375.136 339.462 375.095 339.409C375.054 339.356 375.026 339.293 375.015 339.227C374.526 335.476 374.037 331.76 373.564 328.043C374.172 322.705 374.796 317.484 375.42 312.332C375.432 312.24 375.476 312.156 375.544 312.095C375.612 312.033 375.7 311.997 375.792 311.994L393.648 311.065C393.766 307.787 393.867 304.51 394.002 301.283L386.357 292.38C386.317 292.334 386.287 292.28 386.269 292.222C386.252 292.164 386.247 292.102 386.256 292.042C386.266 291.984 386.289 291.93 386.325 291.883C386.36 291.836 386.406 291.798 386.458 291.772C390.329 289.598 394.177 287.447 398.002 285.318C401.277 282.007 404.523 278.747 407.741 275.537C407.775 275.494 407.822 275.464 407.876 275.452C410.93 274.185 413.968 272.918 417.006 271.685C416.719 267.715 416.433 263.812 416.162 260.011C416.152 259.916 416.177 259.82 416.233 259.742C416.289 259.664 416.372 259.609 416.466 259.589L419.994 258.812C420.059 258.795 420.128 258.795 420.193 258.813C420.258 258.831 420.317 258.865 420.365 258.913C423.842 262.292 427.403 265.789 430.913 269.286C437.107 268.695 443.352 268.12 449.478 267.597C449.293 265.907 449.09 264.218 448.905 262.427C448.897 262.365 448.897 262.303 448.905 262.241L450.17 258.862C449.225 257.173 448.28 255.568 447.318 253.929C447.278 253.863 447.257 253.787 447.257 253.71C447.257 253.632 447.278 253.556 447.318 253.49L449.715 250.314L449.867 248.152L444.803 245.28C444.75 245.247 444.704 245.202 444.669 245.15C444.634 245.097 444.611 245.038 444.601 244.976C444.061 240.955 443.498 237.058 442.913 233.285C442.896 233.202 442.896 233.115 442.913 233.032C445.04 229.332 447.132 225.717 449.124 222.304L442.559 222.422C440.213 227.237 437.698 232.559 435.082 238.032C435.555 243.388 436.027 248.98 436.483 254.639C436.489 254.698 436.481 254.758 436.461 254.813C436.44 254.869 436.408 254.919 436.365 254.96C434.024 257.314 431.65 259.702 429.242 262.123C429.176 262.171 429.096 262.197 429.015 262.197C428.933 262.197 428.853 262.171 428.787 262.123C422.323 258.93 415.757 255.737 409.277 252.646C409.21 252.613 409.154 252.563 409.115 252.5C409.076 252.437 409.056 252.365 409.057 252.291C408.967 247.144 408.894 242.194 408.838 237.441C408.835 237.371 408.851 237.301 408.884 237.239C408.916 237.177 408.964 237.124 409.023 237.086C412.016 235.295 414.97 233.544 417.884 231.832C422.171 223.267 426.205 215.58 429.884 208.958C429.923 208.891 429.982 208.838 430.053 208.806C435.487 206.17 440.888 203.738 446.12 201.322C446.168 201.301 446.22 201.291 446.272 201.291C446.324 201.291 446.376 201.301 446.424 201.322C456.55 205.191 467.115 209.532 477.714 214.263C477.797 214.299 477.865 214.362 477.908 214.442C477.951 214.521 477.966 214.613 477.951 214.702C477.703 216.076 477.45 217.478 477.191 218.908C477.169 219.004 477.115 219.089 477.038 219.15C476.962 219.211 476.867 219.245 476.769 219.246L471.554 219.06L462.693 217.777C466.322 221.409 470.069 225.277 473.833 229.332L479.419 228.994C479.723 226.713 480.01 224.483 480.28 222.338C480.298 222.224 480.358 222.122 480.449 222.051C486.221 217.929 491.756 214.06 496.921 210.597C496.976 210.581 497.034 210.581 497.09 210.597L504.161 209.651C504.214 209.643 504.269 209.647 504.32 209.661C504.372 209.675 504.421 209.699 504.463 209.732C504.506 209.765 504.541 209.807 504.568 209.853C504.594 209.9 504.611 209.952 504.617 210.005C504.624 210.056 504.621 210.108 504.608 210.158C504.594 210.208 504.572 210.255 504.54 210.296C504.509 210.337 504.469 210.371 504.425 210.396C504.38 210.422 504.331 210.438 504.279 210.445L497.292 211.374C492.229 214.753 486.744 218.604 481.056 222.676C480.769 224.872 480.482 227.153 480.162 229.433C480.15 229.526 480.107 229.612 480.039 229.677C479.972 229.742 479.884 229.781 479.79 229.788L473.698 230.16C473.581 230.154 473.469 230.113 473.377 230.042C469.276 225.632 465.208 221.409 461.276 217.523C461.228 217.457 461.202 217.377 461.202 217.295C461.202 217.213 461.228 217.133 461.276 217.067C461.303 216.986 461.36 216.918 461.435 216.877C461.51 216.836 461.598 216.826 461.681 216.847C465.056 217.304 468.432 217.793 471.689 218.283L476.533 218.452C476.752 217.236 476.972 216.053 477.174 214.888C466.744 210.242 456.381 205.951 446.373 202.15C441.31 204.447 435.909 206.914 430.593 209.499C426.913 216.104 422.897 223.774 418.627 232.322C418.584 232.39 418.526 232.448 418.458 232.491C415.577 234.181 412.658 235.915 409.698 237.694C409.698 242.29 409.833 247.087 409.918 252.054C416.247 255.078 422.643 258.187 428.956 261.312C431.206 259.003 433.456 256.751 435.707 254.555C435.251 248.912 434.778 243.354 434.306 238.032C434.289 237.966 434.289 237.896 434.306 237.83C436.955 232.153 439.538 226.781 441.934 221.882C441.966 221.815 442.017 221.759 442.08 221.72C442.142 221.681 442.215 221.661 442.289 221.662L449.816 221.527C449.95 221.561 450.073 221.631 450.17 221.73C450.204 221.792 450.222 221.862 450.222 221.932C450.222 222.003 450.204 222.073 450.17 222.135C448.078 225.683 445.884 229.467 443.656 233.336C444.179 237.002 444.719 240.803 445.242 244.705L450.305 247.628C450.373 247.662 450.429 247.716 450.465 247.782C450.501 247.849 450.516 247.924 450.508 248L450.339 250.517C450.329 250.596 450.3 250.671 450.255 250.737L447.943 253.794C448.888 255.399 449.816 257.021 450.761 258.677C450.804 258.785 450.804 258.906 450.761 259.015L449.462 262.495C449.664 264.302 449.867 266.11 450.069 267.951C450.077 268.005 450.074 268.06 450.059 268.112C450.045 268.165 450.019 268.214 449.985 268.255C449.952 268.297 449.912 268.33 449.865 268.353C449.818 268.377 449.767 268.389 449.715 268.391C443.403 268.948 436.972 269.556 430.559 270.164C430.5 270.171 430.44 270.163 430.385 270.143C430.329 270.122 430.279 270.089 430.238 270.046C426.745 266.566 423.2 263.086 419.724 259.707L416.753 260.366C417.023 264.15 417.293 268.036 417.58 271.989C417.588 272.073 417.568 272.157 417.522 272.228C417.476 272.298 417.407 272.351 417.327 272.378L408.011 276.229C404.804 279.422 401.564 282.683 398.306 285.977H398.205L387.032 292.228L394.475 300.878C394.499 300.966 394.499 301.059 394.475 301.148C394.357 304.527 394.222 308.007 394.121 311.47C394.112 311.569 394.068 311.661 393.997 311.73C393.925 311.798 393.831 311.838 393.732 311.842L375.859 312.771C375.235 317.839 374.627 322.907 374.037 327.975C374.492 331.506 374.982 335.155 375.454 338.821L384.636 342.724L397.327 333.01C400.028 326.466 402.734 319.99 405.445 313.582C405.483 313.495 405.548 313.424 405.631 313.379L410.914 310.693C410.948 310.676 410.985 310.668 411.023 310.668C411.061 310.668 411.099 310.676 411.133 310.693L420.297 311.487C420.378 311.489 420.455 311.519 420.517 311.571C425.648 315.84 430.795 320.159 435.96 324.529C436.03 324.597 436.077 324.686 436.095 324.782L437.209 331.945L439.757 331.084C440.263 328.403 440.753 325.734 441.225 323.076C437.411 318.684 433.602 314.336 429.799 310.034C429.771 309.976 429.756 309.913 429.756 309.848C429.756 309.784 429.771 309.72 429.799 309.662C429.814 309.599 429.846 309.541 429.89 309.493C429.934 309.446 429.99 309.411 430.053 309.392L433.428 308.193C433.484 308.168 433.544 308.155 433.605 308.155C433.666 308.155 433.727 308.168 433.782 308.193C437.856 310.997 441.923 313.813 445.985 316.64C446.025 316.662 446.06 316.694 446.086 316.732C446.112 316.77 446.13 316.813 446.137 316.859C447.723 322.49 449.304 328.161 450.879 333.871L457.63 341.153L461.9 335.493C459.807 332.739 457.698 330.003 455.588 327.249C455.563 327.199 455.55 327.144 455.55 327.088C455.55 327.033 455.563 326.978 455.588 326.928C455.619 326.815 455.691 326.719 455.791 326.658L463.47 322.384C463.527 322.354 463.591 322.338 463.655 322.338C463.72 322.338 463.784 322.354 463.841 322.384C463.898 322.41 463.948 322.45 463.986 322.5C464.024 322.55 464.05 322.609 464.061 322.671C464.651 326.235 465.225 329.834 465.748 333.432C469.124 337.385 472.46 341.361 475.757 345.359C480.257 347.004 484.758 348.654 489.258 350.309C489.335 350.338 489.4 350.389 489.448 350.455C489.496 350.521 489.524 350.599 489.529 350.681C489.529 352.877 489.529 355.073 489.529 357.269C489.534 357.356 489.508 357.441 489.455 357.51C489.402 357.578 489.326 357.625 489.242 357.641L482.491 359.567H469.293L453.799 354.06L450.069 355.31V361.493C450.074 361.571 450.056 361.65 450.016 361.717C449.975 361.785 449.916 361.839 449.845 361.871C449.773 361.904 449.694 361.915 449.616 361.902C449.539 361.888 449.467 361.852 449.411 361.797C440.635 354.127 431.791 346.457 423.15 338.973C411.015 341.592 398.644 344.278 386.357 346.964L380.737 349.414C377.856 352.308 374.987 355.208 372.129 358.114L370.762 365.716C370.778 365.777 370.778 365.841 370.762 365.902C364.298 374.349 357.817 382.881 351.488 391.243C351.64 401.379 351.876 411.381 352.197 421.061C360.298 430.319 368.467 439.475 376.517 448.243C385.986 446.672 395.842 444.999 405.783 443.175C405.86 443.149 405.943 443.149 406.019 443.175C412.365 445.996 418.728 448.817 424.939 451.52C425.025 451.557 425.095 451.623 425.138 451.706C425.181 451.789 425.194 451.885 425.175 451.977C424.264 456.166 423.369 460.288 422.475 464.309C425.361 468.296 428.247 472.283 431.082 476.135C431.089 476.185 431.089 476.237 431.082 476.287C432.77 483.044 434.323 489.582 435.842 495.715C435.882 495.818 435.882 495.933 435.842 496.036C433.327 499.871 430.778 503.655 428.331 507.27C430.188 511.713 432.027 515.971 433.782 519.924C436.601 528.371 439.082 535.432 441.192 540.771C446.677 540.315 452.196 539.825 457.596 539.301C462.491 536.041 467.723 532.206 472.904 527.932C474.322 526.445 475.773 524.857 477.208 523.269C477.263 523.199 477.341 523.151 477.427 523.134L478.052 523.015L481.427 522.373C481.427 519.535 481.427 516.494 481.427 513.335C481.426 513.268 481.443 513.201 481.475 513.142C481.508 513.082 481.555 513.033 481.613 512.997C486.676 509.821 491.739 506.476 496.718 503.03C497.275 494.194 497.63 484.21 497.765 473.314C497.771 473.207 497.812 473.106 497.883 473.026C506.322 464.985 514.76 456.453 523.199 447.686C526.22 440.928 529.241 433.917 532.195 426.822C526.591 428.122 520.802 429.457 514.946 430.775C514.861 430.79 514.773 430.779 514.695 430.742C514.616 430.706 514.551 430.647 514.507 430.572C505.376 412.732 495.368 393.878 484.752 374.518C484.702 374.435 484.686 374.335 484.708 374.241C484.73 374.146 484.788 374.063 484.87 374.011L489.832 370.43C489.892 370.406 489.958 370.406 490.018 370.43L494.271 369.872C494.352 369.853 494.436 369.863 494.51 369.9C494.584 369.937 494.643 369.999 494.676 370.075C501.326 382.424 507.807 394.774 513.916 406.752V406.887C514.524 411.668 515.098 416.347 515.604 420.774C523.435 416.888 531.131 413.019 538.456 409.252C543.519 403.052 548.583 396.767 553.359 390.567C550.591 386.969 547.739 383.303 544.92 379.654H535.891C535.792 379.653 535.696 379.617 535.621 379.552C530.557 374.788 525.157 369.805 519.638 364.753C519.59 364.708 519.553 364.653 519.53 364.591C519.507 364.53 519.497 364.464 519.503 364.399C519.514 364.332 519.541 364.27 519.583 364.217C519.624 364.164 519.678 364.122 519.739 364.095L527.705 360.31C527.771 360.27 527.847 360.249 527.925 360.249C528.002 360.249 528.078 360.27 528.144 360.31C533.427 364.905 538.659 369.501 543.671 373.944L571.991 377.694C572.048 377.701 572.102 377.722 572.149 377.754C572.196 377.786 572.235 377.83 572.262 377.88C575.333 382.593 578.388 387.341 581.325 392.037L585.78 390.719C585.83 390.695 585.885 390.683 585.941 390.683C585.996 390.683 586.051 390.695 586.101 390.719C586.151 390.746 586.195 390.785 586.227 390.832C586.259 390.879 586.28 390.933 586.287 390.99C587.097 396.159 587.839 401.278 588.498 406.194C590.422 413.796 592.244 421.686 593.915 429.575C593.935 429.678 593.915 429.785 593.859 429.873C593.802 429.961 593.713 430.024 593.611 430.048C593.56 430.061 593.507 430.063 593.456 430.054C593.404 430.045 593.354 430.026 593.31 429.998C593.266 429.969 593.228 429.932 593.199 429.888C593.169 429.845 593.149 429.796 593.139 429.744C591.451 421.855 589.645 413.982 587.704 406.346C587.063 401.531 586.354 396.565 585.561 391.547L581.257 392.814C581.173 392.839 581.083 392.836 581.001 392.806C580.919 392.775 580.849 392.719 580.801 392.645C577.848 387.932 574.793 383.134 571.705 378.404L543.452 374.653C543.371 374.651 543.294 374.621 543.232 374.569C538.254 370.143 533.106 365.581 527.806 361.054L520.617 364.432C525.933 369.332 531.131 374.13 536.043 378.742H545.106C545.168 378.738 545.229 378.75 545.285 378.777C545.341 378.803 545.39 378.843 545.426 378.894C548.397 382.678 551.367 386.479 554.22 390.213C554.276 390.282 554.306 390.368 554.306 390.457C554.306 390.547 554.276 390.633 554.22 390.702C549.325 397.004 544.228 403.39 539.03 409.708L538.895 409.809C531.384 413.661 523.486 417.648 515.452 421.635C515.395 421.665 515.331 421.68 515.267 421.68C515.202 421.68 515.138 421.665 515.081 421.635C515.026 421.604 514.979 421.56 514.943 421.507C514.908 421.454 514.886 421.394 514.878 421.331C514.338 416.753 513.748 411.921 513.106 406.954C507.047 395.129 500.634 382.847 494.035 370.599L490.153 371.106L485.545 374.484C496.06 393.625 505.967 412.293 515.013 429.964C521.005 428.612 526.963 427.244 532.701 425.892C532.772 425.874 532.846 425.877 532.915 425.901C532.984 425.925 533.045 425.969 533.089 426.028C533.13 426.087 533.153 426.158 533.153 426.23C533.153 426.303 533.13 426.374 533.089 426.433C530.034 433.816 526.912 441.114 523.773 448.108L523.688 448.209C515.25 456.977 506.811 465.492 498.474 473.55C498.339 484.464 497.984 494.482 497.427 503.317C497.423 503.377 497.406 503.436 497.377 503.488C497.348 503.541 497.307 503.586 497.258 503.621C492.195 507 487.132 510.379 482.153 513.606C482.153 516.815 482.153 519.89 482.153 522.762C482.154 522.854 482.123 522.944 482.064 523.015C482.005 523.087 481.923 523.135 481.832 523.151L478.052 523.86L477.562 523.945C476.162 525.516 474.744 527.07 473.309 528.573C467.959 532.932 462.761 536.784 457.833 540.078H457.647C452.111 540.602 446.457 541.109 440.77 541.565L441.175 541.666Z" fill="white"/>
<path d="M502.66 523.674C502.576 523.673 502.494 523.647 502.425 523.599C502.356 523.551 502.302 523.483 502.272 523.404L502.053 522.779L501.259 520.296C501.239 520.247 501.229 520.196 501.229 520.143C501.229 520.091 501.239 520.04 501.259 519.991C503.099 515.667 504.956 510.835 506.778 505.665C506.809 505.589 506.855 505.52 506.913 505.463C511.74 501.864 516.618 498.063 521.445 494.178C521.512 494.132 521.591 494.107 521.673 494.107C521.754 494.107 521.833 494.132 521.901 494.178C521.971 494.216 522.027 494.276 522.061 494.349C522.094 494.422 522.103 494.504 522.086 494.583C521.597 497.337 521.057 500.192 520.483 503.03V503.148C516.466 510.548 512.432 517.272 508.466 523.117C508.435 523.171 508.391 523.216 508.338 523.249C508.285 523.281 508.224 523.3 508.162 523.303L502.795 523.641L502.66 523.674ZM501.985 520.211C502.272 520.988 502.542 521.765 502.812 522.509L502.93 522.863L507.808 522.542C511.707 516.765 515.673 510.142 519.622 502.844C520.128 500.378 520.601 497.911 521.04 495.512C516.5 499.144 511.926 502.709 507.403 506.088C505.631 511.173 503.808 515.937 501.985 520.296V520.211Z" fill="white"/>
<path d="M361.549 45.3237C360.047 27.3317 389.346 35.7449 396.991 47.0131C404.637 58.2813 390.325 81.4429 413.683 89.0789C437.042 96.7149 420.535 111.277 432.923 134.777C451.151 169.359 340.621 213.215 356.182 143.41C370.696 78.3175 326.495 74.4488 361.549 45.3237Z" fill="#263238"/>
<path d="M419.083 89.5012C418.212 89.5007 417.345 89.3929 416.5 89.1802C401.193 85.3453 399.994 74.9048 398.847 64.8023C398.104 58.2137 397.412 52.0136 392.99 47.3847C392.702 47.0823 392.545 46.6774 392.554 46.2592C392.564 45.841 392.739 45.4437 393.041 45.1547C393.343 44.8657 393.747 44.7087 394.165 44.7182C394.583 44.7277 394.98 44.9029 395.269 45.2054C400.416 50.5945 401.209 57.6393 402.02 64.4475C403.134 74.3136 404.096 82.8281 417.209 86.1224C419.471 86.6799 421.732 86.1224 422.458 84.9398C423.184 83.7573 422.458 82.1354 420.669 80.2602C420.38 79.9578 420.224 79.5529 420.233 79.1347C420.243 78.7165 420.418 78.3192 420.72 78.0302C421.022 77.7412 421.426 77.5842 421.844 77.5937C422.262 77.6032 422.659 77.7785 422.948 78.0809C426.931 82.3044 425.834 85.3791 425.175 86.5278C424.501 87.5061 423.586 88.2938 422.519 88.8146C421.451 89.3355 420.268 89.5719 419.083 89.5012Z" fill="#263238"/>
<path d="M356.451 113.389C356.67 117.427 356.653 121.262 356.636 125.215C356.62 129.168 356.434 133.02 356.231 136.922C356.029 140.825 355.759 144.727 355.337 148.63C354.915 152.532 354.425 156.418 353.885 160.304L353.801 160.929L353.666 161.266C352.421 164.493 350.771 167.547 348.755 170.355C346.932 173.008 345.075 175.559 343.118 177.991C341.16 180.424 339.101 182.755 337.025 185.053C334.949 187.351 332.806 189.581 330.544 191.811L326.122 188.06L331.185 180.526C332.862 178.025 334.476 175.497 336.029 172.94C337.616 170.423 339.135 167.872 340.502 165.372C341.803 163.057 342.882 160.625 343.725 158.107L343.506 159.087C344.232 151.603 344.518 144.068 344.772 136.517C344.89 132.75 344.924 128.965 344.94 125.198C344.957 121.431 344.94 117.596 344.839 113.964L356.451 113.389Z" fill="#FFB573"/>
<path d="M328.891 185.34L321.785 190.679L327.912 195.95C329.182 195.32 330.28 194.389 331.109 193.238C331.939 192.086 332.475 190.75 332.671 189.344L328.891 185.34Z" fill="#FFB573"/>
<path d="M345.194 101.952C341.818 105.686 341.346 118.846 341.346 118.846L362.493 125.468C362.493 125.468 364.738 104.841 359.843 100.837C358.824 99.9137 357.628 99.2076 356.328 98.7618C355.027 98.316 353.65 98.1399 352.279 98.2443C350.909 98.3486 349.574 98.7311 348.355 99.3686C347.137 100.006 346.062 100.885 345.194 101.952Z" fill="#8490FF"/>
<path d="M318.916 196.355L321.566 202.69L327.912 195.95L321.785 190.679L318.916 196.355Z" fill="#FFB573"/>
<path d="M346.308 104.131C345.802 111.227 344.181 128.611 352.907 168.142L399.235 165.524C397.463 147.38 398.56 138.392 406.695 102.864C406.818 102.328 406.831 101.772 406.733 101.23C406.635 100.688 406.429 100.172 406.126 99.7123C405.823 99.2528 405.43 98.8595 404.971 98.5563C404.512 98.2531 403.996 98.0462 403.455 97.9482C398.325 97.0372 393.146 96.4279 387.944 96.1236C380.927 95.6255 373.882 95.6255 366.864 96.1236C361.379 96.6136 355.439 97.5765 351.675 98.2692C350.255 98.5062 348.955 99.2122 347.982 100.275C347.01 101.337 346.42 102.695 346.308 104.131Z" fill="#8490FF"/>
<path d="M369.852 107.933C371.33 108.611 372.635 109.618 373.667 110.877C374.7 112.136 375.432 113.613 375.809 115.197C381.159 114.099 391.961 105.23 390.138 95.5831C388.409 95.0543 386.613 94.7812 384.805 94.7722L369.852 107.933Z" fill="white"/>
<path d="M367.608 107.493C366.264 107.832 365.018 108.478 363.966 109.381C362.915 110.284 362.087 111.419 361.549 112.697C360.637 109.895 360.419 106.914 360.913 104.01C361.407 101.105 362.598 98.3642 364.384 96.0224C367.006 95.3275 369.692 94.9085 372.401 94.7722L367.608 107.493Z" fill="white"/>
<path d="M314.005 336.524L302.613 335.544L301.212 308.835L312.604 309.815L314.005 336.524Z" fill="#FFB573"/>
<path d="M302.106 333.753L313.819 328.482C314.018 328.391 314.245 328.374 314.456 328.436C314.666 328.498 314.848 328.635 314.966 328.82L320.451 337.504C320.581 337.726 320.662 337.973 320.69 338.229C320.718 338.484 320.692 338.743 320.614 338.988C320.536 339.233 320.408 339.459 320.238 339.652C320.067 339.844 319.858 339.999 319.624 340.105C315.506 341.879 313.43 342.521 308.283 344.836C305.11 346.255 299.186 350.191 294.781 352.151C290.376 354.11 288.232 349.887 289.87 348.687C294.713 345.353 298.45 340.647 300.604 335.172C300.92 334.536 301.452 334.032 302.106 333.753Z" fill="#263238"/>
<g opacity="0.2">
<path opacity="0.2" d="M312.604 309.815L301.212 308.835L302.005 323.718L313.381 324.343L312.604 309.815Z" fill="black"/>
</g>
<path d="M352.737 167.669C352.737 167.669 310.544 206.728 302.983 225.109C293.447 248.456 299.405 319.714 299.405 319.714L314.932 321.049C314.932 321.049 316.012 270.857 323.134 239.637C338.138 219.753 395.842 193.618 388.737 166.098L352.737 167.669Z" fill="#263238"/>
<path opacity="0.2" d="M369.126 188.787C348.738 193.281 336.772 216.324 332.553 230.261C346.409 218.672 367.995 205.866 380.096 191.861C377.666 190.561 373.48 187.841 369.126 188.787Z" fill="black"/>
<path d="M316.13 321.995L297.852 320.424L297.16 311.183L316.113 309.848L316.13 321.995Z" fill="white"/>
<path d="M297.178 337.554H297.043C296.793 337.469 296.569 337.319 296.395 337.121C296.22 336.922 296.1 336.681 296.047 336.422C295.997 336.267 295.987 336.102 296.02 335.942C296.053 335.782 296.126 335.633 296.233 335.51C297.195 334.429 301.296 335.037 301.752 335.122C301.804 335.13 301.853 335.154 301.892 335.19C301.931 335.226 301.958 335.273 301.971 335.324C301.979 335.374 301.975 335.426 301.957 335.473C301.939 335.521 301.909 335.562 301.87 335.595C300.705 336.456 298.562 337.841 297.178 337.554ZM301.009 335.527C299.321 335.324 297.144 335.257 296.638 335.848C296.638 335.848 296.503 336.017 296.638 336.253C296.672 336.424 296.749 336.583 296.861 336.716C296.973 336.849 297.117 336.951 297.279 337.014C297.971 337.267 299.355 336.71 301.009 335.527Z" fill="white"/>
<path d="M301.263 335.544C299.879 335.223 297.499 333.973 297.229 332.824C297.182 332.613 297.208 332.393 297.303 332.2C297.398 332.006 297.557 331.851 297.752 331.76C297.93 331.65 298.129 331.582 298.336 331.558C298.543 331.535 298.753 331.558 298.95 331.625C300.537 332.114 301.887 335.105 301.955 335.24C301.975 335.282 301.986 335.328 301.986 335.375C301.986 335.422 301.975 335.468 301.955 335.51C301.928 335.547 301.892 335.575 301.85 335.593C301.809 335.611 301.763 335.617 301.718 335.611C301.564 335.607 301.411 335.584 301.263 335.544ZM298.697 332.165C298.473 332.113 298.237 332.149 298.039 332.267C297.735 332.452 297.735 332.621 297.752 332.756C297.938 333.534 299.879 334.699 301.229 335.037C300.723 334.057 299.727 332.486 298.782 332.182L298.697 332.165Z" fill="white"/>
<path opacity="0.2" d="M406.273 104.706C403.611 105.852 401.289 107.665 399.53 109.97C397.771 112.275 396.635 114.994 396.231 117.866C395.421 123.407 399.724 129.202 400.99 131.601C402.104 124.387 403.792 115.738 406.273 104.706Z" fill="black"/>
<path d="M385.885 74.9219C384.552 81.6794 383.218 91.5961 387.944 96.1237C387.944 96.1237 387.674 103.033 368.518 110.467C361.632 100.55 366.83 96.0899 366.83 96.0899C374.408 94.2992 374.206 91.2245 372.906 85.9536L385.885 74.9219Z" fill="#FFB573"/>
<path opacity="0.2" d="M380.62 79.3649L372.991 85.9535C373.316 87.1762 373.531 88.4258 373.633 89.687C376.535 89.2816 381.075 86.832 381.7 83.6897C381.704 82.1807 381.333 80.6944 380.62 79.3649Z" fill="black"/>
<path d="M394.746 63.3157C391.691 74.415 390.628 79.1622 383.742 83.7236C373.379 90.5994 360.434 84.3993 360.114 72.6243C359.844 62.0149 364.907 45.594 376.839 43.5161C379.469 43.0302 382.178 43.2254 384.711 44.0831C387.244 44.9408 389.515 46.4326 391.31 48.4167C393.104 50.4008 394.362 52.8112 394.963 55.419C395.565 58.0267 395.49 60.7451 394.746 63.3157Z" fill="#FFB573"/>
<path d="M369.16 43.06C364.316 47.5706 382.78 56.5751 388.4 56.4061C380.856 62.2345 387.539 73.5196 393.463 70.7322C399.387 67.9447 399.067 53.5342 396.012 48.4322C392.957 43.3303 376.89 35.9138 369.16 43.06Z" fill="#263238"/>
<path d="M376.569 45.0196C380.13 49.1924 360.367 54.7843 362.595 48.2463C365.548 39.5629 373.025 40.8468 376.569 45.0196Z" fill="#263238"/>
<path d="M376.231 62.471C376.029 63.3832 375.387 64.0252 374.797 63.907C374.206 63.7887 373.868 62.9271 374.054 62.0148C374.24 61.1026 374.898 60.4606 375.489 60.5789C376.079 60.6971 376.366 61.5925 376.231 62.471Z" fill="#263238"/>
<path d="M365.902 60.3086C365.7 61.2378 365.058 61.8628 364.467 61.7446C363.877 61.6263 363.539 60.7647 363.725 59.8525C363.911 58.9402 364.569 58.2982 365.159 58.4334C365.75 58.5685 366.088 59.3963 365.902 60.3086Z" fill="#263238"/>
<path d="M365.413 58.5348L363.354 57.4366C363.354 57.4366 364.113 59.3963 365.413 58.5348Z" fill="#263238"/>
<path d="M368.737 62.6399C367.476 64.5552 365.96 66.2888 364.23 67.7925C364.63 68.2213 365.118 68.5592 365.659 68.7836C366.201 69.008 366.784 69.1136 367.37 69.0934L368.737 62.6399Z" fill="#ED893E"/>
<path d="M371.59 73.7223C371.13 73.6997 370.673 73.6375 370.223 73.5365C370.187 73.5304 370.153 73.5172 370.123 73.4976C370.092 73.4781 370.066 73.4525 370.045 73.4226C370.025 73.3926 370.011 73.3588 370.003 73.3233C369.996 73.2877 369.996 73.251 370.004 73.2155C370.023 73.145 370.069 73.0847 370.132 73.047C370.195 73.0093 370.27 72.9971 370.341 73.0127C371.473 73.2752 372.65 73.2683 373.779 72.9925C374.907 72.7167 375.955 72.1797 376.839 71.4247C376.864 71.3992 376.895 71.379 376.928 71.3652C376.961 71.3513 376.997 71.3442 377.033 71.3442C377.069 71.3442 377.105 71.3513 377.138 71.3652C377.171 71.379 377.202 71.3992 377.227 71.4247C377.253 71.4502 377.273 71.4805 377.287 71.5138C377.3 71.5472 377.308 71.5829 377.308 71.619C377.308 71.6551 377.3 71.6908 377.287 71.7241C377.273 71.7575 377.253 71.7878 377.227 71.8133C376.463 72.4925 375.57 73.0114 374.602 73.3393C373.634 73.6672 372.609 73.7974 371.59 73.7223Z" fill="#263238"/>
<path d="M380.822 61.2715C380.705 61.2679 380.593 61.2264 380.501 61.1533C380.41 61.0802 380.345 60.9794 380.316 60.866C379.977 60.0386 379.47 59.2903 378.828 58.6682C378.186 58.046 377.423 57.5634 376.586 57.2507C376.447 57.2011 376.334 57.0986 376.271 56.9656C376.208 56.8327 376.2 56.6801 376.248 56.5412C376.273 56.4727 376.311 56.4098 376.36 56.3563C376.409 56.3028 376.468 56.2598 376.535 56.2298C376.601 56.1999 376.672 56.1836 376.745 56.1819C376.817 56.1802 376.89 56.1933 376.957 56.2202C377.965 56.5883 378.882 57.1697 379.645 57.9248C380.408 58.6799 381 59.591 381.379 60.5957C381.397 60.6645 381.401 60.7361 381.391 60.8064C381.381 60.8768 381.357 60.9445 381.321 61.0057C381.285 61.0669 381.238 61.1203 381.181 61.1631C381.124 61.2058 381.06 61.2369 380.991 61.2546C380.937 61.2761 380.879 61.282 380.822 61.2715Z" fill="#263238"/>
<path d="M363.809 54.8857C363.711 54.8798 363.616 54.8488 363.533 54.7955C363.451 54.7423 363.383 54.6686 363.337 54.5816C363.271 54.4514 363.259 54.3006 363.304 54.1617C363.348 54.0227 363.445 53.9066 363.573 53.8383C364.343 53.4044 365.207 53.1666 366.09 53.146C366.973 53.1254 367.848 53.3225 368.636 53.72C368.701 53.7533 368.757 53.7996 368.803 53.8559C368.848 53.9122 368.881 53.9774 368.901 54.0472C368.92 54.1171 368.924 54.1901 368.913 54.2618C368.903 54.3334 368.877 54.402 368.839 54.4634C368.804 54.5259 368.757 54.5808 368.7 54.6249C368.644 54.6691 368.579 54.7015 368.51 54.7204C368.441 54.7392 368.369 54.7441 368.298 54.7348C368.227 54.7255 368.158 54.7021 368.096 54.6661C367.47 54.3777 366.784 54.2412 366.095 54.2676C365.406 54.294 364.733 54.4826 364.13 54.8181C364.033 54.8734 363.921 54.897 363.809 54.8857Z" fill="#263238"/>
<path d="M375.742 60.7816L373.683 59.6835C373.683 59.6835 374.442 61.5756 375.742 60.7816Z" fill="#263238"/>
<path d="M359.708 360.935L348.299 360.395L345.868 333.77L357.277 334.311L359.708 360.935Z" fill="#FFB573"/>
<path d="M347.675 358.638L359.169 352.928C359.363 352.819 359.591 352.788 359.808 352.841C360.024 352.895 360.212 353.028 360.333 353.215L366.173 361.662C366.311 361.882 366.401 362.128 366.439 362.384C366.476 362.641 366.459 362.903 366.389 363.153C366.319 363.403 366.198 363.635 366.032 363.835C365.867 364.035 365.662 364.198 365.43 364.314C361.38 366.223 359.337 366.95 354.274 369.467C351.169 371.021 345.414 375.177 341.11 377.306C336.806 379.434 334.477 375.295 336.047 374.028C340.726 370.495 344.25 365.65 346.173 360.108C346.483 359.455 347.016 358.933 347.675 358.638Z" fill="#263238"/>
<g opacity="0.2">
<path opacity="0.2" d="M357.277 334.311L345.868 333.77L347.218 348.62L358.611 348.789L357.277 334.311Z" fill="black"/>
</g>
<path d="M367.422 167.315C367.422 167.315 337.802 224.433 336.435 246.462C335.017 269.066 344.485 344.734 344.485 344.734L360.046 345.461C360.046 345.461 362.105 278.713 361.177 246.615C370.797 223.622 412.889 190.409 399.168 165.524L367.422 167.315Z" fill="#263238"/>
<path d="M361.075 346.322L343.117 345.478L341.97 335.544L361.396 332.908L361.075 346.322Z" fill="white"/>
<path d="M342.949 362.642H342.814C342.56 362.564 342.331 362.422 342.148 362.229C341.965 362.037 341.834 361.801 341.768 361.544C341.709 361.392 341.693 361.227 341.719 361.067C341.746 360.906 341.815 360.756 341.919 360.631C342.831 359.5 346.983 359.956 347.405 360.006C347.459 360.014 347.511 360.037 347.553 360.073C347.594 360.109 347.625 360.156 347.641 360.209C347.651 360.262 347.647 360.316 347.629 360.366C347.611 360.417 347.58 360.462 347.54 360.496C346.409 361.392 344.299 362.912 342.949 362.642ZM346.696 360.446C345.008 360.31 342.814 360.344 342.324 360.936C342.287 360.997 342.267 361.067 342.267 361.138C342.267 361.21 342.287 361.28 342.324 361.341C342.366 361.512 342.449 361.669 342.567 361.799C342.685 361.929 342.834 362.027 343 362.084C343.708 362.304 345.076 361.696 346.696 360.446Z" fill="white"/>
<path d="M346.932 360.462C345.548 360.192 343.118 359.043 342.814 357.894C342.756 357.687 342.771 357.466 342.857 357.269C342.943 357.072 343.095 356.911 343.287 356.813C343.458 356.697 343.653 356.62 343.857 356.588C344.061 356.556 344.27 356.569 344.468 356.627C346.156 357.067 347.557 360.006 347.624 360.124C347.645 360.166 347.656 360.213 347.656 360.26C347.656 360.306 347.645 360.353 347.624 360.395C347.597 360.436 347.559 360.468 347.514 360.489C347.47 360.51 347.42 360.518 347.371 360.513L346.932 360.462ZM344.249 357.084C344.136 357.059 344.019 357.058 343.905 357.081C343.792 357.104 343.685 357.151 343.591 357.219C343.287 357.405 343.304 357.573 343.338 357.709C343.54 358.469 345.532 359.567 346.882 359.854C346.342 358.891 345.295 357.354 344.333 357.1L344.249 357.084Z" fill="white"/>
<path d="M399.774 162.77L401.192 166.858C401.378 167.162 401.023 167.517 400.483 167.551L352.737 170.237C352.315 170.237 351.961 170.068 351.927 169.815L351.269 165.676C351.269 165.389 351.572 165.135 352.028 165.101L398.964 162.466C399.114 162.435 399.27 162.447 399.413 162.501C399.556 162.554 399.682 162.648 399.774 162.77Z" fill="white"/>
<path d="M393.614 168.379H394.88C395.133 168.379 395.302 168.227 395.285 168.075L394.391 162.703C394.391 162.55 394.138 162.432 393.885 162.449H392.636C392.382 162.449 392.197 162.601 392.231 162.77L393.125 168.125C393.142 168.278 393.361 168.396 393.614 168.379Z" fill="#263238"/>
<path d="M356.35 170.491L357.599 170.406C357.852 170.406 358.038 170.254 358.021 170.102L357.127 164.747C357.127 164.578 356.873 164.459 356.62 164.476H355.354C355.118 164.476 354.932 164.645 354.949 164.797L355.844 170.153C355.878 170.372 356.114 170.491 356.35 170.491Z" fill="#263238"/>
<path d="M374.915 169.443H376.163C376.417 169.443 376.602 169.274 376.569 169.122L375.674 163.767C375.674 163.615 375.421 163.496 375.168 163.496L373.919 163.581C373.666 163.581 373.48 163.733 373.514 163.885L374.408 169.24C374.425 169.342 374.678 169.46 374.915 169.443Z" fill="#263238"/>
<path d="M417.311 183.043L410.054 192.25L421.632 191.253C421.632 191.253 424.248 186.591 421.986 182.418L417.311 183.043Z" fill="#FFB573"/>
<path d="M413.614 109.014C415.994 115.248 418.053 121.397 419.893 127.732C421.795 134.047 423.361 140.459 424.585 146.94C424.905 148.63 425.175 150.319 425.428 152.009L425.732 154.695L425.867 157.33C425.938 160.748 425.802 164.167 425.462 167.568C424.771 174.19 423.511 180.741 421.699 187.148L415.994 186.101C416.315 179.816 416.585 173.413 416.382 167.196C416.298 164.105 416.129 161.03 415.775 158.074L415.471 155.894L415.083 153.782C414.762 152.313 414.441 150.775 414.07 149.272C412.568 143.224 410.695 137.176 408.804 131.128C406.914 125.08 404.771 119.032 402.678 113.153L413.614 109.014Z" fill="#FFB573"/>
<path d="M403.201 97.9482C412.619 98.4888 418.391 116.312 418.391 116.312L399.1 124.218C399.1 124.218 395.117 115.315 395.572 109.014C396.028 102.712 398.003 97.6104 403.201 97.9482Z" fill="#8490FF"/>
<path d="M410.526 201.846L420.18 200.494L421.632 191.253L410.054 192.25L410.526 201.846Z" fill="#FFB573"/>
<path d="M395.978 72.6073C394.847 74.4707 393.028 75.8123 390.915 76.3409C388.096 76.9997 386.797 74.4488 387.674 71.8302C388.484 69.4819 390.915 66.3059 393.7 66.762C394.313 66.8826 394.886 67.1563 395.366 67.5576C395.845 67.959 396.216 68.4751 396.443 69.0581C396.67 69.641 396.747 70.272 396.666 70.8924C396.584 71.5129 396.348 72.1027 395.978 72.6073Z" fill="#FFB573"/>
<path d="M563.875 149.576L546.997 132.682C546.774 132.458 546.47 132.332 546.154 132.332C545.837 132.332 545.534 132.458 545.31 132.682C545.086 132.906 544.96 133.21 544.96 133.527C544.96 133.844 545.086 134.147 545.31 134.371L552.938 141.991L536.871 158.074C536.76 158.184 536.672 158.316 536.612 158.461C536.552 158.606 536.521 158.761 536.521 158.918C536.521 159.075 536.552 159.23 536.612 159.375C536.672 159.52 536.76 159.652 536.871 159.763C536.982 159.874 537.113 159.962 537.258 160.022C537.403 160.082 537.558 160.113 537.715 160.113C537.872 160.113 538.027 160.082 538.172 160.022C538.316 159.962 538.448 159.874 538.559 159.763L554.626 143.68L562.255 151.316C562.365 151.427 562.497 151.515 562.642 151.575C562.787 151.635 562.942 151.666 563.099 151.666C563.255 151.666 563.41 151.635 563.555 151.575C563.7 151.515 563.832 151.427 563.942 151.316C564.053 151.205 564.141 151.073 564.201 150.928C564.261 150.784 564.292 150.628 564.292 150.471C564.292 150.314 564.261 150.159 564.201 150.014C564.141 149.869 564.053 149.738 563.942 149.627L563.875 149.576Z" fill="#8490FF"/>
<path opacity="0.3" d="M563.875 149.576L546.997 132.682C546.774 132.458 546.47 132.332 546.154 132.332C545.837 132.332 545.534 132.458 545.31 132.682C545.086 132.906 544.96 133.21 544.96 133.527C544.96 133.844 545.086 134.147 545.31 134.371L552.938 141.991L536.871 158.074C536.76 158.184 536.672 158.316 536.612 158.461C536.552 158.606 536.521 158.761 536.521 158.918C536.521 159.075 536.552 159.23 536.612 159.375C536.672 159.52 536.76 159.652 536.871 159.763C536.982 159.874 537.113 159.962 537.258 160.022C537.403 160.082 537.558 160.113 537.715 160.113C537.872 160.113 538.027 160.082 538.172 160.022C538.316 159.962 538.448 159.874 538.559 159.763L554.626 143.68L562.255 151.316C562.365 151.427 562.497 151.515 562.642 151.575C562.787 151.635 562.942 151.666 563.099 151.666C563.255 151.666 563.41 151.635 563.555 151.575C563.7 151.515 563.832 151.427 563.942 151.316C564.053 151.205 564.141 151.073 564.201 150.928C564.261 150.784 564.292 150.628 564.292 150.471C564.292 150.314 564.261 150.159 564.201 150.014C564.141 149.869 564.053 149.738 563.942 149.627L563.875 149.576Z" fill="black"/>
<path d="M545.377 151.215C544.389 150.223 543.835 148.881 543.835 147.481C543.835 146.081 544.389 144.739 545.377 143.748L556.431 132.682C557.421 131.699 558.759 131.147 560.153 131.147C561.547 131.147 562.885 131.699 563.874 132.682C564.862 133.673 565.416 135.016 565.416 136.416C565.416 137.815 564.862 139.158 563.874 140.149L552.82 151.215C551.83 152.198 550.492 152.75 549.098 152.75C547.704 152.75 546.366 152.198 545.377 151.215Z" fill="#8490FF"/>
<path d="M544.483 152.11C542.745 150.373 540.39 149.397 537.934 149.397C535.478 149.397 533.123 150.373 531.386 152.11L544.483 165.203C546.209 163.462 547.178 161.109 547.178 158.656C547.178 156.204 546.209 153.851 544.483 152.11Z" fill="#8490FF"/>
<path d="M553.19 127.084L538.159 112.026C536.887 110.752 534.826 110.752 533.554 112.026L524.726 120.869C523.455 122.143 523.455 124.208 524.726 125.482L539.757 140.54C541.029 141.814 543.091 141.814 544.362 140.54L553.19 131.696C554.462 130.423 554.462 128.357 553.19 127.084Z" fill="#8490FF"/>
<path opacity="0.3" d="M543.681 139.737L552.405 131.004C553.294 130.114 553.294 128.67 552.405 127.779L537.475 112.835C536.585 111.944 535.143 111.944 534.253 112.835L525.529 121.567C524.639 122.458 524.639 123.902 525.529 124.792L540.458 139.737C541.348 140.627 542.791 140.627 543.681 139.737Z" fill="white"/>
<path d="M584.532 158.416L569.495 143.364C568.223 142.091 566.16 142.091 564.888 143.364L556.057 152.204C554.785 153.478 554.785 155.542 556.057 156.815L571.094 171.867C572.366 173.14 574.428 173.14 575.7 171.867L584.532 163.027C585.804 161.754 585.804 159.689 584.532 158.416Z" fill="#8490FF"/>
<path opacity="0.3" d="M574.992 171.075L583.716 162.342C584.606 161.452 584.606 160.008 583.716 159.117L568.786 144.173C567.897 143.282 566.454 143.282 565.564 144.173L556.84 152.905C555.951 153.796 555.951 155.24 556.84 156.131L571.77 171.075C572.66 171.965 574.102 171.965 574.992 171.075Z" fill="white"/>
<path opacity="0.7" d="M560.897 139.643L556.947 135.689C556.71 135.451 556.325 135.451 556.088 135.689L550.324 141.458C550.086 141.696 550.086 142.081 550.324 142.318L554.274 146.273C554.511 146.51 554.896 146.51 555.133 146.273L560.897 140.503C561.135 140.265 561.135 139.88 560.897 139.643Z" fill="white"/>
</svg>
