<svg width="40" height="40" viewBox="0 0 40 40" fill="none" xmlns="http://www.w3.org/2000/svg">
<path d="M36.3346 0H3.66536C1.66667 0 0 1.66667 0 3.66536V36.3346C0 38.3333 1.66667 40 3.66536 40H36.3346C38.3333 40 40 38.3333 40 36.3346V3.66536C40 1.66667 38.3333 0 36.3346 0ZM11.6667 33.3333H5V15H11.6667V33.3333ZM8.33333 12.832C6.33463 12.832 5 11.4974 5 9.83073C5 8.0013 6.33463 6.66667 8.33333 6.66667C10.332 6.66667 11.6667 8.0013 11.6667 9.66797C11.6667 11.4974 10.332 12.832 8.33333 12.832ZM35 33.3333H28.3333V23.3333C28.3333 20.6641 26.4974 20 26.0026 20C25.5013 20 23.3333 20.332 23.3333 23.3333C23.3333 23.6654 23.3333 33.3333 23.3333 33.3333H16.6667V15H23.3333V17.6693C24.3359 16.1654 26.0026 15 29.1667 15C32.3307 15 35 17.5 35 23.3333V33.3333Z" fill="black"/>
</svg>
