<svg width="354" height="105" viewBox="0 0 354 105" fill="none" xmlns="http://www.w3.org/2000/svg">
<g clip-path="url(#clip0)">
<path d="M46.948 70.34C44.158 77.18 27.598 84.02 19.048 86C8.69804 88.43 40.288 60.8 41.188 59.99C42.088 59.27 42.178 58.46 40.288 56.93C39.118 56.12 37.318 54.95 35.788 54.14C31.828 56.84 22.378 59.18 17.338 59.72C15.088 59.9 15.088 59.81 16.708 57.83C18.238 56.03 20.848 53.87 21.928 53.24C27.868 48.83 42.808 43.07 50.908 44.42C50.548 47.03 47.578 50.72 44.698 50.72C44.248 50.72 44.158 50.45 44.158 49.91C40.738 51.08 43.888 56.03 45.058 56.93C47.578 58.91 57.028 49.37 56.128 45.05C55.858 43.7 55.048 41.99 54.418 40.46C54.238 39.83 53.788 39.83 51.988 39.2C49.918 38.48 46.678 38.48 42.988 39.2C31.198 41.36 15.718 49.82 12.388 57.56C12.028 58.55 11.848 59.45 12.208 60.17C14.638 64.94 26.608 60.35 29.578 59.63C28.228 61.52 0.508036 89.78 20.848 89.78C29.848 88.88 48.118 83.84 51.448 75.38C50.818 70.7 47.938 67.91 46.498 68.54C47.308 69.53 47.308 69.35 46.948 70.34ZM64.8777 69.35L65.1477 71.24C65.7777 74.48 66.5877 75.83 67.6677 75.92C69.2877 76.1 75.9477 68.36 78.7377 63.14C78.9177 62.87 78.3777 62.42 78.1077 62.42H78.0177C75.8577 65.12 71.0877 71.87 70.0077 71.87C69.4677 71.15 69.1077 66.38 69.1077 60.98V60.89C69.1077 60.35 69.0177 59.72 68.9277 59.09C68.9277 58.91 69.1977 59 68.8377 58.73C68.7477 58.01 66.6777 57.56 65.9577 57.29C64.4277 56.93 64.4277 60.89 64.5177 63.95V65.75C63.9777 69.62 60.2877 71.87 59.2077 72.14C57.3177 72.5 59.2977 63.77 59.6577 62.87C62.9877 52.52 71.3577 55.67 70.2777 58.91C70.3677 58.82 71.5377 57.92 70.8177 55.76C70.7277 55.22 69.7377 54.41 69.2877 54.14C68.2077 53.51 65.0577 52.61 62.8977 52.97C58.4877 53.69 55.7877 55.94 54.5277 59.09C53.9877 60.53 53.5377 62.24 52.9977 64.49C52.6377 66.02 52.1877 68.09 52.5477 69.71C53.1777 72.23 55.3377 74.57 58.1277 74.39C60.3777 74.3 63.7077 71.42 64.8777 69.35ZM72.0616 59.45C72.1516 60.26 72.6016 60.8 72.9616 61.43C73.6816 62.51 74.4916 63.59 75.3916 64.49C77.2816 66.56 78.0916 67.73 78.3616 69.44C69.9916 74.84 70.0816 84.74 81.6916 78.53C84.4816 76.73 86.7316 72.41 84.9316 69.26C84.6616 68.63 84.3916 68.09 84.1216 67.55C86.1016 66.2 91.0516 63.05 91.0516 63.05C91.1416 63.05 91.4116 62.96 91.5016 62.78C92.0416 62.69 92.1316 62.33 92.0416 62.15C92.0416 61.88 91.8616 60.8 91.3216 61.16C91.3216 61.16 84.7516 65.39 83.4916 66.29C82.3216 63.32 80.0716 61.79 78.4516 59.09C77.6416 57.29 79.5316 55.13 81.1516 54.32C81.8716 53.96 83.6716 55.13 83.9416 55.67C84.4816 56.66 84.5716 57.29 84.0316 58.01C82.7716 59.72 82.4116 58.55 82.2316 57.74C81.9616 57.02 81.5116 57.29 81.4216 57.74C80.9716 59 81.7816 60.44 83.2216 60.44C84.8416 60.62 87.5416 56.93 87.0016 54.86H86.9116L87.0016 54.77C85.1116 45.59 71.2516 53.15 72.0616 59.45ZM78.7216 71.24C78.7216 71.33 78.7216 71.42 78.6316 71.51C78.5416 73.22 77.5516 76.55 75.5716 77.54C74.2216 78.17 74.0416 77.45 74.3116 76.28C74.7616 74.21 77.2816 72.23 78.7216 71.24ZM101.061 87.62C101.331 78.44 103.671 64.58 105.921 53.87C106.011 53.6 106.191 53.6 106.191 53.42C106.191 53.33 105.381 52.88 105.201 52.88C104.121 52.61 101.061 53.78 100.701 55.31C100.521 55.76 99.8912 59.72 98.8112 64.13C98.4512 65.93 96.2012 69.71 94.4912 70.25C93.7712 70.52 93.7712 69.44 93.7712 68.81C93.5012 64.94 96.4712 54.86 98.4512 54.77C98.5412 54.32 98.4512 54.32 98.0012 54.05C90.9812 52.97 89.6312 60.35 89.3612 66.47C89.2712 70.88 89.6312 74.21 91.0712 74.39C92.8712 74.57 95.5712 72.23 98.3612 69.08C98.1812 69.71 96.7412 78.62 96.6512 83.75C96.6512 85.64 99.0812 87.53 101.061 87.62ZM156.794 41C156.614 40.1 155.624 39.29 155.084 39.2C147.794 39.02 147.704 39.29 146.624 46.58C146.174 49.73 144.734 57.11 144.194 60.26C143.114 57.11 139.154 44.6 137.534 42.44C134.744 41.36 132.494 40.28 129.704 41.63C126.014 43.52 126.824 43.07 127.994 44.87C128.444 45.59 128.354 46.4 128.264 48.2C128.174 50.27 126.194 68.18 126.374 68.63C127.724 72.59 127.634 74.66 133.664 74.48C133.844 74.3 134.114 73.31 133.754 72.5C133.574 72.32 134.924 53.33 135.284 50.9C135.734 47.84 137.174 50.9 137.714 52.34C139.604 57.2 141.674 63.5 142.754 68.9C143.474 72.68 144.104 76.64 149.594 77C149.774 76.82 150.044 75.83 149.774 75.02C148.334 71.42 152.474 54.59 154.904 45.05C155.624 42.44 155.894 41.45 156.794 41ZM166.793 59.72C165.893 59.63 175.973 53.96 172.013 48.2C170.483 45.86 167.333 44.6 164.363 44.69C163.643 44.78 161.663 45.5 161.033 45.77C160.403 45.05 158.423 44.96 157.253 45.59C158.063 48.65 158.693 50.36 157.703 56.03C157.703 56.12 161.303 55.67 161.393 54.32C161.573 52.88 161.393 51.08 161.393 49.82C163.283 46.58 167.693 46.49 168.863 48.56C170.753 52.16 161.393 58.46 161.393 59.45C161.393 60.89 166.973 66.74 166.883 71.24C166.883 74.48 164.093 76.37 161.393 75.11C160.043 74.48 160.403 72.77 161.573 68.72C161.933 67.46 159.413 64.67 158.693 65.57C157.703 67.01 151.403 77.18 162.113 77.63C167.063 77.9 171.743 75.02 171.923 70.88C172.103 67.1 168.413 62.96 166.793 59.72ZM183.37 69.17C181.75 67.73 179.32 53.69 179.5 53.42C180.13 52.61 181.84 52.52 181.66 52.25C181.3 52.07 179.05 51.71 178.78 51.8C177.07 51.98 174.55 54.32 173.92 55.76L174.01 55.94C174.01 59.9 178.96 75.56 181.57 74.39C182.29 74.12 183.1 73.22 183.91 71.96C183.91 71.96 185.17 69.62 186.52 67.1C186.79 68.18 187.06 69.08 187.15 69.53C187.42 70.43 187.69 71.15 187.96 71.78C188.59 72.95 191.92 74.93 193 74.48C194.44 73.94 198.67 62.51 200.74 57.47C202.72 57.38 206.32 55.13 206.5 55.04C206.5 54.68 206.95 54.23 206.5 54.14C206.05 54.5 202.81 55.49 201.55 55.67C202 54.68 202.36 54.32 202.27 53.33C202.18 51.17 199.93 51.08 198.4 52.25C196.51 53.87 196.96 56.84 199.12 57.29C197.5 61.16 195.16 67.01 193.18 68.36C192.73 68.72 191.92 67.82 191.83 67.46C190.66 64.94 190.12 57.56 190.12 55.85C190.12 55.13 190.48 55.22 190.93 54.95C190.84 54.23 189.58 53.96 189.31 54.05C187.69 54.23 185.26 56.39 184.63 57.83V58.01C184.36 58.46 184.81 60.53 185.35 62.78C185.89 64.76 184.45 68.9 183.37 69.17ZM199.93 55.67C198.22 55.31 198.22 54.32 198.76 53.69C199.57 52.61 200.83 52.79 200.38 54.41C200.29 54.68 200.11 55.13 199.93 55.67ZM202.052 59.45C202.142 60.26 202.592 60.8 202.952 61.43C203.672 62.51 204.482 63.59 205.382 64.49C207.272 66.56 208.082 67.73 208.352 69.44C199.982 74.84 200.072 84.74 211.682 78.53C214.472 76.73 216.722 72.41 214.922 69.26C214.652 68.63 214.382 68.09 214.112 67.55C216.092 66.2 221.042 63.05 221.042 63.05C221.132 63.05 221.402 62.96 221.492 62.78C222.032 62.69 222.122 62.33 222.032 62.15C222.032 61.88 221.852 60.8 221.312 61.16C221.312 61.16 214.742 65.39 213.482 66.29C212.312 63.32 210.062 61.79 208.442 59.09C207.632 57.29 209.522 55.13 211.142 54.32C211.862 53.96 213.662 55.13 213.932 55.67C214.472 56.66 214.562 57.29 214.022 58.01C212.762 59.72 212.402 58.55 212.222 57.74C211.952 57.02 211.502 57.29 211.412 57.74C210.962 59 211.772 60.44 213.212 60.44C214.832 60.62 217.532 56.93 216.992 54.86H216.902L216.992 54.77C215.102 45.59 201.242 53.15 202.052 59.45ZM208.712 71.24C208.712 71.33 208.712 71.42 208.622 71.51C208.532 73.22 207.542 76.55 205.562 77.54C204.212 78.17 204.032 77.45 204.302 76.28C204.752 74.21 207.272 72.23 208.712 71.24Z" fill="#C27803"/>
</g>
<defs>
<clipPath id="clip0">
<rect width="353.312" height="105" fill="white" transform="translate(0.488037)"/>
</clipPath>
</defs>
</svg>
