<svg width="614" height="256" viewBox="0 0 614 256" fill="none" xmlns="http://www.w3.org/2000/svg">
<path d="M9.89062 169.545H2.8125V135.725H24.9609V141.561H9.89062V150.631H23.6484V156.233H9.89062V169.545ZM37.6875 164.858C39.2969 164.858 40.6484 164.413 41.7422 163.522C42.8359 162.616 43.3828 161.467 43.3828 160.077V158.178L37.9688 158.553C36.5469 158.647 35.4609 158.967 34.7109 159.514C33.9609 160.061 33.5859 160.811 33.5859 161.764C33.5859 162.717 33.9531 163.475 34.6875 164.038C35.4375 164.584 36.4375 164.858 37.6875 164.858ZM35.4609 169.85C32.9453 169.85 30.8672 169.131 29.2266 167.694C27.5859 166.256 26.7656 164.397 26.7656 162.116C26.7656 159.788 27.6328 157.967 29.3672 156.655C31.1016 155.342 33.625 154.584 36.9375 154.381L43.3828 153.983V152.272C43.3828 151.038 42.9844 150.092 42.1875 149.436C41.3906 148.764 40.2812 148.428 38.8594 148.428C37.6406 148.428 36.6172 148.725 35.7891 149.319C34.9766 149.897 34.4844 150.663 34.3125 151.616H28.0547C28.1484 149.147 29.2109 147.147 31.2422 145.616C33.2891 144.069 35.9219 143.295 39.1406 143.295C42.4531 143.295 45.1094 144.077 47.1094 145.639C49.1094 147.202 50.1094 149.272 50.1094 151.85V169.545H43.5V165.561H43.3594C42.6719 166.889 41.6016 167.936 40.1484 168.702C38.7109 169.467 37.1484 169.85 35.4609 169.85ZM78.0469 153.256H71.6719C71.4844 151.881 70.9297 150.78 70.0078 149.952C69.0859 149.108 67.8984 148.686 66.4453 148.686C64.6797 148.686 63.2812 149.397 62.25 150.819C61.2188 152.225 60.7031 154.163 60.7031 156.631C60.7031 159.131 61.2188 161.084 62.25 162.491C63.2812 163.881 64.6875 164.577 66.4688 164.577C67.9219 164.577 69.1016 164.194 70.0078 163.428C70.9141 162.663 71.4766 161.577 71.6953 160.17H78.0703C77.8672 163.17 76.7109 165.561 74.6016 167.342C72.5078 169.108 69.7734 169.991 66.3984 169.991C62.5234 169.991 59.4453 168.795 57.1641 166.405C54.8984 164.014 53.7656 160.756 53.7656 156.631C53.7656 152.553 54.8984 149.311 57.1641 146.905C59.4453 144.499 62.5078 143.295 66.3516 143.295C69.7578 143.295 72.5156 144.225 74.625 146.084C76.7344 147.944 77.875 150.334 78.0469 153.256ZM81.6094 169.545V143.741H88.4531V169.545H81.6094ZM85.0312 140.928C84.0156 140.928 83.1484 140.584 82.4297 139.897C81.7109 139.209 81.3516 138.358 81.3516 137.342C81.3516 136.327 81.7109 135.483 82.4297 134.811C83.1484 134.124 84.0156 133.78 85.0312 133.78C86.0625 133.78 86.9375 134.124 87.6562 134.811C88.375 135.483 88.7344 136.327 88.7344 137.342C88.7344 138.358 88.375 139.209 87.6562 139.897C86.9375 140.584 86.0625 140.928 85.0312 140.928ZM93.3984 169.545V134.108H100.242V169.545H93.3984ZM105.188 169.545V143.741H112.031V169.545H105.188ZM108.609 140.928C107.594 140.928 106.727 140.584 106.008 139.897C105.289 139.209 104.93 138.358 104.93 137.342C104.93 136.327 105.289 135.483 106.008 134.811C106.727 134.124 107.594 133.78 108.609 133.78C109.641 133.78 110.516 134.124 111.234 134.811C111.953 135.483 112.312 136.327 112.312 137.342C112.312 138.358 111.953 139.209 111.234 139.897C110.516 140.584 109.641 140.928 108.609 140.928ZM118.617 137.999H125.461V143.741H130.242V148.92H125.461V161.459C125.461 163.428 126.484 164.413 128.531 164.413C129.203 164.413 129.773 164.374 130.242 164.295V169.358C129.305 169.545 128.203 169.639 126.938 169.639C123.953 169.639 121.82 169.092 120.539 167.999C119.258 166.905 118.617 165.1 118.617 162.584V148.92H115.125V143.741H118.617V137.999ZM143.906 164.858C145.516 164.858 146.867 164.413 147.961 163.522C149.055 162.616 149.602 161.467 149.602 160.077V158.178L144.188 158.553C142.766 158.647 141.68 158.967 140.93 159.514C140.18 160.061 139.805 160.811 139.805 161.764C139.805 162.717 140.172 163.475 140.906 164.038C141.656 164.584 142.656 164.858 143.906 164.858ZM141.68 169.85C139.164 169.85 137.086 169.131 135.445 167.694C133.805 166.256 132.984 164.397 132.984 162.116C132.984 159.788 133.852 157.967 135.586 156.655C137.32 155.342 139.844 154.584 143.156 154.381L149.602 153.983V152.272C149.602 151.038 149.203 150.092 148.406 149.436C147.609 148.764 146.5 148.428 145.078 148.428C143.859 148.428 142.836 148.725 142.008 149.319C141.195 149.897 140.703 150.663 140.531 151.616H134.273C134.367 149.147 135.43 147.147 137.461 145.616C139.508 144.069 142.141 143.295 145.359 143.295C148.672 143.295 151.328 144.077 153.328 145.639C155.328 147.202 156.328 149.272 156.328 151.85V169.545H149.719V165.561H149.578C148.891 166.889 147.82 167.936 146.367 168.702C144.93 169.467 143.367 169.85 141.68 169.85ZM160.945 169.545V143.741H167.555V148.358H167.695C169.211 145.03 171.977 143.366 175.992 143.366C178.852 143.366 181.094 144.217 182.719 145.92C184.359 147.624 185.18 149.983 185.18 152.999V169.545H178.336V154.428C178.336 152.709 177.891 151.389 177 150.467C176.125 149.53 174.883 149.061 173.273 149.061C171.633 149.061 170.305 149.592 169.289 150.655C168.289 151.717 167.789 153.108 167.789 154.827V169.545H160.945ZM199.336 169.85C196.117 169.85 193.547 168.663 191.625 166.288C189.719 163.897 188.766 160.67 188.766 156.608C188.766 152.577 189.727 149.374 191.648 146.999C193.57 144.624 196.141 143.436 199.359 143.436C201.203 143.436 202.812 143.858 204.188 144.702C205.578 145.545 206.602 146.694 207.258 148.147H207.398V134.108H214.242V169.545H207.492V165.139H207.375C206.734 166.577 205.703 167.725 204.281 168.584C202.859 169.428 201.211 169.85 199.336 169.85ZM201.609 148.967C199.828 148.967 198.406 149.663 197.344 151.053C196.297 152.428 195.773 154.288 195.773 156.631C195.773 158.991 196.297 160.866 197.344 162.256C198.406 163.631 199.828 164.319 201.609 164.319C203.375 164.319 204.789 163.624 205.852 162.233C206.914 160.842 207.445 158.983 207.445 156.655C207.445 154.327 206.914 152.467 205.852 151.077C204.789 149.67 203.375 148.967 201.609 148.967ZM230.789 169.991C226.867 169.991 223.766 168.803 221.484 166.428C219.203 164.053 218.062 160.788 218.062 156.631C218.062 152.522 219.211 149.272 221.508 146.881C223.805 144.491 226.898 143.295 230.789 143.295C234.695 143.295 237.789 144.491 240.07 146.881C242.367 149.256 243.516 152.506 243.516 156.631C243.516 160.803 242.375 164.077 240.094 166.452C237.828 168.811 234.727 169.991 230.789 169.991ZM226.523 162.608C227.555 164.014 228.977 164.717 230.789 164.717C232.602 164.717 234.016 164.014 235.031 162.608C236.047 161.186 236.555 159.194 236.555 156.631C236.555 154.1 236.039 152.124 235.008 150.702C233.992 149.264 232.586 148.545 230.789 148.545C228.977 148.545 227.555 149.264 226.523 150.702C225.508 152.124 225 154.1 225 156.631C225 159.194 225.508 161.186 226.523 162.608ZM257.062 151.334C257.062 148.913 258.047 146.967 260.016 145.499C261.984 144.03 264.602 143.295 267.867 143.295C271.055 143.295 273.625 144.045 275.578 145.545C277.531 147.03 278.531 149.006 278.578 151.475H272.25C272.172 150.459 271.734 149.655 270.938 149.061C270.141 148.452 269.086 148.147 267.773 148.147C266.539 148.147 265.547 148.405 264.797 148.92C264.047 149.42 263.672 150.084 263.672 150.913C263.672 152.178 264.82 153.077 267.117 153.608L271.969 154.663C274.562 155.256 276.414 156.092 277.523 157.17C278.648 158.249 279.211 159.749 279.211 161.67C279.211 164.17 278.164 166.186 276.07 167.717C273.977 169.233 271.234 169.991 267.844 169.991C264.484 169.991 261.781 169.249 259.734 167.764C257.703 166.264 256.602 164.256 256.43 161.741H263.109C263.281 162.834 263.789 163.678 264.633 164.272C265.477 164.85 266.609 165.139 268.031 165.139C269.391 165.139 270.461 164.897 271.242 164.413C272.023 163.913 272.414 163.241 272.414 162.397C272.414 161.725 272.164 161.194 271.664 160.803C271.18 160.413 270.352 160.077 269.18 159.795L264.422 158.717C259.516 157.608 257.062 155.147 257.062 151.334ZM294.281 148.405C292.719 148.405 291.414 148.92 290.367 149.952C289.336 150.983 288.758 152.327 288.633 153.983H299.766C299.703 152.295 299.172 150.944 298.172 149.928C297.172 148.913 295.875 148.405 294.281 148.405ZM299.859 161.67H306.164C305.789 164.17 304.531 166.186 302.391 167.717C300.25 169.233 297.609 169.991 294.469 169.991C290.547 169.991 287.453 168.811 285.188 166.452C282.938 164.092 281.812 160.858 281.812 156.749C281.812 152.639 282.93 149.374 285.164 146.952C287.414 144.514 290.43 143.295 294.211 143.295C297.93 143.295 300.883 144.452 303.07 146.764C305.273 149.077 306.375 152.194 306.375 156.116V158.225H288.562V158.647C288.562 160.506 289.117 162.014 290.227 163.17C291.336 164.311 292.789 164.881 294.586 164.881C295.883 164.881 297 164.6 297.938 164.038C298.891 163.459 299.531 162.67 299.859 161.67ZM334.172 143.741V169.545H327.562V164.881H327.422C326.766 166.506 325.734 167.756 324.328 168.631C322.938 169.491 321.266 169.92 319.312 169.92C316.484 169.92 314.211 169.061 312.492 167.342C310.789 165.608 309.938 163.256 309.938 160.288V143.741H316.781V158.858C316.781 160.577 317.234 161.905 318.141 162.842C319.047 163.764 320.305 164.225 321.914 164.225C323.523 164.225 324.828 163.694 325.828 162.631C326.828 161.569 327.328 160.17 327.328 158.436V143.741H334.172ZM358.758 169.85C355.539 169.85 352.969 168.663 351.047 166.288C349.141 163.897 348.188 160.67 348.188 156.608C348.188 152.577 349.148 149.374 351.07 146.999C352.992 144.624 355.562 143.436 358.781 143.436C360.625 143.436 362.234 143.858 363.609 144.702C365 145.545 366.023 146.694 366.68 148.147H366.82V134.108H373.664V169.545H366.914V165.139H366.797C366.156 166.577 365.125 167.725 363.703 168.584C362.281 169.428 360.633 169.85 358.758 169.85ZM361.031 148.967C359.25 148.967 357.828 149.663 356.766 151.053C355.719 152.428 355.195 154.288 355.195 156.631C355.195 158.991 355.719 160.866 356.766 162.256C357.828 163.631 359.25 164.319 361.031 164.319C362.797 164.319 364.211 163.624 365.273 162.233C366.336 160.842 366.867 158.983 366.867 156.655C366.867 154.327 366.336 152.467 365.273 151.077C364.211 149.67 362.797 148.967 361.031 148.967ZM378.562 169.545V143.741H385.406V169.545H378.562ZM381.984 140.928C380.969 140.928 380.102 140.584 379.383 139.897C378.664 139.209 378.305 138.358 378.305 137.342C378.305 136.327 378.664 135.483 379.383 134.811C380.102 134.124 380.969 133.78 381.984 133.78C383.016 133.78 383.891 134.124 384.609 134.811C385.328 135.483 385.688 136.327 385.688 137.342C385.688 138.358 385.328 139.209 384.609 139.897C383.891 140.584 383.016 140.928 381.984 140.928ZM400.031 164.858C401.641 164.858 402.992 164.413 404.086 163.522C405.18 162.616 405.727 161.467 405.727 160.077V158.178L400.312 158.553C398.891 158.647 397.805 158.967 397.055 159.514C396.305 160.061 395.93 160.811 395.93 161.764C395.93 162.717 396.297 163.475 397.031 164.038C397.781 164.584 398.781 164.858 400.031 164.858ZM397.805 169.85C395.289 169.85 393.211 169.131 391.57 167.694C389.93 166.256 389.109 164.397 389.109 162.116C389.109 159.788 389.977 157.967 391.711 156.655C393.445 155.342 395.969 154.584 399.281 154.381L405.727 153.983V152.272C405.727 151.038 405.328 150.092 404.531 149.436C403.734 148.764 402.625 148.428 401.203 148.428C399.984 148.428 398.961 148.725 398.133 149.319C397.32 149.897 396.828 150.663 396.656 151.616H390.398C390.492 149.147 391.555 147.147 393.586 145.616C395.633 144.069 398.266 143.295 401.484 143.295C404.797 143.295 407.453 144.077 409.453 145.639C411.453 147.202 412.453 149.272 412.453 151.85V169.545H405.844V165.561H405.703C405.016 166.889 403.945 167.936 402.492 168.702C401.055 169.467 399.492 169.85 397.805 169.85ZM450.703 153.256H444.328C444.141 151.881 443.586 150.78 442.664 149.952C441.742 149.108 440.555 148.686 439.102 148.686C437.336 148.686 435.938 149.397 434.906 150.819C433.875 152.225 433.359 154.163 433.359 156.631C433.359 159.131 433.875 161.084 434.906 162.491C435.938 163.881 437.344 164.577 439.125 164.577C440.578 164.577 441.758 164.194 442.664 163.428C443.57 162.663 444.133 161.577 444.352 160.17H450.727C450.523 163.17 449.367 165.561 447.258 167.342C445.164 169.108 442.43 169.991 439.055 169.991C435.18 169.991 432.102 168.795 429.82 166.405C427.555 164.014 426.422 160.756 426.422 156.631C426.422 152.553 427.555 149.311 429.82 146.905C432.102 144.499 435.164 143.295 439.008 143.295C442.414 143.295 445.172 144.225 447.281 146.084C449.391 147.944 450.531 150.334 450.703 153.256ZM465.914 169.991C461.992 169.991 458.891 168.803 456.609 166.428C454.328 164.053 453.188 160.788 453.188 156.631C453.188 152.522 454.336 149.272 456.633 146.881C458.93 144.491 462.023 143.295 465.914 143.295C469.82 143.295 472.914 144.491 475.195 146.881C477.492 149.256 478.641 152.506 478.641 156.631C478.641 160.803 477.5 164.077 475.219 166.452C472.953 168.811 469.852 169.991 465.914 169.991ZM461.648 162.608C462.68 164.014 464.102 164.717 465.914 164.717C467.727 164.717 469.141 164.014 470.156 162.608C471.172 161.186 471.68 159.194 471.68 156.631C471.68 154.1 471.164 152.124 470.133 150.702C469.117 149.264 467.711 148.545 465.914 148.545C464.102 148.545 462.68 149.264 461.648 150.702C460.633 152.124 460.125 154.1 460.125 156.631C460.125 159.194 460.633 161.186 461.648 162.608ZM482.32 169.545V143.741H488.93V148.428H489.07C489.617 146.866 490.547 145.631 491.859 144.725C493.188 143.819 494.711 143.366 496.43 143.366C498.289 143.366 499.844 143.827 501.094 144.749C502.344 145.655 503.188 146.952 503.625 148.639H503.766C504.359 147.014 505.375 145.733 506.812 144.795C508.25 143.842 509.906 143.366 511.781 143.366C514.312 143.366 516.352 144.163 517.898 145.756C519.461 147.334 520.242 149.42 520.242 152.014V169.545H513.398V153.725C513.398 152.209 513.023 151.053 512.273 150.256C511.539 149.444 510.477 149.038 509.086 149.038C507.742 149.038 506.656 149.491 505.828 150.397C505 151.288 504.586 152.467 504.586 153.936V169.545H497.977V153.467C497.977 152.092 497.602 151.014 496.852 150.233C496.102 149.436 495.062 149.038 493.734 149.038C492.391 149.038 491.289 149.506 490.43 150.444C489.586 151.366 489.164 152.561 489.164 154.03V169.545H482.32ZM2.4375 226.545V200.741H9.28125V226.545H2.4375ZM5.85938 197.928C4.84375 197.928 3.97656 197.584 3.25781 196.897C2.53906 196.209 2.17969 195.358 2.17969 194.342C2.17969 193.327 2.53906 192.483 3.25781 191.811C3.97656 191.124 4.84375 190.78 5.85938 190.78C6.89062 190.78 7.76562 191.124 8.48438 191.811C9.20312 192.483 9.5625 193.327 9.5625 194.342C9.5625 195.358 9.20312 196.209 8.48438 196.897C7.76562 197.584 6.89062 197.928 5.85938 197.928ZM14.0391 226.545V200.741H20.6484V205.358H20.7891C22.3047 202.03 25.0703 200.366 29.0859 200.366C31.9453 200.366 34.1875 201.217 35.8125 202.92C37.4531 204.624 38.2734 206.983 38.2734 209.999V226.545H31.4297V211.428C31.4297 209.709 30.9844 208.389 30.0938 207.467C29.2188 206.53 27.9766 206.061 26.3672 206.061C24.7266 206.061 23.3984 206.592 22.3828 207.655C21.3828 208.717 20.8828 210.108 20.8828 211.827V226.545H14.0391ZM44.6484 226.545V205.92H41.1562V200.741H44.6484V198.444C44.6484 195.959 45.2891 194.17 46.5703 193.077C47.8672 191.983 50.0078 191.436 52.9922 191.436C54.0547 191.436 55.1094 191.514 56.1562 191.67V196.428C55.5781 196.319 54.9531 196.264 54.2812 196.264C53.25 196.264 52.5078 196.467 52.0547 196.874C51.6016 197.28 51.3672 197.936 51.3516 198.842V200.741H56.1797V205.92H51.4922V226.545H44.6484ZM71.0859 226.991C67.1641 226.991 64.0625 225.803 61.7812 223.428C59.5 221.053 58.3594 217.788 58.3594 213.631C58.3594 209.522 59.5078 206.272 61.8047 203.881C64.1016 201.491 67.1953 200.295 71.0859 200.295C74.9922 200.295 78.0859 201.491 80.3672 203.881C82.6641 206.256 83.8125 209.506 83.8125 213.631C83.8125 217.803 82.6719 221.077 80.3906 223.452C78.125 225.811 75.0234 226.991 71.0859 226.991ZM66.8203 219.608C67.8516 221.014 69.2734 221.717 71.0859 221.717C72.8984 221.717 74.3125 221.014 75.3281 219.608C76.3438 218.186 76.8516 216.194 76.8516 213.631C76.8516 211.1 76.3359 209.124 75.3047 207.702C74.2891 206.264 72.8828 205.545 71.0859 205.545C69.2734 205.545 67.8516 206.264 66.8203 207.702C65.8047 209.124 65.2969 211.1 65.2969 213.631C65.2969 216.194 65.8047 218.186 66.8203 219.608ZM87.4922 226.545V200.741H94.1016V205.358H94.2422C94.6797 203.78 95.4297 202.569 96.4922 201.725C97.5547 200.866 98.8516 200.436 100.383 200.436C101.148 200.436 101.789 200.522 102.305 200.694V206.764C101.695 206.483 100.875 206.342 99.8438 206.342C98.1094 206.342 96.7578 206.85 95.7891 207.866C94.8203 208.881 94.3359 210.295 94.3359 212.108V226.545H87.4922ZM105.305 226.545V200.741H111.914V205.428H112.055C112.602 203.866 113.531 202.631 114.844 201.725C116.172 200.819 117.695 200.366 119.414 200.366C121.273 200.366 122.828 200.827 124.078 201.749C125.328 202.655 126.172 203.952 126.609 205.639H126.75C127.344 204.014 128.359 202.733 129.797 201.795C131.234 200.842 132.891 200.366 134.766 200.366C137.297 200.366 139.336 201.163 140.883 202.756C142.445 204.334 143.227 206.42 143.227 209.014V226.545H136.383V210.725C136.383 209.209 136.008 208.053 135.258 207.256C134.523 206.444 133.461 206.038 132.07 206.038C130.727 206.038 129.641 206.491 128.812 207.397C127.984 208.288 127.57 209.467 127.57 210.936V226.545H120.961V210.467C120.961 209.092 120.586 208.014 119.836 207.233C119.086 206.436 118.047 206.038 116.719 206.038C115.375 206.038 114.273 206.506 113.414 207.444C112.57 208.366 112.148 209.561 112.148 211.03V226.545H105.305ZM157.641 221.858C159.25 221.858 160.602 221.413 161.695 220.522C162.789 219.616 163.336 218.467 163.336 217.077V215.178L157.922 215.553C156.5 215.647 155.414 215.967 154.664 216.514C153.914 217.061 153.539 217.811 153.539 218.764C153.539 219.717 153.906 220.475 154.641 221.038C155.391 221.584 156.391 221.858 157.641 221.858ZM155.414 226.85C152.898 226.85 150.82 226.131 149.18 224.694C147.539 223.256 146.719 221.397 146.719 219.116C146.719 216.788 147.586 214.967 149.32 213.655C151.055 212.342 153.578 211.584 156.891 211.381L163.336 210.983V209.272C163.336 208.038 162.938 207.092 162.141 206.436C161.344 205.764 160.234 205.428 158.812 205.428C157.594 205.428 156.57 205.725 155.742 206.319C154.93 206.897 154.438 207.663 154.266 208.616H148.008C148.102 206.147 149.164 204.147 151.195 202.616C153.242 201.069 155.875 200.295 159.094 200.295C162.406 200.295 165.062 201.077 167.062 202.639C169.062 204.202 170.062 206.272 170.062 208.85V226.545H163.453V222.561H163.312C162.625 223.889 161.555 224.936 160.102 225.702C158.664 226.467 157.102 226.85 155.414 226.85ZM191.648 217.17H198.023C197.836 219.905 196.852 222.139 195.07 223.874C193.289 225.608 190.938 226.624 188.016 226.92L187.031 229.264C188.406 229.264 189.469 229.584 190.219 230.225C190.984 230.881 191.367 231.803 191.367 232.991C191.367 234.334 190.867 235.389 189.867 236.155C188.867 236.936 187.484 237.334 185.719 237.35C184.344 237.35 183.25 237.225 182.438 236.975V234.163C183.062 234.381 183.93 234.491 185.039 234.491C186.711 234.491 187.547 234.061 187.547 233.202C187.547 232.717 187.32 232.374 186.867 232.17C186.43 231.983 185.68 231.889 184.617 231.889H183.305V229.522L184.5 226.897C181.156 226.506 178.523 225.147 176.602 222.819C174.68 220.475 173.719 217.413 173.719 213.631C173.719 209.553 174.852 206.311 177.117 203.905C179.398 201.499 182.461 200.295 186.305 200.295C189.711 200.295 192.469 201.225 194.578 203.084C196.688 204.944 197.828 207.334 198 210.256H191.625C191.438 208.881 190.883 207.78 189.961 206.952C189.039 206.108 187.852 205.686 186.398 205.686C184.633 205.686 183.234 206.397 182.203 207.819C181.172 209.225 180.656 211.163 180.656 213.631C180.656 216.131 181.172 218.084 182.203 219.491C183.234 220.881 184.641 221.577 186.422 221.577C187.875 221.577 189.055 221.194 189.961 220.428C190.867 219.663 191.43 218.577 191.648 217.17ZM216.539 197.061C215.945 197.061 215.383 196.952 214.852 196.733C214.336 196.514 213.891 196.249 213.516 195.936C213.141 195.624 212.789 195.311 212.461 194.999C212.133 194.686 211.797 194.42 211.453 194.202C211.125 193.983 210.805 193.874 210.492 193.874C209.977 193.874 209.578 194.131 209.297 194.647C209.031 195.147 208.891 195.819 208.875 196.663H205.172C205.172 194.694 205.641 193.147 206.578 192.022C207.516 190.881 208.727 190.311 210.211 190.311C210.82 190.311 211.398 190.42 211.945 190.639C212.492 190.858 212.953 191.124 213.328 191.436C213.703 191.749 214.055 192.061 214.383 192.374C214.711 192.67 215.039 192.928 215.367 193.147C215.711 193.366 216.031 193.475 216.328 193.475C217.312 193.475 217.82 192.522 217.852 190.616H221.555C221.555 192.569 221.078 194.131 220.125 195.303C219.188 196.475 217.992 197.061 216.539 197.061ZM213.211 226.991C209.289 226.991 206.188 225.803 203.906 223.428C201.625 221.053 200.484 217.788 200.484 213.631C200.484 209.522 201.633 206.272 203.93 203.881C206.227 201.491 209.32 200.295 213.211 200.295C217.117 200.295 220.211 201.491 222.492 203.881C224.789 206.256 225.938 209.506 225.938 213.631C225.938 217.803 224.797 221.077 222.516 223.452C220.25 225.811 217.148 226.991 213.211 226.991ZM208.945 219.608C209.977 221.014 211.398 221.717 213.211 221.717C215.023 221.717 216.438 221.014 217.453 219.608C218.469 218.186 218.977 216.194 218.977 213.631C218.977 211.1 218.461 209.124 217.43 207.702C216.414 206.264 215.008 205.545 213.211 205.545C211.398 205.545 209.977 206.264 208.945 207.702C207.93 209.124 207.422 211.1 207.422 213.631C207.422 216.194 207.93 218.186 208.945 219.608ZM241.125 205.405C239.562 205.405 238.258 205.92 237.211 206.952C236.18 207.983 235.602 209.327 235.477 210.983H246.609C246.547 209.295 246.016 207.944 245.016 206.928C244.016 205.913 242.719 205.405 241.125 205.405ZM246.703 218.67H253.008C252.633 221.17 251.375 223.186 249.234 224.717C247.094 226.233 244.453 226.991 241.312 226.991C237.391 226.991 234.297 225.811 232.031 223.452C229.781 221.092 228.656 217.858 228.656 213.749C228.656 209.639 229.773 206.374 232.008 203.952C234.258 201.514 237.273 200.295 241.055 200.295C244.773 200.295 247.727 201.452 249.914 203.764C252.117 206.077 253.219 209.194 253.219 213.116V215.225H235.406V215.647C235.406 217.506 235.961 219.014 237.07 220.17C238.18 221.311 239.633 221.881 241.43 221.881C242.727 221.881 243.844 221.6 244.781 221.038C245.734 220.459 246.375 219.67 246.703 218.67ZM256.453 208.334C256.453 205.913 257.438 203.967 259.406 202.499C261.375 201.03 263.992 200.295 267.258 200.295C270.445 200.295 273.016 201.045 274.969 202.545C276.922 204.03 277.922 206.006 277.969 208.475H271.641C271.562 207.459 271.125 206.655 270.328 206.061C269.531 205.452 268.477 205.147 267.164 205.147C265.93 205.147 264.938 205.405 264.188 205.92C263.438 206.42 263.062 207.084 263.062 207.913C263.062 209.178 264.211 210.077 266.508 210.608L271.359 211.663C273.953 212.256 275.805 213.092 276.914 214.17C278.039 215.249 278.602 216.749 278.602 218.67C278.602 221.17 277.555 223.186 275.461 224.717C273.367 226.233 270.625 226.991 267.234 226.991C263.875 226.991 261.172 226.249 259.125 224.764C257.094 223.264 255.992 221.256 255.82 218.741H262.5C262.672 219.834 263.18 220.678 264.023 221.272C264.867 221.85 266 222.139 267.422 222.139C268.781 222.139 269.852 221.897 270.633 221.413C271.414 220.913 271.805 220.241 271.805 219.397C271.805 218.725 271.555 218.194 271.055 217.803C270.57 217.413 269.742 217.077 268.57 216.795L263.812 215.717C258.906 214.608 256.453 212.147 256.453 208.334ZM316.617 226.545L314.016 223.733C312.766 224.811 311.219 225.655 309.375 226.264C307.531 226.858 305.586 227.155 303.539 227.155C299.961 227.155 297.102 226.295 294.961 224.577C292.82 222.858 291.75 220.561 291.75 217.686C291.75 215.764 292.25 214.084 293.25 212.647C294.266 211.194 295.852 209.874 298.008 208.686C298.102 208.639 298.273 208.553 298.523 208.428C298.773 208.288 298.992 208.163 299.18 208.053C299.383 207.944 299.5 207.881 299.531 207.866C298 206.288 296.914 204.913 296.273 203.741C295.648 202.569 295.336 201.366 295.336 200.131C295.336 197.866 296.242 195.991 298.055 194.506C299.883 193.022 302.172 192.28 304.922 192.28C307.688 192.28 309.945 193.006 311.695 194.459C313.461 195.897 314.344 197.749 314.344 200.014C314.344 201.749 313.789 203.327 312.68 204.749C311.57 206.17 309.844 207.522 307.5 208.803L313.922 215.741C314.734 214.303 315.141 212.17 315.141 209.342V207.561H320.836V209.741C320.836 213.913 319.883 217.319 317.977 219.959L324.281 226.545H316.617ZM301.734 211.944C300.453 212.756 299.531 213.569 298.969 214.381C298.422 215.178 298.148 216.1 298.148 217.147C298.148 218.663 298.711 219.881 299.836 220.803C300.961 221.725 302.43 222.186 304.242 222.186C305.461 222.186 306.633 221.975 307.758 221.553C308.883 221.131 309.773 220.561 310.43 219.842L302.672 211.452C302.484 211.545 302.172 211.709 301.734 211.944ZM304.336 205.616C305.867 204.819 306.969 204.022 307.641 203.225C308.312 202.413 308.648 201.499 308.648 200.483C308.648 199.405 308.305 198.53 307.617 197.858C306.93 197.17 306.039 196.827 304.945 196.827C303.852 196.827 302.953 197.17 302.25 197.858C301.547 198.545 301.195 199.42 301.195 200.483C301.195 201.264 301.43 202.038 301.898 202.803C302.367 203.553 303.18 204.491 304.336 205.616ZM336.047 208.334C336.047 205.913 337.031 203.967 339 202.499C340.969 201.03 343.586 200.295 346.852 200.295C350.039 200.295 352.609 201.045 354.562 202.545C356.516 204.03 357.516 206.006 357.562 208.475H351.234C351.156 207.459 350.719 206.655 349.922 206.061C349.125 205.452 348.07 205.147 346.758 205.147C345.523 205.147 344.531 205.405 343.781 205.92C343.031 206.42 342.656 207.084 342.656 207.913C342.656 209.178 343.805 210.077 346.102 210.608L350.953 211.663C353.547 212.256 355.398 213.092 356.508 214.17C357.633 215.249 358.195 216.749 358.195 218.67C358.195 221.17 357.148 223.186 355.055 224.717C352.961 226.233 350.219 226.991 346.828 226.991C343.469 226.991 340.766 226.249 338.719 224.764C336.688 223.264 335.586 221.256 335.414 218.741H342.094C342.266 219.834 342.773 220.678 343.617 221.272C344.461 221.85 345.594 222.139 347.016 222.139C348.375 222.139 349.445 221.897 350.227 221.413C351.008 220.913 351.398 220.241 351.398 219.397C351.398 218.725 351.148 218.194 350.648 217.803C350.164 217.413 349.336 217.077 348.164 216.795L343.406 215.717C338.5 214.608 336.047 212.147 336.047 208.334ZM373.266 205.405C371.703 205.405 370.398 205.92 369.352 206.952C368.32 207.983 367.742 209.327 367.617 210.983H378.75C378.688 209.295 378.156 207.944 377.156 206.928C376.156 205.913 374.859 205.405 373.266 205.405ZM378.844 218.67H385.148C384.773 221.17 383.516 223.186 381.375 224.717C379.234 226.233 376.594 226.991 373.453 226.991C369.531 226.991 366.438 225.811 364.172 223.452C361.922 221.092 360.797 217.858 360.797 213.749C360.797 209.639 361.914 206.374 364.148 203.952C366.398 201.514 369.414 200.295 373.195 200.295C376.914 200.295 379.867 201.452 382.055 203.764C384.258 206.077 385.359 209.194 385.359 213.116V215.225H367.547V215.647C367.547 217.506 368.102 219.014 369.211 220.17C370.32 221.311 371.773 221.881 373.57 221.881C374.867 221.881 375.984 221.6 376.922 221.038C377.875 220.459 378.516 219.67 378.844 218.67ZM389.039 226.545V200.741H395.648V205.358H395.789C396.227 203.78 396.977 202.569 398.039 201.725C399.102 200.866 400.398 200.436 401.93 200.436C402.695 200.436 403.336 200.522 403.852 200.694V206.764C403.242 206.483 402.422 206.342 401.391 206.342C399.656 206.342 398.305 206.85 397.336 207.866C396.367 208.881 395.883 210.295 395.883 212.108V226.545H389.039ZM430.266 200.741L421.359 226.545H413.672L404.719 200.741H412.031L417.516 220.428H417.656L423.117 200.741H430.266ZM432.891 226.545V200.741H439.734V226.545H432.891ZM436.312 197.928C435.297 197.928 434.43 197.584 433.711 196.897C432.992 196.209 432.633 195.358 432.633 194.342C432.633 193.327 432.992 192.483 433.711 191.811C434.43 191.124 435.297 190.78 436.312 190.78C437.344 190.78 438.219 191.124 438.938 191.811C439.656 192.483 440.016 193.327 440.016 194.342C440.016 195.358 439.656 196.209 438.938 196.897C438.219 197.584 437.344 197.928 436.312 197.928ZM461.461 217.17H467.836C467.648 219.905 466.664 222.139 464.883 223.874C463.102 225.608 460.75 226.624 457.828 226.92L456.844 229.264C458.219 229.264 459.281 229.584 460.031 230.225C460.797 230.881 461.18 231.803 461.18 232.991C461.18 234.334 460.68 235.389 459.68 236.155C458.68 236.936 457.297 237.334 455.531 237.35C454.156 237.35 453.062 237.225 452.25 236.975V234.163C452.875 234.381 453.742 234.491 454.852 234.491C456.523 234.491 457.359 234.061 457.359 233.202C457.359 232.717 457.133 232.374 456.68 232.17C456.242 231.983 455.492 231.889 454.43 231.889H453.117V229.522L454.312 226.897C450.969 226.506 448.336 225.147 446.414 222.819C444.492 220.475 443.531 217.413 443.531 213.631C443.531 209.553 444.664 206.311 446.93 203.905C449.211 201.499 452.273 200.295 456.117 200.295C459.523 200.295 462.281 201.225 464.391 203.084C466.5 204.944 467.641 207.334 467.812 210.256H461.438C461.25 208.881 460.695 207.78 459.773 206.952C458.852 206.108 457.664 205.686 456.211 205.686C454.445 205.686 453.047 206.397 452.016 207.819C450.984 209.225 450.469 211.163 450.469 213.631C450.469 216.131 450.984 218.084 452.016 219.491C453.047 220.881 454.453 221.577 456.234 221.577C457.688 221.577 458.867 221.194 459.773 220.428C460.68 219.663 461.242 218.577 461.461 217.17ZM483.023 226.991C479.102 226.991 476 225.803 473.719 223.428C471.438 221.053 470.297 217.788 470.297 213.631C470.297 209.522 471.445 206.272 473.742 203.881C476.039 201.491 479.133 200.295 483.023 200.295C486.93 200.295 490.023 201.491 492.305 203.881C494.602 206.256 495.75 209.506 495.75 213.631C495.75 217.803 494.609 221.077 492.328 223.452C490.062 225.811 486.961 226.991 483.023 226.991ZM478.758 219.608C479.789 221.014 481.211 221.717 483.023 221.717C484.836 221.717 486.25 221.014 487.266 219.608C488.281 218.186 488.789 216.194 488.789 213.631C488.789 211.1 488.273 209.124 487.242 207.702C486.227 206.264 484.82 205.545 483.023 205.545C481.211 205.545 479.789 206.264 478.758 207.702C477.742 209.124 477.234 211.1 477.234 213.631C477.234 216.194 477.742 218.186 478.758 219.608ZM498.984 208.334C498.984 205.913 499.969 203.967 501.938 202.499C503.906 201.03 506.523 200.295 509.789 200.295C512.977 200.295 515.547 201.045 517.5 202.545C519.453 204.03 520.453 206.006 520.5 208.475H514.172C514.094 207.459 513.656 206.655 512.859 206.061C512.062 205.452 511.008 205.147 509.695 205.147C508.461 205.147 507.469 205.405 506.719 205.92C505.969 206.42 505.594 207.084 505.594 207.913C505.594 209.178 506.742 210.077 509.039 210.608L513.891 211.663C516.484 212.256 518.336 213.092 519.445 214.17C520.57 215.249 521.133 216.749 521.133 218.67C521.133 221.17 520.086 223.186 517.992 224.717C515.898 226.233 513.156 226.991 509.766 226.991C506.406 226.991 503.703 226.249 501.656 224.764C499.625 223.264 498.523 221.256 498.352 218.741H505.031C505.203 219.834 505.711 220.678 506.555 221.272C507.398 221.85 508.531 222.139 509.953 222.139C511.312 222.139 512.383 221.897 513.164 221.413C513.945 220.913 514.336 220.241 514.336 219.397C514.336 218.725 514.086 218.194 513.586 217.803C513.102 217.413 512.273 217.077 511.102 216.795L506.344 215.717C501.438 214.608 498.984 212.147 498.984 208.334Z" fill="#00A4DB"/>
<path d="M35.46 61.34C32.67 68.18 16.11 75.02 7.56 77C-2.79 79.43 28.8 51.8 29.7 50.99C30.6 50.27 30.69 49.46 28.8 47.93C27.63 47.12 25.83 45.95 24.3 45.14C20.34 47.84 10.89 50.18 5.85 50.72C3.6 50.9 3.6 50.81 5.22 48.83C6.75 47.03 9.36 44.87 10.44 44.24C16.38 39.83 31.32 34.07 39.42 35.42C39.06 38.03 36.09 41.72 33.21 41.72C32.76 41.72 32.67 41.45 32.67 40.91C29.25 42.08 32.4 47.03 33.57 47.93C36.09 49.91 45.54 40.37 44.64 36.05C44.37 34.7 43.56 32.99 42.93 31.46C42.75 30.83 42.3 30.83 40.5 30.2C38.43 29.48 35.19 29.48 31.5 30.2C19.71 32.36 4.23 40.82 0.9 48.56C0.54 49.55 0.36 50.45 0.72 51.17C3.15 55.94 15.12 51.35 18.09 50.63C16.74 52.52 -10.98 80.78 9.36 80.78C18.36 79.88 36.63 74.84 39.96 66.38C39.33 61.7 36.45 58.91 35.01 59.54C35.82 60.53 35.82 60.35 35.46 61.34ZM53.3897 60.35L53.6597 62.24C54.2897 65.48 55.0997 66.83 56.1797 66.92C57.7997 67.1 64.4597 59.36 67.2497 54.14C67.4297 53.87 66.8897 53.42 66.6197 53.42H66.5297C64.3697 56.12 59.5997 62.87 58.5197 62.87C57.9797 62.15 57.6197 57.38 57.6197 51.98V51.89C57.6197 51.35 57.5297 50.72 57.4397 50.09C57.4397 49.91 57.7097 50 57.3497 49.73C57.2597 49.01 55.1897 48.56 54.4697 48.29C52.9397 47.93 52.9397 51.89 53.0297 54.95V56.75C52.4897 60.62 48.7997 62.87 47.7197 63.14C45.8297 63.5 47.8097 54.77 48.1697 53.87C51.4997 43.52 59.8697 46.67 58.7897 49.91C58.8797 49.82 60.0497 48.92 59.3297 46.76C59.2397 46.22 58.2497 45.41 57.7997 45.14C56.7197 44.51 53.5697 43.61 51.4097 43.97C46.9997 44.69 44.2997 46.94 43.0397 50.09C42.4997 51.53 42.0497 53.24 41.5097 55.49C41.1497 57.02 40.6997 59.09 41.0597 60.71C41.6897 63.23 43.8497 65.57 46.6397 65.39C48.8897 65.3 52.2197 62.42 53.3897 60.35ZM60.5735 50.45C60.6635 51.26 61.1135 51.8 61.4735 52.43C62.1935 53.51 63.0035 54.59 63.9035 55.49C65.7935 57.56 66.6035 58.73 66.8735 60.44C58.5035 65.84 58.5935 75.74 70.2035 69.53C72.9935 67.73 75.2435 63.41 73.4435 60.26C73.1735 59.63 72.9035 59.09 72.6335 58.55C74.6135 57.2 79.5635 54.05 79.5635 54.05C79.6535 54.05 79.9235 53.96 80.0135 53.78C80.5535 53.69 80.6435 53.33 80.5535 53.15C80.5535 52.88 80.3735 51.8 79.8335 52.16C79.8335 52.16 73.2635 56.39 72.0035 57.29C70.8335 54.32 68.5835 52.79 66.9635 50.09C66.1535 48.29 68.0435 46.13 69.6635 45.32C70.3835 44.96 72.1835 46.13 72.4535 46.67C72.9935 47.66 73.0835 48.29 72.5435 49.01C71.2835 50.72 70.9235 49.55 70.7435 48.74C70.4735 48.02 70.0235 48.29 69.9335 48.74C69.4835 50 70.2935 51.44 71.7335 51.44C73.3535 51.62 76.0535 47.93 75.5135 45.86H75.4235L75.5135 45.77C73.6235 36.59 59.7635 44.15 60.5735 50.45ZM67.2335 62.24C67.2335 62.33 67.2335 62.42 67.1435 62.51C67.0535 64.22 66.0635 67.55 64.0835 68.54C62.7335 69.17 62.5535 68.45 62.8235 67.28C63.2735 65.21 65.7935 63.23 67.2335 62.24ZM89.5732 78.62C89.8432 69.44 92.1832 55.58 94.4332 44.87C94.5232 44.6 94.7032 44.6 94.7032 44.42C94.7032 44.33 93.8932 43.88 93.7132 43.88C92.6332 43.61 89.5732 44.78 89.2132 46.31C89.0332 46.76 88.4032 50.72 87.3232 55.13C86.9632 56.93 84.7132 60.71 83.0032 61.25C82.2832 61.52 82.2832 60.44 82.2832 59.81C82.0132 55.94 84.9832 45.86 86.9632 45.77C87.0532 45.32 86.9632 45.32 86.5132 45.05C79.4932 43.97 78.1432 51.35 77.8732 57.47C77.7832 61.88 78.1432 65.21 79.5832 65.39C81.3832 65.57 84.0832 63.23 86.8732 60.08C86.6932 60.71 85.2532 69.62 85.1632 74.75C85.1632 76.64 87.5932 78.53 89.5732 78.62ZM145.306 32C145.126 31.1 144.136 30.29 143.596 30.2C136.306 30.02 136.216 30.29 135.136 37.58C134.686 40.73 133.246 48.11 132.706 51.26C131.626 48.11 127.666 35.6 126.046 33.44C123.256 32.36 121.006 31.28 118.216 32.63C114.526 34.52 115.336 34.07 116.506 35.87C116.956 36.59 116.866 37.4 116.776 39.2C116.686 41.27 114.706 59.18 114.886 59.63C116.236 63.59 116.146 65.66 122.176 65.48C122.356 65.3 122.626 64.31 122.266 63.5C122.086 63.32 123.436 44.33 123.796 41.9C124.246 38.84 125.686 41.9 126.226 43.34C128.116 48.2 130.186 54.5 131.266 59.9C131.986 63.68 132.616 67.64 138.106 68C138.286 67.82 138.556 66.83 138.286 66.02C136.846 62.42 140.986 45.59 143.416 36.05C144.136 33.44 144.406 32.45 145.306 32ZM155.305 50.72C154.405 50.63 164.485 44.96 160.525 39.2C158.995 36.86 155.845 35.6 152.875 35.69C152.155 35.78 150.175 36.5 149.545 36.77C148.915 36.05 146.935 35.96 145.765 36.59C146.575 39.65 147.205 41.36 146.215 47.03C146.215 47.12 149.815 46.67 149.905 45.32C150.085 43.88 149.905 42.08 149.905 40.82C151.795 37.58 156.205 37.49 157.375 39.56C159.265 43.16 149.905 49.46 149.905 50.45C149.905 51.89 155.485 57.74 155.395 62.24C155.395 65.48 152.605 67.37 149.905 66.11C148.555 65.48 148.915 63.77 150.085 59.72C150.445 58.46 147.925 55.67 147.205 56.57C146.215 58.01 139.915 68.18 150.625 68.63C155.575 68.9 160.255 66.02 160.435 61.88C160.615 58.1 156.925 53.96 155.305 50.72ZM171.882 60.17C170.262 58.73 167.832 44.69 168.012 44.42C168.642 43.61 170.352 43.52 170.172 43.25C169.812 43.07 167.562 42.71 167.292 42.8C165.582 42.98 163.062 45.32 162.432 46.76L162.522 46.94C162.522 50.9 167.472 66.56 170.082 65.39C170.802 65.12 171.612 64.22 172.422 62.96C172.422 62.96 173.682 60.62 175.032 58.1C175.302 59.18 175.572 60.08 175.662 60.53C175.932 61.43 176.202 62.15 176.472 62.78C177.102 63.95 180.432 65.93 181.512 65.48C182.952 64.94 187.182 53.51 189.252 48.47C191.232 48.38 194.832 46.13 195.012 46.04C195.012 45.68 195.462 45.23 195.012 45.14C194.562 45.5 191.322 46.49 190.062 46.67C190.512 45.68 190.872 45.32 190.782 44.33C190.692 42.17 188.442 42.08 186.912 43.25C185.022 44.87 185.472 47.84 187.632 48.29C186.012 52.16 183.672 58.01 181.692 59.36C181.242 59.72 180.432 58.82 180.342 58.46C179.172 55.94 178.632 48.56 178.632 46.85C178.632 46.13 178.992 46.22 179.442 45.95C179.352 45.23 178.092 44.96 177.822 45.05C176.202 45.23 173.772 47.39 173.142 48.83V49.01C172.872 49.46 173.322 51.53 173.862 53.78C174.402 55.76 172.962 59.9 171.882 60.17ZM188.442 46.67C186.732 46.31 186.732 45.32 187.272 44.69C188.082 43.61 189.342 43.79 188.892 45.41C188.802 45.68 188.622 46.13 188.442 46.67ZM190.564 50.45C190.654 51.26 191.104 51.8 191.464 52.43C192.184 53.51 192.994 54.59 193.894 55.49C195.784 57.56 196.594 58.73 196.864 60.44C188.494 65.84 188.584 75.74 200.194 69.53C202.984 67.73 205.234 63.41 203.434 60.26C203.164 59.63 202.894 59.09 202.624 58.55C204.604 57.2 209.554 54.05 209.554 54.05C209.644 54.05 209.914 53.96 210.004 53.78C210.544 53.69 210.634 53.33 210.544 53.15C210.544 52.88 210.364 51.8 209.824 52.16C209.824 52.16 203.254 56.39 201.994 57.29C200.824 54.32 198.574 52.79 196.954 50.09C196.144 48.29 198.034 46.13 199.654 45.32C200.374 44.96 202.174 46.13 202.444 46.67C202.984 47.66 203.074 48.29 202.534 49.01C201.274 50.72 200.914 49.55 200.734 48.74C200.464 48.02 200.014 48.29 199.924 48.74C199.474 50 200.284 51.44 201.724 51.44C203.344 51.62 206.044 47.93 205.504 45.86H205.414L205.504 45.77C203.614 36.59 189.754 44.15 190.564 50.45ZM197.224 62.24C197.224 62.33 197.224 62.42 197.134 62.51C197.044 64.22 196.054 67.55 194.074 68.54C192.724 69.17 192.544 68.45 192.814 67.28C193.264 65.21 195.784 63.23 197.224 62.24Z" fill="#00A4DB"/>
</svg>
