<svg width="604" height="163" viewBox="0 0 604 163" fill="none" xmlns="http://www.w3.org/2000/svg">
<g filter="url(#filter0_d)">
<path d="M99.2526 94.9169C91.4722 113.904 45.4417 132.831 21.6829 138.292C-7.07786 144.996 80.7952 68.3872 83.2988 66.1412C85.802 64.1452 86.0556 61.8957 80.8124 57.6372C77.5661 55.382 72.5713 52.124 68.3249 49.8672C57.3129 57.3495 31.0525 63.8074 17.0501 65.2849C10.7993 65.7749 10.7997 65.5249 15.3085 60.0321C19.5665 55.0389 26.8261 49.0506 29.829 47.3054C46.3486 35.0819 87.8742 19.1485 110.368 22.9346C109.357 30.183 101.09 40.4197 93.0901 40.4069C91.8401 40.4049 91.5913 39.6545 91.5937 38.1545C82.0885 41.3893 90.8164 55.1533 94.0624 57.6585C101.054 63.1697 127.346 36.7119 124.865 24.7079C124.121 20.9567 121.879 16.2031 120.136 11.9503C119.639 10.1995 118.389 10.1975 113.391 8.43945C107.645 6.43022 98.6447 6.41578 88.3915 8.39933C55.6319 14.3468 12.5942 37.7777 3.30973 59.2629C2.30532 62.0113 1.8013 64.5105 2.79809 66.5121C9.52682 79.7729 42.7972 67.0762 51.0504 65.0895C47.292 70.3335 -29.8339 148.71 26.6661 148.8C51.6701 146.341 102.442 132.422 111.73 108.937C110.001 95.9341 102.013 88.1713 98.0107 89.9149C100.256 92.6685 100.257 92.1685 99.2526 94.9169ZM149.062 92.2468L149.803 97.498C151.539 106.501 153.783 110.254 156.782 110.509C161.282 111.016 179.816 89.5461 187.589 75.0586C188.091 74.3094 186.593 73.057 185.843 73.0558L185.593 73.0554C179.58 80.5458 166.3 99.2745 163.3 99.2697C161.804 97.2673 160.825 84.0157 160.849 69.0157L160.849 68.7657C160.852 67.2657 160.605 65.5153 160.357 63.7649C160.358 63.2649 161.108 63.5161 160.109 62.7645C159.862 60.7641 154.114 59.5049 152.115 58.7517C147.867 57.7448 147.849 68.7448 148.086 77.2452L148.078 82.2452C146.56 92.9928 136.3 99.2263 133.299 99.9715C128.048 100.963 133.587 76.7219 134.591 74.2236C143.887 45.4884 167.123 54.2757 164.108 63.2709C164.359 63.0213 167.613 60.5265 165.622 54.5233C165.375 53.0229 162.628 50.7685 161.379 50.0165C158.382 48.2617 149.636 45.7477 143.635 46.738C131.381 48.7184 123.871 54.9563 120.357 63.7007C118.851 67.6983 117.593 72.4463 116.083 78.6939C115.077 82.9422 113.817 88.6902 114.81 93.1918C116.549 100.195 122.538 106.704 130.289 106.217C136.54 105.977 145.802 97.9916 149.062 92.2468ZM169.061 64.7789C169.307 67.0293 170.555 68.5313 171.552 70.2829C173.547 73.2861 175.792 76.2897 178.288 78.7937C183.529 84.5521 185.774 87.8057 186.516 92.5569C163.242 107.52 163.448 135.02 195.726 117.822C203.484 112.834 209.753 100.844 204.767 92.0862C204.02 90.335 203.272 88.8338 202.525 87.3326C208.031 83.5914 221.795 74.8635 221.795 74.8635C222.045 74.8639 222.795 74.6151 223.046 74.1155C224.546 73.8679 224.798 72.8683 224.549 72.3679C224.55 71.6179 224.055 68.6171 222.553 69.6147C222.553 69.6147 204.284 81.3354 200.78 83.8298C197.544 75.5746 191.3 71.3146 186.812 63.8073C184.57 58.8037 189.83 52.8122 194.334 50.5694C196.335 49.5726 201.33 52.8306 202.078 54.3318C203.573 57.0842 203.82 58.8346 202.317 60.8322C198.81 65.5766 197.815 62.325 197.318 60.0742C196.572 58.073 195.32 58.821 195.068 60.0706C193.813 63.5686 196.056 67.5722 200.056 67.5786C204.556 68.0858 212.072 57.8479 210.581 52.0955L210.331 52.0951L210.582 51.8455C205.373 26.3371 166.839 47.2753 169.061 64.7789ZM187.508 97.5585C187.508 97.8085 187.507 98.0585 187.257 98.3081C186.999 103.058 184.235 112.303 178.73 115.044C174.977 116.788 174.481 114.788 175.236 111.539C176.495 105.791 183.504 100.302 187.508 97.5585ZM249.49 143.158C250.281 117.659 256.843 79.1697 263.14 49.4298C263.391 48.6802 263.891 48.681 263.892 48.181C263.893 47.931 261.645 46.6774 261.145 46.6766C258.146 45.9218 249.641 49.1581 248.634 53.4065C248.132 54.6557 246.364 65.6529 243.345 77.8981C242.337 82.8965 236.07 93.3864 231.317 94.8788C229.316 95.6256 229.321 92.6256 229.324 90.8756C228.591 80.1244 236.886 52.1377 242.386 51.8965C242.638 50.6469 242.388 50.6465 241.14 49.8945C221.644 46.8632 217.861 67.3572 217.084 84.3559C216.815 96.6055 217.8 105.857 221.799 106.364C226.798 106.872 234.308 100.384 242.073 91.6461C241.57 93.3953 237.53 118.139 237.257 132.388C237.249 137.638 243.99 142.899 249.49 143.158ZM404.51 13.9066C404.014 11.4058 401.268 9.15141 399.768 8.899C379.519 8.36651 379.268 9.1161 376.235 29.3613C374.971 38.1093 370.938 58.6028 369.424 67.3504C366.438 58.5956 355.494 23.828 351.004 17.8208C343.258 14.8083 337.013 11.7983 329.257 15.5359C318.999 20.7694 321.251 19.523 324.493 24.5282C325.74 26.5302 325.486 28.7798 325.228 33.7794C324.969 39.529 319.389 89.2701 319.887 90.5209C323.619 101.527 323.36 107.277 340.111 106.803C340.612 106.304 341.366 103.555 340.37 101.304C339.87 100.803 343.705 48.0591 344.716 41.3107C345.98 32.8127 349.966 41.3191 351.459 45.3215C356.688 58.8299 362.41 76.3391 365.386 91.3439C367.369 101.847 369.101 112.85 384.35 113.874C384.85 113.375 385.605 110.626 384.858 108.375C380.874 98.3688 392.449 51.6373 399.242 25.1482C401.254 17.9014 402.008 15.1526 404.51 13.9066ZM432.202 65.9511C429.702 65.6971 457.728 49.9921 446.753 33.9744C442.514 27.4676 433.769 23.9536 425.519 24.1903C423.518 24.4371 418.015 26.4283 416.264 27.1755C414.517 25.1727 409.018 24.9139 405.765 26.6587C408.001 35.1622 409.744 39.9151 406.968 55.6606C406.968 55.9106 416.97 54.6767 417.226 50.9271C417.732 46.9279 417.24 41.9271 417.246 38.4271C422.51 29.4355 434.761 29.2052 438.002 34.9604C443.236 44.9688 417.208 62.4271 417.203 65.1771C417.197 69.177 432.671 85.4519 432.401 97.9515C432.386 106.951 424.628 112.189 417.133 108.677C413.386 106.921 414.394 102.173 417.662 90.9278C418.667 87.4294 411.68 79.6682 409.676 82.165C406.919 86.1606 389.374 114.382 419.122 115.68C432.871 116.452 445.884 108.473 446.402 96.974C446.919 86.4748 436.687 74.9583 432.202 65.9511ZM478.209 92.275C473.715 88.2678 467.028 49.257 467.529 48.5078C469.282 46.2606 474.033 46.0182 473.534 45.2674C472.535 44.7658 466.286 43.7558 465.536 44.0046C460.785 44.497 453.775 50.9857 452.018 54.9829L452.268 55.4833C452.25 66.4833 465.93 110.005 473.185 106.767C475.186 106.02 477.44 103.524 479.696 100.027C479.696 100.027 483.207 93.533 486.968 86.539C487.713 89.5402 488.459 92.0414 488.707 93.2918C489.453 95.793 490.2 97.7942 490.947 99.5454C492.692 102.798 501.933 108.313 504.935 107.068C508.937 105.574 520.738 73.8432 526.511 59.8525C532.011 59.6113 542.021 53.3773 542.521 53.1281C542.523 52.1281 543.775 50.8801 542.525 50.6281C541.274 51.6261 532.269 54.3617 528.769 54.8561C530.023 52.1081 531.025 51.1097 530.779 48.3593C530.539 42.3589 524.289 42.0989 520.034 45.342C514.777 49.8336 516.013 58.0856 522.011 59.3452C517.494 70.088 510.968 86.3275 505.462 90.0687C504.211 91.0667 501.965 88.5631 501.716 87.5627C498.477 80.5575 497.01 60.0551 497.018 55.3051C497.021 53.3051 498.021 53.5567 499.272 52.8087C499.025 50.8083 495.526 50.0527 494.776 50.3015C490.275 50.7943 483.515 56.7835 481.759 60.7806L481.758 61.2806C481.006 62.5294 482.247 68.2814 483.737 74.5338C485.228 80.0362 481.21 91.5298 478.209 92.275ZM524.269 54.8488C519.52 53.8412 519.525 51.0912 521.027 49.3436C523.282 46.3473 526.781 46.8529 525.524 51.3509C525.273 52.1005 524.771 53.3497 524.269 54.8488ZM530.144 65.3583C530.391 67.6087 531.638 69.1107 532.636 70.8623C534.631 73.8655 536.876 76.8691 539.372 79.3731C544.613 85.1315 546.857 88.3851 547.6 93.1363C524.326 108.099 524.532 135.599 556.809 118.401C564.567 113.414 570.837 101.424 565.851 92.6656C565.103 90.9144 564.356 89.4132 563.608 87.912C569.114 84.1709 582.878 75.4429 582.878 75.4429C583.128 75.4433 583.879 75.1945 584.129 74.6949C585.63 74.4473 585.881 73.4477 585.632 72.9473C585.633 72.1973 585.138 69.1965 583.637 70.1941C583.637 70.1941 565.368 81.9148 561.864 84.4092C558.627 76.154 552.384 71.894 547.896 64.3868C545.654 59.3832 550.914 53.3916 555.417 51.1488C557.419 50.152 562.414 53.4101 563.161 54.9113C564.657 57.6637 564.904 59.4141 563.401 61.4117C559.893 66.156 558.898 62.9044 558.402 60.6536C557.655 58.6524 556.404 59.4004 556.152 60.65C554.896 64.148 557.14 68.1516 561.14 68.158C565.639 68.6653 573.156 58.4273 571.665 52.6749L571.415 52.6745L571.665 52.4249C566.456 26.9165 527.922 47.8547 530.144 65.3583ZM548.592 98.1379C548.591 98.3879 548.591 98.6379 548.341 98.8875C548.083 103.637 545.318 112.883 539.814 115.624C536.061 117.368 535.564 115.367 536.319 112.118C537.579 106.37 544.587 100.882 548.592 98.1379Z" fill="#020F83"/>
</g>
<defs>
<filter id="filter0_d" x="0.256836" y="0.921997" width="603.459" height="161.878" filterUnits="userSpaceOnUse" color-interpolation-filters="sRGB">
<feFlood flood-opacity="0" result="BackgroundImageFix"/>
<feColorMatrix in="SourceAlpha" type="matrix" values="0 0 0 0 0 0 0 0 0 0 0 0 0 0 0 0 0 0 127 0"/>
<feOffset dx="8" dy="4"/>
<feGaussianBlur stdDeviation="5"/>
<feColorMatrix type="matrix" values="0 0 0 0 0 0 0 0 0 0 0 0 0 0 0 0 0 0 0.3 0"/>
<feBlend mode="normal" in2="BackgroundImageFix" result="effect1_dropShadow"/>
<feBlend mode="normal" in="SourceGraphic" in2="effect1_dropShadow" result="shape"/>
</filter>
</defs>
</svg>
