<svg width="670" height="686" viewBox="0 0 670 686" fill="none" xmlns="http://www.w3.org/2000/svg">
<path d="M180.618 444.35H78.2864V582.647H180.618V444.35Z" fill="#E0E0E0"/>
<path d="M180.618 444.35H132.639V582.647H180.618V444.35Z" fill="#F0F0F0"/>
<path d="M108.938 463.077H99.7383V485.976H108.938V463.077Z" fill="#F5F5F5"/>
<path d="M108.938 552.71H99.7383V575.609H108.938V552.71Z" fill="#F5F5F5"/>
<path d="M132.639 494.963C132.639 495.168 120.467 495.319 105.47 495.319C90.4719 495.319 78.2864 495.168 78.2864 494.963C78.2864 494.757 90.4451 494.606 105.47 494.606C120.494 494.606 132.639 494.771 132.639 494.963Z" fill="white"/>
<path d="M108.938 508.23H99.7383V531.129H108.938V508.23Z" fill="#F5F5F5"/>
<path d="M132.639 540.129C132.639 540.321 120.467 540.486 105.47 540.486C90.4719 540.486 78.2864 540.321 78.2864 540.129C78.2864 539.937 90.4451 539.772 105.47 539.772C120.494 539.772 132.639 539.937 132.639 540.129Z" fill="white"/>
<path d="M152.029 463.077H142.83V485.976H152.029V463.077Z" fill="#E0E0E0"/>
<path d="M171.981 463.077H162.782V485.976H171.981V463.077Z" fill="#E0E0E0"/>
<path d="M152.029 506.542H142.83V529.441H152.029V506.542Z" fill="#E0E0E0"/>
<path d="M171.981 506.542H162.782V529.441H171.981V506.542Z" fill="#E0E0E0"/>
<path d="M152.029 549.994H142.83V572.892H152.029V549.994Z" fill="#E0E0E0"/>
<path d="M171.981 549.994H162.782V572.892H171.981V549.994Z" fill="#E0E0E0"/>
<path d="M188.318 439.534H70.6001V444.514H188.318V439.534Z" fill="#E0E0E0"/>
<path d="M181.328 444.994C181.328 445.187 158.457 445.351 130.256 445.351C102.055 445.351 79.2371 445.187 79.2371 444.994C79.2371 444.802 102.108 444.638 130.323 444.638C158.537 444.638 181.328 444.802 181.328 444.994Z" fill="white"/>
<path d="M577.144 482.354H503.535V581.824H577.144V482.354Z" fill="#E0E0E0"/>
<path d="M577.131 482.354H542.623V581.824H577.131V482.354Z" fill="#F0F0F0"/>
<path d="M525.577 495.813H518.962V512.291H525.577V495.813Z" fill="#F5F5F5"/>
<path d="M525.577 560.297H518.962V576.775H525.577V560.297Z" fill="#F5F5F5"/>
<path d="M542.623 518.753C542.623 518.904 533.879 519.014 523.086 519.014C512.293 519.014 503.535 518.904 503.535 518.753C503.535 518.602 512.28 518.506 523.086 518.506C533.892 518.506 542.623 518.616 542.623 518.753Z" fill="white"/>
<path d="M525.577 528.302H518.962V544.78H525.577V528.302Z" fill="#F5F5F5"/>
<path d="M542.623 551.242C542.623 551.379 533.879 551.503 523.086 551.503C512.293 551.503 503.535 551.379 503.535 551.242C503.535 551.105 512.28 550.981 523.086 550.981C533.892 550.981 542.623 551.091 542.623 551.242Z" fill="white"/>
<path d="M556.563 495.813H549.948V512.291H556.563V495.813Z" fill="#E0E0E0"/>
<path d="M570.931 495.813H564.316V512.291H570.931V495.813Z" fill="#E0E0E0"/>
<path d="M556.563 527.081H549.948V543.559H556.563V527.081Z" fill="#E0E0E0"/>
<path d="M570.931 527.081H564.316V543.559H570.931V527.081Z" fill="#E0E0E0"/>
<path d="M556.563 558.335H549.948V574.813H556.563V558.335Z" fill="#E0E0E0"/>
<path d="M570.931 558.335H564.316V574.813H570.931V558.335Z" fill="#E0E0E0"/>
<path d="M582.674 478.883H498.005V482.464H582.674V478.883Z" fill="#E0E0E0"/>
<path d="M577.653 482.807C577.653 482.958 561.196 483.067 540.909 483.067C520.622 483.067 504.165 482.958 504.165 482.807C504.165 482.656 520.609 482.56 540.909 482.56C561.209 482.56 577.653 482.67 577.653 482.807Z" fill="white"/>
<path d="M61.5881 211.137H136.965C136.965 211.137 136.965 193.452 128.073 193.452C124.882 193.345 121.755 194.383 119.232 196.387C116.709 198.391 114.948 201.235 114.254 204.428C114.254 204.428 114.254 171.431 98.0511 176.275C82.7053 180.857 80.9779 201.986 80.9779 201.986C80.9779 201.986 78.2194 191.353 69.9038 197.348C61.5881 203.344 61.5881 211.137 61.5881 211.137Z" fill="#E0E0E0"/>
<path d="M459.761 63.6882H508.637C508.637 63.6882 508.637 52.2183 502.866 52.2183C500.798 52.1481 498.772 52.8197 497.136 54.1173C495.501 55.4149 494.359 57.2569 493.908 59.3253C493.908 59.3253 493.908 37.9358 483.396 41.0777C473.46 44.0412 472.335 57.7337 472.335 57.7337C472.335 57.7337 470.541 50.8737 465.158 54.7291C459.775 58.5844 459.761 63.6882 459.761 63.6882Z" fill="#EBEBEB"/>
<path d="M558.946 284.813H607.823C607.823 284.813 607.823 273.357 602.051 273.357C599.984 273.287 597.957 273.959 596.322 275.256C594.686 276.554 593.544 278.396 593.093 280.464C593.093 280.464 593.093 259.075 582.581 262.203C572.645 265.18 571.52 278.873 571.52 278.873C571.52 278.873 569.726 272.013 564.343 275.868C558.96 279.723 558.946 284.813 558.946 284.813Z" fill="#E0E0E0"/>
<path d="M613.165 582.647C613.165 582.839 488.632 583.004 335.013 583.004C181.395 583.004 56.8345 582.839 56.8345 582.647C56.8345 582.455 181.368 582.291 335.013 582.291C488.658 582.291 613.165 582.441 613.165 582.647Z" fill="#263238"/>
<path d="M520.461 75.46H329.844V88.494H507.74V543.998H329.844V557.032H520.461V75.46Z" fill="#455A64"/>
<path d="M329.844 88.494V101.528V530.964V543.998H507.74V88.494H329.844Z" fill="white"/>
<path d="M142.174 543.998V88.494H329.844V75.46H129.452V557.032H329.844V543.998H142.174Z" fill="#263238"/>
<path d="M142.174 88.494V543.998H329.844V530.964V101.528V88.494H142.174Z" fill="#F5F5F5"/>
<path d="M465.533 102.475C468.92 103.627 472.228 104.903 475.522 106.234V88.494H368.597H370.445C398.592 89.523 434.841 91.924 465.533 102.475Z" fill="#F5F5F5"/>
<path d="M493.091 88.494V114.109C497.952 116.469 502.813 118.952 507.74 121.477V94.7778C503.174 92.61 498.501 90.4971 493.693 88.494H493.091Z" fill="#F5F5F5"/>
<path d="M196.995 483.836C206.43 480.455 215.488 476.058 224.018 470.719L166.437 428.188C157.734 432.4 148.614 436.776 142.227 441.427V477.36C155.939 487.719 178.449 490.339 196.995 483.836Z" fill="#F5F5F5"/>
<path d="M296.368 376.792C294.975 368.168 294.885 359.376 296.1 350.724L268.046 343.864C254.656 340.585 240.194 346.169 237.02 355.828C229.24 379.564 208.578 402.805 183.832 418.94C180.266 421.188 176.582 423.236 172.798 425.073L200.182 445.296L298.108 384.352C297.385 381.869 296.804 379.345 296.368 376.792Z" fill="#F5F5F5"/>
<path d="M317.244 416.937C309.811 409.353 303.974 400.29 300.09 390.307L205.538 449.165L229.776 467.07C238.935 461.102 247.612 454.64 256.771 448.493C275.805 435.851 296.071 425.276 317.244 416.937Z" fill="#F5F5F5"/>
<path d="M413.322 379.468L303.652 352.508C302.648 360.366 302.792 368.333 304.081 376.147C306.715 390.7 313.707 404.05 324.086 414.344C352.59 403.71 382.132 396.262 412.197 392.131C421.584 390.759 422.401 381.594 413.322 379.468Z" fill="#F5F5F5"/>
<path d="M190.782 335.838L194.92 310.689L195.335 308.371C194.679 306.999 193.996 305.723 193.393 304.406C187.421 306.038 180.792 305.874 174.485 306.642C168.178 307.41 161.443 309.592 159.327 313.818C157.988 316.411 158.725 319.306 159.448 321.967C160.546 326.138 161.648 330.304 162.755 334.466C163.666 337.951 164.657 341.546 167.469 344.482C169.167 346.143 171.211 347.387 173.448 348.119C175.684 348.851 178.054 349.052 180.377 348.708C181.991 348.451 183.537 347.859 184.919 346.967C186.3 346.075 187.489 344.902 188.412 343.521C189.711 341.156 190.518 338.54 190.782 335.838Z" fill="#F5F5F5"/>
<path d="M424.825 284.663L493.693 305.627L507.74 295.57V266.415L461.73 252.421L424.825 284.663Z" fill="#E6E6E6"/>
<path d="M469.778 245.396L507.74 256.948V226.915L492.97 225.131L469.778 245.396Z" fill="#E6E6E6"/>
<path d="M493.091 114.109V88.494H475.522V198.254L251 153.294L263.172 88.494H245.925L234.114 151.318L142.174 147.435V159.413L231.891 163.268L209.502 282.358L148.146 290.164L142.174 268.308V307.891C142.732 318.641 144.375 329.303 147.075 339.707C148.214 345.117 150.45 350.221 153.636 354.689C159.809 362.688 171.539 368.409 184.341 369.781C179.792 376.449 174.221 382.319 167.844 387.165C160.425 392.817 151.627 397.427 142.174 401.804V416.004L146.968 413.891L166.384 428.229L223.964 470.761L241.372 483.589C224.486 493.193 207.748 500.821 190.112 502.879C185.921 503.359 180.926 503.62 175.583 503.894C164.361 504.259 153.176 505.41 142.107 507.338V519.686C142.99 519.48 143.861 519.288 144.785 519.11C155.23 517.215 165.797 516.11 176.4 515.803C182.091 515.502 187.474 515.227 192.469 514.651C223.268 511.056 249.099 494.935 276.402 477.868C304.844 460.032 337.089 439.904 378.828 433.84C423.124 427.392 472.496 438.491 507.687 462.817V446.49C486.821 434.882 464.18 426.995 440.733 423.166C453.468 414.166 462.52 402.586 465.961 390.169C466.162 389.442 466.336 388.715 466.51 387.988C467.092 385.387 467.389 382.727 467.394 380.058C467.395 378.682 467.314 377.308 467.153 375.942L507.74 363.58V350.532L463.712 363.992C461.144 358.688 457.665 353.901 453.441 349.86L507.74 323.792V317.206L448.553 345.607C439.141 338.422 428.368 333.328 416.924 330.652L365.799 317.906L487.654 212.811L507.74 214.938V202.85L493.091 201.3V114.109ZM248.75 165.285L312.129 177.99L308.674 303.678L226.535 283.222L248.75 165.285ZM160.492 352.11C157.292 347.994 155.832 343.027 154.721 338.733C151.611 326.753 149.943 314.427 149.753 302.032L207.172 294.733L203.557 313.941C200.048 332.6 196.125 349.791 187.635 364.499C176.387 363.854 165.848 359.08 160.492 352.11ZM172.798 424.991L153.569 410.791C163.028 406.53 172.033 401.285 180.444 395.136C207.534 374.556 214.617 346.855 220.509 315.56L224.299 295.378L305.889 315.711C301.166 326.891 297.876 338.651 296.1 350.697C294.885 359.349 294.976 368.141 296.368 376.765C296.807 379.29 297.388 381.786 298.109 384.242L200.182 445.214L172.798 424.991ZM265.449 468.895C259.356 472.709 253.397 476.454 247.358 480.022L229.776 467.029L205.539 449.124L300.09 390.265C303.974 400.249 309.812 409.312 317.244 416.896C322.955 422.757 329.409 427.806 336.433 431.906C309.035 441.688 286.285 455.902 265.449 468.936V468.895ZM411.18 341.902C437.747 348.515 453.936 367.12 449.665 386.108C449.531 386.698 449.384 387.288 449.223 387.864C445.594 400.885 434.373 412.89 418.866 420.545C393.674 418.735 368.373 421.717 344.24 429.34C336.845 425.367 330.074 420.28 324.154 414.248C313.784 403.969 306.792 390.639 304.148 376.106C302.859 368.292 302.715 360.325 303.719 352.467C305.366 340.406 308.596 328.628 313.32 317.453L411.18 341.902ZM396.45 272.136L348.391 313.584L316.36 305.599L319.815 179.54L396.437 194.893L396.45 272.136ZM405.234 264.563V196.649L469.121 209.463L405.234 264.563Z" fill="#E0E0E0"/>
<path d="M217.59 172.941L162.233 171.143V233.24H207.775L217.59 172.941Z" fill="#EBEBEB"/>
<path d="M206.168 244.929H153.462V270.257H206.168V244.929Z" fill="#EBEBEB"/>
<path d="M343.771 156.874L463.819 178.607V114.397H387.692V143.621H343.771V156.874Z" fill="#EBEBEB"/>
<path d="M314.499 152.059V98.8114H277.567L271.113 143.593L314.499 152.059Z" fill="#EBEBEB"/>
<path d="M370.124 96.8632H332.054V124.139H370.124V96.8632Z" fill="#E0E0E0"/>
<path d="M393.785 311.773L456.789 332.01L484.387 312.267L416.777 291.701L393.785 311.773Z" fill="#E6E6E6"/>
<path d="M296.93 186.482H261.793V266.36H296.93V186.482Z" fill="#EBEBEB"/>
<path d="M247.157 262.464H238.373V278.05H247.157V262.464Z" fill="#E0E0E0"/>
<path d="M384.76 204.73L332.054 193.507V234.255V241.033H384.76V204.73Z" fill="#EBEBEB"/>
<path d="M337.919 264.412H326.202V287.791H337.919V264.412Z" fill="#EBEBEB"/>
<path d="M355.488 264.412H343.771V287.791H355.488V264.412Z" fill="#EBEBEB"/>
<path d="M373.056 264.412H361.34V287.791H373.056V264.412Z" fill="#EBEBEB"/>
<path d="M159.314 88.494H142.174V136.83L159.314 137.461V88.494Z" fill="#E6E6E6"/>
<path d="M220.523 139.574L228.664 88.494H173.95V137.872L220.523 139.574Z" fill="#E6E6E6"/>
<path d="M507.74 435.267V411.134L496.88 430.108L507.74 435.267Z" fill="#F0F0F0"/>
<path d="M244.988 480.2C272.733 466.48 290.811 438.903 317.739 423.811C324.618 419.725 332.279 417.216 340.196 416.457C347.226 415.963 353.975 416.567 360.858 414.55C370.485 411.806 376.337 405.399 380.569 396.206C385.778 384.873 389.701 369.987 384.706 357.969C379.94 346.611 371.273 337.439 360.349 332.189C354.376 329.307 347.962 327.592 341.856 325.027C337.839 323.353 333.099 321.528 329.804 318.537C327.314 316.246 328.305 314.778 329.898 311.787C332.04 308.069 334.486 304.544 337.209 301.25C342.151 294.911 348.069 288.751 351.698 281.452C354.242 276.348 354.698 270.586 354.778 264.988C355.046 246.686 355.715 228.424 356.117 210.108C356.117 208.091 353.185 208.119 353.064 210.108C352.087 226.38 351.149 242.789 351.484 259.102C351.605 265.057 351.939 271.601 349.971 277.322C347.373 284.882 341.12 291.193 336.272 297.285C332.373 301.867 328.949 306.851 326.055 312.157C324.836 314.6 324.1 316.273 325.56 318.729C328.814 324.217 337.772 326.961 343.302 329.143C350.279 331.887 357.389 333.808 363.897 337.773C370.016 341.634 375.149 346.935 378.868 353.235C384.465 362.318 385.108 370.906 382.725 381.265C379.645 394.67 373.873 408.088 360.121 412.245C353.426 414.275 346.904 413.74 340.102 414.234C334.307 414.732 328.633 416.211 323.31 418.611C292.779 431.96 273.095 462.748 244.305 479.24C243.635 479.624 244.224 480.612 244.894 480.282L244.988 480.2Z" fill="#263238"/>
<path d="M263.574 397.07C265.676 378.507 242.363 372.649 233.445 386.287C225.29 398.772 247.612 435.473 247.612 435.473L263.574 397.07ZM251.629 404.219C250.199 405.234 248.507 405.792 246.767 405.822C245.027 405.852 243.317 405.353 241.854 404.387C240.391 403.422 239.241 402.033 238.548 400.398C237.855 398.762 237.652 396.953 237.963 395.199C238.274 393.444 239.085 391.824 240.295 390.542C241.505 389.261 243.059 388.376 244.759 387.999C246.46 387.622 248.232 387.771 249.85 388.426C251.469 389.081 252.862 390.213 253.852 391.679C255.174 393.648 255.679 396.074 255.257 398.425C254.836 400.776 253.521 402.859 251.602 404.219H251.629Z" fill="#DBA901"/>
<path d="M509.454 241.39C503.201 231.978 498.969 227.299 489.984 223.965C486.541 222.7 482.927 221.992 479.271 221.866C470.675 224.61 464.742 224.61 456.132 221.866C451.727 222.429 447.964 219.122 425.467 233.432C416.188 239.332 409.814 243.228 398.793 249.045C395.78 250.417 393.651 251.309 393.182 251.021C391.147 249.773 368.959 208.174 368.959 208.174C368.959 208.174 364.017 193.795 361.942 193.891C359.866 193.987 345.137 194.44 344.909 196.8C344.681 199.16 345.592 209.546 347.199 210.959C348.806 212.372 354.604 216.159 354.604 216.159C354.604 216.159 379.216 281.356 388.308 280.423C395.004 279.751 420.607 268.83 433.917 263.026L436.863 261.942L438.617 299.741L437.907 347.377L495.929 344.002L494.992 294.98C495.434 282.769 495.126 278.832 496.331 268.706L513.739 275.484L516.832 255.37C514.733 250.52 512.266 245.845 509.454 241.39Z" fill="#E5BAAB"/>
<path d="M352.274 183.464C348.953 175.232 335.616 176.755 334.491 185.426C332.924 197.568 355.809 207.172 355.809 207.172V206.349C355.809 206.349 354.845 189.844 352.274 183.464ZM348.712 190.434C348.332 191.341 347.698 192.113 346.889 192.652C346.081 193.19 345.135 193.471 344.171 193.459C343.207 193.446 342.269 193.141 341.474 192.582C340.679 192.023 340.064 191.235 339.706 190.318C339.348 189.401 339.264 188.395 339.464 187.429C339.664 186.463 340.139 185.579 340.829 184.889C341.52 184.2 342.394 183.735 343.342 183.555C344.29 183.374 345.268 183.486 346.154 183.875C347.342 184.398 348.279 185.382 348.759 186.612C349.238 187.842 349.221 189.216 348.712 190.434Z" fill="#DBA901"/>
<path d="M349.462 204.154C350.258 204.501 351.002 204.963 351.671 205.526L353.961 207.199C354.39 207.529 354.831 207.844 355.3 208.228C355.575 208.442 355.806 208.71 355.978 209.016C356.151 209.322 356.262 209.661 356.304 210.012C356.318 210.344 356.231 210.672 356.056 210.952C355.881 211.232 355.627 211.45 355.327 211.576C354.812 211.796 354.237 211.82 353.707 211.645C352.899 211.336 352.119 210.955 351.377 210.506C350.038 209.792 349.087 209.23 348.698 208.956L348.819 208.832C348.886 209.024 348.899 209.12 348.886 209.134C348.873 209.148 348.792 209.134 348.672 208.914L348.524 208.722L348.779 208.791C349.234 208.942 350.238 209.367 351.618 210.012C352.352 210.387 353.108 210.716 353.881 211C354.631 211.261 355.675 210.876 355.608 210.053C355.541 209.23 354.349 208.42 353.573 207.721L351.377 205.937C350.67 205.424 350.027 204.825 349.462 204.154Z" fill="#D78776"/>
<path d="M351.765 200.778C352.651 200.967 353.495 201.32 354.256 201.821C355.131 202.302 355.923 202.927 356.599 203.673C357.012 204.12 357.355 204.629 357.617 205.183C357.795 205.494 357.912 205.839 357.96 206.197C358.009 206.554 357.987 206.919 357.898 207.268C357.826 207.463 357.714 207.641 357.571 207.789C357.428 207.938 357.257 208.055 357.068 208.132C356.736 208.264 356.377 208.311 356.023 208.27C355.424 208.184 354.841 208.004 354.296 207.734C353.388 207.331 352.537 206.805 351.765 206.17C350.426 205.087 349.904 204.167 349.971 204.112C350.038 204.058 350.734 204.826 352.06 205.773C352.843 206.314 353.678 206.773 354.55 207.145C355.037 207.364 355.55 207.511 356.077 207.584C356.613 207.584 357.095 207.474 357.242 207.035C357.355 206.51 357.269 205.96 357.001 205.498C356.775 204.998 356.477 204.535 356.117 204.126C355.506 203.404 354.793 202.78 354.001 202.274C353.214 201.845 352.465 201.345 351.765 200.778Z" fill="#D78776"/>
<path d="M361.902 194.604L350.346 198.089C349.811 198.182 349.332 198.482 349.006 198.926C348.578 199.75 349.341 200.724 350.131 201.19C351.85 202.145 353.814 202.533 355.755 202.301C357.683 202.036 359.58 201.576 361.42 200.929" fill="#E5BAAB"/>
<path d="M361.406 200.984C361.092 201.188 360.748 201.34 360.389 201.437C359.437 201.782 358.467 202.07 357.483 202.301C356 202.657 354.468 202.741 352.957 202.548C352.054 202.415 351.177 202.138 350.359 201.725C349.891 201.514 349.472 201.206 349.127 200.82C348.918 200.611 348.756 200.358 348.655 200.078C348.553 199.798 348.513 199.498 348.538 199.201C348.61 198.902 348.757 198.627 348.963 198.404C349.17 198.18 349.429 198.015 349.716 197.925C350.198 197.746 350.64 197.637 351.055 197.499L353.573 196.759L357.871 195.551C359.181 195.118 360.525 194.801 361.888 194.604C360.641 195.167 359.351 195.625 358.032 195.976L353.774 197.348L351.256 198.131C350.412 198.419 349.301 198.583 349.221 199.283C349.218 199.472 349.253 199.66 349.325 199.835C349.396 200.01 349.502 200.168 349.636 200.298C349.922 200.617 350.268 200.874 350.654 201.053C351.402 201.444 352.207 201.713 353.037 201.849C354.478 202.066 355.944 202.038 357.376 201.766C359.853 201.341 361.366 200.861 361.406 200.984Z" fill="#D78776"/>
<path d="M516.444 419.667C521.3 420.001 526.148 418.913 530.424 416.531C534.7 414.149 538.226 410.571 540.593 406.214C542.959 401.856 544.068 396.899 543.79 391.921C543.511 386.943 541.857 382.148 539.021 378.096C535.392 372.896 530.049 369.246 524.84 365.748L506.093 353.084L511.811 402.737L516.39 419.695" fill="#DBA901"/>
<path d="M543.065 386.794C542.833 387.287 542.489 387.715 542.061 388.043C540.931 389.003 539.588 389.663 538.151 389.964C534.535 390.842 529.232 390.073 524.305 387.343C520.163 384.936 516.432 381.854 513.257 378.219C512.012 376.847 511.048 375.736 510.392 374.94C510.025 374.55 509.697 374.122 509.414 373.664C509.844 373.981 510.235 374.349 510.579 374.762L513.605 377.863C516.841 381.344 520.554 384.324 524.626 386.712C528.678 389.099 533.38 390.062 538.017 389.456C539.402 389.216 540.716 388.658 541.86 387.823C542.677 387.22 543.025 386.753 543.065 386.794Z" fill="#263238"/>
<path d="M495.032 296.983L496.371 268.679C496.371 268.679 486.877 260.543 489.984 223.965L485.418 222.593C485.418 222.593 482.606 268.638 459.815 266.621C437.024 264.604 445.085 223.224 445.085 223.224C442.578 223.363 440.192 224.375 438.322 226.092C438.148 226.174 437.318 241.184 436.863 253.957C434.361 258.476 433.111 263.609 433.247 268.802C433.483 272.759 434.969 276.529 437.479 279.545C438.095 288.202 438.711 299.7 438.711 299.7L429.833 323.243L431.962 331.544L497.081 330.803L499.009 321.926L495.032 296.983Z" fill="#455A64"/>
<path d="M485.217 265.221C485.003 266.218 484.578 267.155 483.972 267.965C483.115 269.337 482.284 270.449 482.124 270.353C481.963 270.257 482.512 268.981 483.369 267.609C484.226 266.237 485.056 265.112 485.217 265.221Z" fill="white"/>
<path d="M487.949 289.026C487.801 289.163 486.61 288.093 485.15 286.625C484.216 285.812 483.435 284.831 482.847 283.73C482.994 283.579 484.186 284.663 485.646 286.117C486.582 286.932 487.363 287.919 487.949 289.026Z" fill="white"/>
<path d="M450.321 271.148C448.36 273.013 446.093 274.508 443.625 275.566C445.587 273.702 447.853 272.207 450.321 271.148Z" fill="white"/>
<path d="M440.063 269.461C438.987 269.231 437.972 268.763 437.091 268.089C435.537 267.17 434.413 266.291 434.413 266.127C435.489 266.359 436.503 266.827 437.385 267.499C438.979 268.418 440.157 269.296 440.063 269.461Z" fill="white"/>
<path d="M440.291 240.882C440.574 242.127 440.637 243.414 440.479 244.682C440.532 245.957 440.36 247.231 439.97 248.442C439.67 247.204 439.606 245.918 439.782 244.655C439.715 243.376 439.888 242.095 440.291 240.882Z" fill="white"/>
<path d="M487.574 245.862C487.748 245.958 487.4 247.015 486.811 248.236C486.221 249.457 485.592 250.376 485.471 250.294C485.351 250.212 485.646 249.142 486.235 247.92C486.824 246.699 487.4 245.78 487.574 245.862Z" fill="white"/>
<path d="M463.778 283.126C463.009 281.202 462.684 279.122 462.828 277.048C463.594 278.973 463.919 281.052 463.778 283.126Z" fill="white"/>
<path d="M478.575 264.494C478.655 264.672 478.04 265.153 477.236 265.551C476.433 265.948 475.643 266.154 475.562 265.976C475.482 265.798 476.098 265.317 476.901 264.906C477.705 264.494 478.495 264.316 478.575 264.494Z" fill="white"/>
<path d="M494.577 275.141C494.644 275.319 493.961 275.717 493.064 276.005C492.167 276.293 491.39 276.389 491.323 276.211C491.256 276.033 491.952 275.621 492.85 275.333C493.747 275.045 494.523 274.949 494.577 275.141Z" fill="white"/>
<path d="M446.143 264.151C445.982 264.247 445.232 263.273 444.469 261.956C443.706 260.639 443.224 259.486 443.384 259.39C443.545 259.294 444.308 260.268 445.072 261.586C445.835 262.903 446.29 264.055 446.143 264.151Z" fill="white"/>
<path d="M447.067 284.594C446.893 284.676 446.558 284.251 446.143 283.798C445.728 283.345 445.353 282.934 445.446 282.755C445.54 282.577 446.156 282.755 446.652 283.318C447.147 283.881 447.254 284.539 447.067 284.594Z" fill="white"/>
<path d="M438.738 317.234C438.61 316.245 438.711 315.239 439.032 314.298C439.394 312.72 439.836 311.485 440.023 311.554C440.151 312.544 440.045 313.55 439.715 314.49C439.367 316.04 438.925 317.275 438.738 317.234Z" fill="white"/>
<path d="M452.718 317.741C452.584 317.865 451.553 316.973 450.428 315.725C449.303 314.476 448.513 313.351 448.66 313.228C448.808 313.104 449.825 313.996 450.95 315.244C452.075 316.493 452.838 317.604 452.718 317.741Z" fill="white"/>
<path d="M446.344 325.384C446.344 325.576 445.152 325.384 443.813 324.848C442.474 324.313 441.456 323.819 441.523 323.627C441.59 323.435 442.715 323.627 444.054 324.176C445.393 324.725 446.411 325.164 446.344 325.384Z" fill="white"/>
<path d="M464.609 315.629C464.509 316.648 464.179 317.63 463.645 318.496C462.935 319.992 462.212 321.13 462.038 321.048C462.146 320.028 462.48 319.047 463.015 318.18C463.725 316.685 464.435 315.56 464.609 315.629Z" fill="white"/>
<path d="M480.303 319.264C479.804 320.633 478.858 321.782 477.624 322.516C476.523 323.427 475.143 323.913 473.728 323.888C473.728 323.682 475.428 323.161 477.236 321.871C479.044 320.582 480.129 319.155 480.303 319.264Z" fill="white"/>
<path d="M493.104 323.792C491.647 323.045 490.296 322.099 489.087 320.979C487.729 320.034 486.507 318.898 485.458 317.604C486.915 318.323 488.267 319.247 489.475 320.348C490.845 321.305 492.068 322.466 493.104 323.792Z" fill="white"/>
<path d="M473.018 301.154C472.134 302.369 471.072 303.438 469.871 304.323C468.822 305.391 467.61 306.276 466.282 306.944C467.167 305.728 468.228 304.66 469.429 303.775C470.478 302.707 471.691 301.822 473.018 301.154Z" fill="white"/>
<path d="M453.588 301.84C452.462 301.107 451.47 300.179 450.656 299.096C449.67 298.201 448.85 297.132 448.232 295.94C449.352 296.648 450.344 297.548 451.164 298.602C452.148 299.531 452.968 300.626 453.588 301.84Z" fill="white"/>
<path d="M472.014 292.236C470.968 292.906 469.81 293.371 468.599 293.608C467.445 294.064 466.22 294.301 464.984 294.308C467.176 293.16 469.562 292.453 472.014 292.222V292.236Z" fill="white"/>
<path d="M488.993 304.584C488.14 303.631 487.468 302.524 487.011 301.319C486.357 300.218 485.904 299.004 485.672 297.738C486.525 298.691 487.197 299.798 487.654 301.003C488.308 302.104 488.762 303.317 488.993 304.584Z" fill="white"/>
<path d="M441.161 297.354C441.382 298.555 441.382 299.788 441.161 300.989C441.157 302.212 440.926 303.423 440.478 304.557C440.242 303.357 440.242 302.121 440.478 300.921C440.476 299.697 440.708 298.485 441.161 297.354Z" fill="white"/>
<path d="M443.25 194.893C439.946 195.41 436.574 195.228 433.341 194.358C431.745 193.901 430.266 193.092 429.008 191.988C427.749 190.883 426.742 189.51 426.057 187.964C425.409 186.388 425.297 184.636 425.736 182.987C426.175 181.338 427.142 179.888 428.48 178.868C429.819 177.99 431.574 177.496 432.19 176C432.806 174.505 431.694 172.57 430.917 170.937C429.891 168.76 429.573 166.302 430.009 163.926C430.444 161.549 431.612 159.378 433.34 157.73C435.067 156.083 437.265 155.046 439.61 154.771C441.955 154.496 444.324 154.997 446.37 156.202C446.685 152.436 448.351 148.924 451.046 146.344C453.742 143.764 457.276 142.3 460.964 142.235C464.653 142.17 468.233 143.509 471.014 145.993C473.794 148.476 475.577 151.928 476.017 155.681C476.272 157.862 476.098 160.208 477.182 162.116C478.414 164.283 480.945 165.271 482.659 167.068C485.993 170.567 485.538 176.302 483.998 180.939C482.458 185.577 480.061 190.104 480.209 195.002" fill="#263238"/>
<path d="M455.985 222.127C455.663 217.284 455.302 212.866 455.302 212.866C455.302 212.866 445.473 212.056 444.589 202.096C443.706 192.135 443.813 169.168 443.813 169.168L461.462 159.769L479.285 174.56L479.606 221.208C479.631 224.292 478.508 227.27 476.465 229.536C474.423 231.801 471.615 233.185 468.612 233.405C465.479 233.623 462.388 232.558 460.02 230.443C457.653 228.329 456.201 225.337 455.985 222.127Z" fill="#E5BAAB"/>
<path d="M446.21 185.851C446.228 186.1 446.317 186.337 446.466 186.535C446.614 186.732 446.816 186.88 447.046 186.961C447.276 187.042 447.524 187.053 447.76 186.991C447.996 186.929 448.209 186.798 448.372 186.614C448.536 186.429 448.644 186.2 448.682 185.954C448.719 185.707 448.686 185.455 448.586 185.228C448.485 185.001 448.322 184.809 448.116 184.676C447.911 184.543 447.671 184.474 447.428 184.479C447.259 184.482 447.092 184.521 446.937 184.593C446.783 184.664 446.644 184.768 446.53 184.896C446.416 185.025 446.329 185.175 446.274 185.34C446.219 185.504 446.197 185.678 446.21 185.851Z" fill="#263238"/>
<path d="M444.978 184.493C445.138 184.657 446.036 183.834 447.375 183.724C448.714 183.615 449.745 184.26 449.879 184.067C450.013 183.875 449.772 183.683 449.316 183.381C448.713 183.008 448.009 182.839 447.307 182.901C446.604 182.963 445.939 183.251 445.406 183.724C445.018 184.095 444.897 184.424 444.978 184.493Z" fill="#263238"/>
<path d="M460.645 185.494C460.647 185.663 460.681 185.829 460.746 185.983C460.812 186.137 460.906 186.277 461.025 186.393C461.143 186.509 461.283 186.6 461.436 186.66C461.59 186.72 461.753 186.748 461.917 186.743C462.247 186.743 462.564 186.609 462.798 186.369C463.031 186.13 463.162 185.805 463.162 185.467C463.162 185.129 463.031 184.804 462.798 184.565C462.564 184.325 462.247 184.191 461.917 184.191C461.749 184.185 461.581 184.215 461.424 184.279C461.267 184.342 461.124 184.438 461.005 184.56C460.886 184.682 460.792 184.828 460.73 184.989C460.668 185.15 460.639 185.322 460.645 185.494Z" fill="#263238"/>
<path d="M459.828 184.122C460.002 184.287 460.899 183.464 462.238 183.354C463.577 183.244 464.595 183.889 464.729 183.697C464.863 183.505 464.622 183.313 464.18 183.011C463.594 182.628 462.906 182.441 462.212 182.476C461.506 182.526 460.837 182.815 460.31 183.299C459.882 183.724 459.748 184.054 459.828 184.122Z" fill="#263238"/>
<path d="M455.275 195.839C454.55 196.003 453.807 196.063 453.066 196.018C452.871 196.051 452.672 196.051 452.477 196.018C452.35 195.984 452.231 195.922 452.129 195.837C452.028 195.752 451.945 195.645 451.888 195.524C451.76 195.042 451.793 194.53 451.981 194.069C452.249 193.164 452.517 192.203 452.798 191.188C453.416 188.695 454.222 186.255 455.208 183.889C454.769 186.425 454.147 188.925 453.347 191.367C453.053 192.368 452.771 193.315 452.49 194.234C452.337 194.577 452.281 194.958 452.329 195.332C452.396 195.579 452.731 195.62 453.066 195.633C453.808 195.612 454.549 195.681 455.275 195.839Z" fill="#263238"/>
<path d="M459.909 196.964C460.002 196.855 456.039 199.42 453.307 199.489C453.812 200.175 454.53 200.665 455.342 200.879C456.154 201.093 457.014 201.019 457.779 200.669C458.524 200.438 459.156 199.929 459.551 199.243C459.945 198.557 460.073 197.743 459.909 196.964Z" fill="white"/>
<path d="M455.302 212.866C459.922 212.557 464.359 210.9 468.09 208.091C468.09 208.091 465.345 215.486 455.583 215.308L455.302 212.866Z" fill="#D78776"/>
<path d="M439.448 172.159C442.501 175.067 447.294 175.479 451.205 173.997C455.092 172.313 458.441 169.547 460.873 166.012C462.571 167.712 464.658 168.951 466.943 169.615C469.228 170.278 471.638 170.346 473.955 169.812C474.652 178.881 476.192 184.424 479.513 193.521C479.513 193.521 478.736 197.486 479.914 196.937C481.052 190.653 482.137 183.958 483.275 177.729C483.677 175.451 484.079 173.009 483.195 170.869C482.311 168.729 480.035 167.178 478.08 165.71C475.656 163.885 473.433 161.773 470.969 160.016C468.56 158.134 465.702 156.95 462.694 156.586C459.618 156.571 456.571 157.192 453.735 158.411C450.364 159.374 447.189 160.949 444.362 163.062C441.684 165.34 439.782 168.962 440.479 172.46" fill="#263238"/>
<path d="M479.338 184.026C480.317 183.557 481.369 183.269 482.445 183.176C482.989 183.14 483.533 183.247 484.025 183.488C484.517 183.728 484.941 184.093 485.257 184.548C485.656 185.274 485.757 186.133 485.538 186.935C485.384 187.583 485.092 188.187 484.681 188.704C484.271 189.221 483.753 189.638 483.166 189.924C482.578 190.211 481.936 190.36 481.286 190.36C480.635 190.36 479.993 190.212 479.405 189.926" fill="#E5BAAB"/>
<path d="M465.479 181.598C465.626 181.598 465.733 182.284 465.198 182.86C464.662 183.436 463.966 183.354 463.979 183.189C463.993 183.025 464.421 182.86 464.783 182.449C465.144 182.037 465.305 181.598 465.479 181.598Z" fill="#263238"/>
<path d="M430.77 340.256L413.925 600.497C412.679 600.73 396.878 603.804 397.293 606.163C397.709 608.523 437.774 607.151 437.774 607.151L461.341 381.004L498.018 336.648L430.77 340.256Z" fill="#E5BAAB"/>
<path d="M437.345 605.175C437.345 605.573 428.132 605.82 416.777 605.724C405.422 605.628 396.195 605.23 396.209 604.832C396.222 604.435 405.422 604.201 416.777 604.297C428.132 604.393 437.345 604.778 437.345 605.175Z" fill="#263238"/>
<path d="M409.64 605.614C409.439 605.614 409.118 604.05 407.979 602.5C406.841 600.95 405.475 600.14 405.569 599.948C406.751 600.313 407.783 601.065 408.509 602.088C409.234 603.112 409.613 604.35 409.586 605.614H409.64Z" fill="#263238"/>
<path d="M438.108 598.384C431.047 598.147 424.124 600.426 418.518 604.832C419.163 603.988 419.941 603.26 420.821 602.678C422.86 601.164 425.12 599.988 427.516 599.194C429.925 598.392 432.443 597.994 434.975 598.014C436.032 597.959 437.091 598.084 438.108 598.384Z" fill="#263238"/>
<path d="M438.242 595.544C434.117 595.78 429.981 595.78 425.856 595.544C421.722 595.552 417.591 595.323 413.483 594.858C417.608 594.617 421.744 594.617 425.869 594.858C430.003 594.854 434.133 595.083 438.242 595.544Z" fill="#263238"/>
<path d="M438.497 591.044C434.348 591.508 430.177 591.737 426.003 591.73C421.833 591.979 417.653 591.979 413.483 591.73C417.632 591.273 421.803 591.044 425.976 591.044C430.147 590.811 434.326 590.811 438.497 591.044Z" fill="#263238"/>
<path d="M396.597 604.915C396.439 605.31 396.437 605.753 396.592 606.15C396.747 606.547 397.047 606.867 397.427 607.041C398.225 607.33 399.094 607.33 399.891 607.041C400.684 606.768 401.507 606.602 402.342 606.547C404.069 606.547 405.649 607.92 407.363 607.686C408.394 607.563 409.305 606.877 410.323 606.712C412.13 606.438 413.831 607.81 415.679 607.796C417.527 607.782 419.201 606.424 421.035 606.534C422.87 606.644 424.129 608.057 425.802 608.084C427.141 608.084 428.32 607.275 429.632 607.22C431.427 607.151 433.114 608.509 434.881 608.166C435.236 608.101 435.571 607.954 435.863 607.738C436.155 607.522 436.396 607.242 436.569 606.918C436.733 606.588 436.796 606.214 436.748 605.846C436.7 605.478 436.544 605.134 436.301 604.86" fill="#263238"/>
<path d="M432.056 591.538C432.056 591.606 431.252 591.25 430.315 590.234C429.76 589.626 429.352 588.893 429.123 588.094C428.993 587.607 428.939 587.103 428.963 586.599C428.966 586.297 429.03 586 429.153 585.726C429.275 585.452 429.452 585.207 429.672 585.007C429.82 584.9 429.992 584.832 430.172 584.811C430.353 584.789 430.535 584.814 430.703 584.884C430.976 585.005 431.215 585.193 431.4 585.432C431.7 585.85 431.935 586.313 432.096 586.804C432.379 587.584 432.48 588.42 432.391 589.247C432.203 590.619 431.614 591.36 431.56 591.305C431.507 591.25 431.855 590.509 431.895 589.219C431.912 588.472 431.78 587.73 431.507 587.038C431.342 586.644 431.125 586.275 430.864 585.94C430.596 585.611 430.288 585.46 430.074 585.652C429.802 585.939 429.648 586.322 429.645 586.722C429.616 587.145 429.647 587.571 429.739 587.984C429.921 588.707 430.244 589.384 430.69 589.974C431.413 590.934 432.136 591.442 432.056 591.538Z" fill="#263238"/>
<path d="M432.029 590.701C431.949 590.701 431.868 589.987 432.417 589.027C432.75 588.467 433.21 587.997 433.756 587.655C434.089 587.467 434.445 587.324 434.814 587.23C435.076 587.163 435.352 587.197 435.591 587.326C435.728 587.416 435.834 587.548 435.894 587.703C435.954 587.858 435.965 588.028 435.926 588.19C435.836 588.919 435.532 589.602 435.053 590.149C434.575 590.695 433.945 591.08 433.247 591.25C432.176 591.483 431.547 591.154 431.574 591.085C431.6 591.016 432.23 591.085 433.114 590.769C433.673 590.565 434.167 590.208 434.542 589.736C434.918 589.265 435.16 588.697 435.243 588.094C435.243 587.916 435.243 587.929 435.243 587.929C435.146 587.904 435.045 587.904 434.948 587.929C434.103 588.107 433.351 588.595 432.832 589.301C432.243 590.083 432.136 590.715 432.029 590.701Z" fill="#263238"/>
<path d="M516.698 591.209L516.35 591.305L505.343 500.245L494.939 341.093L464.609 370.495C463.859 371.936 474.129 498.818 476.312 507.695C478.374 516.037 491.216 588.218 492.769 596.943C490.962 597.876 477.41 604.915 478.414 607C479.419 609.086 517.609 596.573 517.609 596.573L516.698 591.209Z" fill="#E5BAAB"/>
<path d="M517.783 596.82C517.89 597.204 509.093 600.03 498.139 603.131C487.185 606.232 478.227 608.441 478.12 608.057C478.013 607.673 486.824 604.86 497.777 601.745C508.731 598.631 517.689 596.381 517.783 596.82Z" fill="#263238"/>
<path d="M491.269 604.97C491.082 605.052 490.332 603.598 488.832 602.431C487.333 601.265 485.793 600.867 485.833 600.648C487.076 600.659 488.281 601.088 489.263 601.869C490.245 602.649 490.95 603.739 491.269 604.97Z" fill="#263238"/>
<path d="M516.725 589.96C513.364 590.952 510.152 592.411 507.178 594.296C504.334 596.384 501.787 598.869 499.612 601.677C500.003 600.672 500.56 599.744 501.259 598.933C504.405 594.834 508.743 591.869 513.645 590.468C514.639 590.13 515.679 589.959 516.725 589.96Z" fill="#263238"/>
<path d="M516.069 587.216C512.163 588.608 508.184 589.776 504.151 590.715C500.189 591.865 496.165 592.781 492.1 593.459C496.007 592.075 499.986 590.912 504.017 589.974C507.981 588.824 512.004 587.903 516.069 587.216Z" fill="#263238"/>
<path d="M515.105 582.839C511.238 584.458 507.286 585.855 503.268 587.024C499.317 588.416 495.294 589.579 491.216 590.509C495.083 588.909 499.035 587.535 503.053 586.393C507.006 584.99 511.029 583.803 515.105 582.839Z" fill="#263238"/>
<path d="M478.535 607.947C478.481 608.368 478.592 608.795 478.842 609.134C479.093 609.472 479.463 609.697 479.874 609.758C480.725 609.861 481.583 609.652 482.298 609.168C482.987 608.683 483.734 608.291 484.521 608.002C486.194 607.535 488.069 608.386 489.663 607.686C490.627 607.275 491.31 606.314 492.26 605.916C493.921 605.134 495.916 605.916 497.617 605.464C499.317 605.011 500.63 603.117 502.437 602.72C504.245 602.322 505.825 603.323 507.459 602.871C508.718 602.528 509.655 601.389 510.9 600.977C512.601 600.401 514.596 601.224 516.257 600.401C516.591 600.247 516.886 600.016 517.118 599.725C517.35 599.435 517.514 599.093 517.596 598.727C517.664 598.362 517.622 597.984 517.476 597.644C517.33 597.303 517.087 597.016 516.779 596.82" fill="#263238"/>
<path d="M509.079 585.131C508.345 585.071 507.641 584.805 507.044 584.362C506.343 583.938 505.755 583.345 505.33 582.633C505.071 582.212 504.885 581.748 504.781 581.261C504.704 580.971 504.687 580.667 504.73 580.37C504.774 580.072 504.878 579.787 505.035 579.533C505.144 579.385 505.29 579.269 505.457 579.196C505.624 579.124 505.806 579.098 505.986 579.121C506.282 579.162 506.564 579.28 506.803 579.464C507.198 579.759 507.546 580.116 507.834 580.521C508.311 581.197 508.632 581.976 508.771 582.798C508.963 583.541 508.872 584.33 508.517 585.007C508.396 585.007 508.597 584.156 508.289 582.894C508.095 582.178 507.767 581.508 507.325 580.918C507.062 580.585 506.755 580.29 506.415 580.04C506.066 579.793 505.732 579.739 505.584 579.972C505.393 580.323 505.345 580.737 505.45 581.124C505.534 581.542 505.679 581.944 505.879 582.318C506.247 582.962 506.739 583.522 507.325 583.964C508.316 584.719 509.079 585.021 509.079 585.131Z" fill="#263238"/>
<path d="M508.785 584.335C508.785 584.335 508.45 583.69 508.785 582.606C508.953 581.983 509.271 581.412 509.709 580.946C509.978 580.665 510.284 580.425 510.619 580.233C510.851 580.098 511.122 580.054 511.382 580.109C511.535 580.159 511.669 580.255 511.767 580.385C511.866 580.515 511.923 580.672 511.931 580.836C512.043 581.563 511.934 582.308 511.621 582.97C511.307 583.632 510.803 584.18 510.177 584.541C509.213 585.062 508.517 584.925 508.53 584.856C508.544 584.788 509.146 584.678 509.869 584.115C510.356 583.765 510.738 583.283 510.975 582.724C511.211 582.165 511.292 581.549 511.208 580.946C511.208 580.768 511.208 580.781 511.208 580.795C511.106 580.786 511.003 580.81 510.914 580.864C510.159 581.28 509.571 581.955 509.253 582.771C508.838 583.676 508.905 584.321 508.785 584.335Z" fill="#263238"/>
<path d="M497.028 325.823L431.909 326.577L411.26 416.498C411.26 416.498 406.185 438.45 431.587 439.506C456.989 440.563 468.947 429.175 490.145 437.558C503.91 443.046 523.863 432.852 522.885 430.534C511.115 402.778 511.382 362.963 497.028 325.823Z" fill="#263238"/>
<path d="M516.873 436.79C516.873 436.79 516.765 436.406 516.605 435.679C516.444 434.951 516.216 433.854 515.855 432.482C514.758 428.626 513.388 424.856 511.757 421.204C509.196 415.792 506.96 410.225 505.062 404.534C503.096 397.449 501.958 390.149 501.674 382.788C501.232 374.968 501.205 367.518 500.763 360.836C500.464 354.826 499.635 348.857 498.286 343C497.367 339.073 496.047 335.256 494.349 331.612C493.747 330.323 493.238 329.349 492.863 328.704C492.657 328.381 492.487 328.036 492.354 327.675C492.582 327.977 492.792 328.293 492.983 328.621C493.57 329.546 494.107 330.504 494.59 331.489C496.409 335.098 497.815 338.91 498.782 342.849C500.206 348.698 501.103 354.668 501.46 360.685C501.942 367.463 501.982 374.913 502.424 382.637C502.698 389.956 503.804 397.217 505.718 404.274C507.578 409.945 509.746 415.506 512.213 420.93C513.836 424.63 515.157 428.462 516.163 432.386C516.484 433.758 516.712 434.869 516.806 435.624C516.866 436.009 516.888 436.4 516.873 436.79Z" fill="#455A64"/>
<path d="M456.119 362.88C456.119 362.88 456.025 362.99 455.771 363.086C455.398 363.225 454.998 363.267 454.606 363.21C453.882 363.075 453.208 362.738 452.657 362.237C452.107 361.736 451.702 361.09 451.486 360.37C451.011 358.271 450.884 356.105 451.111 353.962C451.178 351.548 451.258 348.927 451.338 346.183C451.526 340.695 451.727 335.674 451.901 332.052C452.008 330.364 452.088 328.937 452.155 327.771C452.167 327.244 452.23 326.72 452.343 326.207C452.437 326.727 452.464 327.257 452.423 327.785C452.423 328.951 452.423 330.378 452.423 332.065C452.423 335.687 452.249 340.681 452.061 346.211C451.968 348.955 451.874 351.575 451.78 353.976C451.532 356.05 451.6 358.152 451.981 360.205C452.151 360.864 452.488 361.465 452.959 361.947C453.429 362.429 454.016 362.775 454.659 362.949C455.146 363.018 455.64 362.994 456.119 362.88Z" fill="#455A64"/>
<path d="M455.985 329.692C455.905 329.692 456.521 329.143 457.498 329.582C457.776 329.707 458.021 329.896 458.216 330.134C458.411 330.372 458.551 330.652 458.623 330.954C458.683 331.358 458.609 331.771 458.412 332.127C458.215 332.483 457.908 332.761 457.538 332.916C457.184 333.109 456.775 333.169 456.381 333.087C455.988 333.004 455.635 332.784 455.383 332.463C455.219 332.183 455.132 331.863 455.132 331.537C455.132 331.211 455.219 330.891 455.383 330.611C455.472 330.423 455.599 330.258 455.756 330.125C455.913 329.993 456.096 329.896 456.293 329.843C456.574 329.774 456.722 329.843 456.722 329.843C456.722 329.843 456.106 329.993 455.838 330.789C455.76 330.989 455.729 331.205 455.748 331.42C455.766 331.634 455.834 331.841 455.945 332.024C456.115 332.205 456.34 332.321 456.582 332.356C456.825 332.391 457.072 332.342 457.284 332.216C457.519 332.127 457.718 331.963 457.854 331.748C457.989 331.532 458.052 331.278 458.034 331.022C457.996 330.801 457.912 330.591 457.787 330.406C457.662 330.221 457.5 330.066 457.311 329.952C456.574 329.582 456.012 329.801 455.985 329.692Z" fill="#455A64"/>
<path d="M498.541 343.631C498.167 343.747 497.779 343.807 497.389 343.81C496.323 343.875 495.254 343.875 494.189 343.81C490.624 343.699 487.158 342.583 484.172 340.585C482.698 339.538 481.459 338.182 480.535 336.607C479.612 335.031 479.026 333.273 478.816 331.448C478.701 330.343 478.792 329.225 479.084 328.155C479.16 327.757 479.315 327.378 479.539 327.044C479.24 328.472 479.159 329.939 479.298 331.393C479.571 333.117 480.181 334.767 481.089 336.245C481.998 337.723 483.188 338.998 484.587 339.995C487.48 341.918 490.802 343.056 494.242 343.302C496.88 343.59 498.541 343.508 498.541 343.631Z" fill="#263238"/>
<path d="M437.292 325.96C437.292 325.96 437.439 326.303 437.573 326.948C437.725 327.855 437.815 328.772 437.841 329.692C437.919 332.819 437.386 335.93 436.274 338.843C435.297 341.841 433.469 344.473 431.025 346.403C430.242 346.945 429.349 347.296 428.414 347.432C428.08 347.516 427.73 347.516 427.396 347.432C428.598 347.238 429.743 346.769 430.744 346.06C432.989 344.081 434.676 341.523 435.631 338.651C436.698 335.811 437.278 332.803 437.345 329.76C437.412 327.428 437.171 325.974 437.292 325.96Z" fill="#263238"/>
<path d="M520.555 425.32C519.547 426.445 518.393 427.423 517.127 428.229C513.673 430.449 509.781 431.855 505.731 432.345C499.738 433.026 493.677 432.73 487.775 431.467C481.079 430.314 473.848 428.421 466.082 428.352C458.315 428.283 451.138 430.712 444.656 432.468C441.576 433.342 438.446 434.015 435.283 434.485C432.493 434.845 429.674 434.9 426.873 434.65C422.791 434.363 418.853 432.987 415.451 430.657C414.926 430.289 414.425 429.886 413.951 429.45C413.595 429.14 413.259 428.805 412.947 428.448C412.679 428.168 412.428 427.87 412.197 427.556C413.269 428.592 414.41 429.55 415.612 430.424C419.014 432.631 422.908 433.915 426.927 434.156C429.691 434.364 432.469 434.277 435.216 433.895C438.378 433.402 441.508 432.715 444.589 431.837C451.097 430.108 458.302 427.611 466.229 427.721C474.156 427.831 481.401 429.724 488.029 430.904C493.869 432.185 499.869 432.528 505.812 431.919C509.813 431.477 513.676 430.163 517.14 428.064C519.403 426.418 520.488 425.197 520.555 425.32Z" fill="#263238"/>
<path d="M495.34 328.045C495.166 328.155 494.791 327.853 494.497 327.387C494.202 326.92 494.095 326.44 494.256 326.33C494.416 326.22 494.791 326.509 495.086 326.989C495.38 327.469 495.501 327.908 495.34 328.045Z" fill="#455A64"/>
<path d="M498.983 335.701C498.809 335.783 498.3 334.96 497.844 333.89C497.389 332.82 497.161 331.887 497.322 331.791C497.483 331.695 498.018 332.518 498.474 333.616C498.929 334.713 499.17 335.632 498.983 335.701Z" fill="#455A64"/>
<path d="M501.42 343.864C501.232 343.864 500.844 343.027 500.549 341.889C500.255 340.75 500.161 339.803 500.348 339.735C500.536 339.666 500.924 340.558 501.219 341.71C501.513 342.863 501.607 343.81 501.42 343.864Z" fill="#455A64"/>
<path d="M502.919 352.247C502.732 352.247 502.437 351.356 502.25 350.189C502.062 349.023 502.089 348.076 502.25 348.035C502.411 347.994 502.732 348.913 502.919 350.08C503.107 351.246 503.107 352.22 502.919 352.247Z" fill="#455A64"/>
<path d="M503.723 360.726C503.535 360.726 503.294 359.807 503.201 358.641C503.107 357.475 503.201 356.5 503.375 356.473C503.549 356.446 503.79 357.392 503.897 358.572C504.004 359.752 503.964 360.712 503.723 360.726Z" fill="#455A64"/>
<path d="M504.245 369.246C504.044 369.246 503.857 368.313 503.79 367.133C503.723 365.954 503.79 364.993 504.031 364.979C504.272 364.966 504.433 365.926 504.486 367.106C504.54 368.286 504.433 369.246 504.245 369.246Z" fill="#455A64"/>
<path d="M504.66 377.766C504.473 377.766 504.259 376.833 504.205 375.654C504.151 374.474 504.205 373.513 504.433 373.513C504.66 373.513 504.834 374.446 504.901 375.626C504.968 376.806 504.848 377.753 504.66 377.766Z" fill="#455A64"/>
<path d="M505.33 386.273C505.129 386.273 504.888 385.354 504.781 384.187C504.674 383.021 504.781 382.033 504.941 382.02C505.102 382.006 505.37 382.953 505.477 384.119C505.584 385.285 505.517 386.245 505.33 386.273Z" fill="#455A64"/>
<path d="M506.535 394.711C506.347 394.711 506.039 393.833 505.852 392.666C505.664 391.5 505.651 390.526 505.852 390.499C506.053 390.471 506.361 391.39 506.548 392.543C506.736 393.695 506.722 394.67 506.535 394.711Z" fill="#455A64"/>
<path d="M508.597 402.97C508.423 403.039 508.008 402.161 507.687 401.022C507.365 399.883 507.258 398.923 507.446 398.882C507.633 398.84 508.035 399.705 508.356 400.83C508.677 401.955 508.785 402.915 508.597 402.97Z" fill="#455A64"/>
<path d="M511.757 410.845C511.597 410.941 511.021 410.159 510.539 409.076C510.057 407.992 509.829 407.045 510.003 406.976C510.177 406.908 510.699 407.704 511.168 408.774C511.637 409.844 511.971 410.749 511.757 410.845Z" fill="#455A64"/>
<path d="M515.775 418.337C515.6 418.433 515.011 417.678 514.435 416.649C513.86 415.62 513.565 414.701 513.739 414.605C513.913 414.509 514.489 415.277 515.078 416.306C515.667 417.335 515.949 418.254 515.775 418.337Z" fill="#455A64"/>
<path d="M519.176 426.116C518.988 426.184 518.506 425.347 518.091 424.264C517.676 423.18 517.475 422.233 517.649 422.151C517.823 422.068 518.305 422.905 518.734 424.003C519.162 425.1 519.363 426.061 519.176 426.116Z" fill="#455A64"/>
<path d="M520.314 432.331C520.113 432.331 519.926 431.892 519.872 431.343C519.819 430.794 519.939 430.314 520.127 430.287C520.314 430.259 520.515 430.698 520.568 431.274C520.622 431.851 520.502 432.331 520.314 432.331Z" fill="#455A64"/>
<path d="M447.656 222.497C447.656 222.497 484.722 344.825 508.557 363.114L506.682 352.371C492.341 326.687 475.147 276.911 455.972 221.866C454.378 220.59 448.366 221.057 447.656 222.497Z" fill="#DBA901"/>
<path d="M495.581 267.787L508.423 297.065C489.823 296.956 469.469 292.565 460.926 290.205C460.27 289.561 459.587 288.833 458.77 287.997C457.867 287.012 457.129 285.881 456.588 284.649C455.857 283.147 455.33 281.55 455.021 279.902C454.887 278.379 453.039 277.775 452.343 278.955C451.646 280.135 451.941 284.374 454.311 288.696C456.681 293.018 449.705 290.068 447.147 289.108C444.589 288.147 436.515 285.335 435.604 285.897C434.265 286.734 434.908 288.394 437.492 289.341C440.077 290.288 447.643 293.718 447.08 295.09C446.518 296.462 433.555 291.084 433.555 291.084C433.555 291.084 430.877 289.478 430.261 291.084C429.016 293.91 443.197 298.547 444.563 298.945C445.5 299.233 444.951 300.742 443.96 300.386C442.969 300.029 431.118 294.733 429.819 297.642C428.829 299.837 441.456 301.566 443.358 304.063C445.259 306.56 433.877 301.744 433.02 303.884C432.698 304.68 432.565 305.256 439.461 307.122C445.062 308.299 450.721 309.164 456.413 309.715C467.354 312.994 494.269 319.319 513.846 318.729C513.846 318.729 541.605 319.223 536.798 302.018C531.629 283.579 516.846 255.439 516.846 255.439L495.581 267.787Z" fill="#E5BAAB"/>
<path d="M480.959 189.336C480.7 189.301 480.438 189.372 480.229 189.534C480.021 189.696 479.884 189.935 479.847 190.2C479.844 190.331 479.866 190.461 479.912 190.584C479.958 190.706 480.027 190.817 480.115 190.912C480.204 191.006 480.31 191.082 480.427 191.134C480.544 191.186 480.67 191.214 480.798 191.216C480.927 191.203 481.051 191.162 481.164 191.098C481.277 191.033 481.375 190.945 481.453 190.839C481.531 190.733 481.587 190.612 481.617 190.484C481.647 190.355 481.651 190.221 481.628 190.091C481.59 189.966 481.527 189.85 481.442 189.752C481.357 189.654 481.254 189.576 481.138 189.521C481.021 189.467 480.895 189.438 480.768 189.437C480.64 189.436 480.513 189.462 480.396 189.514" fill="#DBA901"/>
<path d="M606.671 520.962C605.064 521.09 603.499 521.55 602.069 522.314C600.64 523.077 599.377 524.13 598.355 525.407C596.331 527.988 594.903 531.004 594.177 534.229C592.624 540.403 593.682 547.661 595.436 553.78C601.931 551.338 605.881 544.176 607.675 540.431C610.487 534.504 612.067 522.019 606.671 520.962Z" fill="#DBA901"/>
<path opacity="0.2" d="M606.671 520.962C605.064 521.09 603.499 521.55 602.069 522.314C600.64 523.077 599.377 524.13 598.355 525.407C596.331 527.988 594.903 531.004 594.177 534.229C592.624 540.403 593.682 547.661 595.436 553.78C601.931 551.338 605.881 544.176 607.675 540.431C610.487 534.504 612.067 522.019 606.671 520.962Z" fill="black"/>
<path d="M586.143 561.326C587.104 559.764 587.646 557.97 587.715 556.125C587.783 554.28 587.375 552.449 586.531 550.817C585.657 549.202 584.479 547.782 583.066 546.637C581.652 545.493 580.031 544.647 578.296 544.149C577.522 543.836 576.692 543.699 575.861 543.749C575.031 543.799 574.221 544.034 573.489 544.437C572.871 544.924 572.393 545.571 572.103 546.312C571.813 547.053 571.723 547.86 571.842 548.649C572.092 550.228 572.749 551.71 573.743 552.943C576.944 557.306 580.827 560.928 586.143 561.326Z" fill="#DBA901"/>
<path d="M586.089 582.51C586.25 582.091 586.358 581.653 586.411 581.207C586.571 580.37 586.772 579.135 586.987 577.612C587.618 573.634 587.721 569.586 587.295 565.58C586.835 561.527 585.312 557.677 582.889 554.439C582.14 553.477 581.276 552.615 580.318 551.873C579.991 551.574 579.615 551.337 579.207 551.174C580.394 552.278 581.495 553.475 582.501 554.754C584.746 558.001 586.156 561.777 586.598 565.73C587.009 569.682 586.973 573.669 586.491 577.612C586.261 579.235 586.127 580.871 586.089 582.51Z" fill="#263238"/>
<path d="M604.662 530.347C604.285 530.98 603.962 531.645 603.698 532.336C603.122 533.626 602.359 535.505 601.341 537.824C599.4 542.489 596.815 548.992 594.137 556.25C591.459 563.508 589.209 570.135 587.643 574.95C586.866 577.365 586.304 579.327 585.848 580.685C585.6 581.375 585.416 582.087 585.299 582.812C585.615 582.151 585.884 581.468 586.103 580.768C586.625 579.313 587.295 577.42 588.111 575.115C589.785 570.34 592.129 563.741 594.807 556.497C597.485 549.253 599.989 542.777 601.81 538.002C602.681 535.739 603.404 533.886 603.966 532.418C604.251 531.748 604.484 531.055 604.662 530.347Z" fill="#263238"/>
<path d="M592.892 567.39C595.037 564.174 597.899 561.528 601.24 559.669C604.582 557.811 608.307 556.794 612.108 556.703C614.036 556.703 616.326 557.155 617.076 558.966C617.826 560.777 616.567 562.822 615.174 564.194C612.22 567.009 608.518 568.864 604.536 569.526C600.554 570.188 596.469 569.626 592.798 567.912" fill="#DBA901"/>
<path d="M608.786 561.56C608.369 561.495 607.945 561.495 607.528 561.56C607.037 561.586 606.549 561.651 606.068 561.752C605.427 561.845 604.792 561.978 604.167 562.15C602.523 562.577 600.925 563.174 599.4 563.933C597.532 564.878 595.768 566.023 594.137 567.349C592.54 568.714 591.086 570.245 589.798 571.918C588.765 573.301 587.867 574.785 587.12 576.35C586.822 576.94 586.563 577.549 586.344 578.174C586.15 578.618 585.994 579.077 585.875 579.546C585.725 579.947 585.63 580.367 585.594 580.795C585.728 580.795 586.223 579.08 587.562 576.514C588.355 575.022 589.274 573.604 590.307 572.275C592.847 569.012 596.045 566.35 599.681 564.468C601.162 563.701 602.709 563.072 604.3 562.589C607.019 561.834 608.8 561.697 608.786 561.56Z" fill="#263238"/>
<path d="M83.2544 277.638C102.001 269.159 110.96 329.596 112.165 334.301C113.37 339.007 116.557 339.57 122.007 332.518C127.457 325.466 132.157 328.196 132.157 328.196C142.415 334.603 128.502 371.894 128.636 374.926C128.769 377.958 126.573 382.321 137.232 376.147C147.891 369.973 156.836 366.681 158.39 376.147C159.809 384.764 148.922 409.638 149.016 413.191C149.11 416.745 160.117 407.813 164.75 404.85C170.749 401.036 177.15 401.296 178.275 408.966C179.735 419.022 160.224 448.438 160.224 448.438L150.851 463.42L133.724 458.687C133.724 458.687 100.247 449.001 95.0115 440.385C90.9943 433.758 95.6676 429.299 102.631 428.201C107.987 427.364 122.007 426.829 119.878 424.085C117.749 421.341 93.6992 409.72 89.2936 402.229C84.473 393.997 93.3109 390.54 105.362 388.125C117.414 385.71 112.955 383.858 111.12 381.471C109.286 379.084 75.0593 360.013 78.7953 348.31C78.7953 348.31 80.6298 343.123 89.2401 344.838C97.8503 346.553 99.9526 344.015 97.8369 339.625C95.7212 335.234 64.2798 283.373 83.857 277.309" fill="#DBA901"/>
<path d="M160.8 491.478C160.438 491.615 144.437 447.697 125.074 393.393C105.711 339.09 90.2577 294.952 90.6327 294.815C91.0076 294.678 106.996 338.596 126.372 392.913C145.749 447.231 161.162 491.341 160.8 491.478Z" fill="white"/>
<path d="M116.316 366.804C115.968 366.667 117.401 361.714 119.945 355.938C122.489 350.162 125.114 345.744 125.449 345.936C125.783 346.128 123.721 350.766 121.217 356.514C118.713 362.263 116.731 366.928 116.316 366.804Z" fill="white"/>
<path d="M93.2707 356.871C93.351 356.5 98.7876 357.598 105.081 360.218C111.375 362.839 116.062 365.885 115.874 366.2C115.687 366.516 110.786 364.101 104.572 361.536C98.3591 358.97 93.1635 357.269 93.2707 356.871Z" fill="white"/>
<path d="M130.349 406.867C130.055 406.606 134.059 401.379 139.294 395.054C144.53 388.729 149.003 383.927 149.297 384.174C149.592 384.421 145.588 389.662 140.352 395.987C135.117 402.311 130.644 407.127 130.349 406.867Z" fill="white"/>
<path d="M99.3232 400.432C99.3232 400.061 106.648 400.679 115.472 402.462C124.297 404.246 131.273 406.469 131.18 406.839C131.086 407.21 123.989 405.618 115.205 403.862C106.42 402.106 99.2294 400.843 99.3232 400.432Z" fill="white"/>
<path d="M108.911 438.82C108.911 438.422 116.597 439.246 125.957 440.659C135.317 442.072 142.856 443.526 142.789 443.91C142.722 444.295 135.117 443.471 125.756 442.072C116.396 440.673 108.857 439.205 108.911 438.82Z" fill="white"/>
<path d="M143.633 443.266C143.379 442.923 148.561 438.656 153.944 432.399C159.327 426.143 162.876 420.394 163.224 420.614C163.572 420.834 160.546 426.994 154.988 433.346C149.431 439.698 143.82 443.568 143.633 443.266Z" fill="white"/>
<path d="M609.818 184.411C609.818 184.411 609.818 184.095 609.898 183.505C609.978 182.915 610.045 182.023 610.166 180.898C610.166 180.322 610.34 179.677 610.353 178.964C610.367 178.25 610.353 177.468 610.353 176.631C610.353 175.794 610.353 174.875 610.353 173.887C610.353 172.899 610.193 171.898 610.099 170.8C609.56 165.493 608.204 160.306 606.082 155.434C603.277 148.993 599.169 143.236 594.03 138.545L591.834 136.596C591.057 135.993 590.24 135.416 589.437 134.826C587.771 133.616 586.031 132.516 584.228 131.534C580.372 129.481 576.264 127.967 572.016 127.033C569.81 126.523 567.573 126.165 565.32 125.963C564.169 125.826 562.99 125.881 561.812 125.84H560.044C559.455 125.84 558.866 125.936 558.263 125.977C553.338 126.251 548.488 127.331 543.895 129.174C533.975 133.08 525.569 140.195 519.952 149.438C513.99 159.406 511.568 171.178 513.096 182.764C513.204 183.532 513.324 184.287 513.458 185.028V185.179L513.378 185.302L497.603 207.748L497.282 207.199L520.555 203.509H520.756L520.876 203.687C527.578 213.969 537.774 221.329 549.479 224.336C551.237 224.811 553.028 225.15 554.835 225.351L557.513 225.694C558.397 225.804 559.281 225.763 560.192 225.804C566.827 225.996 573.431 224.791 579.595 222.264C584.854 220.095 589.717 217.029 593.976 213.195L596.721 210.547L599.078 207.803C599.817 206.934 600.502 206.017 601.127 205.059C601.73 204.14 602.466 203.317 602.908 202.411C604.73 199.426 606.25 196.258 607.447 192.958L608.653 189.336C608.894 188.266 609.108 187.36 609.269 186.592L609.67 184.946C609.764 184.561 609.818 184.383 609.818 184.383C609.798 184.572 609.767 184.76 609.724 184.946C609.643 185.343 609.536 185.906 609.389 186.619C609.242 187.333 609.041 188.28 608.813 189.363L607.648 193.013C606.492 196.364 604.997 199.583 603.189 202.617C602.694 203.536 602.011 204.373 601.408 205.361C600.783 206.319 600.099 207.236 599.359 208.105L597.003 210.849L594.258 213.593C589.979 217.487 585.084 220.605 579.782 222.813C573.575 225.355 566.927 226.569 560.245 226.38C559.361 226.38 558.451 226.38 557.567 226.284L554.889 225.941C553.041 225.743 551.21 225.403 549.412 224.926C545.678 223.977 542.062 222.596 538.633 220.81C531.302 216.876 525.039 211.139 520.408 204.112L520.729 204.25L497.456 207.968L496.653 208.091L497.135 207.405C502.236 200.134 507.512 192.629 512.882 184.959V185.234C512.748 184.479 512.614 183.711 512.507 182.942C510.978 171.184 513.451 159.245 519.511 149.136C525.201 139.746 533.731 132.519 543.801 128.556C548.437 126.692 553.332 125.594 558.303 125.305C558.906 125.305 559.509 125.195 560.111 125.181H561.906C563.097 125.181 564.276 125.181 565.441 125.305C567.739 125.517 570.021 125.888 572.27 126.416C578.564 127.849 584.506 130.585 589.731 134.456C590.548 135.06 591.365 135.65 592.155 136.253L594.351 138.243C603.556 146.622 609.302 158.278 610.42 170.841C610.5 171.939 610.581 172.982 610.648 173.956C610.715 174.93 610.648 175.849 610.648 176.7C610.648 177.551 610.648 178.333 610.648 179.046C610.648 179.759 610.487 180.418 610.434 180.981C610.286 182.106 610.166 182.984 610.085 183.587C610.005 184.191 609.818 184.411 609.818 184.411Z" fill="#263238"/>
<path d="M577.425 156.559L583.291 202.178H539.757L546.091 156.559H577.425Z" fill="#DBA901"/>
<path d="M549.64 163.172C550.21 164.696 550.951 166.146 551.849 167.494C552.861 168.899 554.153 170.068 555.639 170.924C557.491 171.924 559.558 172.433 561.651 172.406C563.739 172.459 565.808 171.988 567.677 171.034C569.18 170.212 570.463 169.025 571.413 167.576C572.263 166.199 572.933 164.714 573.408 163.158C573.459 163.623 573.399 164.094 573.234 164.53C572.933 165.717 572.459 166.85 571.828 167.892C570.883 169.462 569.559 170.756 567.985 171.651C566.029 172.697 563.843 173.212 561.638 173.146C559.434 173.175 557.261 172.617 555.331 171.528C553.776 170.608 552.448 169.336 551.447 167.809C550.776 166.793 550.249 165.684 549.881 164.517C549.706 164.092 549.624 163.633 549.64 163.172Z" fill="white"/>
<path d="M307.87 52.6711V161.704L280.741 133.907H83.2007V52.6711H307.87Z" fill="#DBA901"/>
<path d="M253.37 126.787C269.906 126.787 283.312 113.052 283.312 96.1087C283.312 79.1658 269.906 65.4308 253.37 65.4308C236.834 65.4308 223.428 79.1658 223.428 96.1087C223.428 113.052 236.834 126.787 253.37 126.787Z" fill="#DBA901"/>
<path opacity="0.2" d="M253.37 126.787C269.906 126.787 283.312 113.052 283.312 96.1087C283.312 79.1658 269.906 65.4308 253.37 65.4308C236.834 65.4308 223.428 79.1658 223.428 96.1087C223.428 113.052 236.834 126.787 253.37 126.787Z" fill="black"/>
<path d="M103.97 86.148C103.97 85.901 127.136 85.6952 155.711 85.6952C184.287 85.6952 207.453 85.901 207.453 86.148C207.453 86.3949 184.301 86.6007 155.711 86.6007C127.122 86.6007 103.97 86.4361 103.97 86.148Z" fill="white"/>
<path d="M103.97 97.8236C103.97 97.5767 127.136 97.3708 155.711 97.3708C184.287 97.3708 207.453 97.5767 207.453 97.8236C207.453 98.0706 184.301 98.2627 155.711 98.2627C127.122 98.2627 103.97 98.0706 103.97 97.8236Z" fill="white"/>
<path d="M153.676 109.307C153.676 109.06 165.728 108.854 180.565 108.854C195.402 108.854 207.453 109.06 207.453 109.307C207.453 109.554 195.402 109.746 180.565 109.746C165.728 109.746 153.676 109.554 153.676 109.307Z" fill="white"/>
<path d="M151.614 74.088C151.614 73.8411 164.121 73.6353 179.533 73.6353C194.946 73.6353 207.453 73.8411 207.453 74.088C207.453 74.335 194.96 74.5408 179.533 74.5408C164.107 74.5408 151.614 74.3899 151.614 74.088Z" fill="white"/>
<path d="M255.995 95.5873C257.313 94.9619 258.423 93.9538 259.187 92.688C259.951 91.4222 260.336 89.9543 260.293 88.4666C260.338 87.4926 260.187 86.5195 259.852 85.6071C259.516 84.6948 259.001 83.8626 258.339 83.1616C257.678 82.4606 256.883 81.9057 256.005 81.5311C255.126 81.1564 254.182 80.9699 253.23 80.9831C252.279 80.9962 251.34 81.2087 250.471 81.6074C249.603 82.0062 248.823 82.5828 248.18 83.3017C247.537 84.0207 247.045 84.8668 246.733 85.7881C246.421 86.7093 246.296 87.6862 246.367 88.6587C246.365 90.1608 246.798 91.6298 247.611 92.88C248.423 94.1303 249.579 95.1058 250.933 95.6833C240.22 97.5355 240.943 109.403 240.943 109.403L266.292 109.047C266.292 109.047 266.613 97.0279 255.995 95.5873Z" fill="white"/>
<path d="M263.681 208.242V252.969L252.553 241.568H171.513V208.242H263.681Z" fill="#DBA901"/>
<path d="M211.685 218.93C211.685 218.724 220.67 218.573 231.771 218.573C242.872 218.573 251.857 218.724 251.857 218.93C251.857 219.136 242.872 219.287 231.771 219.287C220.67 219.287 211.685 219.122 211.685 218.93Z" fill="white"/>
<path d="M238.801 228.218C240.658 227.859 242.552 227.739 244.438 227.862C246.329 227.739 248.227 227.859 250.089 228.218C248.226 228.57 246.329 228.69 244.438 228.575C242.552 228.689 240.659 228.57 238.801 228.218Z" fill="white"/>
<path d="M236.136 230.784C235.949 230.784 235.627 230.194 235.252 229.412C234.877 228.63 234.569 228.04 234.73 227.876C234.891 227.711 235.467 228.26 235.868 229.097C236.27 229.934 236.324 230.743 236.136 230.784Z" fill="white"/>
<path d="M215.287 227.889C217.86 227.537 220.459 227.417 223.053 227.533C225.643 227.417 228.238 227.537 230.807 227.889C228.238 228.25 225.643 228.37 223.053 228.246C220.459 228.369 217.86 228.25 215.287 227.889Z" fill="white"/>
<path d="M213.412 230.62C213.238 230.716 212.756 230.112 212.314 229.248C211.872 228.383 211.671 227.656 211.845 227.56C212.019 227.464 212.502 228.081 212.943 228.932C213.385 229.783 213.586 230.496 213.412 230.62Z" fill="white"/>
<path d="M190.849 227.752C193.547 227.391 196.271 227.272 198.99 227.395C201.713 227.272 204.442 227.391 207.145 227.752C204.441 228.105 201.713 228.224 198.99 228.109C196.271 228.224 193.548 228.105 190.849 227.752Z" fill="white"/>
<path d="M188.827 229.124C188.666 229.234 188.171 228.726 187.715 227.999C187.26 227.272 187.032 226.627 187.193 226.504C187.354 226.38 187.849 226.888 188.304 227.615C188.76 228.342 189.041 229.124 188.827 229.124Z" fill="white"/>
<path d="M179.667 227.094C179.667 226.888 180.752 226.737 182.091 226.737C183.43 226.737 184.528 226.888 184.528 227.094C184.528 227.299 183.43 227.45 182.091 227.45C180.752 227.45 179.667 227.286 179.667 227.094Z" fill="white"/>
</svg>
