<svg width="2231" height="1368" viewBox="0 0 2231 1368" fill="none" xmlns="http://www.w3.org/2000/svg">
<g filter="url(#filter0_d)">
<path d="M138 353.346C243.453 479.959 298.193 553.443 291.033 744.193C261.033 930.492 305.376 1032.65 407.822 1214H734.025C722.68 1003.89 759.091 902.364 955.521 767.881C951.092 552.414 1017.45 463.373 1245.48 353.346C1289.07 193.028 1367.63 179.246 1462.95 152H2063V1214H734.025H407.822H138V353.346Z" fill="#FFFBFB"/>
<path d="M138 353.346C243.453 479.959 298.193 553.443 291.033 744.193C261.033 930.492 305.376 1032.65 407.822 1214H734.025C722.68 1003.89 759.091 902.364 955.521 767.881C951.092 552.414 1017.45 463.373 1245.48 353.346C1289.07 193.028 1367.63 179.246 1462.95 152H2063V1214H734.025H407.822H138V353.346Z" stroke="black" stroke-opacity="0.02" stroke-width="5"/>
</g>
<defs>
<filter id="filter0_d" x="0.5" y="0.5" width="2230" height="1367" filterUnits="userSpaceOnUse" color-interpolation-filters="sRGB">
<feFlood flood-opacity="0" result="BackgroundImageFix"/>
<feColorMatrix in="SourceAlpha" type="matrix" values="0 0 0 0 0 0 0 0 0 0 0 0 0 0 0 0 0 0 127 0"/>
<feOffset dx="15" dy="1"/>
<feGaussianBlur stdDeviation="75"/>
<feColorMatrix type="matrix" values="0 0 0 0 0 0 0 0 0 0 0 0 0 0 0 0 0 0 0.25 0"/>
<feBlend mode="normal" in2="BackgroundImageFix" result="effect1_dropShadow"/>
<feBlend mode="normal" in="SourceGraphic" in2="effect1_dropShadow" result="shape"/>
</filter>
</defs>
</svg>
