<svg width="577" height="586" viewBox="0 0 577 586" fill="none" xmlns="http://www.w3.org/2000/svg">
<path d="M519.278 59.2119C519.936 54.4539 513.19 50.5405 508.119 50.136C505.727 49.9457 503.179 50.3026 500.942 49.5175C495.979 47.7927 493.993 41.4171 489.149 39.383C485.561 37.8605 481.363 39.2165 477.846 40.9769C474.33 42.7374 470.825 44.938 466.962 45.1521C463.553 45.3781 459.845 44.1172 456.855 45.7706C454.631 46.9601 453.471 49.5532 451.425 51.0638C449.271 52.3957 446.773 53.0737 444.237 53.0146C441.74 52.9502 439.252 53.3538 436.905 54.2041C434.644 55.239 432.767 57.6179 433.245 60.0564L519.278 59.2119Z" fill="#EAEAEA"/>
<path d="M171.905 64.7549C172.934 57.3087 162.337 51.1947 154.443 50.5524C150.651 50.255 146.728 50.826 143.14 49.5889C135.378 46.8887 132.268 36.9089 124.697 33.733C119.027 31.354 112.509 33.4713 107.019 36.219C101.529 38.9667 96.0988 42.4281 89.951 42.7731C84.6166 43.118 78.8276 41.1435 74.151 43.7366C70.6705 45.6755 68.8525 49.6841 65.647 52.063C62.4416 54.442 58.4706 54.8465 54.5236 55.0606C50.5766 55.2747 46.5937 55.3104 43.0534 56.9281C39.513 58.5458 36.5707 62.2689 37.3123 66.0753L171.905 64.7549Z" fill="#F5F5F5"/>
<path d="M446.629 107.006C447.634 99.7379 437.324 93.7548 429.573 93.1362C425.877 92.8388 422.05 93.3979 418.546 92.1846C410.962 89.5559 407.924 79.8139 400.533 76.7212C394.995 74.3422 388.632 76.4714 383.262 79.1002C377.891 81.729 372.593 85.1666 366.6 85.5473C361.398 85.8803 355.728 83.9652 351.171 86.487C347.774 88.3783 345.992 92.2679 342.799 94.5755C339.605 96.8831 335.742 97.2994 331.939 97.5017C328.135 97.7039 324.2 97.7396 320.731 99.3216C317.263 100.904 314.404 104.543 315.122 108.255L446.629 107.006Z" fill="#F5F5F5"/>
<path d="M432.982 544.014C407.733 532.428 397.423 504.403 393.62 478.235C392.974 473.857 391.67 469.373 393.057 465.15C394.445 460.927 398.822 457.502 403.068 458.632C406.585 459.571 408.678 463.08 411.046 465.852C414.205 469.553 418.351 472.291 423.007 473.75C426.045 474.69 429.645 474.94 432.121 472.953C435.506 470.217 435.015 464.972 434.214 460.654C432.707 452.613 431.204 444.572 429.705 436.531C428.891 432.225 428.09 427.812 428.7 423.447C429.31 419.081 431.607 414.775 435.53 412.884C439.453 410.993 444.99 412.456 446.629 416.524C447.109 418.282 447.472 420.071 447.718 421.876C448.16 423.649 449.356 425.445 451.162 425.671C452.968 425.897 454.499 424.339 455.576 422.84C459.271 417.678 461.293 411.528 463.135 405.426C464.977 399.324 466.723 393.126 469.904 387.643C473.086 382.159 478.05 377.389 484.257 375.926C490.465 374.463 497.725 377.116 500.392 382.897C503.059 388.678 500.607 395.517 497.617 401.132C493.167 409.476 487.527 417.136 480.872 423.875C479.534 424.952 478.578 426.428 478.145 428.086C477.727 431.131 480.98 433.498 484.018 433.938C487.439 434.426 490.895 433.474 494.352 433.26C497.809 433.046 501.744 433.878 503.598 436.828C506.181 440.92 503.299 446.213 500.201 449.913C493.98 457.292 486.527 463.549 478.169 468.409C475.179 470.146 472.01 471.764 469.797 474.452C467.584 477.14 466.771 481.303 468.876 484.063C470.981 486.823 475.155 487.096 478.385 485.883C481.614 484.67 484.293 482.315 487.259 480.566C492.821 477.259 500.607 476.284 505.356 480.733C508.478 483.659 509.542 488.31 508.944 492.556C508.218 496.793 506.635 500.84 504.291 504.451C496.744 517.321 486.123 528.491 473.194 535.735C460.264 542.979 447.622 546.559 432.958 544.061" fill="#EAEAEA"/>
<path d="M436.797 526.504C438.585 511.561 441.228 496.732 444.715 482.089C445.624 478.187 446.517 474.341 447.395 470.55C448.292 466.768 449.165 463.009 450.253 459.393C452.363 452.45 454.855 445.628 457.717 438.958C460.408 432.57 463.183 426.611 465.826 421.056C468.469 415.501 471.065 410.35 473.612 405.806C477.614 398.561 482.189 391.644 487.295 385.121C489.089 382.813 490.549 381.077 491.541 379.899L492.737 378.579C492.857 378.422 492.994 378.279 493.144 378.151C493.042 378.323 492.926 378.486 492.797 378.638L491.721 380.006C490.764 381.196 489.329 382.98 487.594 385.323C482.591 391.896 478.093 398.834 474.139 406.08C471.627 410.659 469.091 415.798 466.46 421.353C463.828 426.908 461.089 432.879 458.422 439.255C455.598 445.907 453.134 452.705 451.043 459.619C449.966 463.188 449.093 466.946 448.208 470.741C447.323 474.535 446.438 478.377 445.541 482.267C442.05 496.881 439.387 511.677 437.563 526.588" fill="#E0E0E0"/>
<path d="M450.48 459.322C450.168 458.759 449.916 458.165 449.727 457.549C449.284 456.36 448.698 454.718 448.005 452.613C446.605 448.426 444.895 442.574 443.017 436.115C441.139 429.656 439.345 423.839 437.898 419.688C437.18 417.606 436.57 415.929 436.152 414.775C435.89 414.187 435.694 413.573 435.565 412.943C435.919 413.481 436.212 414.055 436.439 414.656C436.953 415.774 437.635 417.428 438.436 419.485C440.027 423.613 441.917 429.418 443.794 435.889C445.672 442.359 447.287 448.033 448.579 452.446L450.062 457.454C450.27 458.059 450.41 458.686 450.48 459.322Z" fill="#E0E0E0"/>
<path d="M504.435 438.981C503.73 439.262 503.001 439.481 502.258 439.636C500.847 440.028 498.801 440.563 496.278 441.313C491.266 442.776 484.413 445.036 476.961 447.867C469.51 450.698 462.872 453.553 458.135 455.753C455.743 456.836 453.853 457.763 452.538 458.394C451.873 458.764 451.177 459.075 450.456 459.322C451.066 458.869 451.714 458.471 452.394 458.132C453.674 457.407 455.54 456.395 457.884 455.242C462.573 452.863 469.199 449.96 476.662 447.106C483.035 444.665 489.53 442.553 496.122 440.777C498.658 440.088 500.727 439.588 502.162 439.338C502.906 439.145 503.667 439.026 504.435 438.981Z" fill="#E0E0E0"/>
<path d="M437.3 525.362C437.106 525.183 436.938 524.979 436.797 524.756L435.47 522.912C434.334 521.306 432.755 518.951 430.829 516.013C426.99 510.065 421.942 501.846 416.476 492.627C411.01 483.409 406.083 475.071 402.375 469.123L397.949 462.093C397.471 461.32 397.076 460.69 396.753 460.166C396.593 459.953 396.468 459.716 396.382 459.464C396.576 459.644 396.745 459.848 396.885 460.071L398.2 461.915C399.397 463.509 400.916 465.876 402.841 468.814C406.681 474.69 411.728 482.981 417.194 492.211C422.66 501.442 427.6 509.744 431.319 515.704L435.733 522.734L436.929 524.661C437.086 524.876 437.211 525.112 437.3 525.362Z" fill="#E0E0E0"/>
<path d="M507.198 488.333C506.99 488.508 506.761 488.656 506.516 488.773L504.483 489.868L497.007 493.853C490.692 497.207 482.021 501.953 472.44 507.211C462.86 512.468 454.14 517.131 447.753 520.355C444.56 521.972 441.952 523.257 440.146 524.101L438.053 525.077C437.817 525.206 437.563 525.302 437.3 525.362C437.504 525.184 437.734 525.035 437.981 524.922L440.003 523.828L447.49 519.843C453.805 516.489 462.477 511.743 472.057 506.485C481.638 501.227 490.345 496.565 496.732 493.401C499.938 491.783 502.533 490.498 504.339 489.654L506.432 488.678C506.673 488.534 506.93 488.418 507.198 488.333Z" fill="#E0E0E0"/>
<path d="M544.419 245.463L521.467 226.704L521.335 236.851L457.31 236.054L457.095 252.719L521.132 253.504L521.012 263.281L544.419 245.463Z" fill="#EAEAEA"/>
<path d="M510.296 272.428L495.476 260.331L495.393 266.874L454.057 266.362L453.925 277.115L495.261 277.627L495.177 283.943L510.296 272.428Z" fill="#EAEAEA"/>
<path d="M23.3542 121.339C23.3542 121.339 10.0061 125.467 22.6126 153.967C35.2191 182.467 44.2614 196.789 44.2614 196.789C44.2614 196.789 46.4023 203.355 40.9124 204.045C35.4225 204.734 23.5456 202.153 20.7348 208.624C17.8284 215.25 22.4691 222.053 32.3007 228.334C42.1324 234.614 63.1951 249.091 65.0848 250.411C66.9746 251.731 68.673 254.8 65.0848 255.871C61.4967 256.941 34.3101 258.19 35.6856 270.942C37.0611 283.693 67.3454 296.67 70.6226 298.145C73.8998 299.62 74.6294 301.095 74.2108 302.903C73.7922 304.711 64.6423 304.283 56.9875 304.949C49.3327 305.615 40.4818 307.745 41.8932 315.036C43.3045 322.328 60.7551 338.481 105.009 345.368L125.737 347.283L138.045 330.44C162.169 292.912 161.571 269.205 157.002 263.329C152.433 257.453 145.042 262.603 139.42 267.896C133.799 273.19 128.081 280.279 126.455 279.363C124.828 278.447 124.218 276.984 125.259 273.511C126.299 270.038 136.621 238.92 127.914 229.5C119.207 220.079 100.321 239.396 97.0795 241.395C93.8382 243.393 92.678 240.062 92.9412 237.826C93.2043 235.59 96.2184 210.242 98.0125 198.763C99.8066 187.285 97.7972 179.351 90.8361 177.067C84.1022 174.866 78.1817 185.393 74.0194 189.057C69.8571 192.721 66.2809 186.702 66.2809 186.702C66.2809 186.702 61.4967 170.513 48.3998 142.25C35.3029 113.988 23.0671 121.434 23.0671 121.434" fill="#EAEAEA"/>
<path d="M126.527 352.148C116.958 331.356 100.62 294.113 86.4106 262.211C72.2014 230.309 59.3198 201.463 49.8709 180.623L38.6638 155.953L35.6258 149.245C35.2909 148.483 35.0278 147.912 34.8483 147.484C34.6689 147.056 34.5972 146.878 34.5972 146.878C34.5972 146.878 34.7168 147.08 34.9081 147.46C35.0995 147.841 35.3746 148.448 35.7334 149.185C36.475 150.732 37.5275 152.968 38.891 155.846C41.63 161.627 45.5172 170.037 50.2895 180.433C59.858 201.225 72.7994 230.059 86.9967 261.949C101.194 293.839 117.496 331.118 126.945 351.958" fill="#E0E0E0"/>
<path d="M37.1926 212.871C37.6821 212.986 38.1589 213.149 38.6159 213.358C39.5249 213.703 40.8047 214.239 42.3955 214.928C45.5651 216.296 49.8948 218.295 54.6312 220.579L66.7474 226.526L70.4312 228.298C70.8973 228.485 71.3423 228.721 71.7589 229C71.2649 228.892 70.7838 228.733 70.3236 228.524C69.4265 228.179 68.1348 227.632 66.556 226.942C63.3984 225.479 59.1045 223.433 54.3203 221.197L42.1683 215.369L38.4844 213.62C38.0252 213.423 37.5915 213.171 37.1926 212.871Z" fill="#E0E0E0"/>
<path d="M73.254 227.704C73.0865 227.632 76.8422 218.568 81.6264 207.482C86.4107 196.396 90.4294 187.416 90.5969 187.487C90.7643 187.558 87.0087 196.622 82.2245 207.708C77.4402 218.794 73.4573 227.775 73.254 227.704Z" fill="#E0E0E0"/>
<path d="M92.8455 277.662C93.0996 277.231 93.4048 276.832 93.7545 276.473L96.4097 273.261C98.6464 270.561 101.72 266.802 104.95 262.556C108.179 258.309 111.002 254.336 113.011 251.458L115.403 248.044C115.672 247.616 115.985 247.218 116.336 246.854C116.139 247.33 115.895 247.784 115.607 248.21C115.104 249.055 114.41 250.256 113.394 251.779C111.492 254.729 108.729 258.737 105.476 263.008C102.223 267.278 99.1009 271.001 96.7685 273.642C95.5725 274.962 94.6396 276.021 93.9578 276.723C93.6164 277.069 93.2441 277.383 92.8455 277.662Z" fill="#E0E0E0"/>
<path d="M57.2626 271.37C57.7357 271.342 58.2105 271.378 58.6739 271.477L62.5013 272C65.7187 272.464 70.1681 273.19 75.072 273.963C79.9758 274.736 84.4132 275.521 87.6187 276.104L91.4102 276.83C91.8809 276.896 92.3424 277.016 92.7857 277.187C92.3215 277.205 91.8568 277.177 91.3982 277.103L87.5828 276.58C84.3534 276.116 79.9041 275.39 75.0002 274.617C70.0963 273.844 65.6589 273.047 62.4535 272.464L58.6739 271.739C58.1905 271.671 57.7168 271.548 57.2626 271.37Z" fill="#E0E0E0"/>
<path d="M68.9242 317.653C69.5295 317.653 70.1338 317.705 70.7303 317.808L75.6341 318.462C79.7725 319.045 85.4777 319.877 91.769 320.841C98.0603 321.804 103.73 322.72 107.88 323.41L112.748 324.267C113.35 324.34 113.944 324.476 114.518 324.671C113.913 324.671 113.309 324.619 112.712 324.516L107.808 323.862C103.67 323.291 97.9646 322.447 91.6733 321.483C85.382 320.52 79.7127 319.604 75.5623 318.914L70.6944 318.057C70.0918 317.984 69.4986 317.848 68.9242 317.653Z" fill="#E0E0E0"/>
<path d="M113.478 324.207C113.806 323.649 114.182 323.12 114.602 322.625L117.819 318.438C120.522 314.87 124.254 310.005 128.213 304.485C132.172 298.966 135.641 293.887 138.116 290.211L141.047 285.822C141.408 285.271 141.807 284.747 142.243 284.252C141.979 284.847 141.667 285.42 141.31 285.965C140.676 287.035 139.743 288.57 138.547 290.449C136.155 294.22 132.758 299.359 128.787 304.89C124.816 310.421 121.025 315.274 118.226 318.747C116.815 320.472 115.666 321.864 114.841 322.804C114.43 323.311 113.974 323.781 113.478 324.207Z" fill="#E0E0E0"/>
<path d="M423.282 494.78C424.48 495.304 425.559 496.063 426.455 497.011C427.351 497.959 428.046 499.078 428.497 500.299C429.387 502.758 429.702 505.386 429.418 507.984C428.999 512.991 426.308 518.13 423.354 522.258C419.012 518.689 417.84 512.349 417.445 509.078C416.823 503.904 418.868 494.185 423.282 494.804" fill="#A9BCF4"/>
<path d="M428.533 530.251C428.191 528.836 428.232 527.357 428.652 525.963C429.072 524.569 429.857 523.311 430.925 522.317C432.013 521.345 433.286 520.598 434.668 520.12C436.05 519.642 437.514 519.443 438.974 519.534C439.645 519.509 440.313 519.629 440.932 519.885C441.552 520.142 442.108 520.529 442.563 521.021C442.903 521.548 443.098 522.156 443.128 522.782C443.157 523.409 443.02 524.032 442.73 524.589C442.119 525.694 441.228 526.62 440.146 527.277C436.558 529.656 432.635 531.345 428.449 530.239" fill="#A9BCF4"/>
<path d="M423.581 545.726C423.593 545.383 423.633 545.041 423.701 544.703C423.808 543.978 423.952 543.038 424.131 541.908C424.504 538.806 425.381 535.786 426.727 532.963C428.13 530.138 430.264 527.737 432.91 526.004C433.718 525.51 434.581 525.111 435.482 524.815C435.729 524.729 435.98 524.658 436.235 524.601C436.403 524.601 436.498 524.541 436.498 524.601C435.296 525.051 434.142 525.621 433.054 526.302C430.503 528.063 428.444 530.442 427.073 533.213C425.746 536.007 424.843 538.981 424.394 542.039C424.179 543.228 424 544.156 423.856 544.81C423.794 545.124 423.702 545.43 423.581 545.726Z" fill="#263238"/>
<path d="M422.385 502.25C422.402 502.4 422.402 502.552 422.385 502.702C422.385 503.035 422.457 503.464 422.504 503.987C422.6 505.105 422.72 506.723 422.851 508.745C423.103 512.742 423.378 518.261 423.545 524.387C423.713 530.513 423.724 536.032 423.689 540.04C423.689 542.039 423.689 543.668 423.605 544.798C423.605 545.322 423.605 545.75 423.605 546.083C423.62 546.233 423.62 546.385 423.605 546.535C423.605 546.535 423.605 546.38 423.605 546.083C423.605 545.786 423.605 545.322 423.605 544.798C423.605 543.609 423.605 542.015 423.605 540.04C423.605 536.032 423.521 530.525 423.354 524.399C423.186 518.273 422.959 512.753 422.768 508.757C422.672 506.794 422.6 505.188 422.54 503.999C422.54 503.464 422.54 503.035 422.54 502.702C422.475 502.557 422.423 502.405 422.385 502.25Z" fill="#263238"/>
<path d="M421.308 533.51C420.703 530.499 419.384 527.674 417.463 525.271C415.541 522.867 413.071 520.953 410.257 519.688C408.822 519.058 406.968 518.677 405.831 519.76C404.695 520.842 405.018 522.71 405.64 524.149C406.973 527.122 409.16 529.638 411.927 531.377C414.694 533.117 417.916 534.004 421.189 533.927" fill="#A9BCF4"/>
<path d="M411.094 524.411C411.407 524.502 411.712 524.621 412.003 524.767C412.355 524.919 412.699 525.089 413.032 525.279C413.483 525.511 413.922 525.765 414.347 526.04C414.814 526.35 415.34 526.683 415.854 527.099C416.369 527.515 416.919 527.967 417.481 528.467C418.652 529.591 419.692 530.844 420.579 532.202C421.449 533.566 422.155 535.028 422.684 536.555C422.914 537.225 423.101 537.908 423.246 538.601C423.388 539.197 423.492 539.801 423.557 540.409C423.622 540.914 423.662 541.423 423.677 541.932C423.709 542.328 423.709 542.726 423.677 543.121C423.684 543.444 423.66 543.767 423.605 544.085C423.521 544.085 423.605 542.693 423.306 540.516C423.21 539.969 423.126 539.327 422.959 538.744C422.791 538.161 422.6 537.436 422.373 536.746C421.833 535.245 421.127 533.809 420.268 532.463C419.392 531.136 418.377 529.904 417.242 528.788C416.744 528.301 416.221 527.84 415.675 527.408C415.173 526.98 414.658 526.647 414.204 526.326C412.35 525.017 411.058 524.518 411.094 524.411Z" fill="#263238"/>
<path d="M64.427 516.191C65.5274 511.933 62.7167 507.662 59.6428 504.57C56.5689 501.477 52.7295 498.717 51.1029 494.638C48.4476 488.024 52.0119 479.471 47.5147 473.952C44.7518 470.752 39.9675 469.67 37.6352 466.232C36.5449 464.316 35.8229 462.214 35.5062 460.035C32.9947 449.046 27.5582 438.932 19.766 430.75C19.2421 440.54 21.378 450.29 25.9497 458.977C27.7797 462.45 30.0283 465.828 30.6383 469.682C31.619 475.974 28.0906 482.445 29.6455 488.619C31.4157 495.684 39.3934 500.407 39.7762 507.651C40.0872 513.788 34.7049 519.189 35.1115 525.326C35.4344 527.934 36.3729 530.428 37.8505 532.606C42.6348 540.504 49.6437 545.94 60.2887 545.762L73.3138 546.214L64.427 516.191Z" fill="#A9BCF4"/>
<g opacity="0.3">
<path opacity="0.3" d="M64.427 516.191C65.5274 511.933 62.7167 507.662 59.6428 504.57C56.5689 501.477 52.7295 498.717 51.1029 494.638C48.4476 488.024 52.0119 479.471 47.5147 473.952C44.7518 470.752 39.9675 469.67 37.6352 466.232C36.5449 464.316 35.8229 462.214 35.5062 460.035C32.9947 449.046 27.5582 438.932 19.766 430.75C19.2421 440.54 21.378 450.29 25.9497 458.977C27.7797 462.45 30.0283 465.828 30.6383 469.682C31.619 475.974 28.0906 482.445 29.6455 488.619C31.4157 495.684 39.3934 500.407 39.7762 507.651C40.0872 513.788 34.7049 519.189 35.1115 525.326C35.4344 527.934 36.3729 530.428 37.8505 532.606C42.6348 540.504 49.6437 545.94 60.2887 545.762L73.3138 546.214L64.427 516.191Z" fill="black"/>
</g>
<path d="M75.9452 546.559C77.1365 546.739 78.3502 546.715 79.5334 546.488C80.9764 546.269 82.3945 545.91 83.7674 545.417C85.661 544.767 87.4318 543.806 89.0062 542.574C89.9553 541.819 90.6961 540.837 91.1591 539.719C91.5493 538.467 91.7548 537.165 91.7691 535.854C91.792 534.453 91.8958 533.055 92.0801 531.667C92.3277 530.188 92.8684 528.772 93.6708 527.503C95.2018 524.815 97.7494 522.269 98.5747 518.63C99.4 514.99 98.8259 511.172 98.2159 507.282C97.6059 503.392 97.0198 499.158 98.5268 495.101C100.034 491.045 102.785 487.394 104.208 482.826C105.631 478.258 104.962 473.25 105.273 468.362C105.362 465.877 105.934 463.433 106.959 461.165C108.024 458.881 109.483 456.717 110.619 454.302C112.939 449.425 113.346 443.894 113.98 438.47C114.283 435.734 114.594 432.958 114.913 430.143C115.105 427.325 115.59 424.535 116.36 421.817C117.239 419.086 118.277 416.409 119.47 413.8C120.09 412.447 120.598 411.047 120.989 409.613C121.204 408.138 121.344 406.653 121.408 405.164C121.549 402.17 121.433 399.169 121.061 396.195C120.702 393.209 120.164 390.248 119.865 387.25C119.865 387.072 119.865 386.893 119.865 386.727L119.793 386.132L119.267 386.394C116.502 387.793 114.099 389.808 112.246 392.282C110.442 394.699 108.992 397.358 107.94 400.18C105.763 405.747 104.986 411.575 103.885 417.142C102.785 422.709 101.409 428.181 98.5388 432.808C97.1035 435.115 95.3812 437.221 93.8622 439.481C92.251 441.672 91.1481 444.19 90.6328 446.856C89.8673 452.339 92.9054 457.157 92.2714 461.998C91.9652 464.386 91.1497 466.681 89.8793 468.73C88.6832 470.8 87.3078 472.715 85.9921 474.678C84.6488 476.553 83.4761 478.543 82.4876 480.625C81.5709 482.678 81.0321 484.878 80.8969 487.12C80.5739 491.485 81.1959 495.625 80.8969 499.538C80.5105 503.29 79.3803 506.929 77.5718 510.244C76.005 513.432 74.2468 516.322 72.7876 519.117C72.058 520.509 71.3762 521.877 70.8141 523.245C70.2689 524.562 69.8679 525.934 69.618 527.337C69.2237 529.785 69.1915 532.278 69.5223 534.735C69.8611 538.158 71.1489 541.419 73.2421 544.156C73.558 544.582 73.9102 544.98 74.2946 545.346C74.5546 545.614 74.8434 545.853 75.1558 546.059C75.6342 546.416 75.8973 546.583 75.8973 546.583C74.9951 545.836 74.177 544.995 73.4574 544.073C71.4236 541.337 70.1826 538.1 69.8692 534.712C69.5706 532.286 69.627 529.83 70.0366 527.42C70.289 526.049 70.6901 524.709 71.2327 523.423C71.7829 522.091 72.4287 520.735 73.2181 519.355C74.7013 516.584 76.4714 513.717 78.0742 510.505C79.8894 507.146 81.0232 503.464 81.4112 499.669C81.7461 495.672 81.148 491.521 81.471 487.251C81.6126 485.082 82.139 482.956 83.0259 480.97C83.992 478.917 85.1492 476.957 86.4825 475.118C87.7982 473.203 89.1976 471.276 90.4175 469.171C91.7393 467.042 92.5876 464.658 92.9054 462.176C93.5273 457.002 90.5132 452.161 91.3026 447.07C91.8045 444.514 92.8708 442.101 94.4244 440.004C95.9075 437.792 97.6537 435.686 99.1129 433.319C102.079 428.561 103.514 422.982 104.591 417.392C105.667 411.801 106.481 406.02 108.622 400.572C109.645 397.825 111.059 395.237 112.82 392.888C114.589 390.511 116.89 388.577 119.542 387.238L118.932 386.905C118.932 387.072 118.932 387.25 118.932 387.429C119.267 390.462 119.805 393.435 120.128 396.385C120.499 399.316 120.615 402.273 120.475 405.223C120.418 406.668 120.286 408.11 120.08 409.541C119.699 410.921 119.211 412.269 118.621 413.574C117.409 416.212 116.359 418.921 115.475 421.686C114.695 424.435 114.202 427.257 114.004 430.108C113.693 432.891 113.394 435.662 113.083 438.434C112.461 443.882 112.054 449.318 109.83 454.04C108.729 456.419 107.27 458.548 106.241 460.915C105.185 463.268 104.592 465.799 104.495 468.374C104.208 473.369 104.866 478.258 103.502 482.647C102.139 487.037 99.3162 490.724 97.881 494.911C96.4457 499.098 96.9839 503.511 97.6059 507.377C98.2278 511.243 98.8617 515.073 98.0245 518.523C97.1873 521.972 94.7951 524.47 93.2402 527.277C92.4251 528.619 91.8807 530.106 91.6375 531.655C91.4667 533.064 91.3749 534.482 91.3624 535.901C91.3615 537.175 91.1721 538.441 90.8003 539.66C90.3593 540.711 89.6651 541.638 88.7789 542.36C87.2515 543.589 85.5298 544.558 83.6837 545.227C82.3298 545.729 80.9326 546.107 79.5094 546.357C78.6324 546.51 77.7445 546.594 76.8542 546.607C76.2561 546.547 75.9452 546.559 75.9452 546.559Z" fill="#263238"/>
<path d="M117.102 393.947C117.05 394.074 117.01 394.205 116.982 394.34C116.898 394.649 116.803 395.029 116.695 395.529C116.432 396.552 116.133 398.086 115.642 400.013C115.152 401.94 113.944 404.105 112.939 406.782C111.935 409.458 110.822 412.515 109.842 415.965C108.861 419.414 107.964 423.256 107.043 427.372C106.256 431.761 104.851 436.017 102.869 440.016C101.804 442.121 100.608 444.251 99.6511 446.582C98.7139 448.972 98.083 451.47 97.7733 454.016C97.128 459.28 96.1977 464.506 94.9865 469.67L87.6307 499.598C85.3103 508.781 83.2172 517.048 81.447 524.018C79.6769 530.988 78.3492 536.531 77.3565 540.492C76.902 542.384 76.5551 543.894 76.292 544.977C76.1844 545.453 76.1006 545.845 76.0289 546.166C76.0154 546.301 76.0154 546.436 76.0289 546.571C76.0893 546.449 76.1374 546.321 76.1724 546.19C76.2681 545.881 76.3757 545.5 76.5073 545.001C76.8063 543.918 77.213 542.431 77.7034 540.552C78.7439 536.603 80.2271 531.036 82.0451 524.137C83.8631 517.238 86.016 508.923 88.3962 499.764C90.7763 490.605 93.1804 480.447 95.8357 469.825C97.0291 464.639 97.9434 459.394 98.5747 454.112C98.8646 451.626 99.4715 449.188 100.381 446.856C101.302 444.584 102.486 442.466 103.55 440.337C105.847 436.115 106.792 431.583 107.713 427.491C108.634 423.399 109.447 419.545 110.392 416.095C111.337 412.646 112.353 409.577 113.358 406.924C114.363 404.272 115.463 402.059 115.942 400.073C116.42 398.086 116.635 396.576 116.851 395.541C116.934 395.053 116.994 394.673 117.054 394.351C117.086 394.219 117.102 394.083 117.102 393.947Z" fill="#263238"/>
<path d="M78.2416 546.595C86.7576 541.575 89.1975 526.302 85.6452 517.119C82.0929 507.936 75.8854 499.526 74.8807 489.761C74.1391 482.219 76.6269 474.499 74.8807 467.16C72.4885 457.228 62.7526 449.532 62.92 439.314C62.9918 433.593 66.269 428.192 66.0059 422.471C65.6829 415.453 60.2648 409.886 56.9038 403.701C51.7727 394.185 51.4378 383.039 49.7274 372.429C48.0171 361.819 43.9026 350.435 34.4417 345.225C33.0424 354.23 30.6622 360.403 31.4037 372.584C31.6788 376.961 36.798 385.359 37.4917 394.97C37.9103 400.715 38.1974 406.46 38.5562 412.206C38.915 417.951 39.2619 423.494 41.2832 428.728C42.8261 432.736 45.302 436.388 46.4502 440.527C48.6151 448.307 45.7685 456.752 47.5147 464.638C48.9978 471.323 53.6505 477.081 54.5954 483.861C55.935 493.377 49.7274 503.273 52.909 512.409C54.4758 516.917 58.2075 520.533 59.272 525.196C60.0853 528.764 59.1883 532.63 59.9418 536.258C61.1379 542.098 72.345 546.642 78.3373 546.273" fill="#A9BCF4"/>
<path d="M36.7023 354.123C36.6863 354.293 36.6863 354.464 36.7023 354.634C36.7023 355.015 36.8219 355.503 36.8937 356.109C37.097 357.418 37.3123 359.321 37.7548 361.795C38.1974 364.269 39.513 367.076 40.5417 370.455C41.5703 373.833 42.7065 377.699 43.6634 382.04C44.6202 386.382 45.4455 391.187 46.3067 396.314C47.1679 401.441 48.0888 407.115 50.6604 412.503C51.8564 415.203 53.196 417.915 54.2486 420.83C55.2296 423.792 55.8323 426.865 56.0427 429.977C56.5178 436.587 57.3522 443.166 58.5424 449.687C61.1379 463.033 63.6257 475.76 65.8862 487.334L72.2613 518.011C74.0912 526.694 75.5744 533.736 76.603 538.673C77.1292 541.052 77.5359 542.943 77.799 544.275C77.9426 544.882 78.0502 545.357 78.1459 545.726C78.2416 546.095 78.2655 546.226 78.2894 546.214C78.2827 546.046 78.2627 545.879 78.2296 545.714C78.1579 545.334 78.0741 544.846 77.9665 544.239C77.7153 542.895 77.3565 541.004 76.902 538.601C75.9212 533.653 74.5099 526.599 72.8234 517.892C71.137 509.185 68.9841 498.741 66.6637 487.191C64.3433 475.641 61.9273 462.902 59.3557 449.58C58.1662 443.079 57.3278 436.519 56.844 429.929C56.6196 426.756 55.9968 423.623 54.9901 420.604C53.9495 417.666 52.598 414.942 51.4019 412.277C48.8423 406.972 47.9333 401.429 47.0243 396.278C46.1153 391.128 45.29 386.299 44.2734 381.945C43.3869 378.027 42.3011 374.156 41.0201 370.347C39.9436 366.957 38.628 364.186 38.1017 361.759C37.5754 359.333 37.3482 357.406 37.097 356.121C36.9894 355.515 36.8937 355.027 36.8219 354.658C36.8049 354.475 36.7647 354.295 36.7023 354.123Z" fill="#263238"/>
<path d="M300.709 546.202H134.253C114.135 546.119 97.1753 529.062 97.1753 509.054L98.9455 92.1251C98.9658 87.357 99.9323 82.6397 101.789 78.2438C103.647 73.8479 106.358 69.8598 109.768 66.5081C113.178 63.1565 117.22 60.5072 121.662 58.7122C126.104 56.9172 130.858 56.0117 135.653 56.0478L302.874 56.821C307.656 56.8412 312.388 57.7982 316.798 59.6374C321.208 61.4765 325.211 64.1617 328.577 67.5395C331.944 70.9174 334.608 74.9218 336.419 79.3239C338.229 83.7261 339.149 88.4397 339.127 93.1956L337.357 510.137C337.336 514.899 336.372 519.611 334.518 524.002C332.665 528.394 329.958 532.378 326.554 535.728C323.15 539.078 319.115 541.728 314.681 543.525C310.246 545.322 305.498 546.232 300.709 546.202Z" fill="#263238"/>
<path d="M302.946 72.665L270.521 72.5103C268.387 72.551 266.356 73.4316 264.874 74.959C263.392 76.4864 262.58 78.536 262.615 80.6584V86.5107C262.65 88.633 261.838 90.6826 260.355 92.21C258.873 93.7375 256.843 94.618 254.709 94.6587L191.509 94.3732C190.452 94.3455 189.41 94.1108 188.444 93.6827C187.478 93.2545 186.607 92.6413 185.879 91.8779C185.152 91.1146 184.582 90.2162 184.204 89.234C183.826 88.2519 183.646 87.2052 183.675 86.1538V80.3015C183.729 78.1771 182.934 76.1179 181.462 74.5767C179.991 73.0354 177.965 72.1382 175.828 72.0821H164.43L136.047 71.9513C132.697 71.9372 129.377 72.5795 126.276 73.8416C123.175 75.1036 120.355 76.9607 117.976 79.3068C115.597 81.6528 113.706 84.4419 112.411 87.5148C111.116 90.5877 110.442 93.8842 110.428 97.2161L108.693 504.177C108.678 507.509 109.322 510.81 110.59 513.894C111.857 516.977 113.724 519.782 116.082 522.148C118.44 524.515 121.244 526.395 124.333 527.684C127.422 528.972 130.736 529.642 134.086 529.656L300.973 530.417C304.324 530.435 307.647 529.795 310.749 528.534C313.852 527.273 316.674 525.416 319.055 523.07C321.436 520.723 323.328 517.933 324.623 514.858C325.918 511.784 326.592 508.486 326.604 505.153L328.338 98.1439C328.367 91.4169 325.708 84.9539 320.947 80.176C316.185 75.3981 309.71 72.6964 302.946 72.665Z" fill="#F5F5F5"/>
<path d="M232.115 453.457C231.924 458.37 231.744 462.973 231.589 466.815H255.51L252.58 452.173L232.115 453.457Z" fill="#F5F5F5"/>
<path d="M134.684 459.583L134.887 466.815H229.197C229.352 462.759 229.532 458.251 229.711 453.612L134.684 459.583Z" fill="#F5F5F5"/>
<path d="M253.836 452.089L256.778 466.815H300.984L300.446 449.163L253.836 452.089Z" fill="#F5F5F5"/>
<path d="M234.507 246.319L242.868 198.133L220.98 196.515V246.319H234.507Z" fill="#F5F5F5"/>
<path d="M132.71 432.832L108.957 442.086L108.885 458.822L133.416 457.288L132.71 432.832Z" fill="#F5F5F5"/>
<path d="M132.603 429.073L131.299 384.193H131.287V368.373L109.256 370.692L108.969 438.256L132.591 429.049L132.603 429.073Z" fill="#F5F5F5"/>
<path d="M131.287 333.033L109.435 330.166L109.279 367.1L131.287 364.781V333.033Z" fill="#F5F5F5"/>
<path d="M294.179 369.039L293.258 381.897L267.447 384.669L269.444 394.839L298.736 392.638L298.305 378.055L300.638 368.385L294.179 369.039Z" fill="#F5F5F5"/>
<path d="M247.652 396.469L268.236 394.934L263.751 372.084L245.786 373.892L247.652 396.469Z" fill="#F5F5F5"/>
<path d="M247.855 398.848L249.422 417.892L252.221 444.025L253.357 449.734L300.374 446.784L298.808 395.03L247.855 398.848Z" fill="#F5F5F5"/>
<path d="M166.93 308.91L168.736 312.003L132.483 333.009V382.968L170.757 380.28L244.494 372.822L241.803 340.146L171.343 330.987L171.81 327.419L241.504 336.471L236.935 281.124L167.946 287.737L167.719 285.358L236.732 278.757L234.34 249.876H167.946L109.734 260.45L109.447 326.574L131.514 329.441L166.93 308.91ZM136.191 378.21C136.191 378.21 136.466 337.066 136.191 335.531L165.781 319.877L169.621 376.105L136.191 378.21Z" fill="#F5F5F5"/>
<path d="M291.751 369.277L264.947 371.965L266.98 382.326L291.009 379.744L291.751 369.277Z" fill="#F5F5F5"/>
<path d="M232.45 444.643C232.366 446.808 232.283 448.961 232.211 451.067L252.161 449.818L251.133 444.691L232.45 444.643Z" fill="#F5F5F5"/>
<path d="M189.475 246.319L192.992 230.475H219.784V196.432L136.023 190.258V222.22L109.866 228.108L109.746 256.81L167.671 246.319H189.475Z" fill="#F5F5F5"/>
<path d="M245.368 151.6L244.65 148.685L276.633 136.101L255.833 94.5636C255.438 94.6272 255.038 94.6591 254.637 94.6587L219.377 94.4922L220.334 152.623L245.368 151.6Z" fill="#F5F5F5"/>
<path d="M293.832 129.332V72.6174L270.521 72.5104C268.387 72.551 266.356 73.4316 264.874 74.9591C263.392 76.4865 262.58 78.5361 262.615 80.6584V86.5107C262.614 87.8175 262.304 89.1057 261.71 90.2711C261.115 91.4366 260.254 92.4466 259.194 93.2195L280.006 134.78L293.832 129.332Z" fill="#F5F5F5"/>
<path d="M173.604 131.759L170.901 72.0584H164.43L139.133 71.9395L128.369 125.336L173.604 131.759ZM167.839 78.101L168.7 126.728L135.079 121.839L142.434 78.101H167.839Z" fill="#F5F5F5"/>
<path d="M174.824 131.985V132.496C174.824 137.147 174.967 145.581 175.039 154.502L219.09 152.718L218.181 94.4922L191.521 94.3732C190.464 94.3455 189.422 94.1109 188.456 93.6827C187.49 93.2545 186.619 92.6413 185.891 91.878C185.164 91.1147 184.594 90.2162 184.216 89.2341C183.838 88.2519 183.658 87.2052 183.687 86.1539V80.3016C183.741 78.1771 182.945 76.118 181.474 74.5767C180.003 73.0355 177.977 72.1382 175.84 72.0822H172.121L174.812 131.985H174.824Z" fill="#F5F5F5"/>
<path d="M124.804 124.848L135.473 71.9871C128.81 72.099 122.456 74.8031 117.774 79.5194C113.092 84.2357 110.455 90.5887 110.428 97.2162L110.308 123.575L110.428 122.802L124.804 124.848Z" fill="#F5F5F5"/>
<path d="M132.435 189.997L110.033 188.343L109.878 224.444L132.435 219.377V189.997Z" fill="#F5F5F5"/>
<path d="M124.565 125.966L110.308 123.932L110.057 182.384L113.131 182.61L124.565 125.966Z" fill="#F5F5F5"/>
<path d="M169.812 428.395L170.195 381.457L132.495 384.11L133.835 430.084L169.812 428.395Z" fill="#F5F5F5"/>
<path d="M176.749 417.558L230.142 442.99C230.788 426.337 231.338 410.873 231.338 409.839H232.534L233.108 408.72C233.861 409.101 233.861 409.101 233.467 420.425C233.239 426.741 232.928 435.151 232.606 443.573H250.953L248.238 418.07L244.65 374.059L174.907 381.053L176.749 417.558Z" fill="#F5F5F5"/>
<path d="M307.587 339.67L306.977 333.485L242.999 340.099L245.69 372.703L300.937 367.16L307.587 339.67Z" fill="#F5F5F5"/>
<path d="M219.784 234.044H195.874L193.147 246.319H219.784V234.044Z" fill="#F5F5F5"/>
<path d="M297.707 238.183L237.844 234.067L235.452 248.127L237.976 278.65L301.104 272.619L297.707 238.183ZM240.045 248.103L243.262 239.23L295.255 242.501L298.317 267.885L241.863 274.546L240.045 248.103Z" fill="#F5F5F5"/>
<path d="M303.915 301.975L301.284 274.986L238.119 281.028L240.5 309.755L303.915 301.975Z" fill="#F5F5F5"/>
<path d="M133.488 459.666L108.98 461.201L108.885 459.619L108.849 466.816H133.691L133.488 459.666Z" fill="#F5F5F5"/>
<path d="M327.896 115.927L328.255 116.831L328.338 98.144C328.367 91.417 325.708 84.954 320.947 80.1761C316.185 75.3982 309.71 72.6965 302.946 72.665H294.992V128.892L327.896 115.927Z" fill="#F5F5F5"/>
<path d="M230.07 444.286L175.589 418.332L173.664 381.124L171.391 381.362L170.996 429.525L133.859 431.273V432.356L134.576 457.18L229.771 451.233C229.891 448.913 229.986 446.594 230.07 444.286ZM136.191 434.342L188.172 430.714L221.985 446.32L136.191 450.936V434.342Z" fill="#F5F5F5"/>
<path d="M312.407 178.375L314.643 165.291C295.1 158.356 293.748 138.087 293.808 131.985L281.046 137.005L300.255 175.342L312.407 178.375Z" fill="#F5F5F5"/>
<path d="M242.7 336.542L269.265 333.794L264.038 310.457L240.787 313.311L242.7 336.542Z" fill="#F5F5F5"/>
<path d="M297.791 198.537L248.178 198.525L244.064 198.216L238.454 230.534L297.348 234.579L295.985 220.531L301.786 199.786L297.791 198.537Z" fill="#F5F5F5"/>
<path d="M296.583 192.649L297.205 177.186L277.709 138.254L247.473 150.149L257.866 192.649H296.583ZM276.525 143.035L294.394 176.841L291.811 187.368L261.239 186.178L253.596 154.205L276.525 143.035Z" fill="#F5F5F5"/>
<path d="M304.298 378.674L305.219 408.958L326.712 407.757L326.784 408.947L305.254 410.148L306.343 446.404L326.676 445.131L326.819 447.498L306.415 448.783L306.965 466.815H326.772L327.202 365.72L306.941 367.754L304.298 378.674Z" fill="#F5F5F5"/>
<path d="M173.64 132.972L128.117 126.466L116.731 182.871L173.843 187.082C174.07 178.375 173.927 151.766 173.64 132.972Z" fill="#F5F5F5"/>
<path d="M248.513 192.59H255.402L245.655 152.777L220.322 153.812L220.932 190.556L248.513 192.59Z" fill="#F5F5F5"/>
<path d="M175.003 187.166L219.724 190.46L219.126 153.86L175.123 155.644C175.123 168.027 175.194 181.23 175.003 187.166Z" fill="#F5F5F5"/>
<path d="M304.262 305.532L265.222 310.314L270.473 333.675L306.63 329.928L304.262 305.532Z" fill="#F5F5F5"/>
<path d="M314.847 164.101L317.347 149.34L328.111 150.172L328.255 118.401L295.016 131.485C294.334 153.777 308.46 161.639 314.847 164.101Z" fill="#F5F5F5"/>
<path d="M302.049 221.066L303.401 234.995L327.752 236.672L327.872 207.982L307.491 201.57L302.049 221.066Z" fill="#F5F5F5"/>
<path d="M313.627 340.146L307.24 366.589L327.202 364.578L327.322 336.863C321.198 335.257 315.852 333.949 312.969 333.39L313.627 340.146Z" fill="#F5F5F5"/>
<path d="M300.159 193.03L327.896 201.749L327.968 186.059L300.721 179.053L300.159 193.03Z" fill="#F5F5F5"/>
<path d="M312.67 329.703C314.907 330.036 319.141 330.892 327.382 333.093L327.645 272.428L307.312 274.379L312.67 329.703Z" fill="#F5F5F5"/>
<path d="M307.013 272.048L327.609 270.073L327.728 240.253L303.747 238.599L307.013 272.048Z" fill="#F5F5F5"/>
<path d="M317.143 164.791C321.042 165.965 324.675 166.885 328.039 167.551V152.504L319.272 151.826L317.143 164.791Z" fill="#F5F5F5"/>
<path d="M314.739 178.97L327.98 182.384L328.039 168.776C324.607 168.098 320.863 167.17 316.94 165.969L314.739 178.97Z" fill="#F5F5F5"/>
<path d="M326.819 447.498L326.676 445.119L306.343 446.392L305.254 410.136L326.784 408.946L326.712 407.757L305.183 408.946L304.298 378.674L306.941 367.754L327.202 365.72V364.531L307.24 366.541L313.627 340.146L312.969 333.39C315.852 333.949 321.198 335.257 327.322 336.863V333.152C319.081 330.999 314.847 330.095 312.61 329.762L307.228 274.474L327.561 272.524V270.145L306.965 272.119L303.7 238.671L327.621 240.324V236.756L303.269 235.078L301.917 221.149L307.36 201.654L327.693 208.065V201.832L299.956 193.125L300.518 179.136L327.764 186.143V182.467L314.524 179.053L316.725 166.052C320.696 167.242 324.391 168.181 327.824 168.859V167.67C324.459 167.004 320.827 166.084 316.928 164.91L319.117 151.945L327.884 152.623V150.244L317.119 149.411L314.847 164.101C308.46 161.722 294.334 153.836 295.016 131.485L328.255 118.401V116.89L327.896 115.986L295.028 128.916V72.6888H293.832V129.404L279.982 134.852L259.17 93.2908C258.182 93.9988 257.038 94.4598 255.833 94.6349L276.633 136.172L244.65 148.638L245.368 151.552L220.25 152.575L219.377 94.4922H218.181L219.138 152.67L175.087 154.455C175.015 145.486 174.919 137.1 174.872 132.449V131.985L172.168 72.1059H170.972L173.676 131.807L128.428 125.348L139.193 71.9513H136.107C135.916 71.9513 135.724 71.9513 135.533 71.9513L124.804 124.848L110.452 122.802L110.332 123.575V123.992L124.589 126.026L113.155 182.669L110.081 182.443V188.391L132.483 190.044V219.425L109.925 224.492V228.155L136.083 222.267V190.27L219.808 196.444V230.475H193.016L189.476 246.319H167.671L109.746 256.798V260.45L167.946 249.887H234.304L236.696 278.768L167.719 285.43L167.946 287.809L236.935 281.207L241.504 336.554L171.81 327.502L171.343 331.07L241.803 340.229L244.494 372.822L170.733 380.232L132.459 382.92V333.009L168.712 311.979L166.906 308.886L131.514 329.441L109.447 326.538V330.107L131.287 333.009V364.757L109.279 367.136V370.704L131.311 368.325V384.157L132.615 429.037L108.992 438.244V442.074L132.746 432.82L133.452 457.276L108.921 458.81V459.607L109.016 461.189L133.524 459.655L133.727 466.792H134.923L134.72 459.559L229.747 453.612C229.568 458.251 229.388 462.759 229.233 466.815H231.625C231.78 462.985 231.96 458.37 232.151 453.457L252.664 452.173L255.594 466.815H256.79L253.848 452.089L300.494 449.163L301.032 466.815H307.013L326.819 447.498ZM232.259 451.066C232.33 448.961 232.414 446.808 232.498 444.643H251.18L252.209 449.77L232.259 451.066ZM253.405 449.734L252.209 444.025L249.422 417.856L247.855 398.824L298.808 395.006L300.375 446.76L253.405 449.734ZM264.995 371.965L291.811 369.277L291.057 379.744L267.028 382.326L264.995 371.965ZM263.799 372.084L268.284 394.934L247.7 396.469L245.834 373.868L263.799 372.084ZM298.784 392.65L269.444 394.863L267.447 384.693L293.258 381.921L294.167 369.063L300.638 368.409L298.317 378.055L298.784 392.65ZM264.098 310.456L269.325 333.794L242.7 336.578L240.787 313.347L264.098 310.456ZM270.533 333.675L265.282 310.314L304.322 305.556L306.714 329.952L270.533 333.675ZM297.408 234.579L238.514 230.534L244.124 198.216L248.238 198.525H297.863L301.786 199.786L295.985 220.531L297.408 234.579ZM293.82 131.902C293.76 138.028 295.112 158.297 314.656 165.208L312.407 178.375L300.255 175.259L281.046 136.921L293.82 131.902ZM277.721 138.23L297.205 177.186L296.583 192.649H257.866L247.473 150.196L277.721 138.23ZM245.691 152.777L255.403 192.649H248.513L220.932 190.615L220.322 153.872L245.691 152.777ZM219.162 153.86L219.76 190.46L175.039 187.166C175.23 181.218 175.195 168.027 175.039 155.644L219.162 153.86ZM128.153 126.501L173.676 133.008C173.903 151.802 174.106 178.435 173.879 187.118L116.767 182.907L128.153 126.501ZM242.904 198.168L234.531 246.355H220.98V196.515L242.904 198.168ZM195.874 234.043H219.796V246.319H193.147L195.874 234.043ZM235.404 248.127L237.796 234.067L297.659 238.183L301.008 272.619L237.88 278.649L235.404 248.127ZM301.284 274.986L303.915 301.975L240.523 309.755L238.131 281.028L301.284 274.986ZM242.999 340.146L306.977 333.533L307.587 339.718L300.937 367.207L245.691 372.703L242.999 340.146ZM248.238 418.058L250.953 443.561H232.534C232.857 435.139 233.168 426.729 233.395 420.413C233.79 409.089 233.79 409.089 233.036 408.709L232.462 409.827H231.266C231.266 410.814 230.752 426.361 230.07 442.978L176.702 417.547L174.812 380.993L244.554 373.999L248.238 418.058ZM170.183 381.505L169.812 428.442L133.835 430.131L132.495 384.157L170.183 381.505ZM133.894 432.427V431.345L171.032 429.596L171.427 381.434L173.699 381.196L175.625 418.403L230.106 444.358C230.022 446.665 229.926 448.985 229.843 451.292L134.648 457.24L133.894 432.427Z" fill="white"/>
<path d="M188.172 430.714L136.191 434.342V450.936L221.996 446.308L188.172 430.714Z" fill="#EBEBEB"/>
<path d="M295.255 242.501L243.263 239.23L240.045 248.103L241.803 274.546L298.258 267.885L295.255 242.501Z" fill="#EBEBEB"/>
<path d="M108.849 451.067L108.729 495.768V504.879C108.894 511.469 111.634 517.737 116.368 522.351C121.102 526.966 127.457 529.565 134.086 529.597L300.973 530.358C304.324 530.375 307.647 529.735 310.749 528.474C313.852 527.214 316.675 525.357 319.055 523.01C321.436 520.664 323.328 517.874 324.623 514.799C325.918 511.725 326.592 508.427 326.604 505.093L326.772 451.067H108.849Z" fill="#EBEBEB"/>
<path d="M168.7 126.727L167.839 78.101H142.446L135.079 121.839L168.7 126.727Z" fill="#EBEBEB"/>
<path d="M291.811 187.308L294.394 176.781L276.525 142.976L253.596 154.193L261.239 186.166L291.811 187.308Z" fill="#EBEBEB"/>
<path d="M136.191 335.484C136.466 337.018 136.191 378.162 136.191 378.162L169.681 376.057L165.841 319.83L136.191 335.484Z" fill="#EBEBEB"/>
<path d="M247.664 368.896L245.894 343.394L303.221 336.066V340.467L296.284 363.912L247.664 368.896Z" fill="#EBEBEB"/>
<path d="M301.104 433.843L300.386 417.19L249.996 419.569C248.675 419.632 247.361 419.354 246.181 418.76L174.716 382.968C173.902 382.559 173.211 381.943 172.713 381.182C172.216 380.422 171.929 379.544 171.881 378.638L162.157 191.02C162.137 190.579 162.21 190.139 162.373 189.729C162.536 189.319 162.785 188.948 163.102 188.641C163.418 188.337 163.794 188.102 164.205 187.951C164.617 187.799 165.056 187.734 165.494 187.76L196.114 190.02V156.715H199.702V190.472C199.704 190.905 199.616 191.334 199.443 191.731C199.27 192.128 199.016 192.485 198.697 192.78C198.377 193.074 198 193.3 197.588 193.443C197.177 193.587 196.74 193.644 196.305 193.613L165.698 191.353L175.41 378.496C175.424 378.773 175.511 379.042 175.662 379.276C175.813 379.509 176.023 379.7 176.271 379.828L247.748 415.715C248.367 416.033 249.061 416.181 249.757 416.143L300.566 413.693C300.984 413.669 301.404 413.73 301.798 413.871C302.193 414.012 302.555 414.23 302.862 414.513C303.171 414.793 303.42 415.13 303.597 415.505C303.773 415.881 303.873 416.288 303.891 416.702L304.62 433.748L301.104 433.843Z" fill="white"/>
<path d="M286.357 136.267C286.357 137.641 285.947 138.984 285.179 140.127C284.412 141.269 283.321 142.159 282.045 142.685C280.768 143.211 279.364 143.348 278.009 143.08C276.654 142.812 275.409 142.151 274.432 141.179C273.456 140.208 272.79 138.97 272.521 137.622C272.251 136.275 272.39 134.878 272.918 133.609C273.447 132.34 274.342 131.255 275.491 130.491C276.64 129.728 277.99 129.321 279.372 129.321C280.289 129.319 281.198 129.498 282.047 129.846C282.895 130.195 283.665 130.706 284.314 131.352C284.963 131.997 285.478 132.763 285.828 133.607C286.179 134.451 286.358 135.355 286.357 136.267Z" fill="#00BFFF"/>
<g opacity="0.6">
<path opacity="0.6" d="M282.975 142.181C286.259 140.168 287.281 135.889 285.257 132.622C283.233 129.356 278.93 128.34 275.646 130.352C272.362 132.365 271.34 136.644 273.364 139.911C275.387 143.177 279.69 144.193 282.975 142.181Z" fill="white"/>
</g>
<path d="M283.965 136.029C283.967 136.945 283.696 137.841 283.186 138.603C282.676 139.366 281.951 139.961 281.101 140.313C280.251 140.665 279.315 140.758 278.412 140.581C277.508 140.404 276.678 139.964 276.026 139.317C275.374 138.671 274.93 137.846 274.749 136.948C274.569 136.05 274.66 135.119 275.012 134.273C275.364 133.427 275.96 132.704 276.726 132.195C277.491 131.686 278.391 131.414 279.312 131.414C280.544 131.414 281.725 131.9 282.598 132.765C283.47 133.63 283.961 134.804 283.965 136.029Z" fill="#00BFFF"/>
<path d="M302.611 436.388L301.75 416.904C301.744 416.765 301.71 416.629 301.651 416.502C301.592 416.376 301.508 416.263 301.405 416.169C301.301 416.075 301.18 416.003 301.049 415.955C300.917 415.908 300.777 415.887 300.638 415.893L248.083 418.653L241.755 339.385L233.73 248.079V247.996L242.712 199.227C242.875 198.337 243.345 197.533 244.042 196.952C244.739 196.372 245.619 196.053 246.528 196.051L294.047 195.896C294.91 195.895 295.74 195.567 296.369 194.98C296.997 194.392 297.377 193.589 297.432 192.732L298.245 179.648C298.349 177.975 298.02 176.304 297.289 174.795L278.726 136.279L279.814 135.768L298.377 174.283C299.194 175.979 299.56 177.855 299.442 179.731L298.628 192.816C298.55 193.972 298.033 195.055 297.183 195.848C296.333 196.64 295.212 197.083 294.047 197.086L246.528 197.241C245.897 197.239 245.286 197.459 244.803 197.862C244.319 198.264 243.994 198.824 243.884 199.441L234.926 248.127L242.832 339.242L249.075 417.368L300.506 414.715C300.802 414.695 301.099 414.735 301.379 414.833C301.659 414.931 301.915 415.085 302.133 415.286C302.355 415.483 302.536 415.723 302.663 415.99C302.791 416.258 302.862 416.549 302.874 416.845L303.735 436.34L302.611 436.388Z" fill="#00BFFF"/>
<path d="M305.876 434.806C305.879 435.395 305.705 435.972 305.377 436.463C305.05 436.954 304.583 437.336 304.036 437.563C303.489 437.79 302.887 437.849 302.306 437.735C301.725 437.621 301.191 437.337 300.772 436.921C300.353 436.504 300.068 435.973 299.953 435.395C299.838 434.817 299.898 434.218 300.126 433.674C300.354 433.131 300.739 432.666 301.232 432.34C301.726 432.015 302.306 431.842 302.898 431.844C303.289 431.844 303.677 431.921 304.038 432.07C304.399 432.219 304.728 432.437 305.004 432.712C305.281 432.987 305.5 433.313 305.65 433.673C305.799 434.032 305.876 434.417 305.876 434.806Z" fill="#00BFFF"/>
<path d="M248.322 379.935C248.358 380.484 248.23 381.031 247.954 381.507C247.678 381.984 247.267 382.368 246.771 382.613C246.276 382.857 245.718 382.949 245.17 382.879C244.622 382.808 244.106 382.577 243.69 382.216C243.273 381.855 242.973 381.378 242.828 380.848C242.683 380.317 242.7 379.755 242.875 379.234C243.051 378.712 243.378 378.254 243.815 377.918C244.252 377.581 244.78 377.38 245.332 377.342C245.699 377.316 246.069 377.362 246.418 377.479C246.768 377.595 247.091 377.779 247.369 378.02C247.646 378.261 247.874 378.554 248.037 378.883C248.201 379.212 248.298 379.569 248.322 379.935Z" fill="#00BFFF"/>
<path d="M245.786 382.29C244.448 382.382 243.2 382.998 242.319 384.004C241.437 385.01 240.994 386.323 241.086 387.655L251.18 386.965C251.088 385.633 250.468 384.393 249.457 383.516C248.445 382.64 247.125 382.199 245.786 382.29Z" fill="#00BFFF"/>
<path d="M285.639 350.376H260.809C259.803 350.376 258.839 350.773 258.128 351.48C257.417 352.188 257.017 353.147 257.017 354.147V369.61C257.017 370.105 257.115 370.594 257.306 371.051C257.497 371.508 257.776 371.923 258.128 372.272C258.481 372.621 258.899 372.898 259.359 373.086C259.819 373.274 260.311 373.37 260.809 373.369H261.311V377.068L265.617 373.369H285.639C286.136 373.37 286.629 373.274 287.089 373.086C287.549 372.898 287.967 372.621 288.319 372.272C288.672 371.923 288.951 371.508 289.142 371.051C289.332 370.594 289.431 370.105 289.431 369.61V354.147C289.431 353.147 289.031 352.188 288.32 351.48C287.609 350.773 286.645 350.376 285.639 350.376Z" fill="#00BFFF"/>
<g opacity="0.4">
<path opacity="0.4" d="M285.639 350.376H260.809C259.803 350.376 258.839 350.773 258.128 351.48C257.417 352.188 257.017 353.147 257.017 354.147V369.61C257.017 370.105 257.115 370.594 257.306 371.051C257.497 371.508 257.776 371.923 258.128 372.272C258.481 372.621 258.899 372.898 259.359 373.086C259.819 373.274 260.311 373.37 260.809 373.369H261.311V377.068L265.617 373.369H285.639C286.136 373.37 286.629 373.274 287.089 373.086C287.549 372.898 287.967 372.621 288.319 372.272C288.672 371.923 288.951 371.508 289.142 371.051C289.332 370.594 289.431 370.105 289.431 369.61V354.147C289.431 353.147 289.031 352.188 288.32 351.48C287.609 350.773 286.645 350.376 285.639 350.376Z" fill="white"/>
</g>
<path d="M268.691 362.533V364.555H267.854V362.509L265.461 358.691H266.37L268.26 361.783L270.15 358.691H270.987L268.691 362.533Z" fill="white"/>
<path d="M270.808 362.33C270.798 361.87 270.927 361.417 271.177 361.029C271.428 360.641 271.789 360.337 272.214 360.154C272.639 359.971 273.11 359.918 273.565 360.002C274.021 360.086 274.441 360.303 274.772 360.626C275.103 360.948 275.33 361.361 275.424 361.812C275.518 362.264 275.474 362.732 275.299 363.159C275.124 363.586 274.825 363.951 274.441 364.208C274.056 364.465 273.603 364.602 273.14 364.602C272.834 364.617 272.528 364.569 272.241 364.461C271.955 364.352 271.694 364.186 271.475 363.973C271.256 363.76 271.084 363.504 270.969 363.221C270.854 362.938 270.799 362.635 270.808 362.33ZM274.635 362.33C274.614 362.036 274.506 361.755 274.324 361.522C274.143 361.289 273.897 361.114 273.616 361.02C273.336 360.925 273.033 360.915 272.747 360.99C272.46 361.065 272.203 361.223 272.006 361.443C271.809 361.663 271.682 361.936 271.64 362.228C271.598 362.52 271.644 362.817 271.772 363.083C271.899 363.349 272.103 363.572 272.357 363.724C272.611 363.876 272.904 363.949 273.2 363.936C273.406 363.939 273.611 363.898 273.801 363.817C273.99 363.735 274.16 363.614 274.299 363.462C274.438 363.311 274.543 363.131 274.607 362.936C274.671 362.741 274.693 362.534 274.671 362.33H274.635Z" fill="white"/>
<path d="M280.771 360.118V364.555H280.006V363.936C279.83 364.169 279.6 364.356 279.335 364.481C279.07 364.605 278.779 364.663 278.487 364.65C278.227 364.676 277.964 364.645 277.718 364.557C277.472 364.469 277.249 364.328 277.065 364.143C276.881 363.958 276.742 363.734 276.657 363.488C276.571 363.243 276.543 362.981 276.573 362.723V360.165H277.374V362.628C277.374 363.496 277.817 363.936 278.57 363.936C278.764 363.948 278.958 363.918 279.138 363.846C279.319 363.775 279.481 363.665 279.614 363.524C279.747 363.383 279.846 363.215 279.906 363.031C279.965 362.847 279.983 362.653 279.958 362.461V360.165L280.771 360.118Z" fill="white"/>
<path d="M138.416 474.048C138.587 474.048 138.727 473.249 138.727 472.263C138.727 471.278 138.587 470.479 138.416 470.479C138.244 470.479 138.105 471.278 138.105 472.263C138.105 473.249 138.244 474.048 138.416 474.048Z" fill="#263238"/>
<path d="M138.416 481.185C138.587 481.185 138.727 480.386 138.727 479.4C138.727 478.415 138.587 477.616 138.416 477.616C138.244 477.616 138.105 478.415 138.105 479.4C138.105 480.386 138.244 481.185 138.416 481.185Z" fill="#263238"/>
<path d="M138.416 488.321C138.587 488.321 138.727 487.523 138.727 486.537C138.727 485.552 138.587 484.753 138.416 484.753C138.244 484.753 138.105 485.552 138.105 486.537C138.105 487.523 138.244 488.321 138.416 488.321Z" fill="#263238"/>
<path d="M138.416 495.458C138.587 495.458 138.727 494.66 138.727 493.674C138.727 492.689 138.587 491.89 138.416 491.89C138.244 491.89 138.105 492.689 138.105 493.674C138.105 494.66 138.244 495.458 138.416 495.458Z" fill="#263238"/>
<path d="M138.416 501.596C138.587 501.596 138.727 501.021 138.727 500.311C138.727 499.602 138.587 499.027 138.416 499.027C138.244 499.027 138.105 499.602 138.105 500.311C138.105 501.021 138.244 501.596 138.416 501.596Z" fill="#263238"/>
<path d="M143.499 507.71C143.501 506.932 143.322 506.164 142.977 505.466C142.631 504.768 142.129 504.159 141.508 503.685C140.887 503.212 140.164 502.888 139.397 502.738C138.629 502.587 137.837 502.616 137.082 502.82C136.327 503.024 135.63 503.398 135.045 503.914C134.459 504.43 134.001 505.073 133.707 505.794C133.412 506.515 133.289 507.294 133.346 508.069C133.404 508.845 133.64 509.598 134.038 510.268C134.229 510.601 134.481 510.827 134.72 511.172L137.674 515.061C137.76 515.175 137.871 515.267 137.999 515.33C138.126 515.393 138.267 515.426 138.41 515.426C138.552 515.426 138.693 515.393 138.821 515.33C138.948 515.267 139.059 515.175 139.145 515.061L142.04 511.243C142.321 510.924 142.584 510.591 142.829 510.244C143.273 509.473 143.504 508.599 143.499 507.71ZM138.416 509.911C137.973 509.911 137.541 509.78 137.173 509.536C136.805 509.291 136.519 508.944 136.349 508.538C136.18 508.131 136.136 507.684 136.222 507.252C136.308 506.821 136.521 506.425 136.834 506.114C137.147 505.802 137.545 505.591 137.979 505.505C138.413 505.419 138.863 505.463 139.272 505.631C139.68 505.8 140.03 506.085 140.275 506.451C140.521 506.816 140.652 507.246 140.652 507.686C140.652 508.276 140.417 508.842 139.997 509.259C139.578 509.676 139.009 509.911 138.416 509.911Z" fill="#455A64"/>
<path d="M267.447 509.911C267.447 510.077 241.66 510.22 209.868 510.22C178.077 510.22 152.29 510.077 152.29 509.911C152.29 509.744 178.065 509.602 209.868 509.602C241.672 509.602 267.447 509.744 267.447 509.911Z" fill="#263238"/>
<path d="M221.985 504.891C221.985 505.058 206.364 505.2 187.107 505.2C167.851 505.2 152.218 505.058 152.218 504.891C152.218 504.724 167.827 504.582 187.107 504.582C206.388 504.582 221.985 504.713 221.985 504.891Z" fill="#00BFFF"/>
<path d="M171.104 515.596C168.04 515.903 164.96 516.006 161.882 515.906C158.801 516.006 155.716 515.902 152.649 515.596C155.716 515.283 158.801 515.18 161.882 515.287C164.96 515.18 168.041 515.283 171.104 515.596Z" fill="#263238"/>
<path d="M143.499 468.278C143.501 467.5 143.322 466.733 142.977 466.034C142.631 465.336 142.129 464.727 141.508 464.254C140.887 463.78 140.164 463.456 139.397 463.306C138.629 463.156 137.837 463.184 137.082 463.388C136.327 463.592 135.63 463.966 135.045 464.482C134.459 464.998 134.001 465.642 133.707 466.362C133.412 467.083 133.289 467.862 133.346 468.638C133.404 469.414 133.64 470.166 134.038 470.836C134.229 471.157 134.481 471.395 134.72 471.74L137.674 475.618C137.76 475.731 137.871 475.823 137.999 475.886C138.126 475.949 138.267 475.982 138.41 475.982C138.552 475.982 138.693 475.949 138.821 475.886C138.948 475.823 139.059 475.731 139.145 475.618L142.04 471.799C142.303 471.487 142.551 471.161 142.781 470.824C143.245 470.054 143.493 469.175 143.499 468.278ZM138.416 470.479C137.973 470.479 137.541 470.349 137.173 470.104C136.805 469.86 136.518 469.512 136.349 469.106C136.18 468.699 136.136 468.252 136.222 467.821C136.308 467.389 136.521 466.993 136.834 466.682C137.147 466.371 137.545 466.159 137.979 466.073C138.413 465.987 138.863 466.031 139.272 466.2C139.68 466.368 140.03 466.653 140.275 467.019C140.521 467.385 140.652 467.815 140.652 468.255C140.652 468.845 140.417 469.41 139.997 469.827C139.578 470.245 139.009 470.479 138.416 470.479Z" fill="#00BFFF"/>
<path d="M291.763 470.479C291.763 470.657 260.534 470.788 222.02 470.788C183.507 470.788 152.29 470.657 152.29 470.479C152.29 470.301 183.507 470.17 222.02 470.17C260.534 470.17 291.763 470.312 291.763 470.479Z" fill="#263238"/>
<path d="M250.953 465.459C250.953 465.638 228.85 465.769 201.592 465.769C174.333 465.769 152.218 465.638 152.218 465.459C152.218 465.281 174.321 465.15 201.592 465.15C228.862 465.15 250.953 465.293 250.953 465.459Z" fill="#00BFFF"/>
<path d="M206.759 476.165C206.759 476.331 194.654 476.474 179.716 476.474C164.777 476.474 152.649 476.331 152.649 476.165C152.649 475.998 164.765 475.855 179.716 475.855C194.666 475.855 206.759 475.998 206.759 476.165Z" fill="#263238"/>
<path d="M491.423 184.823L485.969 172.75C478.265 172.125 471.074 168.657 465.81 163.028C460.546 157.399 457.589 150.016 457.521 142.329C457.452 134.642 460.277 127.208 465.439 121.487C470.602 115.766 477.729 112.172 485.421 111.411C493.112 110.65 500.812 112.777 507.007 117.375C513.201 121.973 517.443 128.708 518.898 136.258C520.353 143.808 518.916 151.626 514.87 158.176C510.824 164.725 504.462 169.534 497.032 171.655L491.423 184.823Z" fill="white"/>
<path d="M491.422 184.822C491.828 183.823 493.479 179.85 496.9 171.595L497.043 171.809H495.847L497.043 171.476C502.244 169.974 506.955 167.134 510.702 163.245C511.824 162.083 512.841 160.825 513.74 159.486C514.195 158.796 514.673 158.094 515.128 157.369L516.324 155.061C518.105 151.31 519.096 147.236 519.236 143.089C519.376 138.943 518.663 134.812 517.139 130.95C515.616 127.088 513.315 123.576 510.377 120.631C507.44 117.685 503.928 115.368 500.057 113.821C495.612 112.035 490.802 111.329 486.027 111.764C481.166 112.151 476.467 113.684 472.32 116.236C468.374 118.712 465.031 122.032 462.537 125.954C460.167 129.655 458.648 133.83 458.087 138.182C457.083 146.022 459.142 153.945 463.84 160.319C465.866 162.985 468.286 165.331 471.017 167.277C475.438 170.336 480.59 172.185 485.956 172.642H486.099V172.725C489.412 180.314 490.991 183.906 491.41 184.858C490.967 183.918 489.316 180.362 485.824 172.844L485.944 172.927C480.508 172.523 475.277 170.688 470.789 167.61C467.989 165.662 465.507 163.295 463.434 160.592C458.625 154.13 456.505 146.075 457.513 138.099C458.077 133.661 459.616 129.401 462.022 125.621C464.592 121.514 468.095 118.064 472.25 115.547C476.405 113.031 481.095 111.519 485.944 111.133C490.798 110.724 495.682 111.47 500.189 113.31C504.511 115.058 508.391 117.735 511.551 121.149C514.528 124.398 516.771 128.243 518.13 132.425C520.596 139.968 520.074 148.162 516.67 155.335C516.264 156.12 515.845 156.893 515.474 157.714C515.104 158.534 514.53 159.153 514.063 159.855C513.146 161.212 512.105 162.483 510.953 163.649C507.141 167.57 502.348 170.411 497.067 171.881V171.583H497.33L497.234 171.809C493.586 179.886 491.852 183.835 491.422 184.822Z" fill="#263238"/>
<path d="M501.648 140.906C501.653 139.123 501.244 137.363 500.453 135.763C499.662 134.163 498.511 132.766 497.088 131.681C495.666 130.596 494.011 129.852 492.252 129.507C490.493 129.162 488.678 129.226 486.947 129.693C485.217 130.16 483.619 131.017 482.276 132.199C480.934 133.381 479.884 134.855 479.208 136.507C478.532 138.158 478.249 139.942 478.38 141.72C478.511 143.499 479.053 145.223 479.963 146.759C480.406 147.508 480.968 148.043 481.53 148.828L488.288 157.738C488.484 157.996 488.738 158.206 489.03 158.35C489.321 158.495 489.643 158.57 489.968 158.57C490.294 158.57 490.616 158.495 490.907 158.35C491.199 158.206 491.453 157.996 491.649 157.738L498.299 148.971C498.903 148.262 499.466 147.519 499.985 146.747C501.057 144.984 501.631 142.966 501.648 140.906ZM490.01 145.95C488.994 145.952 488.001 145.654 487.155 145.095C486.309 144.535 485.65 143.738 485.26 142.805C484.87 141.872 484.768 140.845 484.965 139.854C485.163 138.863 485.652 137.953 486.37 137.238C487.088 136.524 488.004 136.038 489 135.841C489.997 135.645 491.029 135.747 491.967 136.135C492.906 136.522 493.707 137.178 494.27 138.019C494.833 138.86 495.132 139.848 495.129 140.859C495.128 141.53 494.993 142.194 494.733 142.813C494.473 143.433 494.093 143.995 493.614 144.468C493.135 144.941 492.567 145.315 491.943 145.569C491.318 145.824 490.649 145.953 489.974 145.95H490.01Z" fill="#00BFFF"/>
<path d="M404.145 128.417C405.221 124.456 408.224 122.469 412.135 121.173C414.102 120.526 416.197 120.362 418.242 120.693C420.287 121.024 422.221 121.842 423.88 123.076C426.081 124.729 427.803 127.156 430.41 128.06C434.704 129.547 439.74 126.347 443.866 128.262C445.103 128.831 446.101 129.81 446.69 131.032C447.279 132.254 447.421 133.642 447.093 134.957C446.765 136.272 445.986 137.432 444.89 138.237C443.795 139.043 442.452 139.444 441.091 139.372C443.89 140.395 444.763 144.368 443.125 146.854C441.486 149.34 438.125 150.268 435.183 149.72C432.273 149.014 429.614 147.529 427.492 145.426C425.279 143.44 423.282 141.192 420.914 139.396C418.612 137.461 415.698 136.395 412.685 136.386C408.642 136.6 405.185 139.633 403.379 143.226C401.573 146.818 401.167 150.946 400.987 154.954C400.808 158.963 400.688 163.043 399.492 166.849C399.349 167.301 399.133 167.801 398.679 167.943C398.033 168.146 397.483 167.456 397.148 166.849C393.468 160.053 391.164 152.605 390.366 144.927C389.912 140.478 390.031 136.267 392.483 132.52C394.935 128.773 401.155 126.026 404.205 128.381" fill="#263238"/>
<path d="M396.394 147.044L394.325 192.066C393.978 199.727 395.031 211.098 407.231 211.098C417.816 210.313 420.938 200.476 421.261 193.327C421.416 189.937 421.548 187.106 421.583 186.761C421.583 186.761 433.161 186.214 434.513 174.866C435.171 169.406 435.589 158.035 435.852 147.758C435.992 142.417 434.101 137.22 430.555 133.207C427.009 129.193 422.071 126.658 416.727 126.109L415.627 125.99C403.726 125.431 396.586 135.185 396.394 147.044Z" fill="#FFBE9D"/>
<path d="M421.572 186.547C416.295 186.086 411.276 184.069 407.159 180.754C407.159 180.754 409.79 189.271 421.261 189.461L421.572 186.547Z" fill="#EB996E"/>
<path d="M432.874 156.156C432.835 156.579 432.629 156.969 432.303 157.243C431.976 157.517 431.554 157.652 431.128 157.619C430.92 157.613 430.716 157.565 430.526 157.48C430.337 157.394 430.167 157.272 430.025 157.12C429.884 156.969 429.774 156.791 429.703 156.596C429.631 156.402 429.599 156.196 429.609 155.989C429.652 155.566 429.857 155.176 430.183 154.901C430.509 154.626 430.929 154.487 431.355 154.514C431.564 154.52 431.77 154.568 431.96 154.654C432.15 154.74 432.321 154.864 432.463 155.016C432.604 155.169 432.714 155.349 432.784 155.545C432.855 155.74 432.886 155.948 432.874 156.156Z" fill="#263238"/>
<path d="M432.767 153.027C432.54 153.218 431.415 152.183 429.657 152.004C427.899 151.826 426.535 152.551 426.368 152.325C426.2 152.099 426.535 151.861 427.133 151.517C427.947 151.073 428.878 150.891 429.801 150.993C430.693 151.094 431.53 151.473 432.193 152.076C432.731 152.539 432.874 152.944 432.767 153.027Z" fill="#263238"/>
<path d="M415.651 154.93C415.612 155.351 415.408 155.74 415.084 156.013C414.76 156.287 414.341 156.423 413.917 156.393C413.708 156.389 413.503 156.343 413.313 156.258C413.123 156.173 412.952 156.051 412.81 155.899C412.668 155.747 412.559 155.568 412.488 155.373C412.417 155.178 412.387 154.971 412.398 154.764C412.434 154.341 412.637 153.949 412.961 153.673C413.286 153.397 413.706 153.259 414.132 153.289C414.341 153.295 414.547 153.342 414.737 153.429C414.927 153.515 415.098 153.638 415.239 153.791C415.381 153.944 415.49 154.124 415.561 154.319C415.632 154.515 415.662 154.723 415.651 154.93Z" fill="#263238"/>
<path d="M415.531 151.528C415.316 151.719 414.18 150.684 412.434 150.505C410.687 150.327 409.3 151.065 409.132 150.827C408.965 150.589 409.3 150.363 409.898 150.018C410.712 149.575 411.643 149.392 412.565 149.494C413.456 149.601 414.292 149.979 414.957 150.577C415.531 151.017 415.651 151.445 415.531 151.528Z" fill="#263238"/>
<path d="M420.507 165.112C421.458 164.914 422.431 164.842 423.402 164.898C423.856 164.898 424.287 164.898 424.394 164.565C424.477 164.108 424.423 163.636 424.239 163.209C423.928 162.091 423.617 160.925 423.282 159.641C421.954 154.633 421.057 150.529 421.261 150.482C421.464 150.434 422.696 154.455 424.012 159.462C424.323 160.652 424.634 161.841 424.909 163.031C425.12 163.603 425.12 164.231 424.909 164.803C424.828 164.953 424.714 165.083 424.575 165.182C424.436 165.281 424.276 165.347 424.107 165.374C423.853 165.409 423.596 165.409 423.342 165.374C422.39 165.398 421.438 165.311 420.507 165.112Z" fill="#263238"/>
<path d="M416.728 144.76C416.512 145.212 414.79 144.76 412.709 144.843C410.628 144.927 408.905 145.248 408.678 144.843C408.582 144.629 408.917 144.213 409.635 143.82C410.586 143.351 411.634 143.106 412.697 143.107C413.762 143.094 414.815 143.33 415.771 143.797C416.476 144.13 416.811 144.546 416.728 144.76Z" fill="#263238"/>
<path d="M432.659 147.924C432.312 148.293 431.152 147.746 429.705 147.579C428.258 147.413 427.002 147.579 426.762 147.115C426.655 146.901 426.894 146.532 427.468 146.211C428.233 145.828 429.098 145.691 429.944 145.819C430.797 145.92 431.597 146.286 432.228 146.866C432.695 147.318 432.815 147.746 432.659 147.924Z" fill="#263238"/>
<path d="M396.394 155.525C396.215 155.418 388.823 152.397 388.249 160.164C387.675 167.932 395.629 166.909 395.653 166.683C395.677 166.457 396.394 155.525 396.394 155.525Z" fill="#FFBE9D"/>
<path d="M393.464 163.566C393.464 163.566 393.321 163.649 393.081 163.733C392.92 163.799 392.747 163.833 392.573 163.833C392.399 163.833 392.226 163.799 392.065 163.733C391.584 163.378 391.208 162.902 390.975 162.354C390.742 161.806 390.659 161.206 390.737 160.616C390.76 159.946 390.941 159.29 391.263 158.701C391.354 158.463 391.501 158.251 391.693 158.083C391.885 157.915 392.115 157.797 392.364 157.738C392.522 157.708 392.685 157.734 392.825 157.813C392.965 157.891 393.073 158.016 393.129 158.166C393.225 158.392 393.129 158.546 393.201 158.558C393.273 158.57 393.38 158.451 393.344 158.118C393.309 157.923 393.212 157.745 393.069 157.607C392.969 157.518 392.851 157.451 392.724 157.408C392.596 157.365 392.462 157.348 392.328 157.357C392.004 157.398 391.697 157.52 391.433 157.712C391.17 157.903 390.959 158.157 390.821 158.451C390.436 159.103 390.219 159.838 390.187 160.592C390.104 161.28 390.223 161.976 390.531 162.597C390.839 163.218 391.322 163.737 391.921 164.089C392.126 164.164 392.345 164.192 392.563 164.172C392.78 164.151 392.99 164.082 393.177 163.97C393.44 163.756 393.488 163.578 393.464 163.566Z" fill="#EB996E"/>
<path d="M438.472 145.64C435.887 146.022 433.247 145.79 430.769 144.963C428.291 144.136 426.045 142.738 424.215 140.882C421.691 138.254 419.921 134.661 416.56 133.234C415.409 132.795 414.182 132.587 412.95 132.624C411.718 132.661 410.506 132.941 409.384 133.448C407.146 134.477 405.143 135.951 403.499 137.778C405.09 143.725 402.925 150.03 400.784 155.846C400.615 156.515 400.228 157.109 399.684 157.535C398.691 158.142 397.375 157.452 396.658 156.524C395.631 154.957 395.086 153.125 395.091 151.255C394.718 147.024 395.197 142.762 396.502 138.718C397.828 134.655 400.323 131.07 403.678 128.405C408 125.204 413.405 123.8 418.749 124.491C424.064 125.215 429.012 127.593 432.886 131.283C434.759 132.89 436.202 134.933 437.084 137.231" fill="#263238"/>
<path d="M421.045 170.049C420.805 170.747 420.467 171.408 420.041 172.011C419.825 172.313 419.547 172.566 419.225 172.753C418.903 172.939 418.545 173.056 418.175 173.094C417.778 173.092 417.387 172.993 417.038 172.804C416.69 172.615 416.394 172.343 416.177 172.011C415.763 171.337 415.571 170.551 415.627 169.763C415.627 169.05 415.986 168.205 416.692 168.122C416.991 168.108 417.288 168.174 417.553 168.312L421.285 169.811" fill="#EB996E"/>
<path d="M419.55 173.082C418.879 173.122 418.205 173.038 417.565 172.832C416.916 172.574 416.381 172.093 416.058 171.476C415.895 171.101 415.811 170.696 415.811 170.287C415.811 169.878 415.895 169.473 416.058 169.097C416.148 168.899 416.26 168.711 416.393 168.538C416.536 168.384 416.512 168.395 416.668 168.419C416.823 168.443 417.062 168.574 417.266 168.645C417.469 168.717 417.684 168.824 417.876 168.895C418.677 169.216 419.395 169.502 420.005 169.728C420.647 170.032 421.333 170.237 422.038 170.334C421.483 169.895 420.861 169.545 420.196 169.299C419.61 169.014 418.904 168.693 418.115 168.336L417.517 168.074C417.296 167.964 417.069 167.869 416.835 167.789C416.656 167.736 416.465 167.736 416.285 167.789C416.118 167.861 415.973 167.976 415.866 168.122C415.695 168.335 415.554 168.572 415.448 168.824C415.246 169.295 415.152 169.806 415.173 170.318C415.193 170.83 415.328 171.331 415.567 171.786C415.765 172.151 416.034 172.474 416.358 172.736C416.683 172.997 417.056 173.192 417.457 173.308C417.985 173.454 418.544 173.454 419.072 173.308C419.395 173.237 419.574 173.118 419.55 173.082Z" fill="#263238"/>
<path d="M489.759 493.329L498.478 518.475C498.478 518.475 527.1 518.118 529.169 522.603L480.741 541.171L465.551 502.536L489.759 493.329Z" fill="#A9BCF5"/>
<path d="M482.69 522.139C482.279 522.459 482.002 522.919 481.911 523.431C481.821 523.943 481.924 524.47 482.2 524.91C482.506 525.33 482.961 525.616 483.473 525.712C483.985 525.807 484.514 525.703 484.951 525.422C485.385 525.081 485.678 524.592 485.772 524.05C485.867 523.508 485.758 522.951 485.465 522.484C485.1 522.078 484.59 521.829 484.044 521.789C483.497 521.749 482.956 521.921 482.535 522.27" fill="#E0E0E0"/>
<g opacity="0.6">
<path opacity="0.6" d="M480.741 541.171L479.365 537.222L526.311 520.949C526.311 520.949 528.835 521.056 529.169 522.662L480.741 541.171Z" fill="white"/>
</g>
<path d="M499.16 517.928C499.244 518.166 498.108 518.725 497.235 519.926C496.361 521.128 496.134 522.305 495.871 522.305C495.608 522.305 495.452 520.806 496.529 519.367C497.605 517.928 499.136 517.69 499.16 517.928Z" fill="#263238"/>
<path d="M505.057 518.071C505.2 518.285 504.327 519.07 503.861 520.378C503.394 521.687 503.622 522.817 503.382 522.9C503.143 522.983 502.473 521.711 503.023 520.093C503.574 518.475 504.961 517.845 505.057 518.071Z" fill="#263238"/>
<path d="M510.284 523.007C510.08 523.15 509.303 522.091 509.41 520.628C509.518 519.165 510.427 518.166 510.606 518.32C510.786 518.475 510.355 519.427 510.284 520.699C510.212 521.972 510.511 522.9 510.284 523.007Z" fill="#263238"/>
<path d="M496.541 512.421C496.541 512.67 495.345 512.766 494.017 513.36C492.689 513.955 491.828 514.787 491.625 514.633C491.422 514.478 492.103 513.253 493.646 512.563C495.189 511.873 496.589 512.183 496.541 512.421Z" fill="#263238"/>
<path d="M312.096 490.022L311.558 490.724L301.068 504.296L288.091 513.146L305.47 546.452H324.607C324.607 546.452 323.231 541.872 314.022 539.505L313.412 521.235L329.941 503.178" fill="#A9BCF5"/>
<g opacity="0.6">
<path opacity="0.6" d="M288.091 513.182L305.47 546.476L324.607 546.5L322.454 543.633L306.893 542.776L290.854 511.302L288.091 513.182Z" fill="white"/>
</g>
<path d="M313.866 531.179C313.723 531.381 312.67 530.751 311.139 530.798C309.608 530.846 308.579 531.441 308.424 531.25C308.269 531.06 309.333 529.978 311.127 529.954C312.921 529.93 314.081 531.036 313.866 531.179Z" fill="#263238"/>
<path d="M313.603 526.647C313.412 526.79 312.55 525.66 311.031 525.362C309.512 525.065 308.28 525.755 308.161 525.564C308.041 525.374 308.316 525.16 308.855 524.863C309.577 524.496 310.403 524.383 311.198 524.543C311.993 524.703 312.71 525.126 313.232 525.743C313.615 526.219 313.687 526.599 313.603 526.647Z" fill="#263238"/>
<path d="M313.723 520.83C313.519 520.937 312.861 519.831 311.534 519.379C310.206 518.927 308.998 519.379 308.902 519.129C308.807 518.88 309.094 518.772 309.632 518.57C310.337 518.325 311.104 518.325 311.809 518.57C312.515 518.819 313.118 519.297 313.519 519.926C313.866 520.426 313.866 520.783 313.723 520.83Z" fill="#263238"/>
<path d="M318.854 516.322C318.626 516.394 318.088 515.311 316.904 514.55C315.72 513.788 314.512 513.67 314.512 513.432C314.512 513.194 315.923 512.884 317.371 513.848C318.818 514.811 319.081 516.286 318.854 516.322Z" fill="#263238"/>
<g opacity="0.6">
<path opacity="0.6" d="M303.365 512.623C303.365 513.07 303.231 513.507 302.982 513.878C302.732 514.25 302.377 514.54 301.962 514.711C301.547 514.882 301.09 514.927 300.649 514.839C300.208 514.752 299.803 514.537 299.485 514.221C299.167 513.905 298.951 513.502 298.863 513.064C298.776 512.625 298.821 512.171 298.993 511.758C299.165 511.345 299.456 510.992 299.83 510.744C300.203 510.495 300.643 510.363 301.092 510.363C301.695 510.363 302.273 510.601 302.699 511.025C303.125 511.449 303.365 512.023 303.365 512.623Z" fill="white"/>
</g>
<path d="M375.822 352.993L434.991 439.231L466.974 514.645L494.065 500.24L466.675 424.719L426.44 345.392L375.822 352.993Z" fill="#263238"/>
<path d="M351.387 345.392L341.519 414.811L301.128 502.405L325.181 516.322L376.552 429.501L405.066 345.392H351.387Z" fill="#263238"/>
<path d="M325.181 516.322C325.236 516.175 325.308 516.035 325.396 515.906C325.552 515.608 325.779 515.204 326.066 514.716C326.676 513.634 327.561 512.087 328.685 510.125C331.006 506.116 334.331 500.371 338.445 493.293L370.835 437.899L376.875 427.598V427.657L394.636 374.475C396.885 367.814 398.703 362.449 399.971 358.714L401.43 354.468L401.825 353.373C401.864 353.246 401.916 353.122 401.98 353.005C401.955 353.137 401.923 353.268 401.884 353.397L401.537 354.503L400.174 358.786L395.031 374.606C390.594 388.047 384.422 406.722 377.461 427.859L371.421 438.16C358.718 459.75 347.212 479.281 338.876 493.472C334.69 500.502 331.305 506.211 328.948 510.196C327.752 512.135 326.855 513.658 326.221 514.728L325.492 515.918C325.398 516.06 325.294 516.195 325.181 516.322Z" fill="#455A64"/>
<path d="M430.195 307.804L428.198 278.007L420.615 207.756L423.306 193.113L393.404 181.218L389.816 188.355C371.875 191.043 364.304 226.288 364.304 226.288L363.682 297.955L343.768 346.534L348.935 351.066C357.104 355.943 433.209 352.874 433.209 352.874L430.195 307.804Z" fill="#A9BCF5"/>
<g opacity="0.3">
<path opacity="0.3" d="M351.387 327.895C356.604 334.46 362.677 340.304 369.447 345.273C373.167 348.045 377.568 350.673 382.149 349.948C386.73 349.222 389.876 345.606 392.782 342.192L409.133 323.018C410.16 322.011 410.892 320.744 411.25 319.354C411.332 318.437 411.162 317.516 410.757 316.688C410.353 315.86 409.729 315.157 408.953 314.655C407.391 313.661 405.601 313.076 403.75 312.955C392.268 311.598 381.025 317.272 369.483 317.368C365.536 317.368 359.101 316.618 355.369 317.915L351.387 327.895Z" fill="black"/>
</g>
<path d="M413.02 281.135C415.981 284.025 417.826 287.858 418.231 291.964C418.635 296.07 417.574 300.187 415.232 303.593L405.006 318.474L390.163 337.767C389.156 339.071 387.882 340.147 386.425 340.923C384.968 341.7 383.362 342.16 381.713 342.272C380.064 342.385 378.41 342.147 376.86 341.576C375.311 341.004 373.901 340.111 372.724 338.957L305.039 287.095C302.965 285.506 301.59 283.18 301.204 280.605C300.819 278.03 301.451 275.406 302.97 273.285L330.479 234.769C331.249 233.688 332.226 232.768 333.353 232.063C334.481 231.357 335.738 230.88 337.051 230.659C338.365 230.438 339.709 230.478 341.008 230.775C342.306 231.071 343.532 231.621 344.617 232.39L413.02 281.135Z" fill="#455A64"/>
<path d="M377.963 341.871C378.004 341.744 378.064 341.623 378.142 341.514L378.741 340.503C379.279 339.623 380.092 338.338 381.133 336.697C383.274 333.426 386.443 328.715 390.366 322.923C394.289 317.13 399.014 310.266 404.133 302.558C405.47 300.622 406.669 298.595 407.721 296.492C408.234 295.431 408.496 294.267 408.487 293.09C408.395 291.899 407.945 290.764 407.195 289.831C405.688 287.904 403.427 286.572 401.334 285.073L394.863 280.505L350.155 248.793L336.699 239.039L333.003 236.434L332.058 235.733C331.855 235.566 331.747 235.483 331.759 235.471C331.876 235.534 331.988 235.606 332.094 235.685L333.075 236.327L336.795 238.897L350.418 248.413L395.234 279.97L401.705 284.549C403.786 286.084 406.071 287.404 407.685 289.474C408.502 290.496 408.989 291.74 409.085 293.042C409.098 294.317 408.82 295.578 408.271 296.73C407.19 298.853 405.963 300.9 404.599 302.856C399.456 310.564 394.684 317.391 390.725 323.16C382.783 334.675 377.963 341.871 377.963 341.871Z" fill="#263238"/>
<path d="M403.655 190.746C403.655 190.746 384.434 180.635 355.405 226.431L360.548 232.378C360.548 232.378 384.793 189.985 400.808 195.111C416.823 200.238 393.309 267.064 393.309 267.064C393.309 267.064 428.545 200.452 403.655 190.746Z" fill="#263238"/>
<path d="M339.438 242.275C335.448 246.278 332.943 251.509 332.333 257.112C331.722 262.715 333.042 268.358 336.077 273.118C336.304 273.463 336.52 273.784 336.747 274.094L362.905 314.465L384.793 301.048L363.562 262.829C363.562 262.829 373.418 252.718 384.135 241.347C398.571 226.014 413.941 207.208 402.925 196.408C402.925 196.408 395.426 190.46 383.884 199.37C375.535 205.733 351.889 229.583 339.438 242.275Z" fill="#A9BCF5"/>
<path d="M477.165 213.572L488.563 210.753C488.563 210.753 491.637 213.501 490.046 216.344C488.455 219.187 485.776 226.359 485.776 226.359L476.961 229.19L474.473 236.327L459.307 229.892L463.374 216.51L471.878 206.043L478.289 205.068L482.607 208.707C482.607 208.707 479.018 211.312 476.626 208.505L473.684 209.635L473.947 211.396C474.004 211.754 474.134 212.097 474.329 212.403C474.524 212.71 474.78 212.973 475.082 213.177C475.383 213.381 475.724 213.521 476.082 213.589C476.44 213.657 476.809 213.652 477.165 213.572Z" fill="#FFBE9D"/>
<path d="M488.491 211.217L495.943 207.649C496.419 207.501 496.925 207.473 497.415 207.566C497.906 207.66 498.365 207.872 498.753 208.184L499.124 208.957L490.202 214.762L488.491 211.217Z" fill="#FFBE9D"/>
<path d="M472.823 222.767C472.992 222.109 473.249 221.477 473.588 220.888C474.312 219.467 474.7 217.901 474.725 216.308C474.699 215.452 474.474 214.613 474.067 213.858C473.864 213.504 473.692 213.134 473.553 212.752C473.44 212.402 473.391 212.036 473.409 211.669C473.371 210.978 473.456 210.285 473.66 209.623C473.802 210.288 473.866 210.966 473.852 211.645C473.9 212.346 474.149 213.019 474.569 213.584C475.054 214.404 475.322 215.333 475.347 216.284C475.325 217.963 474.855 219.605 473.983 221.042C473.704 221.682 473.311 222.266 472.823 222.767Z" fill="#EB996E"/>
<path d="M506.552 195.718C506.66 195.932 508.202 198.216 508.202 198.216L474.21 223.1L472.081 220.4L506.552 195.718Z" fill="#263238"/>
<path d="M485.609 225.86C485.75 225.653 485.847 225.42 485.895 225.174C485.943 224.929 485.941 224.677 485.888 224.432C485.836 224.188 485.734 223.957 485.589 223.752C485.445 223.548 485.26 223.375 485.047 223.243C484.157 222.74 483.138 222.509 482.116 222.577C480.453 222.477 478.783 222.569 477.141 222.85C476.594 222.926 476.075 223.138 475.634 223.469C475.417 223.635 475.255 223.862 475.169 224.121C475.084 224.38 475.079 224.658 475.155 224.92C475.394 225.551 476.148 225.777 476.794 225.907C478.557 226.254 480.356 226.393 482.152 226.324" fill="#FFBE9D"/>
<path d="M482.152 226.324C481.104 226.554 480.022 226.595 478.959 226.443C478.456 226.443 477.918 226.359 477.344 226.264C476.687 226.22 476.047 226.038 475.466 225.729C475.29 225.617 475.14 225.469 475.027 225.294C474.913 225.12 474.839 224.923 474.808 224.718C474.763 224.292 474.888 223.865 475.155 223.528C475.707 222.936 476.463 222.571 477.272 222.505C478.686 222.27 480.123 222.194 481.554 222.279C482.752 222.194 483.95 222.433 485.023 222.969C485.383 223.191 485.672 223.51 485.857 223.889C486.041 224.268 486.113 224.692 486.063 225.11C485.956 225.705 485.621 225.884 485.609 225.86C485.597 225.836 485.8 225.598 485.824 225.087C485.822 224.731 485.726 224.382 485.546 224.075C485.365 223.768 485.106 223.514 484.795 223.338C483.769 222.907 482.651 222.739 481.542 222.85C480.154 222.806 478.764 222.893 477.392 223.112C476.735 223.162 476.117 223.44 475.646 223.897C475.553 223.99 475.483 224.102 475.439 224.225C475.396 224.348 475.38 224.479 475.394 224.609C475.408 224.739 475.45 224.864 475.519 224.975C475.587 225.087 475.679 225.182 475.789 225.253C476.298 225.524 476.854 225.698 477.428 225.765C477.99 225.872 478.516 225.955 478.995 226.014C480.932 226.252 482.152 226.229 482.152 226.324Z" fill="#EB996E"/>
<path d="M488.491 218.937C485.776 218.283 483.839 218.009 481.124 217.343C480.261 217.035 479.322 217.01 478.444 217.272C477.595 217.617 477.069 218.794 477.691 219.46C477.925 219.683 478.207 219.85 478.516 219.948L486.625 223.112" fill="#FFBE9D"/>
<path d="M486.602 223.112C485.517 222.875 484.456 222.54 483.432 222.113L480.119 220.864L478.121 220.091C477.903 220.012 477.707 219.884 477.547 219.717C477.387 219.55 477.268 219.348 477.201 219.127C477.146 218.899 477.139 218.662 477.18 218.43C477.221 218.199 477.309 217.979 477.44 217.783C477.675 217.393 478.038 217.095 478.468 216.939C478.853 216.812 479.259 216.759 479.664 216.784C480.384 216.872 481.096 217.016 481.793 217.212L485.298 218.021C486.392 218.211 487.463 218.518 488.491 218.937C487.384 218.856 486.285 218.693 485.202 218.449C484.197 218.271 482.989 218.069 481.614 217.771C480.947 217.592 480.267 217.464 479.581 217.391C479.258 217.34 478.927 217.381 478.626 217.51C478.326 217.638 478.068 217.848 477.882 218.116C477.719 218.37 477.66 218.676 477.715 218.973C477.762 219.106 477.84 219.227 477.941 219.326C478.043 219.425 478.166 219.499 478.301 219.544L480.25 220.329L483.576 221.697C484.629 222.068 485.642 222.542 486.602 223.112Z" fill="#EB996E"/>
<path d="M490.214 214.726L482.87 213.406C481.986 213.151 481.042 213.184 480.179 213.501C479.365 213.905 478.923 215.107 479.581 215.737C479.829 215.94 480.119 216.086 480.43 216.165L488.731 218.818" fill="#FFBE9D"/>
<path d="M488.73 218.818C487.635 218.658 486.558 218.396 485.513 218.033L482.08 217.01L480.047 216.38C479.824 216.317 479.618 216.206 479.444 216.054C479.27 215.901 479.133 215.712 479.042 215.499C478.969 215.277 478.941 215.042 478.962 214.809C478.983 214.576 479.051 214.35 479.162 214.143C479.362 213.732 479.701 213.404 480.119 213.216C480.494 213.044 480.902 212.958 481.315 212.966C482.041 212.987 482.762 213.083 483.468 213.251L486.984 213.953C488.079 214.12 489.156 214.387 490.202 214.75C489.096 214.732 487.994 214.609 486.912 214.381L483.324 213.81C482.652 213.666 481.967 213.587 481.279 213.572C480.957 213.543 480.632 213.607 480.346 213.757C480.059 213.907 479.823 214.136 479.664 214.417C478.863 215.868 481.064 215.975 482.2 216.463L485.597 217.652C486.675 217.945 487.724 218.335 488.73 218.818Z" fill="#EB996E"/>
<path d="M475.335 235.292L453.207 282.301C452.175 284.499 450.601 286.402 448.631 287.832C446.661 289.263 444.36 290.176 441.941 290.485C438.837 290.879 435.689 290.262 432.967 288.726C430.246 287.191 428.098 284.82 426.846 281.968L410.341 244.38L419.718 203.818L441.845 251.125L459.977 225.574L475.335 235.292Z" fill="#A9BCF5"/>
<path d="M435.386 266.993C436.13 264.15 437.085 261.367 438.245 258.666C439.199 255.906 440.346 253.215 441.677 250.613C440.932 253.455 439.976 256.238 438.819 258.94C437.864 261.7 436.717 264.391 435.386 266.993Z" fill="#263238"/>
<path d="M430.482 307.304C430.416 306.975 430.372 306.641 430.351 306.305C430.291 305.592 430.195 304.616 430.087 303.403C429.86 300.81 429.549 297.17 429.167 292.697C428.377 283.61 427.289 271.156 426.093 257.405C424.897 243.655 423.593 231.153 422.588 222.137C422.074 217.676 421.655 214.048 421.392 211.431C421.249 210.242 421.129 209.243 421.045 208.529C420.989 208.191 420.965 207.848 420.974 207.506C420.974 207.506 421.057 207.851 421.177 208.505C421.296 209.159 421.44 210.182 421.631 211.396C422.002 213.905 422.505 217.545 423.055 222.042C424.167 231.046 425.447 243.512 426.739 257.298C428.03 271.084 428.975 283.574 429.633 292.614C429.932 297.099 430.183 300.75 430.351 303.32C430.422 304.509 430.47 305.52 430.506 306.246C430.535 306.599 430.527 306.953 430.482 307.304Z" fill="#263238"/>
<path d="M380.188 303.748L383.07 309.695C383.07 309.695 388.787 310.373 391.156 311.468C393.524 312.562 402.028 319.925 402.028 319.925C401.744 320.51 401.264 320.979 400.67 321.25C400.076 321.521 399.406 321.579 398.775 321.412C396.895 320.355 395.096 319.163 393.392 317.843C392.921 317.923 392.478 318.118 392.102 318.411C391.726 318.704 391.429 319.086 391.239 319.522C391.049 319.958 390.972 320.434 391.013 320.907C391.055 321.381 391.215 321.836 391.479 322.232C393.177 324.754 395.127 327.692 395.318 328.18C395.509 328.668 399.265 330.226 402.088 331.344C402.452 331.502 402.757 331.769 402.96 332.108C403.164 332.447 403.256 332.841 403.223 333.235C403.19 333.628 403.034 334.002 402.776 334.302C402.519 334.603 402.174 334.817 401.789 334.912C401.625 334.961 401.45 334.961 401.286 334.912C401.286 334.912 402.65 337.767 397.698 336.946C397.698 336.946 394.421 339.171 391.873 337.803C391.873 337.803 387.197 338.85 385.127 338.16C383.058 337.47 374.483 325.444 374.483 325.444L367.019 312.003L380.188 303.748Z" fill="#FFBE9D"/>
<path d="M387.938 325.313C388.147 326.149 388.478 326.951 388.919 327.692C389.803 329.627 391.135 331.327 392.806 332.653C394.574 333.808 396.615 334.485 398.727 334.615C399.575 334.747 400.438 334.747 401.286 334.615C400.472 334.379 399.633 334.239 398.787 334.199C396.796 333.933 394.889 333.234 393.201 332.153C391.617 330.885 390.304 329.316 389.338 327.538C388.96 326.745 388.49 325.998 387.938 325.313Z" fill="#EB996E"/>
<path d="M385.498 328.085C385.572 328.886 385.838 329.657 386.276 330.333C386.667 331.101 387.119 331.836 387.627 332.534C388.235 333.424 389.015 334.185 389.924 334.77C390.863 335.247 391.854 335.614 392.878 335.864L395.27 336.495C396.011 336.748 396.784 336.896 397.567 336.935C396.898 336.531 396.172 336.23 395.414 336.043C394.732 335.805 393.919 335.531 393.022 335.258C392.054 334.992 391.116 334.629 390.223 334.175C389.391 333.636 388.668 332.946 388.094 332.141C387.574 331.489 387.095 330.805 386.658 330.095C385.917 328.882 385.63 328.061 385.498 328.085Z" fill="#EB996E"/>
<path d="M382.927 331.511C382.711 331.665 384.23 333.818 386.228 336.269C386.51 336.607 386.877 336.866 387.292 337.018C387.63 337.171 387.978 337.302 388.333 337.41C388.926 337.598 389.534 337.733 390.151 337.815C391.203 337.946 391.873 337.815 391.861 337.732C391.849 337.648 391.227 337.589 390.235 337.339C389.658 337.201 389.091 337.026 388.536 336.816C388.205 336.705 387.882 336.574 387.567 336.423C387.255 336.3 386.976 336.104 386.754 335.852C385.749 334.591 384.805 333.473 384.111 332.724C383.417 331.975 382.998 331.475 382.927 331.511Z" fill="#EB996E"/>
<path d="M417.924 191.257C417.783 193.232 417.487 195.193 417.038 197.122C416.79 199.092 416.39 201.04 415.842 202.95C415.758 200.953 415.939 198.953 416.381 197.003C416.641 195.029 417.16 193.098 417.924 191.257Z" fill="#263238"/>
<path d="M408.726 194.862C408.768 193.712 409.019 192.58 409.467 191.519C409.726 190.397 410.184 189.33 410.819 188.367C410.762 189.516 410.507 190.646 410.065 191.709C409.814 192.832 409.36 193.9 408.726 194.862Z" fill="#263238"/>
<path d="M401.956 191.555C402.159 190.5 402.565 189.494 403.152 188.593C403.548 187.596 404.137 186.687 404.886 185.917C404.688 186.973 404.281 187.979 403.69 188.878C403.287 189.871 402.699 190.78 401.956 191.555Z" fill="#263238"/>
<path d="M393.069 190.532C393.697 189.238 394.502 188.037 395.461 186.963C396.257 185.764 397.219 184.683 398.32 183.752C397.701 185.05 396.895 186.252 395.928 187.32C395.132 188.52 394.17 189.601 393.069 190.532Z" fill="#263238"/>
<path d="M363.682 263.21C362.995 262.766 362.332 262.286 361.697 261.771C358.479 259.525 354.609 258.392 350.681 258.547C349.887 258.643 349.088 258.687 348.289 258.678C349.045 258.344 349.855 258.151 350.681 258.107C352.692 257.911 354.722 258.101 356.661 258.666C358.598 259.235 360.406 260.172 361.984 261.426C362.656 261.911 363.232 262.516 363.682 263.21Z" fill="#263238"/>
<path d="M357.259 248.008C357.987 248.462 358.633 249.033 359.173 249.697C361.974 252.786 363.728 256.673 364.184 260.807C364.333 261.649 364.333 262.511 364.184 263.353C363.64 257.621 361.21 252.227 357.271 248.008H357.259Z" fill="#263238"/>
<path d="M384.876 300.762C384.701 300.538 384.545 300.299 384.41 300.049L383.154 297.919L378.597 289.973C374.758 283.158 369.447 273.737 363.443 263.103L363.335 262.901L363.491 262.734L368.131 257.881L392.687 232.319L400.174 224.611L402.231 222.541C402.466 222.294 402.718 222.064 402.985 221.851C402.783 222.127 402.564 222.39 402.327 222.636L400.353 224.777L392.998 232.616C386.718 239.23 378.107 248.294 368.586 258.297L363.933 263.162V262.805C369.914 273.511 375.116 282.932 378.908 289.771C380.75 293.149 382.245 295.873 383.309 297.812L384.506 299.989C384.655 300.234 384.779 300.493 384.876 300.762Z" fill="#263238"/>
<g opacity="0.3">
<path opacity="0.3" d="M373.418 252.79L381.958 258.88C383.171 258.245 384.229 257.351 385.056 256.263C391.474 247.338 396.162 237.302 398.882 226.669L373.418 252.79Z" fill="black"/>
</g>
<path d="M385.749 239.42C385.596 237.836 385.124 236.299 384.362 234.9C383.496 233.419 382.346 232.122 380.977 231.082C379.276 229.821 377.404 228.808 375.415 228.072C373.31 227.228 371.217 226.645 369.351 225.896C367.658 225.291 366.13 224.302 364.89 223.005C364.057 222.116 363.493 221.011 363.263 219.817C363.15 219.388 363.15 218.938 363.263 218.509C363.263 218.509 363.263 218.985 363.491 219.77C363.804 220.876 364.392 221.887 365.201 222.708C366.434 223.908 367.922 224.818 369.555 225.372C371.373 226.074 373.49 226.633 375.631 227.489C377.673 228.252 379.592 229.311 381.324 230.63C382.734 231.734 383.895 233.12 384.733 234.698C385.297 235.759 385.654 236.918 385.785 238.112C385.855 238.546 385.842 238.99 385.749 239.42Z" fill="#F5F5F5"/>
<path d="M424.861 244.725C424.325 244.722 423.79 244.687 423.258 244.618C421.821 244.511 420.377 244.511 418.94 244.618C417.11 244.749 414.957 245.058 412.553 245.427C409.936 245.873 407.29 246.127 404.635 246.188C401.943 246.257 399.269 245.737 396.801 244.666C394.802 243.728 393.086 242.284 391.825 240.479C390.976 239.261 390.45 237.849 390.294 236.375C390.252 235.98 390.252 235.581 390.294 235.185C390.294 234.912 390.294 234.781 390.366 234.781C390.438 234.781 390.366 235.352 390.534 236.351C390.776 237.755 391.345 239.083 392.196 240.229C393.449 241.927 395.122 243.275 397.052 244.142C399.448 245.152 402.035 245.635 404.635 245.558C407.26 245.507 409.878 245.272 412.47 244.856C414.862 244.523 417.062 244.249 418.916 244.178C420.374 244.105 421.835 244.165 423.282 244.356C423.823 244.406 424.354 244.53 424.861 244.725Z" fill="#F5F5F5"/>
<path d="M432.886 233.639C431.991 235.258 430.755 236.666 429.263 237.766C427.77 238.867 426.057 239.634 424.239 240.015C424.239 239.836 426.511 239.039 428.891 237.267C431.272 235.495 432.731 233.532 432.886 233.639Z" fill="#F5F5F5"/>
<path d="M436.295 241.656C435.05 243.649 433.418 245.374 431.493 246.731C429.569 248.087 427.391 249.047 425.088 249.555C427.156 248.557 429.158 247.429 431.08 246.176C432.917 244.785 434.659 243.275 436.295 241.656Z" fill="#F5F5F5"/>
<path d="M426.416 258.071C424.271 256.891 421.906 256.158 419.467 255.918C416.812 255.704 414.144 255.704 411.489 255.918C408.208 256.191 404.91 256.167 401.633 255.847C395.66 255.193 389.884 253.331 384.661 250.375C383.089 249.481 381.578 248.484 380.14 247.39C379.599 247.004 379.094 246.57 378.633 246.093C379.21 246.42 379.762 246.79 380.284 247.199C381.766 248.207 383.299 249.14 384.876 249.995C390.09 252.804 395.8 254.585 401.693 255.24C404.942 255.547 408.21 255.583 411.465 255.347C414.146 255.151 416.839 255.187 419.514 255.454C421.331 255.661 423.099 256.176 424.741 256.977C425.184 257.191 425.608 257.442 426.009 257.726C426.296 257.917 426.428 258.071 426.416 258.071Z" fill="#F5F5F5"/>
<path d="M380.846 243.488C380.792 243.771 380.703 244.047 380.582 244.309L380.499 244.535L380.403 244.309C379.587 242.603 378.23 241.211 376.54 240.348C375.24 239.653 373.863 239.11 372.437 238.73C370.894 238.266 369.184 237.874 367.462 237.255C363.791 235.921 360.528 233.667 357.989 230.713C357.227 229.828 356.546 228.876 355.956 227.87C355.706 227.505 355.517 227.104 355.393 226.68C355.489 226.609 356.35 228.239 358.324 230.392C360.898 233.194 364.109 235.344 367.689 236.66C369.363 237.267 371.062 237.671 372.629 238.159C374.088 238.565 375.491 239.153 376.803 239.908C378.554 240.839 379.902 242.375 380.594 244.226H380.415C380.678 243.714 380.846 243.476 380.846 243.488Z" fill="#F5F5F5"/>
<path d="M550.758 546.499C550.758 546.666 427.564 546.809 275.544 546.809C123.525 546.809 0.306091 546.666 0.306091 546.499C0.306091 546.333 123.501 546.19 275.544 546.19C427.588 546.19 550.758 546.333 550.758 546.499Z" fill="#263238"/>
</svg>
